/* XPM */
static const char *biglogo_xpm[]={
"32 32 5 1",
". c None",
"# c #000000",
"c c #d7d7d7",
"b c #eaeaea",
"a c #ffffff",
"................................",
"................................",
"................................",
"................................",
"....########################....",
"....########################....",
"....##aaaaaaaaaa############....",
"....##aaaaaaabab############....",
"....##aaaaaaaaaa############....",
"....##aaaaababab############....",
"....##aaaaaaaaaa############....",
"....##aaabababab############....",
"....##aaaaaaaaab############....",
"....##abababaabb############....",
"....##aaaaaaabbb############....",
"....##abababbbbb############....",
"....############bbbbbbbbbb##....",
"....############bbbbbbbbbb##....",
"....############bbbbbbbbcb##....",
"....############bbbbbbbbbb##....",
"....############bbbbbbcbcb##....",
"....############bbbbbbbbbb##....",
"....############bbbbcbcbcb##....",
"....############bbbbbbbbbc##....",
"....############bbcbcbcbcb##....",
"....############bbbbbbbcbc##....",
"....########################....",
"....########################....",
"................................",
"................................",
"................................",
"................................"};
