/* XPM */
static char*xbill[]={
"16 16 229 2",
".G c #648b97",
"bB c #83cbf2",
"## c #eaebcd",
"be c #4ea5d7",
".h c #89c1e4",
"aV c #5c5c6b",
"#c c #63b5e1",
"#y c #fcfcfc",
"bx c #bde5f9",
"bH c #c0e5f9",
"b# c #0965a4",
"#m c #5f7987",
"ai c #327ab2",
"aP c #0376b7",
"bG c #addcf4",
"#Y c #c9bf89",
"bE c #49b5ed",
".J c #f0fafc",
"#p c #4ab5ed",
"#K c #a69c99",
"bh c #2897d4",
"a8 c #79a5bb",
"#O c #f0f3ec",
"a6 c #b9daee",
"bw c #add6ed",
"aS c #eaf1e6",
"#H c #39ace8",
".p c #e9f4f5",
"bm c #066bac",
"#2 c #afbcc4",
".E c #e6cb76",
"aQ c #3d99cf",
"#. c #e0ba58",
"#N c #709bb3",
"#D c #40b3ed",
"#8 c #087bbc",
"aA c #1588c8",
".9 c #709178",
".K c #50a4d5",
"aB c #5eb1e1",
".A c #399cd3",
"#3 c #2e71a8",
".k c #5ab0de",
".Y c #3eaee9",
".w c #e8f3f8",
"by c #a4d9f7",
".Q c #e8f5f3",
"bz c #83cdf4",
"aK c #a4c6de",
"bA c #88cdf4",
"a4 c #2c9cd9",
"aj c #81b7dd",
"#L c #cbc7bf",
".0 c #a5cee6",
"#n c #b0a171",
"az c #178ac9",
".# c #fcfefe",
"bv c #9ed0f2",
"aZ c #87bfe5",
"#g c #c2def0",
".g c #8dc2e3",
".q c #d7e8ed",
".i c #edf6fc",
"aC c #e3eee9",
"#9 c #0578b9",
".3 c #d9eefa",
".z c #65b2df",
"a5 c #298cc4",
"#F c #aed2ed",
".S c #e6cb77",
"al c #0073b5",
"aa c #3483b9",
"a9 c #2d6497",
"ah c #349eda",
"bc c #6db1dc",
"bF c #7dcaf1",
"#d c #a8d0e7",
"ae c #e2eff2",
"a7 c #f4fcfe",
"bt c #41b3ee",
"aw c #bdddf3",
"#u c #465270",
"#e c #a5d5f1",
".5 c #beab69",
"aI c #2971a9",
"av c #87c0e3",
"#S c #62b4e0",
"#J c #ada779",
"an c #2194d2",
".n c #3ca5df",
"au c #0b65a6",
"bn c #107aba",
"aT c #b2afae",
".o c #a2d0ed",
"#B c #8cadca",
".2 c #b6e0f7",
"#h c #547d90",
"aW c #3f73a4",
"b. c #105a95",
"#b c #42b5ef",
"aR c #d1e9f1",
"aG c #185a95",
".y c #3d9fd8",
"a1 c #fdfeff",
"ax c #a3cde4",
"#o c #c6e0db",
"aN c #30a3df",
"bg c #81c7ee",
"af c #5da0ca",
"aY c #3f7fb3",
"#E c #c5e6f9",
"aX c #0f6faf",
".X c #cce9f7",
"aO c #38abe7",
"#G c #57addc",
"aD c #ecf3f4",
".x c #cce5f6",
"#t c #70c6f1",
".R c #f2f4ca",
"a. c #2699d7",
"bd c #64acd9",
".O c #3ea0d6",
"#x c #a6a6a4",
".7 c #bb9b4f",
"#q c #cce3f0",
"#v c #cacaca",
".s c #47b2ec",
"#j c #a59b82",
".L c #f0f7fb",
".c c #afd7ed",
"bu c #2da0dc",
"#5 c #1471b0",
"ag c #3bade8",
"as c #aac6cf",
"#a c #94d4f5",
"bC c #7fccf3",
".e c #d1e7f7",
"aH c #004a8c",
".v c #aed2e9",
"ap c #e6e19b",
"#r c #d8eaf5",
".u c #359fd9",
".l c #2b9bd8",
".H c #5097c0",
"ac c #b4a585",
".U c #79977c",
"ba c #0f74b4",
"#7 c #a4cde5",
"#0 c #c8be9a",
"aU c #667383",
"bk c #73b1d8",
".V c #c19a52",
".a c #f5f9fc",
".b c #edf5fb",
"aM c #b9d9ee",
"ao c #4594c8",
".4 c #d6e5d5",
"bD c #2691d0",
"#Q c #1d7bb9",
".D c #f8f7c9",
".M c #a6cfe6",
"#w c #b4b4b4",
".d c #a7cfe6",
"aF c #7a8d85",
".W c #b0c5c7",
"bI c #f5fbfd",
"a2 c #f6fbfd",
".1 c #2b98d5",
".I c #66bded",
".N c #83c5ef",
"#i c #cac9c8",
"am c #1386c5",
"#l c #fafafa",
"#U c #3791c5",
"br c #1b86c5",
"#C c #1d86c5",
"bp c #066cad",
"ar c #fcfcf5",
"bi c #1379b9",
"aq c #d8daca",
".Z c #92cae8",
"#W c #1b8ecd",
"#A c #abaabd",
".P c #84c2e6",
".8 c #9f8a5a",
"ab c #bdb07b",
".j c #fbfdfe",
".6 c #cca64b",
"ay c #2fa2de",
"#z c #6184a8",
".T c #deb552",
"#k c #a9a6a0",
".r c #5f9ccb",
"#R c #1f88c6",
"a3 c #55adde",
"#X c #8aa592",
"#1 c #a5cddb",
"#4 c #014c8e",
"ak c #2a9dda",
".t c #2d9dda",
"bb c #1a83c2",
".f c #afd3e8",
"ad c #efece6",
"#Z c #c3b8b6",
"aL c #feffff",
"Qt c #ffffff",
".B c #a2d4f1",
"aJ c #c0dff1",
"#6 c #97d0f0",
"bo c #0871b2",
"#P c #566489",
"bs c #35a4df",
"#s c #bcdbf0",
"#V c #1386c6",
".F c #b79154",
".m c #72b7e1",
"at c #114c83",
"#f c #e3f2f9",
"bq c #0e79ba",
"#M c #9b9794",
"bf c #b1dff7",
"#T c #b3d6ec",
"a# c #39ace7",
"#I c #6a85a6",
".C c #f1f8f5",
"bl c #4c95c7",
"a0 c #62aedc",
"bj c #4b9dcf",
"aE c #f0f2cc",
"Qt.#.a.b.c.d.e.f.g.h.c.iQtQtQtQt",
".j.k.l.m.n.o.p.q.r.s.t.u.v.wQtQt",
".x.y.z.A.B.C.D.E.F.G.H.I.J.K.LQt",
".M.N.O.P.Q.R.S.T.T.U.V.W.X.Y.ZQt",
".0.1.2.3.4.5.6.7.8.9#.###a#b#cQt",
"#d#e#f#g#h#i#j#k#l#m#n#o#p#b#cQt",
"#q#r#s#t#u#v#w#x#y#z#A#B#C#D#cQt",
"#E#F#G#H#I#J#K#L#M#N#O#P#Q#R#SQt",
"#T#U#V#W#b#X#Y#Z#0#1#2#3#4#5#6Qt",
"#7#8#9a.a#aaabacadaeafagahaiajQt",
".0akalamanaoapaqarasatauagavawQt",
"axayazalaAaBaCaDaEaFaGaHaIaJaKaL",
"aMaNaOaPaQaRaSaTaUaVaWaXaYaZa0a1",
"a2a3a4a5a6a7a8a9b.b#babbbcbdbebf",
"bgbhbibjbkblbmbnbobpbqbrbsbtbubv",
".jbwbxbybzbAbBbCbDbEbFbGbxbHbIa1"};
