/* XPM */
static char *dying[]={
"176 16 2 1",
". c None",
"# c #ffff00",
"................................................................................................................................................................................",
"................................................................................................................................................................................",
"................................................................................................................................................................................",
"..##.........##.................................................................................................................................................................",
"..###.......###...#...........#.................................................................................................................................................",
"..####.....####..####.......####................................................................................................................................................",
"..#####...#####..#####.....#####.###.........###......................................................................................................................#...#.....",
"..######.######..#######.#######.######...######.####.......####....................................................................................................#..#.#......",
"...###########....#############..###############.###############.....#######...........###..............#...............#...............#...............#............#......#...",
"...###########....#############...#############..###############.###############.....#######...........###.............###..............#...............#..................#....",
"....#########......###########.....###########....#############..###############..#############......#######..........#####............###..............#..........##...........",
"......#####..........###.###.........###.###........####.####.....#############..###############....#########.........#####............###..............#...................##..",
"....................................................................####.####.....######.######...#############......#######...........###..............#............#..........",
"....................................................................................###...###.....######.######.....#########.........#####.............#...........#......#....",
"...................................................................................................####...####.......###.###...........#.#.............................#.#..#...",
"......................................................................................................................................................................#...#....."};
