/* XPM */
static char * eyes_xpm[] = {
"64 16 3 1",
" 	c None",
"b	c #2020d8",
"w	c #dedede",
"                                                                ",
"                                                                ",
"    bb    bb                                                    ",
"   wbbw  wbbw                                                   ",
"   wwww  wwww        ww    ww                      ww    ww     ",
"   wwww  wwww       wwww  wwww      ww    ww      wwww  wwww    ",
"    ww    ww        wwbb  wwbb     wwww  wwww     bbww  bbww    ",
"                    wwbb  wwbb     wwww  wwww     bbww  bbww    ",
"                     ww    ww      wbbw  wbbw      ww    ww     ",
"                                    bb    bb                    ",
"                                                                ",
"                                                                ",
"                                                                ",
"                                                                ",
"                                                                ",
"                                                                "};
