/* XPM */
static char * fruit_small_xpm[] = {
/* width height num_colors chars_per_pixel */
"208 16 10 1",
/* colors */
" 	s None	c None",
"x	c #000000",
"r	c #ff0000",
"n      c #de9541",
"u      c #41bade",
"o      c #ffba41",
"y	c #ffff00",
"b	c #2020de",
"g      c #00ff00",
"w      c #dedede",
/* pixels */
"                                                                                                                                                                                                                ",
"                                                                                                     e               e                                                                                          ",
"            nn         w                 gg              gg             n               n             eeeee           eeeee                                            yy              yy              bbb      ",
"          nnnn      gggwggg            nggggg          nggggg      rrr n rrr       rrr n rrr            e               e               r               r            yyxxyy          yyxxyy          bb   bb    ",
"        nn n       rrgggggrr           n ggg           n ggg      rrrrrnrrrrr     rrrrrnrrrrr          gbg             gbg         b   rrr   b     b   rrr   b      yyyyyyyy        yyyyyyyy         bbbbbbb    ",
"       n   n      rrrrrgrrrwr       oonnnooo        oonnnooo      rrrrrrrrrrrr    rrrrrrrrrrrr       gggyggg         gggyggg       b  rrrrr  b     b  rrrrr  b      yyxyyyyy        yyxyyyyy         bbbbbbb    ",
"   rrrn   n       rwrrrrrwrrr      oooonooooo      oooonooooo     rrrrrrrrrrrr    rrrrrrrrrrrr      gybygggyg       gybygggyg      byrryryrryb     byrryryrryb      yxyyyyyy        yxyyyyyy         bbbbbbb    ",
"  rrrnrr n        rrrwrwrrrrr     oooooooooooo    oooooooooooo    rrrrrrrrrrrr    rrrrrrrrrrrr      ggyggbygg       ggyggbygg      byyyyryyyyb     byyyyryyyyb     yyxyyyyyyy      yyxyyyyyyy          y y      ",
"  rrrrr rnrr      rrrrrrrrwrr     oooooooooooo    oooooooooooo    rrrrrrrrrwrr    rrrrrrrrrwrr     gbygggygygg     gbygggygygg     bbyyyyyyybb     bbyyyyyyybb     yyxyyyyyyy      yyxyyyyyyy          y yy     ",
"  rwrr rrnrrr      rwrrwrrrr      oooooooooooo    oooooooooooo    rrrrrrrrrwrr    rrrrrrrrrwrr     gyggbyggbyg     gyggbyggbyg      bby y ybb       bby y ybb      yyyyyyyyyy      yyyyyyyyyy          y y      ",
"  rrwr rrrrrr      rrrrrrrrr      oooooooooooo    oooooooooooo     rrrrrrrwrr      rrrrrrrwrr      gbygggygggg     gbygggygggg       bb y bb         bb y bb      yyxyyyyyyyyy    yyxyyyyyyyyy         y        ",
"   rrr rwrrrr       rrwrrw         oooooooooo      oooooooooo      rrrrrrrrrr      rrrrrrrrrr       ggybybygg       ggybybygg         b y b           b y b       yyxyyyyyyyyy    yyxyyyyyyyyy         y y      ",
"       rrwrrr        rrrrr         oooooooooo      oooooooooo       rrrrrrrr        rrrrrrrr        gggygggyg       gggygggyg           y               y         yyyyyyyyyyyy    yyyyyyyyyyyy         y yy     ",
"        rrrr           r             oooooo          oooooo          rr rrr          rr rrr          gygggyg         gygggyg            y               y         yeeeeewweeey    yeeeeewweeey         y y      ",
"                                                                                                       ggy             ggy                                         eeeeewweee      eeeeewweee           y       ",
"                                                                                                                                                                                                                "};
