/* XPM */
static char * lifes_xpm[] = {
"16 16 2 1",
" 	s None  c None",
"y	c #ffff00",
"                ",
"                ",
"     yyyyy      ",
"    yyyyyyy     ",
"   yyyyyyyyy    ",
"     yyyyyyyy   ",
"       yyyyyy   ",
"         yyyy   ",
"       yyyyyy   ",
"     yyyyyyyy   ",
"   yyyyyyyyy    ",
"    yyyyyyy     ",
"     yyyyy      ",
"                ",
"                ",
"                "};
