/* XPM */
static char * monster_xpm[] = {
"320 16 8 1",
/* colors */
" 	s None	c None",
"r	c #ff0000",
"p      c #ffbade",
"c      c #00ffde",
"o      c #ffba41",
"b	c #2020de",
"f      c #ffba94",
"w      c #dedede",
"                                                                                                                                                                                                                                                                                                                                ",
"      rrrr            rrrr            pppp            pppp            cccc            cccc            oooo            oooo            rrrr            rrrr            rrrr            rrrr            rrrr            rrrr            rrrr            rrrr            bbbb            bbbb            wwww            wwww      ",
"    rrrrrrrr        rrrrrrrr        pppppppp        pppppppp        cccccccc        cccccccc        oooooooo        oooooooo        rrrrrrrr        rrrrrrrr        rrrrrrrr        rrrrrrrr        rrrrrrrr        rrrrrrrr        rrrrrrrr        rrrrrrrr        bbbbbbbb        bbbbbbbb        wwwwwwww        wwwwwwww    ",
"   rrrrrrrrrr      rrrrrrrrrr      pppppppppp      pppppppppp      cccccccccc      cccccccccc      oooooooooo      oooooooooo      rrrrrrrrrr      rrrrrrrrrr      rrrrrrrrrr      rrrrrrrrrr      rrrrrrrrrr      rrrrrrrrrr      rrrrrrrrrr      rrrrrrrrrr      bbbbbbbbbb      bbbbbbbbbb      wwwwwwwwww      wwwwwwwwww   ",
"  rrrrrrrrrrrr    rrrrrrrrrrrr    pppppppppppp    pppppppppppp    cccccccccccc    cccccccccccc    oooooooooooo    oooooooooooo    rrrrrrrrrrrr    rrrrrrrrrrrr    rrrrrrrrrrrr    rrrrrrrrrrrr    rrrrrrrrrrrr    rrrrrrrrrrrr    rrrrrrrrrrrr    rrrrrrrrrrrr    bbbbbbbbbbbb    bbbbbbbbbbbb    wwwwwwwwwwww    wwwwwwwwwwww  ",
"  rrrrrrrrrrrr    rrrrrrrrrrrr    pppppppppppp    pppppppppppp    cccccccccccc    cccccccccccc    oooooooooooo    oooooooooooo    rrrrrrrrrrrr    rrrrrrrrrrrr    rrrrrrrrrrrr    rrrrrrrrrrrr    rrrrrrrrrrrr    rrrrrrrrrrrr    rrrrrrrrrrrr    rrrrrrrrrrrr    bbbbbbbbbbbb    bbbbbbbbbbbb    wwwwwwwwwwww    wwwwwwwwwwww  ",
"  rrrrrrrrrrrr    rrrrrrrrrrrr    pppppppppppp    pppppppppppp    cccccccccccc    cccccccccccc    oooooooooooo    oooooooooooo    rrrrrrrrrrrr    rrrrrrrrrrrr    rrrrrrrrrrrr    rrrrrrrrrrrr    rrrrrrrrrrrr    rrrrrrrrrrrr    rrrrrrrrrrrr    rrrrrrrrrrrr    bbbffbbffbbb    bbbffbbffbbb    wwwrrwwrrwww    wwwrrwwrrwww  ",
" rrrrrrrrrrrrrr  rrrrrrrrrrrrrr  pppppppppppppp  pppppppppppppp  cccccccccccccc  cccccccccccccc  oooooooooooooo  oooooooooooooo  rrrrrrrrrrrrrr  rrrrrrrrrrrrrr  rrrrrrrrrrrrrr  rrrrrrrrrrrrrr  rrrrrrrrrrrrrr  rrrrrrrrrrrrrr  rrrrrrrrrrrrrr  rrrrrrrrrrrrrr  bbbbffbbffbbbb  bbbbffbbffbbbb  wwwwrrwwrrwwww  wwwwrrwwrrwwww ",
" rrrrrrrrrrrrrr  rrrrrrrrrrrrrr  pppppppppppppp  pppppppppppppp  cccccccccccccc  cccccccccccccc  oooooooooooooo  oooooooooooooo  rrrrrrrrrrrrrr  rrrrrrrrrrrrrr  rrrrrrrrrrrrrr  rrrrrrrrrrrrrr  rrrrrrrrrrrrrr  rrrrrrrrrrrrrr  rrrrrrrrrrrrrr  rrrrrrrrrrrrrr  bbbbbbbbbbbbbb  bbbbbbbbbbbbbb  wwwwwwwwwwwwww  wwwwwwwwwwwwww ",
" rrrrrrrrrrrrrr  rrrrrrrrrrrrrr  pppppppppppppp  pppppppppppppp  cccccccccccccc  cccccccccccccc  oooooooooooooo  oooooooooooooo  rrrrrrrrrrrrrr  rrrrrrrrrrrrrr  rrrrrrrrrrrrrr  rrrrrrrrrrrrrr  rrrrrrrrrrrrrr  rrrrrrrrrrrrrr  rrrrrrrrrrrrrr  rrrrrrrrrrrrrr  bbbbbbbbbbbbbb  bbbbbbbbbbbbbb  wwwwwwwwwwwwww  wwwwwwwwwwwwww ",
" rrrrrrrrrrrrrr  rrrrrrrrrrrrrr  pppppppppppppp  pppppppppppppp  cccccccccccccc  cccccccccccccc  oooooooooooooo  oooooooooooooo  rrrrrrrrrrrrrr  rrrrrrrrrrrrrr  rrrrrrrrrrrrrr  rrrrrrrrrrrrrr  rrrrrrrrrrrrrr  rrrrrrrrrrrrrr  rrrrrrrrrrrrrr  rrrrrrrrrrrrrr  bbffbbffbbffbb  bbffbbffbbffbb  wwrrwwrrwwrrww  wwrrwwrrwwrrww ",
" rrrrrrrrrrrrrr  rrrrrrrrrrrrrr  pppppppppppppp  pppppppppppppp  cccccccccccccc  cccccccccccccc  oooooooooooooo  oooooooooooooo  rrrrrrrrrrrrrr  rrrrrrrrrrrrrr  rrrrrrrrrrrrrr  rrrrrrrrrrrrrr  rrrrrrrrrrrrrr  rrrrrrrrrrrrrr  rrrrrrrrrrrrrr  rrrrrrrrrrrrrr  bfbbffbbffbbfb  bfbbffbbffbbfb  wrwwrrwwrrwwrw  wrwwrrwwrrwwrw ",
" rrrrrrrrrrrrrr  rrrrrrrrrrrrrr  pppppppppppppp  pppppppppppppp  cccccccccccccc  cccccccccccccc  oooooooooooooo  oooooooooooooo  rrrrrrrrrrrrrr  rrrrrrrrrrrrrr  rrrrrrrrrrrrrr  rrrrrrrrrrrrrr  rrrrrrrrrrrrrr  rrrrrrrrrrrrrr  rrrrrrrrrrrrrr  rrrrrrrrrrrrrr  bbbbbbbbbbbbbb  bbbbbbbbbbbbbb  wwwwwwwwwwwwww  wwwwwwwwwwwwww ",
" rr rrr  rrr rr  rrrr rrrr rrrr  pp ppp  ppp pp  pppp pppp pppp  cc ccc  ccc cc  cccc cccc cccc  oo ooo  ooo oo  oooo oooo oooo  rr rrr  rrr rr  rrrr rrrr rrrr  rr rrr  rrr rr  rrrr rrrr rrrr  rr rrr  rrr rr  rrrr rrrr rrrr  rr rrr  rrr rr  rrrr rrrr rrrr  bb bbb  bbb bb  bbbb bbbb bbbb  ww www  www ww  wwww wwww wwww ",
" r   rr  rr   r   rr   rr   rr   p   pp  pp   p   pp   pp   pp   c   cc  cc   c   cc   cc   cc   o   oo  oo   o   oo   oo   oo   r   rr  rr   r   rr   rr   rr   r   rr  rr   r   rr   rr   rr   r   rr  rr   r   rr   rr   rr   r   rr  rr   r   rr   rr   rr   b   bb  bb   b   bb   bb   bb   w   ww  ww   w   ww   ww   ww  ",
"                                                                                                                                                                                                                                                                                                                                "};
