/* XPM */
static char * switch_xpm[] = {
"16 8 2 1",
" 	s None	c None",
"f	c #ffba94",
"  ffff          ",
" ffffff         ",
"ffffffff        ",
"ffffffff        ",
"ffffffff        ",
"ffffffff        ",
" ffffff         ",
"  ffff          "};
