/* XPM */
static char * icon_xpm[] = {
"26 13 2 1",
" 	c None",
".	c #000000",
" ... ... ... ... ... ...  ",
".   .   .   .   .   .   . ",
".   .   .   .   .   .   . ",
".   .   .   .   .   .   . ",
" ....... ... ... .......  ",
".       .   .   .       . ",
".       .   .   .       . ",
".       .   .   .       . ",
" ....... ... ... .......  ",
".   .   .   .   .   .   . ",
".   .   .   .   .   .   . ",
".   .   .   .   .   .   . ",
" ... ... ... ... ... ...  "};
