/* XPM */
static char * down_xpm[] = {
"14 16 30 1",
" 	c None",
".	c #000000",
"+	c #3FEADF",
"@	c #37DCBA",
"#	c #0F9900",
"$	c #27C270",
"%	c #17A625",
"&	c #FFFF00",
"*	c #2AC67C",
"=	c #E6E600",
"-	c #F4F400",
";	c #33D6A7",
">	c #CCCC00",
",	c #DDDD00",
"'	c #1FB44A",
")	c #37DDBA",
"!	c #3AE1C6",
"~	c #2BC882",
"{	c #FF5A5A",
"]	c #FF0000",
"^	c #707070",
"/	c #FF5D5D",
"(	c #FF5151",
"_	c #AAAAAA",
":	c #999999",
"<	c #5E5E5E",
"[	c #7E7E7E",
"}	c #B2B2B2",
"|	c #64645E",
"1	c #BCBCBC",
"              ",
"   ....       ",
"  .++++.      ",
" .@#$+%@. ..& ",
".+*#$+%#+.=-. ",
".+#%;+%#+&>,&.",
".+#'+*..+&>...",
".+)!~.{{...{].",
"^.++$./]].(]].",
"_^.+$#.]](]].:",
" :<.&&..]]].[ ",
"}:.=>>.(]]]]. ",
"}<.-,.(]].]]].",
"}:|.&.]].:.]].",
" 1:<<<..:.:..1",
"  1111111 111 "};
