/* XPM */
static char * up_xpm[] = {
"14 16 33 1",
" 	c None",
".	c #000000",
"+	c #3FEADF",
"@	c #37DCBA",
"#	c #0F9900",
"$	c #27C270",
"%	c #17A625",
"&	c #FFFF00",
"*	c #2AC67C",
"=	c #E6E600",
"-	c #F4F400",
";	c #33D6A7",
">	c #CCCC00",
",	c #DDDD00",
"'	c #1FB44A",
")	c #2CCB88",
"!	c #2FCF95",
"~	c #37DDBA",
"{	c #3AE1C6",
"]	c #2BC882",
"^	c #129D0C",
"/	c #16A41F",
"(	c #F0F000",
"_	c #F9F900",
":	c #5E5E5E",
"<	c #707070",
"[	c #878700",
"}	c #999999",
"|	c #AAAAAA",
"1	c #999900",
"2	c #BCBCBC",
"3	c #B2B2B2",
"4	c #64645E",
"              ",
"   ....       ",
"  .++++.      ",
" .@#$+%@. ..& ",
".+*#$+%#+.=-. ",
".+#%;+%#+&>,&.",
".+#'+*)!+&>,&.",
".+~{]^/++.(_.:",
"<.++$##+.[&&.}",
"|<.+$#~.1&&.:}",
" }:.&&.[&&.:}2",
"3}.=>>(&&.:}2 ",
"3:.-,,_&.:}2  ",
"3}4.&&..:}2   ",
" 2}:..::}2    ",
"  2222222     "};
