/* XPM */
static char * can0010_xpm[] = {
"40 32 230 2",
"  	c None",
". 	c #677F57",
"+ 	c #556B48",
"@ 	c #6D885D",
"# 	c #607852",
"$ 	c #516644",
"% 	c #435437",
"& 	c #647D55",
"* 	c #576E49",
"= 	c #485C3C",
"- 	c #3D4D33",
"; 	c #688158",
"> 	c #5B734D",
", 	c #4C6140",
"' 	c #3E5034",
") 	c #34432C",
"! 	c #617952",
"~ 	c #526845",
"{ 	c #425337",
"] 	c #35422D",
"^ 	c #667E56",
"/ 	c #586E4A",
"( 	c #475A3C",
"_ 	c #38462F",
": 	c #2E3A27",
"< 	c #617853",
"[ 	c #4E6243",
"} 	c #3C4C34",
"| 	c #303C29",
"1 	c #2A3525",
"2 	c #6E875E",
"3 	c #5D734F",
"4 	c #47583C",
"5 	c #34412C",
"6 	c #2A3425",
"7 	c #69825A",
"8 	c #556A48",
"9 	c #3F4E35",
"0 	c #2E3927",
"a 	c #273022",
"b 	c #748E63",
"c 	c #627A54",
"d 	c #495B3D",
"e 	c #38452F",
"f 	c #293324",
"g 	c #738C62",
"h 	c #556C49",
"i 	c #323C2B",
"j 	c #222321",
"k 	c #343731",
"l 	c #4C5543",
"m 	c #647955",
"n 	c #485A3C",
"o 	c #36422E",
"p 	c #30372A",
"q 	c #2B3126",
"r 	c #232422",
"s 	c #252624",
"t 	c #3C4337",
"u 	c #3F4939",
"v 	c #3C4832",
"w 	c #394831",
"x 	c #2E3827",
"y 	c #2B3028",
"z 	c #262725",
"A 	c #3A4136",
"B 	c #394035",
"C 	c #374031",
"D 	c #2F3929",
"E 	c #232B1F",
"F 	c #20251D",
"G 	c #2B2D2A",
"H 	c #2E312D",
"I 	c #363B33",
"J 	c #363B34",
"K 	c #2C2F2B",
"L 	c #222520",
"M 	c #1C2019",
"N 	c #191B16",
"O 	c #131511",
"P 	c #252724",
"Q 	c #2D322B",
"R 	c #373E32",
"S 	c #3D4537",
"T 	c #3B4636",
"U 	c #353E30",
"V 	c #2D3528",
"W 	c #242920",
"X 	c #171A15",
"Y 	c #0C0E0B",
"Z 	c #212220",
"` 	c #232620",
" .	c #2E3729",
"..	c #3E4A35",
"+.	c #46563C",
"@.	c #495A3E",
"#.	c #4A5D3F",
"$.	c #495D3E",
"%.	c #44543A",
"&.	c #36412F",
"*.	c #1F261C",
"=.	c #141612",
"-.	c #242523",
";.	c #222421",
">.	c #232920",
",.	c #323E2A",
"'.	c #435438",
").	c #46583A",
"!.	c #475A3B",
"~.	c #4B603D",
"{.	c #4D6140",
"].	c #435339",
"^.	c #283022",
"/.	c #10140E",
"(.	c #090E07",
"_.	c #292B28",
":.	c #252824",
"<.	c #272E23",
"[.	c #38462E",
"}.	c #445638",
"|.	c #324029",
"1.	c #303E27",
"2.	c #3C4D31",
"3.	c #4A5E3C",
"4.	c #46573A",
"5.	c #2D3627",
"6.	c #171C15",
"7.	c #25301E",
"8.	c #262E22",
"9.	c #292928",
"0.	c #292A27",
"a.	c #252923",
"b.	c #2A3325",
"c.	c #3B4B31",
"d.	c #425537",
"e.	c #35442C",
"f.	c #222C1C",
"g.	c #1E2719",
"h.	c #2E3D28",
"i.	c #435638",
"j.	c #445539",
"k.	c #2E3828",
"l.	c #191E17",
"m.	c #151B13",
"n.	c #3C4E32",
"o.	c #516843",
"p.	c #292B27",
"q.	c #292D28",
"r.	c #252A24",
"s.	c #3D4E33",
"t.	c #37462E",
"u.	c #273120",
"v.	c #252F1F",
"w.	c #34432B",
"x.	c #445839",
"y.	c #435538",
"z.	c #2E3928",
"A.	c #191D17",
"B.	c #171C14",
"C.	c #20271C",
"D.	c #4E6440",
"E.	c #2B2F26",
"F.	c #30322E",
"G.	c #32372E",
"H.	c #30352C",
"I.	c #2A3027",
"J.	c #2E3929",
"K.	c #3D4E34",
"L.	c #465A3A",
"M.	c #415436",
"N.	c #39492F",
"O.	c #3A4A30",
"P.	c #4A5E3D",
"Q.	c #425336",
"R.	c #2A3424",
"S.	c #171A14",
"T.	c #181E15",
"U.	c #222A1D",
"V.	c #262F21",
"W.	c #3C4336",
"X.	c #48533F",
"Y.	c #3C4636",
"Z.	c #2F372A",
"`.	c #3A4931",
" +	c #46593B",
".+	c #495D3D",
"++	c #485B3D",
"@+	c #4B603F",
"#+	c #485B3C",
"$+	c #38452E",
"%+	c #20271B",
"&+	c #242D1F",
"*+	c #252723",
"=+	c #45503D",
"-+	c #4F5E45",
";+	c #414E39",
">+	c #30382A",
",+	c #2B3225",
"'+	c #35402E",
")+	c #414F38",
"!+	c #47573D",
"~+	c #47563D",
"{+	c #46563D",
"]+	c #3E4B35",
"^+	c #293024",
"/+	c #141713",
"(+	c #151613",
"_+	c #272925",
":+	c #3A4235",
"<+	c #536348",
"[+	c #5E7350",
"}+	c #45543B",
"|+	c #2C3725",
"1+	c #1A1E18",
"2+	c #262B23",
"3+	c #3A4234",
"4+	c #3F4739",
"5+	c #3B4436",
"6+	c #394234",
"7+	c #353D31",
"8+	c #2C3129",
"9+	c #1D201B",
"0+	c #151614",
"a+	c #6E865E",
"b+	c #5D724F",
"c+	c #363933",
"d+	c #373B35",
"e+	c #373B34",
"f+	c #343932",
"g+	c #2D302A",
"                                                                                ",
"                                                                                ",
"                                                                                ",
"                                                                                ",
"                                                                                ",
"                                                                                ",
"                                                      . +                       ",
"                                                    @ # $ %                     ",
"                                                    & * = -                     ",
"                                                  ; > , ' )                     ",
"                                                  ! ~ { ]                       ",
"                                                ^ / ( _ :                       ",
"                                                < [ } | 1                       ",
"                                              2 3 4 5 6                         ",
"                                              7 8 9 0 a                         ",
"                                            b c d e f                           ",
"                                            g h - i a                           ",
"                                  j     k l m n o p q                           ",
"                                j j r s t u v w x q y                           ",
"                                j r z z A B C D E F                             ",
"                                r s G H I J K L M N O                           ",
"                              r r P Q R S u T U V W X Y                         ",
"                              j Z `  ...+.@.#.$.%.&.*.=.                        ",
"                            -.-.;.>.,.'.n ).!.~.{.].^./.(.                      ",
"                          r z _.:.<.[.}.' |.1.2.3.4.5.6.7.                      ",
"                    a 8.9.r 0.G a.b.c.d.e.f.g.h.i.j.k.l.m.n.                    ",
"                o.a a j j   p.q.r.5.s.i.t.u.v.w.x.y.z.A.B.C.D.                  ",
"              o.a a j j E.F.G.H.I.J.K.L.M.N.O.i.P.Q.R.S.T.U.V.o.                ",
"            o.a     j a   W.X.Y.Z.k.`. +.+!.++@+#+$+%+O   &+V.a o.              ",
"        o.o.o.a     j *+  =+-+;+>+,+'+)+!+!+~+{+]+^+/+(+    a a a o.o.          ",
"        a a a a       _+:+<+[+}+|+1+2+3+4+5+6+7+8+9+0+        a a a a           ",
"                          a+b+        c+d+e+f+g+                                "};
