/* XPM */
static char * can0011_xpm[] = {
"40 32 236 2",
"  	c None",
". 	c #728C61",
"+ 	c #627A53",
"@ 	c #688259",
"# 	c #59704B",
"$ 	c #4A5D3D",
"% 	c #678158",
"& 	c #5B734D",
"* 	c #4D6240",
"= 	c #415236",
"- 	c #698259",
"; 	c #5C744D",
"> 	c #4E6341",
", 	c #405336",
"' 	c #36452D",
") 	c #5E764F",
"! 	c #506543",
"~ 	c #35432D",
"{ 	c #627953",
"] 	c #526745",
"^ 	c #425338",
"/ 	c #35422C",
"( 	c #2D3826",
"_ 	c #6D865D",
": 	c #5A704D",
"< 	c #44563A",
"[ 	c #34412D",
"} 	c #2C3726",
"| 	c #738E63",
"1 	c #657D56",
"2 	c #4F6243",
"3 	c #38462F",
"4 	c #2B3525",
"5 	c #273022",
"6 	c #799467",
"7 	c #6C865D",
"8 	c #556947",
"9 	c #415136",
"0 	c #2F3A28",
"a 	c #262F21",
"b 	c #789166",
"c 	c #5C744F",
"d 	c #415336",
"e 	c #36422E",
"f 	c #283123",
"g 	c #222321",
"h 	c #232422",
"i 	c #272825",
"j 	c #2F312D",
"k 	c #474E3F",
"l 	c #647955",
"m 	c #4A5D3E",
"n 	c #394630",
"o 	c #31392A",
"p 	c #272F22",
"q 	c #242524",
"r 	c #242523",
"s 	c #46503E",
"t 	c #3D4737",
"u 	c #3B4731",
"v 	c #3B4B32",
"w 	c #2F3928",
"x 	c #2E3429",
"y 	c #272826",
"z 	c #2C2D2C",
"A 	c #282927",
"B 	c #3F483B",
"C 	c #343930",
"D 	c #384331",
"E 	c #2E3927",
"F 	c #242C1F",
"G 	c #282D24",
"H 	c #282A27",
"I 	c #323630",
"J 	c #343731",
"K 	c #393E36",
"L 	c #323631",
"M 	c #252724",
"N 	c #1A1D18",
"O 	c #171A14",
"P 	c #181B16",
"Q 	c #212220",
"R 	c #20221E",
"S 	c #282E25",
"T 	c #374131",
"U 	c #404B39",
"V 	c #424D3B",
"W 	c #3F4B39",
"X 	c #374032",
"Y 	c #2A3026",
"Z 	c #1F221B",
"` 	c #131512",
" .	c #252624",
"..	c #222421",
"+.	c #21261F",
"@.	c #2E3827",
"#.	c #404F36",
"$.	c #495B3E",
"%.	c #4B5E3F",
"&.	c #4B5F40",
"*.	c #4A5E3F",
"=.	c #45543B",
"-.	c #343E2E",
";.	c #1D221A",
">.	c #141613",
",.	c #2A2C29",
"'.	c #252824",
").	c #272D23",
"!.	c #37452D",
"~.	c #455839",
"{.	c #475A3B",
"].	c #445638",
"^.	c #46593A",
"/.	c #4C613E",
"(.	c #4D6140",
"_.	c #415038",
":.	c #252D21",
"<.	c #0F120D",
"[.	c #2B2D29",
"}.	c #2B2E2A",
"|.	c #242822",
"1.	c #3E4F33",
"2.	c #445738",
"3.	c #37472E",
"4.	c #2B3723",
"5.	c #2E3C26",
"6.	c #3F5133",
"7.	c #4D623F",
"8.	c #46573A",
"9.	c #293123",
"0.	c #131810",
"a.	c #2A3722",
"b.	c #262E23",
"c.	c #2A2B2A",
"d.	c #262724",
"e.	c #2B2E29",
"f.	c #282C27",
"g.	c #242922",
"h.	c #313D2A",
"i.	c #435738",
"j.	c #415436",
"k.	c #2B3724",
"l.	c #192015",
"m.	c #1D2719",
"n.	c #35452D",
"o.	c #485C3C",
"p.	c #435339",
"q.	c #282F23",
"r.	c #131711",
"s.	c #161C13",
"t.	c #435737",
"u.	c #516843",
"v.	c #282A25",
"w.	c #3A4134",
"x.	c #373D32",
"y.	c #2D322A",
"z.	c #272F24",
"A.	c #36442E",
"B.	c #465A3A",
"C.	c #435638",
"D.	c #313F29",
"E.	c #232C1D",
"F.	c #283422",
"G.	c #3C4E32",
"H.	c #495D3D",
"I.	c #3F4F35",
"J.	c #232B20",
"K.	c #111410",
"L.	c #171D14",
"M.	c #222A1E",
"N.	c #4F6641",
"O.	c #232421",
"P.	c #2A2D27",
"Q.	c #46513C",
"R.	c #4E5C45",
"S.	c #46523E",
"T.	c #323A2D",
"U.	c #2A3225",
"V.	c #495E3C",
"W.	c #3B4C31",
"X.	c #3F5135",
"Y.	c #495D3C",
"Z.	c #4B603E",
"`.	c #3B4932",
" +	c #1E241B",
".+	c #121411",
"++	c #1C2218",
"@+	c #242D20",
"#+	c #3C4A34",
"$+	c #68805A",
"%+	c #586A4C",
"&+	c #49583F",
"*+	c #313A2B",
"=+	c #293024",
"-+	c #333E2C",
";+	c #4A5E3E",
">+	c #4B603F",
",+	c #4C613F",
"'+	c #435537",
")+	c #2C3624",
"!+	c #151912",
"~+	c #131511",
"{+	c #292D27",
"]+	c #404A39",
"^+	c #6F875E",
"/+	c #506044",
"(+	c #384231",
"_+	c #2F342C",
":+	c #30372C",
"<+	c #3C4535",
"[+	c #44503C",
"}+	c #46543D",
"|+	c #46553D",
"1+	c #46563D",
"2+	c #435139",
"3+	c #313A2A",
"4+	c #191D16",
"5+	c #10110E",
"6+	c #161715",
"7+	c #3B4435",
"8+	c #4C5A42",
"9+	c #414E39",
"0+	c #1B1E1A",
"a+	c #2C2F2A",
"b+	c #3A3F37",
"c+	c #3B4237",
"d+	c #363D32",
"e+	c #343B30",
"f+	c #2D3429",
"g+	c #1C1F19",
"h+	c #10110F",
"i+	c #171816",
"j+	c #343532",
"k+	c #343732",
"l+	c #323530",
"m+	c #2B2E28",
"                                                                                ",
"                                                                                ",
"                                                                                ",
"                                                                                ",
"                                                                                ",
"                                                                                ",
"                                                                                ",
"                                                          . +                   ",
"                                                          @ # $                 ",
"                                                        % & * =                 ",
"                                                      - ; > , '                 ",
"                                                    - ) ! = ~                   ",
"                                                    { ] ^ / (                   ",
"                                                  _ : < [ }                     ",
"                                                | 1 2 3 4 5                     ",
"                                              6 7 8 9 0 a                       ",
"                                              b c d e f                         ",
"                                  g g h i j k l m n o p                         ",
"                                  g h q r s t u v w x                           ",
"                                  h y z A B C D E F G                           ",
"                                h h H I J K L M N O P                           ",
"                              g Q R S T U V W X Y Z `                           ",
"                          g r  ...+.@.#.$.%.&.*.=.-.;.>.                        ",
"                          h A ,.'.).!.~.{.].^./.(._.:.<.                        ",
"                          r [.}.|.4 1.2.3.4.5.6.7.8.9.0.a.                      ",
"                    5 b.c.d.e.f.g.h.i.j.k.l.m.n.o.p.q.r.s.t.                    ",
"                u.5 5 h v.w.x.y.z.A.B.C.D.E.F.G.H.I.J.K.L.M.N.                  ",
"              u.5 5 O.P.Q.R.S.T.U.A.{.V.j.W.X.Y.Z.`. +.+++@+a u.                ",
"            u.5     '.#+$+%+&+*+=+-+^ %.;+m >+,+'+)+!+~+  a 5 5 u.              ",
"        u.u.u.5     {+]+^+/+(+_+  :+<+[+}+|+1+2+3+4+5+6+    5 5 5 u.u.          ",
"        5 5 5 5       7+8+9+      0+a+b+c+d+e+f+g+h+i+        5 5 5 5           ",
"                                      j+k+l+m+                                  "};
