/* XPM */
static char * can0012_xpm[] = {
"40 32 230 2",
"  	c None",
". 	c #799467",
"+ 	c #688158",
"@ 	c #556B46",
"# 	c #445638",
"$ 	c #718B61",
"% 	c #688259",
"& 	c #58704A",
"* 	c #4C613F",
"= 	c #3D4D33",
"- 	c #668056",
"; 	c #4B603E",
"> 	c #3C4D32",
", 	c #323F2B",
"' 	c #678057",
") 	c #5A714B",
"! 	c #4A5F3E",
"~ 	c #3B4C32",
"{ 	c #323F2A",
"] 	c #698159",
"^ 	c #5A714C",
"/ 	c #4B5E3F",
"( 	c #3B4A31",
"_ 	c #2F3B28",
": 	c #738D62",
"< 	c #627953",
"[ 	c #4C5F40",
"} 	c #394831",
"| 	c #2E3A28",
"1 	c #2A3424",
"2 	c #779266",
"3 	c #6B845B",
"4 	c #566B49",
"5 	c #3D4C33",
"6 	c #2D3827",
"7 	c #283123",
"8 	c #7B9669",
"9 	c #708A60",
"0 	c #5A6F4B",
"a 	c #455639",
"b 	c #313D2A",
"c 	c #273022",
"d 	c #222321",
"e 	c #799367",
"f 	c #5F7751",
"g 	c #435537",
"h 	c #38452F",
"i 	c #293223",
"j 	c #232C1F",
"k 	c #232422",
"l 	c #262725",
"m 	c #2E302C",
"n 	c #454C3E",
"o 	c #647955",
"p 	c #3A4831",
"q 	c #313A2A",
"r 	c #262E21",
"s 	c #252625",
"t 	c #242523",
"u 	c #4A5642",
"v 	c #3C4536",
"w 	c #3B4731",
"x 	c #3C4C33",
"y 	c #2F3928",
"z 	c #2E342A",
"A 	c #292A28",
"B 	c #414A3C",
"C 	c #31362E",
"D 	c #394431",
"E 	c #2E3927",
"F 	c #242C1F",
"G 	c #2B3027",
"H 	c #292C28",
"I 	c #353A32",
"J 	c #363A33",
"K 	c #393E36",
"L 	c #313430",
"M 	c #222421",
"N 	c #171A15",
"O 	c #161A13",
"P 	c #1B1E18",
"Q 	c #20211F",
"R 	c #1E211C",
"S 	c #2B3226",
"T 	c #3C4835",
"U 	c #43503B",
"V 	c #434F3C",
"W 	c #3F4B39",
"X 	c #353D30",
"Y 	c #252A21",
"Z 	c #191B16",
"` 	c #0E0F0D",
" .	c #272826",
"..	c #23291F",
"+.	c #35422C",
"@.	c #47593B",
"#.	c #4C6040",
"$.	c #4A5D3F",
"%.	c #425039",
"&.	c #2D3428",
"*.	c #141713",
"=.	c #131513",
"-.	c #252624",
";.	c #2F312D",
">.	c #2D2F2C",
",.	c #242722",
"'.	c #2C3525",
").	c #415335",
"!.	c #495D3C",
"~.	c #445739",
"{.	c #425436",
"].	c #475B3B",
"^.	c #4E6440",
"/.	c #3A4733",
"(.	c #1A1E18",
"_.	c #070805",
":.	c #2E312C",
"<.	c #272A26",
"[.	c #20251D",
"}.	c #35432C",
"|.	c #485D3B",
"1.	c #2C3824",
"2.	c #242F1E",
"3.	c #324129",
"4.	c #485C3A",
"5.	c #506642",
"6.	c #3F4E35",
"7.	c #1B1F17",
"8.	c #0D120B",
"9.	c #38492E",
"0.	c #272F23",
"a.	c #2B2C2A",
"b.	c #2A2D27",
"c.	c #2D312B",
"d.	c #242723",
"e.	c #252E22",
"f.	c #3F5134",
"g.	c #4A5F3D",
"h.	c #38482F",
"i.	c #1C2418",
"j.	c #121810",
"k.	c #25311F",
"l.	c #435638",
"m.	c #4D6140",
"n.	c #3C4833",
"o.	c #0F130C",
"p.	c #1C2417",
"q.	c #4D633F",
"r.	c #516843",
"s.	c #292C27",
"t.	c #383E32",
"u.	c #495440",
"v.	c #3A4235",
"w.	c #272D25",
"x.	c #2C3726",
"y.	c #3D4E32",
"z.	c #283321",
"A.	c #212A1C",
"B.	c #314029",
"C.	c #475C3B",
"D.	c #4B5E3E",
"E.	c #34402D",
"F.	c #141813",
"G.	c #0E100E",
"H.	c #1D2519",
"I.	c #252E20",
"J.	c #282B26",
"K.	c #424C3B",
"L.	c #5F7352",
"M.	c #546449",
"N.	c #3B4734",
"O.	c #282F24",
"P.	c #2D3726",
"Q.	c #425437",
"R.	c #4D623F",
"S.	c #485D3C",
"T.	c #405135",
"U.	c #3D4F33",
"V.	c #45593A",
"W.	c #485B3D",
"X.	c #2C3527",
"Y.	c #0F120E",
"Z.	c #121411",
"`.	c #222A1E",
" +	c #262F21",
".+	c #343A30",
"++	c #5A6E4D",
"@+	c #657B56",
"#+	c #46553D",
"$+	c #333D2C",
"%+	c #262B22",
"&+	c #2A3126",
"*+	c #3B4833",
"=+	c #4A5C3E",
"-+	c #4B5F3F",
";+	c #4D6340",
">+	c #39472F",
",+	c #1C2118",
"'+	c #0A0D09",
")+	c #181A17",
"!+	c #384033",
"~+	c #56674A",
"{+	c #607652",
"]+	c #31392C",
"^+	c #242822",
"/+	c #2C2F29",
"(+	c #363C31",
"_+	c #404A3A",
":+	c #44503C",
"<+	c #45533C",
"[+	c #46553C",
"}+	c #3B4633",
"|+	c #20251C",
"1+	c #0D0F0C",
"2+	c #111210",
"3+	c #1D1F1C",
"4+	c #3B4434",
"5+	c #3C4635",
"6+	c #262A23",
"7+	c #222522",
"8+	c #323431",
"9+	c #393D36",
"0+	c #393F35",
"a+	c #32392F",
"b+	c #2F372B",
"c+	c #20241D",
"d+	c #141513",
"e+	c #1C1D1B",
"f+	c #323430",
"g+	c #2A2D28",
"                                                                                ",
"                                                                                ",
"                                                                                ",
"                                                                                ",
"                                                                                ",
"                                                                                ",
"                                                                                ",
"                                                                                ",
"                                                          . + @ #               ",
"                                                        $ % & * =               ",
"                                                        - & ; > ,               ",
"                                                      ' ) ! ~ {                 ",
"                                                    ] ^ / ( _                   ",
"                                                  : < [ } | 1                   ",
"                                                2 3 4 5 6 7                     ",
"                                              8 9 0 a b c                       ",
"                                    d         e f g h i j                       ",
"                                  d d k l m n o / p q r                         ",
"                                  d k s t u v w x y z                           ",
"                                k t A   A B C D E F G                           ",
"                              d k d H I J K L M N O P                           ",
"                            d d Q R S T U V W X Y Z `                           ",
"                          k l  .M ..+.@.#.#.#.$.%.&.*.=.                        ",
"                        d -.;.>.,.'.).!.~.{.].^.#./.(._.                        ",
"                        d t :.<.[.}.|.).1.2.3.4.5.6.7.8.9.                      ",
"                    c 0.a.b.c.d.e.f.g.h.i.j.k.l.m.n.(.o.p.q.                    ",
"                r.c c s.t.u.v.w.x.l.; y.z.A.B.C.D.E.F.G.H.I.r.                  ",
"              r.c c J.K.L.M.N.O.P.Q.R.S.T.U.V.^.W.X.Y.Z.`. +c r.                ",
"            r.c     .+++@+#+$+%+&+*+=+#.-+#.;+g.>+,+'+)+  c c c r.              ",
"        r.r.r.c     !+~+{+]+^+m /+(+_+:+<+#+[+}+|+1+2+3+    c c c r.r.          ",
"        c c c c       4+5+6+      7+8+9+0+a+b+c+` d+e+        c c c c           ",
"                                        f+g+                                    "};
