/* XPM */
static char * can0009_xpm[] = {
"40 32 231 2",
"  	c None",
". 	c #607751",
"+ 	c #506543",
"@ 	c #678158",
"# 	c #5A714C",
"$ 	c #4B5F3F",
"% 	c #3F4F34",
"& 	c #6A845A",
"* 	c #5F7751",
"= 	c #516744",
"- 	c #435638",
"; 	c #394830",
"> 	c #657E55",
", 	c #576E4A",
"' 	c #485B3C",
") 	c #3A4A31",
"! 	c #5F7650",
"~ 	c #4F6442",
"{ 	c #323F2B",
"] 	c #657D56",
"^ 	c #566C49",
"/ 	c #45573B",
"( 	c #36442E",
"_ 	c #2D3927",
": 	c #617853",
"< 	c #4E6243",
"[ 	c #3C4C34",
"} 	c #303C29",
"| 	c #6E875E",
"1 	c #5E7450",
"2 	c #495B3E",
"3 	c #36432E",
"4 	c #2B3626",
"5 	c #6A835B",
"6 	c #586D4A",
"7 	c #435338",
"8 	c #313D2A",
"9 	c #283223",
"0 	c #758F64",
"a 	c #667E57",
"b 	c #4F6343",
"c 	c #3C4A32",
"d 	c #2E3827",
"e 	c #748D63",
"f 	c #5F7651",
"g 	c #45573A",
"h 	c #35412E",
"i 	c #2D3527",
"j 	c #31342E",
"k 	c #444B3D",
"l 	c #5B6B4E",
"m 	c #526545",
"n 	c #3C4B33",
"o 	c #313A2B",
"p 	c #2D3328",
"q 	c #222321",
"r 	c #232422",
"s 	c #242623",
"t 	c #31352E",
"u 	c #3E4638",
"v 	c #3D4835",
"w 	c #3A4731",
"x 	c #323E2B",
"y 	c #2A3225",
"z 	c #282E24",
"A 	c #242523",
"B 	c #262725",
"C 	c #30342D",
"D 	c #3A4136",
"E 	c #384033",
"F 	c #333B2D",
"G 	c #283124",
"H 	c #20261D",
"I 	c #1D211B",
"J 	c #262825",
"K 	c #2B2D2A",
"L 	c #31352F",
"M 	c #363B34",
"N 	c #323731",
"O 	c #2A2D28",
"P 	c #232720",
"Q 	c #1E221B",
"R 	c #1A1D17",
"S 	c #121410",
"T 	c #272A26",
"U 	c #30352D",
"V 	c #383F33",
"W 	c #3D4637",
"X 	c #3E4838",
"Y 	c #3A4535",
"Z 	c #354030",
"` 	c #2F3729",
" .	c #252B21",
"..	c #171B15",
"+.	c #0D0F0B",
"@.	c #222421",
"#.	c #262B23",
"$.	c #323B2C",
"%.	c #3F4C36",
"&.	c #46563C",
"*.	c #4A5D3F",
"=.	c #485C3D",
"-.	c #435239",
";.	c #343F2D",
">.	c #1E241A",
",.	c #151813",
"'.	c #262D22",
").	c #35412D",
"!.	c #435439",
"~.	c #48593C",
"{.	c #46583A",
"].	c #46593A",
"^.	c #4A5E3C",
"/.	c #4B5E3E",
"(.	c #3F4E35",
"_.	c #262D20",
":.	c #11150F",
"<.	c #0A1008",
"[.	c #252724",
"}.	c #272826",
"|.	c #242823",
"1.	c #283024",
"2.	c #39472F",
"3.	c #435538",
"4.	c #3D4F33",
"5.	c #324029",
"6.	c #303E27",
"7.	c #3C4D31",
"8.	c #485C3B",
"9.	c #2B3425",
"0.	c #181C15",
"a.	c #283321",
"b.	c #262F22",
"c.	c #262E22",
"d.	c #292929",
"e.	c #282926",
"f.	c #2A2C29",
"g.	c #252923",
"h.	c #2A3325",
"i.	c #3B4B31",
"j.	c #415436",
"k.	c #34432B",
"l.	c #222C1C",
"m.	c #1F291A",
"n.	c #303F29",
"o.	c #2D3727",
"p.	c #191E17",
"q.	c #171C14",
"r.	c #3F5134",
"s.	c #516843",
"t.	c #273022",
"u.	c #292B27",
"v.	c #2A2D29",
"w.	c #252A24",
"x.	c #2C3527",
"y.	c #3D4D33",
"z.	c #37462E",
"A.	c #273120",
"B.	c #263120",
"C.	c #36452D",
"D.	c #45593A",
"E.	c #2D3827",
"F.	c #181D16",
"G.	c #171D15",
"H.	c #21291C",
"I.	c #4F6541",
"J.	c #292D25",
"K.	c #2D2F2C",
"L.	c #2E322B",
"M.	c #2D322B",
"N.	c #292E26",
"O.	c #2D3828",
"P.	c #3C4D33",
"Q.	c #455939",
"R.	c #415336",
"S.	c #394A2F",
"T.	c #495D3D",
"U.	c #405135",
"V.	c #283222",
"W.	c #161A14",
"X.	c #191F15",
"Y.	c #222B1E",
"Z.	c #262F21",
"`.	c #353A31",
" +	c #3F4738",
".+	c #384133",
"++	c #2F362A",
"@+	c #2E3828",
"#+	c #485C3C",
"$+	c #475A3B",
"%+	c #485B3D",
"&+	c #4A5E3F",
"*+	c #37432D",
"=+	c #20261B",
"-+	c #141713",
";+	c #242C1F",
">+	c #394033",
",+	c #47533E",
"'+	c #414D39",
")+	c #333C2D",
"!+	c #2D3427",
"~+	c #404E37",
"{+	c #47573D",
"]+	c #46553D",
"^+	c #44533B",
"/+	c #3C4835",
"(+	c #2A3125",
"_+	c #181B16",
":+	c #171815",
"<+	c #252723",
"[+	c #31372D",
"}+	c #46523E",
"|+	c #5F7351",
"1+	c #4B5B40",
"2+	c #1E231B",
"3+	c #262B22",
"4+	c #394233",
"5+	c #3E4738",
"6+	c #3C4436",
"7+	c #394234",
"8+	c #363D31",
"9+	c #2C3129",
"0+	c #20231E",
"a+	c #191A17",
"b+	c #718960",
"c+	c #627854",
"d+	c #4E6043",
"e+	c #373C35",
"f+	c #373B34",
"g+	c #353A33",
"h+	c #2F332D",
"                                                                                ",
"                                                                                ",
"                                                                                ",
"                                                                                ",
"                                                                                ",
"                                                                                ",
"                                                    . +                         ",
"                                                  @ # $ %                       ",
"                                                & * = - ;                       ",
"                                                > , ' )                         ",
"                                                ! ~ % {                         ",
"                                              ] ^ / ( _                         ",
"                                              : < [ }                           ",
"                                            | 1 2 3 4                           ",
"                                            5 6 7 8 9                           ",
"                                          0 a b c d                             ",
"                                          e f g h i                             ",
"                                      j k l m n o p                             ",
"                                q r s t u v w x y z                             ",
"                                q A B C D E F G H I                             ",
"                                r J K L M N O P Q R S                           ",
"                              r A T U V W X Y Z `  ...+.                        ",
"                              q @.#.$.%.&.2 *.=.-.;.>.,.                        ",
"                            A r @.'.).!.~.{.].^./.(._.:.<.                      ",
"                          r [.}.|.1.2.3.4.5.6.7.8.7 9.0.a.                      ",
"                    b.c.d.r e.f.g.h.i.j.k.l.m.n.- 7 o.p.q.r.                    ",
"                s.t.t.q q A u.v.w.x.y.- z.A.B.C.D.3.E.F.G.H.I.                  ",
"              s.t.t.q q J.K.L.M.N.O.P.Q.R.S.i.- T.U.V.W.X.Y.Z.s.                ",
"            s.t.    q t.  `. +.+++@+; g #+$+%+&+{.*+=+-+  ;+Z.t.s.              ",
"        s.s.s.t.    q r   >+,+'+)+!+;.~+&.{+]+^+/+(+_+:+    Z.t.t.s.s.          ",
"        t.t.t.t.      <+[+}+|+1+{ 2+3+4+5+6+7+8+9+0+a+        t.t.t.t.          ",
"                          b+c+d+        e+f+g+h+                                "};
