/* XPM */
static char * can0002_xpm[] = {
"40 32 204 2",
"  	c None",
". 	c #7C976A",
"+ 	c #516843",
"@ 	c #58704A",
"# 	c #7E996C",
"$ 	c #34412C",
"% 	c #4C613F",
"& 	c #506742",
"* 	c #546B46",
"= 	c #617A52",
"- 	c #2B3525",
"; 	c #3C4C32",
"> 	c #546C46",
", 	c #627A52",
"' 	c #6C865C",
") 	c #2C3826",
"! 	c #303D29",
"~ 	c #415337",
"{ 	c #546B45",
"] 	c #5D754E",
"^ 	c #6E875D",
"/ 	c #283123",
"( 	c #2F3A28",
"_ 	c #36432D",
": 	c #45583A",
"< 	c #5E754F",
"[ 	c #779166",
"} 	c #273122",
"| 	c #313D29",
"1 	c #455739",
"2 	c #607751",
"3 	c #728B61",
"4 	c #222321",
"5 	c #262F21",
"6 	c #33402B",
"7 	c #425336",
"8 	c #495E3C",
"9 	c #6F895F",
"0 	c #353833",
"a 	c #272826",
"b 	c #232B1E",
"c 	c #252E20",
"d 	c #38462E",
"e 	c #405135",
"f 	c #4F6242",
"g 	c #667B57",
"h 	c #3C4138",
"i 	c #282926",
"j 	c #232422",
"k 	c #222322",
"l 	c #242C1F",
"m 	c #2A3026",
"n 	c #313B2A",
"o 	c #415236",
"p 	c #3B4831",
"q 	c #323A2D",
"r 	c #667B59",
"s 	c #252625",
"t 	c #333731",
"u 	c #272F21",
"v 	c #2B3424",
"w 	c #415136",
"x 	c #3D4239",
"y 	c #2D2E2D",
"z 	c #353634",
"A 	c #2D302C",
"B 	c #1F1F1F",
"C 	c #30342D",
"D 	c #1F261A",
"E 	c #131811",
"F 	c #151613",
"G 	c #2B2C2B",
"H 	c #363A35",
"I 	c #3D4438",
"J 	c #414C3A",
"K 	c #36412F",
"L 	c #1C2018",
"M 	c #1B1C1A",
"N 	c #0B0C09",
"O 	c #11120F",
"P 	c #242821",
"Q 	c #3E4838",
"R 	c #47573E",
"S 	c #4B5E40",
"T 	c #4F6442",
"U 	c #4D623F",
"V 	c #39482F",
"W 	c #1F241B",
"X 	c #272726",
"Y 	c #383A38",
"Z 	c #343732",
"` 	c #000000",
" .	c #0B0B0B",
"..	c #272B24",
"+.	c #45533C",
"@.	c #4E6341",
"#.	c #506642",
"$.	c #4F6541",
"%.	c #4E6441",
"&.	c #4A5F3D",
"*.	c #324029",
"=.	c #161A14",
"-.	c #242523",
";.	c #010201",
">.	c #111110",
",.	c #364031",
"'.	c #4D6142",
").	c #485C3B",
"!.	c #36452D",
"~.	c #2C3925",
"{.	c #3D4E32",
"].	c #4E6440",
"^.	c #252F1F",
"/.	c #1E1F1D",
"(.	c #2C2E2B",
"_.	c #263021",
":.	c #070C04",
"<.	c #080907",
"[.	c #35412D",
"}.	c #4F6542",
"|.	c #38482E",
"1.	c #161C12",
"2.	c #080A07",
"3.	c #222C1C",
"4.	c #46593A",
"5.	c #394A30",
"6.	c #1C211A",
"7.	c #2C302A",
"8.	c #54634B",
"9.	c #6D835E",
"0.	c #273022",
"a.	c #273021",
"b.	c #11150E",
"c.	c #070806",
"d.	c #2C3227",
"e.	c #4A5D3F",
"f.	c #516743",
"g.	c #3D4F33",
"h.	c #12180F",
"i.	c #0A0C08",
"j.	c #242D1E",
"k.	c #455839",
"l.	c #475B3A",
"m.	c #222A1E",
"n.	c #242B20",
"o.	c #384430",
"p.	c #516445",
"q.	c #748D63",
"r.	c #172014",
"s.	c #030503",
"t.	c #161815",
"u.	c #415039",
"v.	c #4C623F",
"w.	c #37472E",
"x.	c #303E28",
"y.	c #3F5135",
"z.	c #475A3A",
"A.	c #1F231D",
"B.	c #252723",
"C.	c #252922",
"D.	c #2B3326",
"E.	c #576C4A",
"F.	c #799468",
"G.	c #5D764E",
"H.	c #212220",
"I.	c #040404",
"J.	c #30372D",
"K.	c #4E6342",
"L.	c #4F6642",
"M.	c #506743",
"N.	c #3E4C35",
"O.	c #272825",
"P.	c #313230",
"Q.	c #2A2F25",
"R.	c #222421",
"S.	c #323D2C",
"T.	c #627853",
"U.	c #2E3828",
"V.	c #060804",
"W.	c #131612",
"X.	c #485B3B",
"Y.	c #4A5C3F",
"Z.	c #45533D",
"`.	c #3E4539",
" +	c #383A36",
".+	c #2F322D",
"++	c #222521",
"@+	c #20221F",
"#+	c #030302",
"$+	c #10130D",
"%+	c #2A3125",
"&+	c #414B3A",
"*+	c #404A3A",
"=+	c #393F35",
"-+	c #373835",
";+	c #343634",
">+	c #333433",
",+	c #1F201E",
"'+	c #030403",
")+	c #090A09",
"!+	c #1A1C19",
"~+	c #2A2C28",
"{+	c #222221",
"]+	c #252623",
"                                                                                ",
"                                                                                ",
"                                                                                ",
"                                                                                ",
"                                                                                ",
"                                                                                ",
"                                                                                ",
"                                                                                ",
"                                                                                ",
"              .                                                                 ",
"            + @ # #                                                             ",
"          $ % & * = #                                                           ",
"            - ; & > , '                                                         ",
"              ) ! ~ { ] ^                                                       ",
"                / ( _ : < [ #                                                   ",
"                  / } | 1 2 3 .           4                                     ",
"                    5 5 6 7 8 9 #   0 a 4 4 4                                   ",
"                      b c d e f g h i j k 4 4                                   ",
"                        l m n o p q r j     s j 4                               ",
"                          t u v w 4 x y z A B   4 4 4 4                         ",
"                          C D E F G H I J K L M 4 4   4 4                       ",
"                            N O P Q R S T U V W X Y Z   4                       ",
"                          `  ...+.@.#.$.%.$.&.*.=.-.0   4                       ",
"                          ;.>.,.'.+ ).!.~.{.].&.^./.(.4 4                       ",
"                      + _.:.<.[.}.+ |.1.2.3.4.+ 5.6.7.8.9.#                     ",
"                    + 0.a.b.c.d.e.f.g.h.i.j.k.& l.m.n.o.p.q.#                   ",
"                  + 0.0.4 r.s.t.u.#.v.w.x.y.].+ z.A.B.C.D.E.F.G.                ",
"                + 0.0.0.H.  c.I.J.K.+ L.$.M.}.K.N.O.P.Q.R.S.T.U.+               ",
"              + 0.0.0.  4   1.V.W.[.X.#.K.Y.Z.`. +  .+  0.++    0.+             ",
"          + + 0.0.0.    4 4 @+t.#+$+%+&+*+=+-+;+>+4 4   4 4     0.+ + +         ",
"          0.0.0.0.        4 4 ,+  '+)+!+~+{+]+      4 4 4       0.0.0.0.        ",
"                                                                                "};
