/* XPM */
static char * can0015_xpm[] = {
"40 32 193 2",
"  	c None",
". 	c #7E996C",
"+ 	c #647C54",
"@ 	c #526944",
"# 	c #698259",
"$ 	c #5C744D",
"% 	c #546B46",
"& 	c #516843",
"* 	c #3A4A31",
"= 	c #6F885E",
"- 	c #688157",
"; 	c #59714A",
"> 	c #516743",
", 	c #435537",
"' 	c #303B28",
") 	c #718A60",
"! 	c #607951",
"~ 	c #556D47",
"{ 	c #475A3B",
"] 	c #36442E",
"^ 	c #323F2A",
"/ 	c #799468",
"( 	c #637B54",
"_ 	c #4A5E3D",
": 	c #3B4A32",
"< 	c #34412C",
"[ 	c #293223",
"} 	c #222321",
"| 	c #7D986B",
"1 	c #748E63",
"2 	c #657D56",
"3 	c #34422C",
"4 	c #283122",
"5 	c #262725",
"6 	c #353833",
"7 	c #728C61",
"8 	c #4A5F3D",
"9 	c #435437",
"0 	c #36442D",
"a 	c #262F21",
"b 	c #232421",
"c 	c #272825",
"d 	c #3A3F37",
"e 	c #677C57",
"f 	c #4F6343",
"g 	c #415236",
"h 	c #3A4930",
"i 	c #252E20",
"j 	c #232C1F",
"k 	c #232522",
"l 	c #272826",
"m 	c #232422",
"n 	c #6A805C",
"o 	c #323A2D",
"p 	c #3B4831",
"q 	c #425336",
"r 	c #313C2A",
"s 	c #292F25",
"t 	c #242C1F",
"u 	c #1A1A1A",
"v 	c #2C2F2B",
"w 	c #353634",
"x 	c #2E2E2E",
"y 	c #3A3E37",
"z 	c #212220",
"A 	c #2A3424",
"B 	c #273022",
"C 	c #343731",
"D 	c #1A1C19",
"E 	c #21281D",
"F 	c #3B4933",
"G 	c #434F3C",
"H 	c #3E4539",
"I 	c #363A35",
"J 	c #2B2C2A",
"K 	c #131411",
"L 	c #141811",
"M 	c #20281B",
"N 	c #31352E",
"O 	c #343533",
"P 	c #232A1E",
"Q 	c #3D4E32",
"R 	c #4E6440",
"S 	c #4F6542",
"T 	c #4C5F40",
"U 	c #48583E",
"V 	c #3E4738",
"W 	c #22251F",
"X 	c #0F110E",
"Y 	c #0B0D09",
"Z 	c #343732",
"` 	c #20211F",
" .	c #1B2017",
"..	c #39492F",
"+.	c #4C613E",
"@.	c #4F6541",
"#.	c #4D6340",
"$.	c #506642",
"%.	c #4E6341",
"&.	c #44513B",
"*.	c #232721",
"=.	c #090909",
"-.	c #2D2F2B",
";.	c #1A1D19",
">.	c #2E3B27",
",.	c #4C623F",
"'.	c #35442C",
").	c #283321",
"!.	c #36452C",
"~.	c #495E3C",
"{.	c #4C6041",
"].	c #32392E",
"^.	c #0E0E0E",
"/.	c #010201",
"(.	c #799368",
"_.	c #5F7154",
":.	c #272B25",
"<.	c #405235",
"[.	c #506742",
"}.	c #415335",
"|.	c #1B2216",
"1.	c #070906",
"2.	c #181F14",
"3.	c #3C4D31",
"4.	c #4F6442",
"5.	c #2C3626",
"6.	c #070806",
"7.	c #080E05",
"8.	c #263021",
"9.	c #687F58",
"0.	c #273122",
"a.	c #20261C",
"b.	c #415436",
"c.	c #212A1C",
"d.	c #0A0D09",
"e.	c #1A2216",
"f.	c #425537",
"g.	c #506743",
"h.	c #47583C",
"i.	c #252A21",
"j.	c #131711",
"k.	c #273021",
"l.	c #657D55",
"m.	c #70895F",
"n.	c #435438",
"o.	c #252A22",
"p.	c #242622",
"q.	c #212120",
"r.	c #272E23",
"s.	c #475B3B",
"t.	c #3F5135",
"u.	c #35452C",
"v.	c #3F5134",
"w.	c #3A4633",
"x.	c #121411",
"y.	c #050904",
"z.	c #192016",
"A.	c #323E2C",
"B.	c #48593D",
"C.	c #282D24",
"D.	c #2A2F26",
"E.	c #2E2F2D",
"F.	c #2C2F29",
"G.	c #404D37",
"H.	c #4F6642",
"I.	c #495B3E",
"J.	c #272C25",
"K.	c #040504",
"L.	c #070706",
"M.	c #2F322D",
"N.	c #383A36",
"O.	c #3D4539",
"P.	c #44503D",
"Q.	c #4A5B3F",
"R.	c #4E6342",
"S.	c #445638",
"T.	c #2E3828",
"U.	c #0E0F0D",
"V.	c #070A05",
"W.	c #182015",
"X.	c #323331",
"Y.	c #363734",
"Z.	c #373C33",
"`.	c #3F493A",
" +	c #21271E",
".+	c #090B08",
"++	c #020201",
"@+	c #1C1E1A",
"#+	c #1B1C1B",
"$+	c #282B27",
"%+	c #121312",
"&+	c #050605",
"*+	c #030401",
"                                                                                ",
"                                                                                ",
"                                                                                ",
"                                                                                ",
"                                                                                ",
"                                                                                ",
"                                                                                ",
"                                                                                ",
"                                                                                ",
"                                                                .               ",
"                                                              . + @             ",
"                                                            # $ % & *           ",
"                                                        = - ; > , '             ",
"                                                      ) ! ~ { ] ^               ",
"                                                    / ( _ : < [                 ",
"                                    }           | 1 2 { 3 4 [                   ",
"                                  } } } 5 6   . 7 8 9 0 a a                     ",
"                                  }     b c d e f g h i j                       ",
"                              } k l     m n o p q r s t                         ",
"                        } } } }   u v w x y z g A B C                           ",
"                      } }   l m D E F G H I J K L M N                           ",
"                      }   6 O } P Q R S T U V W X Y                             ",
"                      }   Z `  ...+.@.#.S $.%.&.*.=.                            ",
"                      } } -.;.>.,.+.'.).!.~.& {.].^./.                          ",
"                    . (._.:.E <.[.}.|.1.2.3.& 4.5.6.7.8.&                       ",
"                  . 9.: 0.a.[ ~.[.b.c.d.e.f.g.h.i.1.j.k.B &                     ",
"                l.m.n.o.p.q.r.s.& ,.t.u.v.R %.w.x.y.z.} B B &                   ",
"              & A.B.C.} D.E.F.G.T 4.$.H.[.g.I.J.K.L.  } B B B &                 ",
"            & B     } B   M.  N.O.P.Q.R.@.S.T.U.V.W.  }   B B B &               ",
"        & & & B     } }   } m X.w Y.Z.`.V  +.+++@+} } }     B B B & &           ",
"        B B B B       } } }       p.#+$+%+&+*+  z } }         B B B B           ",
"                                                                                "};
