/* XPM */
static char * can0008_xpm[] = {
"40 32 227 2",
"  	c None",
". 	c #526644",
"+ 	c #5E7550",
"@ 	c #435538",
"# 	c #506544",
"$ 	c #5E754F",
"% 	c #405135",
"& 	c #4C6140",
"* 	c #5A724C",
"= 	c #678058",
"- 	c #3B4B32",
"; 	c #475A3C",
"> 	c #556B48",
", 	c #627B54",
"' 	c #35432D",
") 	c #425337",
"! 	c #526745",
"~ 	c #617952",
"{ 	c #313E2A",
"] 	c #3D4D33",
"^ 	c #4E6242",
"/ 	c #5F7650",
"( 	c #2F3B28",
"_ 	c #3A4931",
": 	c #4A5D3F",
"< 	c #5A714D",
"[ 	c #2C3827",
"} 	c #374530",
"| 	c #48593D",
"1 	c #5A6F4D",
"2 	c #688059",
"3 	c #2C3726",
"4 	c #37442F",
"5 	c #5A6F4C",
"6 	c #698159",
"7 	c #2B3525",
"8 	c #36422D",
"9 	c #47573B",
"0 	c #596F4C",
"a 	c #69825A",
"b 	c #2C3526",
"c 	c #35402D",
"d 	c #445439",
"e 	c #586E4B",
"f 	c #6B845B",
"g 	c #2D3428",
"h 	c #333D2C",
"i 	c #415037",
"j 	c #576C4A",
"k 	c #6A815B",
"l 	c #292F25",
"m 	c #2E3828",
"n 	c #3A4932",
"o 	c #526545",
"p 	c #5F7252",
"q 	c #59684E",
"r 	c #1D201A",
"s 	c #22271F",
"t 	c #293124",
"u 	c #333E2C",
"v 	c #3C4933",
"w 	c #45503C",
"x 	c #3E4538",
"y 	c #32352E",
"z 	c #1B1F19",
"A 	c #1E221B",
"B 	c #242A20",
"C 	c #2D3429",
"D 	c #353D30",
"E 	c #3A4235",
"F 	c #363C32",
"G 	c #2D302A",
"H 	c #252724",
"I 	c #232422",
"J 	c #11130E",
"K 	c #1B1F17",
"L 	c #242B20",
"M 	c #293024",
"N 	c #2C3327",
"O 	c #2E342B",
"P 	c #32372F",
"Q 	c #363D34",
"R 	c #333831",
"S 	c #2B2E29",
"T 	c #0D120B",
"U 	c #171C14",
"V 	c #262D20",
"W 	c #3B4833",
"X 	c #3C4A35",
"Y 	c #3C4836",
"Z 	c #3C4536",
"` 	c #3A4135",
" .	c #343A31",
"..	c #2D302B",
"+.	c #272825",
"@.	c #242523",
"#.	c #272A25",
"$.	c #090C08",
"%.	c #11160F",
"&.	c #1E241A",
"*.	c #313B2A",
"=.	c #405036",
"-.	c #47583B",
";.	c #475A3B",
">.	c #47583C",
",.	c #47573D",
"'.	c #414D38",
").	c #384132",
"!.	c #2F342B",
"~.	c #272925",
"{.	c #0A0D09",
"].	c #171B15",
"^.	c #272F22",
"/.	c #3A4831",
"(.	c #455639",
"_.	c #445638",
":.	c #405235",
"<.	c #435437",
"[.	c #44533A",
"}.	c #3B4732",
"|.	c #2D3529",
"1.	c #252823",
"2.	c #4D6340",
"3.	c #1F281B",
"4.	c #0E140B",
"5.	c #191E16",
"6.	c #435638",
"7.	c #38472E",
"8.	c #2E3B26",
"9.	c #324029",
"0.	c #3E4F34",
"a.	c #435438",
"b.	c #2B3426",
"c.	c #242722",
"d.	c #506742",
"e.	c #252E20",
"f.	c #1F271A",
"g.	c #161915",
"h.	c #1D2419",
"i.	c #323F2B",
"j.	c #425437",
"k.	c #313F29",
"l.	c #253120",
"m.	c #283421",
"n.	c #36462D",
"o.	c #39472F",
"p.	c #2B3326",
"q.	c #252923",
"r.	c #252624",
"s.	c #272826",
"t.	c #252A22",
"u.	c #262D22",
"v.	c #516843",
"w.	c #262F21",
"x.	c #1C1D1A",
"y.	c #171915",
"z.	c #1E2419",
"A.	c #34402A",
"B.	c #2D3B26",
"C.	c #2F3C27",
"D.	c #394930",
"E.	c #37442E",
"F.	c #272B25",
"G.	c #272926",
"H.	c #242522",
"I.	c #222321",
"J.	c #262E21",
"K.	c #506642",
"L.	c #273022",
"M.	c #1D1E1C",
"N.	c #181D15",
"O.	c #303A28",
"P.	c #415136",
"Q.	c #46593B",
"R.	c #3C4D32",
"S.	c #425436",
"T.	c #405236",
"U.	c #35412D",
"V.	c #2A3126",
"W.	c #282C26",
"X.	c #2A2C29",
"Y.	c #282A25",
"Z.	c #1E1F1D",
"`.	c #191E15",
" +	c #45553B",
".+	c #47573C",
"++	c #45573A",
"@+	c #45583A",
"#+	c #445739",
"$+	c #3D4D34",
"%+	c #323E2C",
"&+	c #2B3227",
"*+	c #2A2F28",
"=+	c #2C2F2A",
"-+	c #252B22",
";+	c #20211F",
">+	c #1D1F1C",
",+	c #242821",
"'+	c #2F362A",
")+	c #3E4937",
"!+	c #424F3B",
"~+	c #44533C",
"{+	c #44543A",
"]+	c #38452F",
"^+	c #303A2A",
"/+	c #2F372C",
"(+	c #2D312A",
"_+	c #1F201E",
":+	c #222320",
"<+	c #282D24",
"[+	c #2D342B",
"}+	c #343B30",
"|+	c #3E4839",
"1+	c #343D2E",
"2+	c #2D3527",
"3+	c #353E2F",
"4+	c #404B38",
"5+	c #373E32",
"6+	c #2C3129",
"7+	c #242623",
"8+	c #363B33",
"9+	c #393E36",
"0+	c #383E34",
"a+	c #30382A",
"b+	c #3E4A35",
"c+	c #4F5F44",
"d+	c #596A4D",
"                                                                                ",
"                                                                                ",
"                                                                                ",
"                                                                                ",
"                                                                                ",
"                                      . +                                       ",
"                                    @ # $                                       ",
"                                    % & * =                                     ",
"                                    - ; > ,                                     ",
"                                    ' ) ! ~                                     ",
"                                    { ] ^ /                                     ",
"                                    ( _ : <                                     ",
"                                    [ } | 1 2                                   ",
"                                    3 4 | 5 6                                   ",
"                                    7 8 9 0 a                                   ",
"                                    b c d e f                                   ",
"                                    g h i j k                                   ",
"                                    l m n o p q                                 ",
"                                  r s t u v w x y                               ",
"                                  z A B C D E F G H I                           ",
"                              J K L M N O P Q R S H I                           ",
"                            T U V u W X Y Z `  ...+.@.                          ",
"                        #.$.%.&.*.=.-.;.>.,.'.).!.~.@.                          ",
"                          {.].^./.(._.:.<.-.[.}.|.1.I                           ",
"                      2.3.4.5.m =.6.7.8.9.0.a./.b.c.I I                         ",
"                    d.e.f.g.h.i.j.j.k.l.m.n.% o.p.q.r.s.t.u.                    ",
"                  v.w.e.x.y.z.A.j.@ 7.B.C.D.0.E.p.F.G.H.I.u.J.K.                ",
"                v.L.w.e.M.  N.O.P.Q.j.R.R.S.T.U.V.W.X.Y.I.I.J.w.v.              ",
"              v.L.L.L.  Z.  `.t W  +.+++@+#+$+%+&+*+=+#.-+I.    L.v.            ",
"          v.v.L.L.L.    ;+>+>+,+'+)+!+~+{+=.]+^+'+/+(+  I I.    L.v.v.v.        ",
"          L.L.L.L.        ;+_+:+<+[+}+|+)+1+b.2+3+4+5+6+7+      L.L.L.L.        ",
"                                    8+9+0+}+C a+b+c+d+                          "};
