/* XPM */
static char * can0004_xpm[] = {
"40 32 230 2",
"  	c None",
". 	c #445638",
"+ 	c #556B46",
"@ 	c #688158",
"# 	c #799467",
"$ 	c #3D4D33",
"% 	c #4C613F",
"& 	c #58704A",
"* 	c #688259",
"= 	c #718B61",
"- 	c #323F2B",
"; 	c #3C4D32",
"> 	c #4B603E",
", 	c #668056",
"' 	c #323F2A",
") 	c #3B4C32",
"! 	c #4A5F3E",
"~ 	c #5A714B",
"{ 	c #678057",
"] 	c #2F3B28",
"^ 	c #3B4A31",
"/ 	c #4B5E3F",
"( 	c #5A714C",
"_ 	c #698159",
": 	c #2A3424",
"< 	c #2E3A28",
"[ 	c #394831",
"} 	c #4C5F40",
"| 	c #627953",
"1 	c #738D62",
"2 	c #283123",
"3 	c #2D3827",
"4 	c #3D4C33",
"5 	c #566B49",
"6 	c #6B845B",
"7 	c #779266",
"8 	c #273022",
"9 	c #313D2A",
"0 	c #455639",
"a 	c #5A6F4B",
"b 	c #708A60",
"c 	c #7B9669",
"d 	c #232C1F",
"e 	c #293223",
"f 	c #38452F",
"g 	c #435537",
"h 	c #5F7751",
"i 	c #799367",
"j 	c #222321",
"k 	c #262E21",
"l 	c #313A2A",
"m 	c #3A4831",
"n 	c #647955",
"o 	c #454C3E",
"p 	c #2E302C",
"q 	c #262725",
"r 	c #232422",
"s 	c #2E342A",
"t 	c #2F3928",
"u 	c #3C4C33",
"v 	c #3B4731",
"w 	c #3C4536",
"x 	c #4A5642",
"y 	c #242523",
"z 	c #252625",
"A 	c #2B3027",
"B 	c #242C1F",
"C 	c #2E3927",
"D 	c #394431",
"E 	c #31362E",
"F 	c #414A3C",
"G 	c #292A28",
"H 	c #1B1E18",
"I 	c #161A13",
"J 	c #171A15",
"K 	c #222421",
"L 	c #313430",
"M 	c #393E36",
"N 	c #363A33",
"O 	c #353A32",
"P 	c #292C28",
"Q 	c #0E0F0D",
"R 	c #191B16",
"S 	c #252A21",
"T 	c #353D30",
"U 	c #3F4B39",
"V 	c #434F3C",
"W 	c #43503B",
"X 	c #3C4835",
"Y 	c #2B3226",
"Z 	c #1E211C",
"` 	c #20211F",
" .	c #131513",
"..	c #141713",
"+.	c #2D3428",
"@.	c #425039",
"#.	c #4A5D3F",
"$.	c #4C6040",
"%.	c #47593B",
"&.	c #35422C",
"*.	c #23291F",
"=.	c #272826",
"-.	c #070805",
";.	c #1A1E18",
">.	c #3A4733",
",.	c #4E6440",
"'.	c #475B3B",
").	c #425436",
"!.	c #445739",
"~.	c #495D3C",
"{.	c #415335",
"].	c #2C3525",
"^.	c #242722",
"/.	c #2D2F2C",
"(.	c #2F312D",
"_.	c #252624",
":.	c #38492E",
"<.	c #0D120B",
"[.	c #1B1F17",
"}.	c #3F4E35",
"|.	c #506642",
"1.	c #485C3A",
"2.	c #324129",
"3.	c #242F1E",
"4.	c #2C3824",
"5.	c #485D3B",
"6.	c #35432C",
"7.	c #20251D",
"8.	c #272A26",
"9.	c #2E312C",
"0.	c #4D633F",
"a.	c #1C2417",
"b.	c #0F130C",
"c.	c #3C4833",
"d.	c #4D6140",
"e.	c #435638",
"f.	c #25311F",
"g.	c #121810",
"h.	c #1C2418",
"i.	c #38482F",
"j.	c #4A5F3D",
"k.	c #3F5134",
"l.	c #252E22",
"m.	c #242723",
"n.	c #2D312B",
"o.	c #2A2D27",
"p.	c #2B2C2A",
"q.	c #272F23",
"r.	c #516843",
"s.	c #252E20",
"t.	c #1D2519",
"u.	c #0E100E",
"v.	c #141813",
"w.	c #34402D",
"x.	c #4B5E3E",
"y.	c #475C3B",
"z.	c #314029",
"A.	c #212A1C",
"B.	c #283321",
"C.	c #3D4E32",
"D.	c #2C3726",
"E.	c #272D25",
"F.	c #3A4235",
"G.	c #495440",
"H.	c #383E32",
"I.	c #292C27",
"J.	c #262F21",
"K.	c #222A1E",
"L.	c #121411",
"M.	c #0F120E",
"N.	c #2C3527",
"O.	c #485B3D",
"P.	c #45593A",
"Q.	c #3D4F33",
"R.	c #405135",
"S.	c #485D3C",
"T.	c #4D623F",
"U.	c #425437",
"V.	c #2D3726",
"W.	c #282F24",
"X.	c #3B4734",
"Y.	c #546449",
"Z.	c #5F7352",
"`.	c #424C3B",
" +	c #282B26",
".+	c #181A17",
"++	c #0A0D09",
"@+	c #1C2118",
"#+	c #39472F",
"$+	c #4D6340",
"%+	c #4B5F3F",
"&+	c #4A5C3E",
"*+	c #3B4833",
"=+	c #2A3126",
"-+	c #262B22",
";+	c #333D2C",
">+	c #46553D",
",+	c #657B56",
"'+	c #5A6E4D",
")+	c #343A30",
"!+	c #1D1F1C",
"~+	c #111210",
"{+	c #0D0F0C",
"]+	c #20251C",
"^+	c #3B4633",
"/+	c #46553C",
"(+	c #45533C",
"_+	c #44503C",
":+	c #404A3A",
"<+	c #363C31",
"[+	c #2C2F29",
"}+	c #242822",
"|+	c #31392C",
"1+	c #607652",
"2+	c #56674A",
"3+	c #384033",
"4+	c #1C1D1B",
"5+	c #141513",
"6+	c #20241D",
"7+	c #2F372B",
"8+	c #32392F",
"9+	c #393F35",
"0+	c #393D36",
"a+	c #323431",
"b+	c #222522",
"c+	c #262A23",
"d+	c #3C4635",
"e+	c #3B4434",
"f+	c #2A2D28",
"g+	c #323430",
"                                                                                ",
"                                                                                ",
"                                                                                ",
"                                                                                ",
"                                                                                ",
"                                                                                ",
"                                                                                ",
"                                                                                ",
"              . + @ #                                                           ",
"              $ % & * =                                                         ",
"              - ; > & ,                                                         ",
"                ' ) ! ~ {                                                       ",
"                  ] ^ / ( _                                                     ",
"                  : < [ } | 1                                                   ",
"                    2 3 4 5 6 7                                                 ",
"                      8 9 0 a b c                                               ",
"                      d e f g h i         j                                     ",
"                        k l m / n o p q r j j                                   ",
"                          s t u v w x y z r j                                   ",
"                          A B C D E F G   G y r                                 ",
"                          H I J K L M N O P j r j                               ",
"                          Q R S T U V W X Y Z ` j j                             ",
"                         ...+.@.#.$.$.$.%.&.*.K =.q r                           ",
"                        -.;.>.$.,.'.).!.~.{.].^./.(._.j                         ",
"                      :.<.[.}.|.1.2.3.4.{.5.6.7.8.9.y j                         ",
"                    0.a.b.;.c.d.e.f.g.h.i.j.k.l.m.n.o.p.q.8                     ",
"                  r.s.t.u.v.w.x.y.z.A.B.C.> e.D.E.F.G.H.I.8 8 r.                ",
"                r.8 J.K.L.M.N.O.,.P.Q.R.S.T.U.V.W.X.Y.Z.`. +8 8 r.              ",
"              r.8 8 8   .+++@+#+j.$+$.%+$.&+*+=+-+;+>+,+'+)+    8 r.            ",
"          r.r.8 8 8     !+~+{+]+^+/+>+(+_+:+<+[+p }+|+1+2+3+    8 r.r.r.        ",
"          8 8 8 8         4+5+Q 6+7+8+9+0+a+b+      c+d+e+      8 8 8 8         ",
"                                    f+g+                                        "};
