/* XPM */
static char * helicopter0000_xpm[] = {
"59 21 2 1",
" 	c None",
".	c #000000000000",
"                        .                               .. ",
" .......               ...                ......       ....",
"    ..............      .       .............         .....",
"              ......................                 ......",
"                        .                           ...... ",
"                      ....                         ....... ",
"                  ..............                  .......  ",
"         .........................            ..........   ",
"        . ..  .........................................    ",
"       .  ..  ....    .    ...........................     ",
"      .  ..   ....    .    ..........................      ",
"     .   ..   ....    .    .........................       ",
"   ...  ..    ....    .    ........................        ",
"  ..... ..    ....    .    ...................             ",
".....................................                      ",
" ................            .....                         ",
"    ............................                           ",
"            ..................                             ",
"         .      ..        ..                               ",
"         .....  ..        ..  ....                         ",
"           ....................                            "};
