/* XPM */
static char * man0006_xpm[] = {
"16 48 2 1",
" 	c None",
".	c #FFFF00000000",
"                ",
"                ",
"                ",
"                ",
"      .         ",
"      .         ",
"    .     .     ",
"  .    ..   .   ",
"   . .          ",
"     .   .. ..  ",
"    ...  . .    ",
". . .   .       ",
".   .  .   . .  ",
"      ..   ..   ",
"  . .. .   .    ",
" .   .  .   ... ",
" .   .....      ",
" .  .......     ",
".. ......... .  ",
".  ......... .  ",
". ............  ",
". ............  ",
".. ......... .  ",
" .  ....... ..  ",
"  .  ..... .. . ",
" . ..  .    .   ",
"    . .. .   .  ",
" .   ... .      ",
"  .    .    .   ",
"  .       .  .  ",
" . . . .     .  ",
"    .    . .    ",
"  .  ..  .    . ",
"          .  .  ",
"                ",
"                ",
"                ",
"                ",
"                ",
"                ",
"                ",
"                ",
"                ",
"                ",
"                ",
"                ",
"                ",
"                "};
