/* XPM */
static char * man0004_xpm[] = {
"16 26 12 1",
" 	c None",
".	c #666146",
"+	c #C1A947",
"@	c #54491F",
"#	c #847131",
"$	c #000000",
"%	c #334C1D",
"&	c #386E2D",
"*	c #3B7530",
"=	c #54723C",
"-	c #565656",
";	c #0C0C0C",
"                ",
"                ",
"                ",
"                ",
"                ",
"                ",
"                ",
"                ",
"                ",
"       ...      ",
"      .....     ",
"      +++@.     ",
"      +++#.     ",
"       +##      ",
"       $$$      ",
"      $%&%$     ",
"      %**%$     ",
"    %%**%%$*    ",
"  #+***$$$$=#+  ",
"  #+   %=== #+  ",
"      %==%=     ",
"     %===%==    ",
"     %=   %==   ",
"   ---;    %-;  ",
"   ;;;;   ;--;  ",
"          ;;;;  "};
