/* XPM */
static char * man0002_xpm[] = {
"16 26 13 1",
" 	c None",
".	c #666146",
"+	c #C1A947",
"@	c #54491F",
"#	c #847131",
"$	c #000000",
"%	c #3E7031",
"&	c #27491F",
"*	c #3B7530",
"=	c #334C1D",
"-	c #54723C",
";	c #565656",
">	c #0C0C0C",
"                ",
"                ",
"                ",
"                ",
"                ",
"                ",
"                ",
"                ",
"                ",
"       ...      ",
"      .....     ",
"      +++@.     ",
"      +++#.     ",
"       +##      ",
"       $$$      ",
"      $%&*$     ",
"      $&**$     ",
"     &&**$$     ",
"   #+***$$$+    ",
"   #+ ===* +    ",
"      ===-      ",
"      ===-      ",
"      =;=--     ",
"      >;;;>     ",
"    >;>>>>>     ",
"    >>>>>       "};
