/* XPM */
static char * copy_xpm[] = {
"14 14 107 2",
"  	c None",
". 	c #C9D1DA",
"+ 	c #CED5DD",
"@ 	c #D0D8DF",
"# 	c #CED6DE",
"$ 	c #A6B3C3",
"% 	c #8B9BB1",
"& 	c #C4CDD7",
"* 	c #E0E5EA",
"= 	c #E3E7EC",
"- 	c #D7DEE4",
"; 	c #D7DDE4",
"> 	c #ADBAC8",
", 	c #9EADBD",
"' 	c #8394AB",
") 	c #E2E6EB",
"! 	c #E6EAED",
"~ 	c #DDE3E8",
"{ 	c #C9D2DA",
"] 	c #B9C4CF",
"^ 	c #94A3B5",
"/ 	c #A0A2B0",
"( 	c #C0BBC6",
"_ 	c #D8DEE4",
": 	c #EAEEF0",
"< 	c #DBE1E6",
"[ 	c #D5DCE2",
"} 	c #C0C9D4",
"| 	c #AFBAC7",
"1 	c #9EA1AF",
"2 	c #BEBAC2",
"3 	c #D2CDD9",
"4 	c #B2AABA",
"5 	c #D0D7DF",
"6 	c #E8ECEF",
"7 	c #CED6DD",
"8 	c #C3CCD6",
"9 	c #C1C9D4",
"0 	c #C0CAD3",
"a 	c #99A1AF",
"b 	c #B9B6BD",
"c 	c #C5BECB",
"d 	c #B2A7BB",
"e 	c #9C92A5",
"f 	c #CDD4DD",
"g 	c #E7ECEF",
"h 	c #DCE2E7",
"i 	c #CBD3DB",
"j 	c #C6CFD9",
"k 	c #C7D0D8",
"l 	c #9FA8B7",
"m 	c #B2B0B9",
"n 	c #CBC5CF",
"o 	c #CFC7D6",
"p 	c #B5ABBE",
"q 	c #DEE3E8",
"r 	c #CDD5DD",
"s 	c #CAD2DB",
"t 	c #C7CFD9",
"u 	c #D2D8E0",
"v 	c #AFB8C5",
"w 	c #A6A7B1",
"x 	c #BEB9C4",
"y 	c #D7D1DE",
"z 	c #BBB2C4",
"A 	c #DBE1E7",
"B 	c #DAE0E6",
"C 	c #D2D9E0",
"D 	c #C5CCD7",
"E 	c #A1ABBB",
"F 	c #9C9FAD",
"G 	c #B4AFBA",
"H 	c #D5D0DC",
"I 	c #BDB4C5",
"J 	c #CBD3DC",
"K 	c #D5DBE2",
"L 	c #C6CED8",
"M 	c #B3BBC8",
"N 	c #A5ADBA",
"O 	c #9EA5B4",
"P 	c #A9ABB9",
"Q 	c #B5B2BE",
"R 	c #D9D4DF",
"S 	c #BEB6C6",
"T 	c #9CA9BC",
"U 	c #B0B2C0",
"V 	c #C9C9D0",
"W 	c #C9C5CE",
"X 	c #D1CCD6",
"Y 	c #D5D0DB",
"Z 	c #D8D2DE",
"` 	c #E0DBE6",
" .	c #BFB6C7",
"..	c #DBD6E0",
"+.	c #F2F1F4",
"@.	c #E9E6ED",
"#.	c #E9E5ED",
"$.	c #E8E3EC",
"%.	c #E5E1EA",
"&.	c #E8E4ED",
"*.	c #C0B8C8",
"=.	c #BDB5C6",
"-.	c #C6BFCC",
";.	c #C3BBCA",
">.	c #C2BAC9",
",.	c #C1B8C8",
"'.	c #B0A6B9",
"                            ",
"  . + @ # $ %               ",
"& * = - ; > , '             ",
"  ) ! - ~ { ] ^ / (         ",
"  _ : < [ . } | 1 2 3 4     ",
"  5 6 < 7 8 9 0 a b c d e   ",
"  f g h i . j k l m n o p   ",
"    q q r s t u v w x y z   ",
"    _ ! A B C D E F G H I   ",
"    J K L M N O P Q ( R S   ",
"      T   U V W X Y Z `  .  ",
"          ..+.@.#.$.%.&.*.  ",
"          =.-.;.>.>.,.*.'.  ",
"                            "};
