/* XPM */
static char * cut_xpm[] = {
"14 14 72 1",
" 	c None",
".	c #FDD900",
"+	c #FBE601",
"@	c #DD8000",
"#	c #FDDC00",
"$	c #EDDB02",
"%	c #CFC305",
"&	c #EE9600",
"*	c #FEE600",
"=	c #C9A607",
"-	c #897905",
";	c #EC9300",
">	c #FCDA00",
",	c #DAB905",
"'	c #AC9A06",
")	c #917000",
"!	c #DFC503",
"~	c #D5B606",
"{	c #CF8B04",
"]	c #F1C201",
"^	c #EADA03",
"/	c #F39900",
"(	c #DCB502",
"_	c #BBA105",
":	c #AD9705",
"<	c #E49301",
"[	c #D9961E",
"}	c #FBB509",
"|	c #ED8B0A",
"1	c #DDBB05",
"2	c #C3B204",
"3	c #E3D400",
"4	c #F09E00",
"5	c #7EA5CE",
"6	c #C5CFDB",
"7	c #7393B6",
"8	c #D07C09",
"9	c #F7AF00",
"0	c #F2A300",
"a	c #B16200",
"b	c #C7E5F5",
"c	c #89C0E7",
"d	c #BCD8FA",
"e	c #4798E4",
"f	c #35201A",
"g	c #862F00",
"h	c #702A00",
"i	c #C1E0F3",
"j	c #A0D3F6",
"k	c #5CA0DD",
"l	c #BED8FA",
"m	c #4899E6",
"n	c #AFD3ED",
"o	c #A1D3F6",
"p	c #3E80BF",
"q	c #3578B9",
"r	c #BFD8F8",
"s	c #4E99E1",
"t	c #81B6E7",
"u	c #4385C4",
"v	c #4479A8",
"w	c #C1D9F8",
"x	c #4F99E1",
"y	c #367DC6",
"z	c #4B86BB",
"A	c #BED9F9",
"B	c #5E9CD6",
"C	c #5592C8",
"D	c #60A6EE",
"E	c #2F5475",
"F	c #1D7DD3",
"G	c #11579E",
"     .+@      ",
"    #$%&      ",
"    *=-;      ",
"    >,';)!~{  ",
"     ]^/(_:<  ",
"     [}|1234  ",
"     567890a  ",
"    bcdefgh   ",
"   ijklm      ",
"  nopqrs      ",
"  tu vwx      ",
"  y  zAB      ",
"     CDE      ",
"     FG       "};
