/* XPM */
static char * edit_xpm[] = {
"14 14 91 1",
" 	c None",
".	c #D6DFED",
"+	c #E5EAF4",
"@	c #E3EAF4",
"#	c #DAE3F2",
"$	c #C5CEDC",
"%	c #E4EAF4",
"&	c #FFFFFF",
"*	c #FBFEFF",
"=	c #EDF3FD",
"-	c #E5CE80",
";	c #F8CF69",
">	c #EBB785",
",	c #FEFFFF",
"'	c #F3F1ED",
")	c #F8D625",
"!	c #FEB006",
"~	c #E99141",
"{	c #F8E59F",
"]	c #FDCD09",
"^	c #FC9E10",
"/	c #C49277",
"(	c #9DADC9",
"_	c #FEFAF3",
":	c #FCDB44",
"<	c #FEC219",
"[	c #EF9234",
"}	c #C1BFCC",
"|	c #A7B6D0",
"1	c #FDEDBB",
"2	c #FDD82E",
"3	c #FEB832",
"4	c #DAA27B",
"5	c #CCD8EB",
"6	c #AFBED6",
"7	c #FEFDFB",
"8	c #FBE072",
"9	c #FED342",
"0	c #F6A845",
"a	c #D7D0D7",
"b	c #D6E0F1",
"c	c #B6C3D9",
"d	c #F7EED3",
"e	c #FDE35E",
"f	c #FECD5C",
"g	c #E4B184",
"h	c #E1E9F7",
"i	c #DCE4F3",
"j	c #B5C1D7",
"k	c #FCFEFF",
"l	c #F7DEAD",
"m	c #FEE483",
"n	c #F6C471",
"o	c #DECDC9",
"p	c #D7DEEC",
"q	c #CDD4E5",
"r	c #AAB5CB",
"s	c #FBFFFF",
"t	c #ECD3B7",
"u	c #F7DFC0",
"v	c #D6BAA9",
"w	c #D3D7E4",
"x	c #CFD6E5",
"y	c #CCD3E3",
"z	c #ABB6CC",
"A	c #FAFEFF",
"B	c #C8B7AF",
"C	c #C2AEA9",
"D	c #D7DCE6",
"E	c #D4DAE7",
"F	c #D0D7E6",
"G	c #D1D8E7",
"H	c #B5C0D6",
"I	c #F9FEFF",
"J	c #ECE9EB",
"K	c #EAF0F7",
"L	c #E6ECF6",
"M	c #E0E6F3",
"N	c #E2E9F6",
"O	c #E2EAF8",
"P	c #BECADF",
"Q	c #CDD7E6",
"R	c #D8DEE7",
"S	c #D4DDE7",
"T	c #D2DBE7",
"U	c #D0D9E7",
"V	c #CED7E6",
"W	c #CAD4E5",
"X	c #C6D1E3",
"Y	c #C4CFE2",
"Z	c #ACB9D1",
".+++@#$       ",
"%&&&*=-;>     ",
"%&&&,')!~     ",
"%&&&&{]^/(    ",
"%&&&_:<[}|    ",
"%&&&123456    ",
"%&&7890abc    ",
"%&&defghij    ",
"%&klmnopqr    ",
"%&stuvwxyz    ",
"%&ABCDEFGH    ",
"%,IJKLMNOP    ",
"QRSTUVWXYZ    ",
"              "};
