/* XPM */
static char * editdelete_xpm[] = {
"14 14 78 1",
" 	c None",
".	c #000000",
"+	c #201313",
"@	c #764747",
"#	c #795353",
"$	c #150D0D",
"%	c #261818",
"&	c #8B5F5F",
"*	c #E08383",
"=	c #7E3F3F",
"-	c #946C6C",
";	c #E79696",
">	c #824141",
",	c #764848",
"'	c #D37171",
")	c #CF6767",
"!	c #783C3C",
"~	c #020101",
"{	c #040303",
"]	c #E89B9B",
"^	c #CA6969",
"/	c #944A4A",
"(	c #412121",
"_	c #7F3F3F",
":	c #CF6868",
"<	c #CD6666",
"[	c #D46C6C",
"}	c #683838",
"|	c #795757",
"1	c #E99A9A",
"2	c #8A4444",
"3	c #3D1E1E",
"4	c #763B3B",
"5	c #D46D6D",
"6	c #CD6969",
"7	c #D77878",
"8	c #DB8383",
"9	c #C76868",
"0	c #8F4646",
"a	c #3B1D1D",
"b	c #683737",
"c	c #D77777",
"d	c #D06C6C",
"e	c #CE6666",
"f	c #AB5555",
"g	c #361B1B",
"h	c #785858",
"i	c #DB8282",
"j	c #CE6767",
"k	c #C86363",
"l	c #B95C5C",
"m	c #572C2C",
"n	c #926B6B",
"o	c #EA9B9B",
"p	c #C86868",
"q	c #AB5454",
"r	c #C86464",
"s	c #C66363",
"t	c #723939",
"u	c #956C6C",
"v	c #C76363",
"w	c #D06868",
"x	c #CA6565",
"y	c #713939",
"z	c #785050",
"A	c #E79595",
"B	c #3C1E1E",
"C	c #743A3A",
"D	c #BD5E5E",
"E	c #A15151",
"F	c #4E2727",
"G	c #884444",
"H	c #964A4A",
"I	c #3D1F1F",
"J	c #713838",
"K	c #A25050",
"L	c #542929",
"M	c #4B2525",
"   .      .   ",
"  +@.    .#$  ",
" %&*=.  .-;>. ",
".,*')!~{-]^/(~",
" ._:<[}|1^23. ",
"  .4567890a.  ",
"   .bcdefg.   ",
"   .hijklm.   ",
"  .nopqlrst.  ",
" .u]^0gmvwxy. ",
".zA^2B.~CxDEF.",
" .GHI.  .JKL. ",
"  .(.    .M.  ",
"   .      .   "};
