/* XPM */
static char * expand_xpm[] = {
"14 14 40 1",
" 	c None",
".	c #393939",
"+	c #363636",
"@	c #79A97A",
"#	c #A4CCA4",
"$	c #9BC79B",
"%	c #67AB67",
"&	c #383838",
"*	c #73A373",
"=	c #AED0AE",
"-	c #9EC89E",
";	c #529751",
">	c #676767",
",	c #373737",
"'	c #609360",
")	c #6DAE6D",
"!	c #5DA15B",
"~	c #3E7A3E",
"{	c #4C4C4C",
"]	c #353535",
"^	c #264B25",
"/	c #1B361B",
"(	c #79AA7A",
"_	c #93C393",
":	c #6AAD6A",
"<	c #74A574",
"[	c #B6D6B6",
"}	c #A7CDA7",
"|	c #549A52",
"1	c #333333",
"2	c #649764",
"3	c #73B073",
"4	c #62A562",
"5	c #417D40",
"6	c #5E5E5E",
"7	c #595959",
"8	c #555555",
"9	c #437943",
"0	c #30602F",
"a	c #234623",
" .            ",
" +            ",
" + @#$%       ",
" & *=-;  >  >>",
" , ')!~      {",
" ]   ^/       ",
" +            ",
" +            ",
" + ($_:       ",
" & <[}|       ",
" 1 2345  6  78",
"    90a       ",
"              ",
"              "};
