/* XPM */
static char * export_xpm[] = {
"14 14 117 2",
"  	c None",
". 	c #7A98E5",
"+ 	c #829FE6",
"@ 	c #809DE6",
"# 	c #7D9BE5",
"$ 	c #A9BDEE",
"% 	c #D1DBF5",
"& 	c #CAD6F4",
"* 	c #C3D0F2",
"= 	c #7392E3",
"- 	c #C7D4F3",
"; 	c #B4C5F0",
"> 	c #ABBEEE",
", 	c #A7BBED",
"' 	c #8DA7E8",
") 	c #688AE1",
"! 	c #5995BB",
"~ 	c #45B865",
"{ 	c #4485B7",
"] 	c #446CD4",
"^ 	c #1E3C87",
"/ 	c #87A2E7",
"( 	c #DCE4F8",
"_ 	c #BFCEF2",
": 	c #B3C4F0",
"< 	c #A9BCEE",
"[ 	c #A2B7EC",
"} 	c #94ACEA",
"| 	c #7BB0C1",
"1 	c #74D875",
"2 	c #89D1A0",
"3 	c #5C96BD",
"4 	c #203A79",
"5 	c #8CA7E9",
"6 	c #EFF3FC",
"7 	c #D2DCF6",
"8 	c #81B098",
"9 	c #60BE6F",
"0 	c #63CA74",
"a 	c #5FC673",
"b 	c #57C669",
"c 	c #69DF6B",
"d 	c #B8F8B9",
"e 	c #80CF95",
"f 	c #1D485F",
"g 	c #8BA5E8",
"h 	c #E8EEFA",
"i 	c #CBD7F5",
"j 	c #4F845F",
"k 	c #73BE73",
"l 	c #A9ECAA",
"m 	c #B2F2B3",
"n 	c #B9F6BA",
"o 	c #8BF88F",
"p 	c #68FC6D",
"q 	c #C7FAC9",
"r 	c #6BC774",
"s 	c #8AA4E8",
"t 	c #E3E9F9",
"u 	c #C2D0F2",
"v 	c #477D5B",
"w 	c #0C9910",
"x 	c #14C119",
"y 	c #14CC18",
"z 	c #17D81C",
"A 	c #1DE324",
"B 	c #26EB30",
"C 	c #56ED5D",
"D 	c #9EE8A0",
"E 	c #57D059",
"F 	c #88A3E8",
"G 	c #DFE6F8",
"H 	c #BCCBF1",
"I 	c #437A5A",
"J 	c #007200",
"K 	c #008000",
"L 	c #008200",
"M 	c #008400",
"N 	c #009000",
"O 	c #05A808",
"P 	c #049905",
"Q 	c #025811",
"R 	c #839FE7",
"S 	c #B1C3F0",
"T 	c #679191",
"U 	c #3D7559",
"V 	c #3B7358",
"W 	c #336D57",
"X 	c #236340",
"Y 	c #006900",
"Z 	c #008401",
"` 	c #0A5D32",
" .	c #0D2E57",
"..	c #7192E4",
"+.	c #A2B7ED",
"@.	c #95ADEA",
"#.	c #8FA9E9",
"$.	c #86A1E8",
"%.	c #7997E5",
"&.	c #6588E1",
"*.	c #4273A8",
"=.	c #005700",
"-.	c #095C32",
";.	c #1F53A4",
">.	c #132F75",
",.	c #537ADE",
"'.	c #4870D7",
").	c #456AC9",
"!.	c #4064BF",
"~.	c #385AB2",
"{.	c #2F4FA4",
"].	c #244496",
"^.	c #184470",
"/.	c #044519",
"(.	c #133A69",
"_.	c #19398C",
":.	c #0F2865",
"                            ",
"    . + @ #                 ",
"  . $ % & * =               ",
"  @ - ; > , ' ) ! ~ { ] ^   ",
"  / ( _ : < [ } | 1 2 3 4   ",
"  5 6 7 8 9 0 a b c d e f   ",
"  g h i j k l m n o p q r   ",
"  s t u v w x y z A B C D E ",
"  F G H I J K L M N O P Q   ",
"  R 7 S T U V W X Y Z `  .  ",
"  ..+.@.#.$.%.&.*.=.-.;.>.  ",
"  ,.'.).!.~.{.].^./.(._.:.  ",
"                            ",
"                            "};
