/* XPM */
static char * find_xpm[] = {
"14 14 113 2",
"  	c None",
". 	c #A5B4CE",
"+ 	c #A0BFDF",
"@ 	c #A8CAE7",
"# 	c #A6C7E3",
"$ 	c #AABED6",
"% 	c #6A849D",
"& 	c #95AFD1",
"* 	c #96CCF2",
"= 	c #A8E0FA",
"- 	c #ACE4FB",
"; 	c #A9E1FB",
"> 	c #ABE2FA",
", 	c #AACADF",
"' 	c #9DB3C5",
") 	c #87A0B5",
"! 	c #748CA3",
"~ 	c #8E9EBD",
"{ 	c #93CAF1",
"] 	c #B5ECFC",
"^ 	c #CCFAFE",
"/ 	c #BFF1FD",
"( 	c #B8EEFC",
"_ 	c #B4EBFC",
": 	c #BDF1FC",
"< 	c #A8C1D2",
"[ 	c #728FA8",
"} 	c #53728F",
"| 	c #6B849C",
"1 	c #88A7CC",
"2 	c #A4DDFA",
"3 	c #C8F8FE",
"4 	c #E8FFFF",
"5 	c #CDF5FE",
"6 	c #CCF9FE",
"7 	c #CAFCFE",
"8 	c #CCFDFF",
"9 	c #BCE2E9",
"0 	c #4F6E8B",
"a 	c #3C5A79",
"b 	c #76899F",
"c 	c #8EB0D2",
"d 	c #A8E1FB",
"e 	c #B6EBFC",
"f 	c #C8F3FD",
"g 	c #CAF9FE",
"h 	c #DBFFFF",
"i 	c #DAFFFF",
"j 	c #DCFFFF",
"k 	c #CEEEF1",
"l 	c #809FC4",
"m 	c #A7E0FA",
"n 	c #B1E8FB",
"o 	c #C4F5FE",
"p 	c #D7FEFF",
"q 	c #DEFFFF",
"r 	c #E7FFFF",
"s 	c #EBFFFF",
"t 	c #CCE0E7",
"u 	c #6A7DA1",
"v 	c #A4DBF6",
"w 	c #ACE5FB",
"x 	c #C0F5FD",
"y 	c #D4FFFF",
"z 	c #E2FFFF",
"A 	c #F0FFFF",
"B 	c #F7FEFF",
"C 	c #AEB7C6",
"D 	c #7C99BA",
"E 	c #B1E6F7",
"F 	c #C1F5FE",
"G 	c #D2FFFF",
"H 	c #E0FFFF",
"I 	c #ECFEFE",
"J 	c #C6CED8",
"K 	c #898AA2",
"L 	c #768CAA",
"M 	c #A0C4D5",
"N 	c #B7DCE4",
"O 	c #B9D4DD",
"P 	c #9EABBC",
"Q 	c #8789A1",
"R 	c #A7A5B2",
"S 	c #C89F68",
"T 	c #CF8A23",
"U 	c #B48549",
"V 	c #EFD28D",
"W 	c #ECB34D",
"X 	c #C37F21",
"Y 	c #8197AC",
"Z 	c #617C97",
"` 	c #CCA153",
" .	c #F8E19E",
"..	c #EAB24E",
"+.	c #B77622",
"@.	c #A4B9CA",
"#.	c #7592AB",
"$.	c #7A93AA",
"%.	c #C29851",
"&.	c #F8DF9B",
"*.	c #E9B351",
"=.	c #A26825",
"-.	c #7592AA",
";.	c #51708D",
">.	c #405E7D",
",.	c #879DB1",
"'.	c #BB9353",
").	c #E2C586",
"!.	c #977964",
"~.	c #7D94AA",
"{.	c #3D5C7A",
"].	c #5D758E",
"^.	c #87644D",
"    . + @ # $           %   ",
"  & * = - ; > ,       ' ) ! ",
"~ { ] ^ / ( _ : <     [ } | ",
"1 2 3 4 5 6 7 8 9     0 a b ",
"c d e f g h i j k           ",
"l m n o p q r s t           ",
"u v w x y z A B C           ",
"  D E F G H I J K           ",
"    L M N O P Q R S T       ",
"                U V W X     ",
"  Y   Z           `  ...+.  ",
"@.#.$.              %.&.*.=.",
"-.;.>.,.              '.).!.",
"~.{.].                  ^.  "};
