/* XPM */
static char * folder_open_xpm[] = {
"14 14 86 1",
" 	c None",
".	c #E9EAF3",
"+	c #DCDFEE",
"@	c #EDEEF5",
"#	c #ECECF4",
"$	c #EAEAF3",
"%	c #879ED4",
"&	c #A2CAF6",
"*	c #F1F2F7",
"=	c #F2F2F8",
"-	c #E6E6F0",
";	c #CFD4EA",
">	c #5880D6",
",	c #D1E6FC",
"'	c #CFE4FF",
")	c #C3DAF8",
"!	c #EFF2F7",
"~	c #F8F8FB",
"{	c #F3F2F7",
"]	c #C2D1EB",
"^	c #9FBCE8",
"/	c #6FA2EA",
"(	c #5197F1",
"_	c #0045C7",
":	c #C3DFFB",
"<	c #CAE1FF",
"[	c #E0E6EE",
"}	c #FEFEFE",
"|	c #C1D5EE",
"1	c #9BC6F7",
"2	c #65A7F8",
"3	c #5A9FF7",
"4	c #3E7DE3",
"5	c #002DB1",
"6	c #ABD1F7",
"7	c #C4DEFF",
"8	c #BACDEA",
"9	c #CEE3F6",
"0	c #B2D4F3",
"a	c #9FCBF7",
"b	c #75B3FA",
"c	c #589CF6",
"d	c #3E78E2",
"e	c #0C39BE",
"f	c #002CAE",
"g	c #C1DCFF",
"h	c #9EC8F8",
"i	c #C5E4F8",
"j	c #AED9FD",
"k	c #87BEFA",
"l	c #5996F1",
"m	c #336FE3",
"n	c #2054CF",
"o	c #6279C5",
"p	c #5E71B0",
"q	c #AFD0FA",
"r	c #91C2F8",
"s	c #ABD4F8",
"t	c #98C9FA",
"u	c #6FA8F4",
"v	c #518BEB",
"w	c #7596DB",
"x	c #B2B6CF",
"y	c #B4B4C6",
"z	c #4C63A8",
"A	c #97BFF1",
"B	c #8BBEF7",
"C	c #94C9FE",
"D	c #7EB6F6",
"E	c #9DBDEE",
"F	c #CBD0E0",
"G	c #CBCBD8",
"H	c #9BA4C4",
"I	c #4A63A7",
"J	c #91C1F6",
"K	c #BBDCFC",
"L	c #E0E7F1",
"M	c #E3E2E9",
"N	c #B9C1D7",
"O	c #6178B6",
"P	c #9FC5F0",
"Q	c #FAFAFB",
"R	c #DAE0EC",
"S	c #7C99CC",
"T	c #82AFE6",
"U	c #9CBCE4",
"              ",
"       .+     ",
"      @#$%    ",
"   & *=#-; >  ",
" ,')!~{]^/(_  ",
" :<[}~|12345  ",
" 67890abcdef  ",
"  ghijklmnop  ",
"  qrstuvwxyz  ",
"  ABCDEFGHI   ",
"   JKLMNO     ",
"   PQRS       ",
"   TU         ",
"              "};
