/* XPM */
static char * help_icon_xpm[] = {
"14 14 102 2",
"  	c None",
". 	c #FBC4AC",
"+ 	c #FBBA9E",
"@ 	c #FEA391",
"# 	c #FDEAE2",
"$ 	c #FDFAF9",
"% 	c #FDFDFD",
"& 	c #FFBEBC",
"* 	c #FE8473",
"= 	c #F64A1B",
"- 	c #FF9687",
"; 	c #FFB7B6",
"> 	c #FDEFEF",
", 	c #FCFCFC",
"' 	c #FBFBFB",
") 	c #FBF5F5",
"! 	c #FDCDCD",
"~ 	c #FECCCC",
"{ 	c #FFB2AF",
"] 	c #EE502D",
"^ 	c #FE8F7C",
"/ 	c #FFABAA",
"( 	c #FEBFBF",
"_ 	c #F9B6B5",
": 	c #EEC9BA",
"< 	c #DAA28A",
"[ 	c #DD7D62",
"} 	c #EF604C",
"| 	c #F7A9A8",
"1 	c #FDBFBF",
"2 	c #FEA9A7",
"3 	c #D25735",
"4 	c #FF877F",
"5 	c #FEAAAA",
"6 	c #F79696",
"7 	c #E0533A",
"8 	c #E13A19",
"9 	c #F4BBBA",
"0 	c #FBF2F2",
"a 	c #ECC4B8",
"b 	c #FDDCDB",
"c 	c #FAC5C5",
"d 	c #ED7061",
"e 	c #E5B9AA",
"f 	c #F8F8F8",
"g 	c #F9F4F2",
"h 	c #FBC3AB",
"i 	c #F6F6F6",
"j 	c #D9A189",
"k 	c #D7947E",
"l 	c #F5F5F5",
"m 	c #FAFAFA",
"n 	c #AE6A5A",
"o 	c #F4F4F4",
"p 	c #DC9C82",
"q 	c #D28470",
"r 	c #F3F0F0",
"s 	c #F9F9F9",
"t 	c #A66558",
"u 	c #FAF5F3",
"v 	c #F4F3F3",
"w 	c #E9917E",
"x 	c #D02C21",
"y 	c #EE6868",
"z 	c #F68988",
"A 	c #FBAF9E",
"B 	c #F76D6D",
"C 	c #E83838",
"D 	c #DB2908",
"E 	c #C11C08",
"F 	c #E03837",
"G 	c #F14040",
"H 	c #DB2622",
"I 	c #F6390B",
"J 	c #FC2926",
"K 	c #F12B2B",
"L 	c #E22525",
"M 	c #DA5748",
"N 	c #D6937D",
"O 	c #D2917D",
"P 	c #D69C91",
"Q 	c #DC2B2B",
"R 	c #EA2B2B",
"S 	c #F32726",
"T 	c #900D05",
"U 	c #ED2A06",
"V 	c #F91614",
"W 	c #F01616",
"X 	c #EDAAAA",
"Y 	c #ECECEC",
"Z 	c #EFEEEE",
"` 	c #EF7979",
" .	c #F11514",
"..	c #A80D06",
"+.	c #D22301",
"@.	c #EB1407",
"#.	c #F5E0DF",
"$.	c #F3EFEE",
"%.	c #D8A6A1",
"&.	c #900C04",
"*.	c #AE6959",
"=.	c #A66658",
"            . +             ",
"      @ # $ % % & * =       ",
"    - ; > , ' ) ! ~ { ]     ",
"  ^ / ( _ : < [ } | 1 2 3   ",
"  4 5 6 7         8 9 0 a   ",
"  b c d             e f g   ",
"h ' i j             k l m n ",
"+ m o p             q r s t ",
"  u v w             x y z   ",
"  A B C D         E F G H   ",
"  I J K L M N O P Q R S T   ",
"    U V W X Y Y Z `  ...    ",
"      +.@.#.i i $.%.&.      ",
"            *.=.            "};
