/* XPM */
static char * import_xpm[] = {
"14 14 119 2",
"  	c None",
". 	c #7A98E5",
"+ 	c #829FE6",
"@ 	c #809DE6",
"# 	c #7D9BE5",
"$ 	c #A9BDEE",
"% 	c #D1DBF5",
"& 	c #CAD6F4",
"* 	c #C3D0F2",
"= 	c #7392E3",
"- 	c #C7D4F3",
"; 	c #B4C5F0",
"> 	c #ABBEEE",
", 	c #A7BBED",
"' 	c #8DA7E8",
") 	c #658DD8",
"! 	c #45A781",
"~ 	c #4CAD82",
"{ 	c #4E76DD",
"] 	c #446CD4",
"^ 	c #1E3C87",
"/ 	c #87A2E7",
"( 	c #DCE4F8",
"_ 	c #BFCEF2",
": 	c #B3C4F0",
"< 	c #A9BCEE",
"[ 	c #A2B7EC",
"} 	c #6AC18C",
"| 	c #9EE49F",
"1 	c #5FBB85",
"2 	c #6A8CE2",
"3 	c #203A79",
"4 	c #8CA7E9",
"5 	c #EFF3FC",
"6 	c #D2DCF6",
"7 	c #C7D4F4",
"8 	c #BCCBF1",
"9 	c #6ECA84",
"0 	c #CBF4CC",
"a 	c #89F18B",
"b 	c #50C95A",
"c 	c #59C272",
"d 	c #52BD71",
"e 	c #3FA857",
"f 	c #318935",
"g 	c #8BA5E8",
"h 	c #E8EEFA",
"i 	c #CBD7F5",
"j 	c #C3D0F3",
"k 	c #71CC84",
"l 	c #D6F3D7",
"m 	c #87FC8A",
"n 	c #5EFA64",
"o 	c #B9F6BA",
"p 	c #B5F4B6",
"q 	c #AEEFAF",
"r 	c #9CE49D",
"s 	c #186618",
"t 	c #8AA4E8",
"u 	c #E3E9F9",
"v 	c #C2D0F2",
"w 	c #7DCB96",
"x 	c #98DF9B",
"y 	c #77EC7C",
"z 	c #2CED35",
"A 	c #1EE627",
"B 	c #19DC1F",
"C 	c #15D019",
"D 	c #14C619",
"E 	c #11B716",
"F 	c #025A03",
"G 	c #88A3E8",
"H 	c #DFE6F8",
"I 	c #AFC2EF",
"J 	c #4A8068",
"K 	c #058807",
"L 	c #09AD0D",
"M 	c #009B01",
"N 	c #008500",
"O 	c #008300",
"P 	c #008100",
"Q 	c #007E00",
"R 	c #005300",
"S 	c #839FE7",
"T 	c #B1C3F0",
"U 	c #A8BCEE",
"V 	c #A3B8ED",
"W 	c #477B6B",
"X 	c #007500",
"Y 	c #008601",
"Z 	c #0F5620",
"` 	c #266354",
" .	c #175852",
"..	c #07422D",
"+.	c #014A06",
"@.	c #7192E4",
"#.	c #A2B7ED",
"$.	c #95ADEA",
"%.	c #8FA9E9",
"&.	c #86A1E8",
"*.	c #7997E5",
"=.	c #1D5E60",
"-.	c #006200",
";.	c #1C5C53",
">.	c #4770D9",
",.	c #315DCE",
"'.	c #132F75",
").	c #537ADE",
"!.	c #4870D7",
"~.	c #456AC9",
"{.	c #4064BF",
"].	c #385AB2",
"^.	c #2F4FA4",
"/.	c #22438B",
"(.	c #093E33",
"_.	c #0A4738",
":.	c #1B3C92",
"<.	c #19398C",
"[.	c #0F2865",
"                            ",
"    . + @ #                 ",
"  . $ % & * =               ",
"  @ - ; > , ' ) ! ~ { ] ^   ",
"  / ( _ : < [ } | 1 @ 2 3   ",
"  4 5 6 7 8 9 0 a b c d e f ",
"  g h i j k l m n o p q r s ",
"  t u v w x y z A B C D E F ",
"  G H 8 I J K L M N O P Q R ",
"  S 6 T U V W X Y Z `  ...+.",
"  @.#.$.%.&.*.=.-.;.>.,.'.  ",
"  ).!.~.{.].^./.(._.:.<.[.  ",
"                            ",
"                            "};
