/* XPM */
static char * new_xpm[] = {
"14 14 98 2",
"  	c None",
". 	c #CBD5E6",
"+ 	c #E1E6EF",
"@ 	c #E0E6EF",
"# 	c #DBE2EE",
"$ 	c #D1DAE9",
"% 	c #BCC7DC",
"& 	c #D9E1EE",
"* 	c #FFFFFF",
"= 	c #FDFFFF",
"- 	c #F2F7FE",
"; 	c #E4EAF5",
"> 	c #C8D2E4",
", 	c #D3DCEB",
"' 	c #FEFFFF",
") 	c #F7FAFF",
"! 	c #EAEEF8",
"~ 	c #CDD6E7",
"{ 	c #EAEEF5",
"] 	c #CCD5E5",
"^ 	c #F9FCFF",
"/ 	c #EDF2FB",
"( 	c #D9E1EF",
"_ 	c #B6C2D6",
": 	c #A3B2CB",
"< 	c #94A5C0",
"[ 	c #FAFDFF",
"} 	c #F0F4FB",
"| 	c #EAC99F",
"1 	c #C7C9D0",
"2 	c #B7C4DA",
"3 	c #A1B0CA",
"4 	c #F8FBFF",
"5 	c #ECE6E2",
"6 	c #F7C05D",
"7 	c #D2AE82",
"8 	c #C2CDE0",
"9 	c #AAB8CF",
"0 	c #E9EFF8",
"a 	c #E8C9A0",
"b 	c #FDEA5A",
"c 	c #EABA5D",
"d 	c #CACED8",
"e 	c #B1BDD3",
"f 	c #FFFAF3",
"g 	c #FEE0AF",
"h 	c #F5D39F",
"i 	c #F1CA86",
"j 	c #F7CB5D",
"k 	c #FFFE4C",
"l 	c #FAE75A",
"m 	c #E1AE69",
"n 	c #CBA57C",
"o 	c #FFFAF2",
"p 	c #F9C671",
"q 	c #FEDF57",
"r 	c #FFF24A",
"s 	c #FFF643",
"t 	c #FFF838",
"u 	c #FFF83D",
"v 	c #FEF247",
"w 	c #FBE248",
"x 	c #E19226",
"y 	c #FEFEFF",
"z 	c #F2F1F0",
"A 	c #F0C47A",
"B 	c #FBCF23",
"C 	c #FFE324",
"D 	c #FDD426",
"E 	c #D6932B",
"F 	c #FDFEFF",
"G 	c #F1F5FD",
"H 	c #ECF0F6",
"I 	c #F3AB31",
"J 	c #FFCC10",
"K 	c #FFCB10",
"L 	c #F6AD11",
"M 	c #AC8C77",
"N 	c #FAFCFE",
"O 	c #EFF4FC",
"P 	c #ECE9E9",
"Q 	c #F6A113",
"R 	c #FDA902",
"S 	c #F2960B",
"T 	c #F8A403",
"U 	c #FAA402",
"V 	c #B2805C",
"W 	c #C3CEE0",
"X 	c #D1D8E3",
"Y 	c #CAD3E1",
"Z 	c #D1BEB1",
"` 	c #EE8208",
" .	c #C77D33",
"..	c #AF9A8F",
"+.	c #B98B69",
"@.	c #DA7614",
"#.	c #B96730",
"$.	c #983C0A",
"      . + + @ # $ %         ",
"      & * * = - ; > ,       ",
"      & * * ' ) ! ~ { ]     ",
"      & * * * ^ / ( _ : <   ",
"      & * * * [ } | 1 2 3   ",
"      & * * ' 4 5 6 7 8 9   ",
"      & * ' [ 0 a b c d e   ",
"      & f g h i j k l m n   ",
"      & o p q r s t u v w x ",
"      & y z A B C C C D E   ",
"      & F G H I J K J L M   ",
"      & N O P Q R S T U V   ",
"      W X Y Z `  ...+.@.#.  ",
"                        $.  "};
