/* XPM */
static char * paste_xpm[] = {
"14 14 142 2",
"  	c None",
". 	c #96A0AC",
"+ 	c #9BB0D4",
"@ 	c #5E7095",
"# 	c #EFBE61",
"$ 	c #F2D797",
"% 	c #EDCF86",
"& 	c #BAAF8F",
"* 	c #A7B4C7",
"= 	c #C9D6EB",
"- 	c #C0D1EB",
"; 	c #7E8289",
"> 	c #C39033",
", 	c #D58C1D",
"' 	c #7E440B",
") 	c #F0C470",
"! 	c #F5F0D4",
"~ 	c #DDD6B5",
"{ 	c #8695A8",
"] 	c #7285A7",
"^ 	c #7786A1",
"/ 	c #7A879C",
"( 	c #69748E",
"_ 	c #946339",
": 	c #F67202",
"< 	c #A44102",
"[ 	c #F0C36E",
"} 	c #F4EBCC",
"| 	c #ECDCAF",
"1 	c #CDC29B",
"2 	c #C1B486",
"3 	c #C3A86B",
"4 	c #B8924A",
"5 	c #B17B31",
"6 	c #C66C1C",
"7 	c #DE6610",
"8 	c #944311",
"9 	c #F3E7C5",
"0 	c #F4E1AA",
"a 	c #F7DF9B",
"b 	c #F8D781",
"c 	c #F7C353",
"d 	c #CFA555",
"e 	c #B8B7AC",
"f 	c #C2B1AA",
"g 	c #B7AAAC",
"h 	c #9BA0B2",
"i 	c #55739A",
"j 	c #F3E3B5",
"k 	c #F3D893",
"l 	c #F3D485",
"m 	c #F4C663",
"n 	c #F3AA27",
"o 	c #BC9656",
"p 	c #C5E2FF",
"q 	c #BFDAFB",
"r 	c #ADCFFC",
"s 	c #A9CCFD",
"t 	c #6EABF2",
"u 	c #2061A8",
"v 	c #F0C36D",
"w 	c #F3E2AD",
"x 	c #F3D890",
"y 	c #F3CC73",
"z 	c #F4B63E",
"A 	c #F3A216",
"B 	c #BC9859",
"C 	c #CDE6FE",
"D 	c #C8DFFB",
"E 	c #BAD6FB",
"F 	c #A8CCFB",
"G 	c #5DA3F8",
"H 	c #218AF6",
"I 	c #F3E0AF",
"J 	c #F3D181",
"K 	c #F3C056",
"L 	c #F4B539",
"M 	c #F2AB22",
"N 	c #BC9C60",
"O 	c #CCE5FE",
"P 	c #C7DEFB",
"Q 	c #B8D5FB",
"R 	c #BBD5FD",
"S 	c #ABCAFE",
"T 	c #6CB0FF",
"U 	c #F3DDA7",
"V 	c #F3C564",
"W 	c #F3BC4C",
"X 	c #F4B63C",
"Y 	c #F3AC26",
"Z 	c #BC9E63",
"` 	c #CAE4FF",
" .	c #BCD7FB",
"..	c #A4C8FB",
"+.	c #92BBFB",
"@.	c #8EB7FB",
"#.	c #72B3FE",
"$.	c #F3D99A",
"%.	c #F3BD50",
"&.	c #F3BA45",
"*.	c #F4B53B",
"=.	c #F3AC25",
"-.	c #BC9D63",
";.	c #CAE5FF",
">.	c #BBD6FB",
",.	c #A1C5FB",
"'.	c #99C1FB",
").	c #9CC1FC",
"!.	c #7CB9FE",
"~.	c #F5C870",
"{.	c #F8DC9B",
"].	c #F8C65C",
"^.	c #F8C252",
"/.	c #F8BE49",
"(.	c #F7B534",
"_.	c #BFA46C",
":.	c #CBE4FF",
"<.	c #B7D3FB",
"[.	c #A4C6FB",
"}.	c #A0C4FB",
"|.	c #A2C4FC",
"1.	c #80BDFF",
"2.	c #B08749",
"3.	c #B78958",
"4.	c #B48041",
"5.	c #B47D3A",
"6.	c #B47C36",
"7.	c #B3742B",
"8.	c #927D68",
"9.	c #C4E7FF",
"0.	c #C1DEFE",
"a.	c #B4D6FE",
"b.	c #AED3FE",
"c.	c #AED2FE",
"d.	c #7DC1FF",
"e.	c #303341",
"f.	c #3A7CBA",
"g.	c #3C78B3",
"h.	c #3975B3",
"i.	c #3774B3",
"j.	c #3674B3",
"k.	c #2570B9",
"        . + @               ",
"# $ % & * = - ; > , '       ",
") ! ~ { ] ^ / ( _ : <       ",
"[ } | 1 2 3 4 5 6 7 8       ",
"[ 9 0 a b c d e f g h i     ",
"[ j k l m n o p q r s t u   ",
"v w x y z A B C D E F G H   ",
"v I J K L M N O P Q R S T   ",
"[ U V W X Y Z `  ...+.@.#.  ",
"v $.%.&.*.=.-.;.>.,.'.).!.  ",
"~.{.].^./.(._.:.<.[.}.|.1.  ",
"2.3.4.5.6.7.8.9.0.a.b.c.d.  ",
"            e.f.g.h.i.j.k.  ",
"                            "};
