/* XPM */
static char * quit_icon_xpm[] = {
"14 14 103 2",
"  	c None",
". 	c #C50000",
"+ 	c #C20000",
"@ 	c #CB0000",
"# 	c #D51313",
"$ 	c #E44A4A",
"% 	c #ED6F6F",
"& 	c #EC7070",
"* 	c #E05050",
"= 	c #C91A1A",
"- 	c #B30000",
"; 	c #CD0000",
"> 	c #E53B3B",
", 	c #FBB1B1",
"' 	c #FFD6D6",
") 	c #FFD9D9",
"! 	c #FFD7D7",
"~ 	c #FBBCBC",
"{ 	c #DB4C4C",
"] 	c #B00000",
"^ 	c #CA0000",
"/ 	c #E52F2F",
"( 	c #FEADAD",
"_ 	c #FFBDBD",
": 	c #FFB3B3",
"< 	c #FEB1B1",
"[ 	c #D84343",
"} 	c #A60000",
"| 	c #D50808",
"1 	c #FB7272",
"2 	c #FFBCBC",
"3 	c #FFFFFF",
"4 	c #FFE7E7",
"5 	c #FF9B9B",
"6 	c #FFBBBB",
"7 	c #FA7171",
"8 	c #B90C0C",
"9 	c #E41B1B",
"0 	c #FF6464",
"a 	c #FF7474",
"b 	c #FFE0E0",
"c 	c #FCC6C6",
"d 	c #F63535",
"e 	c #F30E0E",
"f 	c #D00202",
"g 	c #EC1C1C",
"h 	c #FF3F3F",
"i 	c #FF5252",
"j 	c #FFD2D2",
"k 	c #F31C1C",
"l 	c #F20000",
"m 	c #DC0000",
"n 	c #9B0000",
"o 	c #C10000",
"p 	c #EC0A0A",
"q 	c #FF1616",
"r 	c #FF3131",
"s 	c #FFCECE",
"t 	c #F41C1C",
"u 	c #F40000",
"v 	c #970000",
"w 	c #E10000",
"x 	c #FE0101",
"y 	c #FE1B1B",
"z 	c #FFC5C5",
"A 	c #FFC6C6",
"B 	c #FDC4C4",
"C 	c #FA1A1A",
"D 	c #FA0000",
"E 	c #CF0000",
"F 	c #CB0202",
"G 	c #FC0909",
"H 	c #FF6D6D",
"I 	c #FFC8C8",
"J 	c #FF2525",
"K 	c #FB0909",
"L 	c #AE0202",
"M 	c #B30101",
"N 	c #DE1313",
"O 	c #FF2828",
"P 	c #FF7E7E",
"Q 	c #FF3A3A",
"R 	c #FF2323",
"S 	c #FE2828",
"T 	c #D01313",
"U 	c #8E0101",
"V 	c #B00404",
"W 	c #DB2121",
"X 	c #FC3B3B",
"Y 	c #FF3D3D",
"Z 	c #FB3B3B",
"` 	c #D02121",
" .	c #930404",
"..	c #A50202",
"+.	c #BB1616",
"@.	c #D73131",
"#.	c #E63F3F",
"$.	c #E53F3F",
"%.	c #D33131",
"&.	c #AF1616",
"*.	c #8E0202",
"=.	c #9B0505",
"-.	c #970505",
"            . +             ",
"      @ # $ % & * = -       ",
"    ; > , ' ) ) ! ~ { ]     ",
"  ^ / ( ' _ : : _ ' < [ }   ",
"  | 1 2 3 4 5 5 4 3 6 7 8   ",
"  9 0 a ) 3 b b 3 c d e f   ",
". g h h i j 3 3 c k l l m n ",
"o p q q r s 3 3 c t u u m v ",
"  w x y z 3 A A 3 B C D E   ",
"  F G H 3 I J J I 3 H K L   ",
"  M N O P Q R R Q P S T U   ",
"    V W X Y Y Y Y Z `  .    ",
"      ..+.@.#.$.%.&.*.      ",
"            =.-.            "};
