/* XPM */
static char * save_xpm[] = {
"14 14 100 2",
"  	c None",
". 	c #788F79",
"+ 	c #36B43E",
"@ 	c #52A357",
"# 	c #5E5E5E",
"$ 	c #949494",
"% 	c #9D9E9D",
"& 	c #E9F8E9",
"* 	c #E6F4E6",
"= 	c #E6F5E6",
"- 	c #E5F4E5",
"; 	c #E4F3E4",
"> 	c #C3CBC3",
", 	c #595959",
"' 	c #8F8F8F",
") 	c #999999",
"! 	c #FAFAFA",
"~ 	c #F6F6F6",
"{ 	c #F5F5F5",
"] 	c #F4F4F4",
"^ 	c #F2F2F2",
"/ 	c #EEEEEE",
"( 	c #EAEAEA",
"_ 	c #BEBEBE",
": 	c #575757",
"< 	c #8E8E8E",
"[ 	c #9B9B9B",
"} 	c #F8F8F8",
"| 	c #F3F3F3",
"1 	c #F1F1F1",
"2 	c #EBEBEB",
"3 	c #E5E5E5",
"4 	c #DFDFDF",
"5 	c #DBDBDB",
"6 	c #AEAEAE",
"7 	c #4D4D4D",
"8 	c #9D9D9D",
"9 	c #E7E7E7",
"0 	c #E1E1E1",
"a 	c #DADADA",
"b 	c #D4D4D4",
"c 	c #CECECE",
"d 	c #C9C9C9",
"e 	c #484848",
"f 	c #909090",
"g 	c #8C8C8C",
"h 	c #C4C4C4",
"i 	c #BDBDBD",
"j 	c #B5B5B5",
"k 	c #AFAFAF",
"l 	c #AAAAAA",
"m 	c #A4A4A4",
"n 	c #9C9C9C",
"o 	c #797979",
"p 	c #444444",
"q 	c #7D7D7D",
"r 	c #767676",
"s 	c #6E6E6E",
"t 	c #656565",
"u 	c #5D5D5D",
"v 	c #5C5C5C",
"w 	c #585858",
"x 	c #515151",
"y 	c #3B3B3B",
"z 	c #888888",
"A 	c #737373",
"B 	c #C2C2C2",
"C 	c #C7C7C7",
"D 	c #ABABAB",
"E 	c #606060",
"F 	c #353535",
"G 	c #828282",
"H 	c #6D6D6D",
"I 	c #D9D9D9",
"J 	c #A9A9A9",
"K 	c #BFBFBF",
"L 	c #B3B3B3",
"M 	c #424242",
"N 	c #313131",
"O 	c #7E7E7E",
"P 	c #6B6B6B",
"Q 	c #747474",
"R 	c #979797",
"S 	c #A0A0A0",
"T 	c #9E9E9E",
"U 	c #A2A2A2",
"V 	c #404040",
"W 	c #2F2F2F",
"X 	c #636363",
"Y 	c #B0B0B0",
"Z 	c #929292",
"` 	c #B8B8B8",
" .	c #3C3C3C",
"..	c #252525",
"+.	c #191919",
"@.	c #1F1F1F",
"#.	c #292929",
"$.	c #282828",
"%.	c #1A1A1A",
"&.	c #101010",
"                            ",
"    . + + + + + + + @ #     ",
"  $ % & * = = = - ; > ,     ",
"  ' ) ! ~ { ] ^ / ( _ :     ",
"  < [ } | 1 2 3 4 5 6 7     ",
"  ' 8 ^ 9 0 a b c d [ e     ",
"  f g h i j k l m n o p     ",
"  ' q r s t u v v w x y     ",
"  z A h B C C B D E e F     ",
"  G H I o J K L 8 : M N     ",
"  O P C Q R S T U : V W     ",
"    X Y Z < [ J ` ,  ...    ",
"      +.@.#.#.#.#.$.%.&.    ",
"                            "};
