/* XPM */
static char * trash_xpm[] = {
"14 14 110 2",
"  	c None",
". 	c #BEBEBD",
"+ 	c #B2B2B2",
"@ 	c #A5A5A6",
"# 	c #979797",
"$ 	c #8B8B8C",
"% 	c #DCDDDD",
"& 	c #D4D4D4",
"* 	c #C2C3C3",
"= 	c #B4B5B4",
"- 	c #A5A5A5",
"; 	c #969698",
"> 	c #8C8C8D",
", 	c #7D7E7E",
"' 	c #717071",
") 	c #C8C8C8",
"! 	c #EAEAEA",
"~ 	c #C3C4C3",
"{ 	c #B9BABA",
"] 	c #AFAFB0",
"^ 	c #A2A2A2",
"/ 	c #959495",
"( 	c #8C8C8C",
"_ 	c #7B7C7C",
": 	c #676767",
"< 	c #535353",
"[ 	c #ABACAC",
"} 	c #DBDBDA",
"| 	c #D1D1D1",
"1 	c #C5C5C5",
"2 	c #B5B5B5",
"3 	c #A3A3A4",
"4 	c #9A999A",
"5 	c #848484",
"6 	c #626262",
"7 	c #474747",
"8 	c #A4A5A5",
"9 	c #C2C2C2",
"0 	c #C6C6C5",
"a 	c #BBBBBB",
"b 	c #AEAEAE",
"c 	c #9D9D9D",
"d 	c #939393",
"e 	c #7B7B7C",
"f 	c #595959",
"g 	c #494949",
"h 	c #A1A1A1",
"i 	c #B6B6B6",
"j 	c #A9AAA9",
"k 	c #9B9B9B",
"l 	c #7F7F7F",
"m 	c #686868",
"n 	c #4E4E4E",
"o 	c #4B4A4B",
"p 	c #BEBEBE",
"q 	c #EDEDED",
"r 	c #CFCFCF",
"s 	c #ABABAB",
"t 	c #A0A0A0",
"u 	c #939394",
"v 	c #888889",
"w 	c #696969",
"x 	c #4D4D4D",
"y 	c #484848",
"z 	c #C0C0C0",
"A 	c #ECECEC",
"B 	c #CDCDCD",
"C 	c #AAAAAA",
"D 	c #9F9F9F",
"E 	c #929393",
"F 	c #8A8A8A",
"G 	c #7A7A7A",
"H 	c #5E5E5E",
"I 	c #BCBCBC",
"J 	c #E0E0E0",
"K 	c #C6C6C6",
"L 	c #A9A9A9",
"M 	c #9E9E9D",
"N 	c #909190",
"O 	c #868687",
"P 	c #757575",
"Q 	c #5C5C5C",
"R 	c #B9B9B9",
"S 	c #A8A8A8",
"T 	c #8F8F8E",
"U 	c #707070",
"V 	c #575757",
"W 	c #C9C9C9",
"X 	c #BABABA",
"Y 	c #A7A8A8",
"Z 	c #9C9C9C",
"` 	c #8E8D8C",
" .	c #828281",
"..	c #6C6C6C",
"+.	c #525252",
"@.	c #3C3C3C",
"#.	c #BBBABB",
"$.	c #A7A7A7",
"%.	c #9A9A9A",
"&.	c #8B8B8B",
"*.	c #7E7E7E",
"=.	c #4C4C4C",
"-.	c #302F2F",
";.	c #ACACAC",
">.	c #A3A3A3",
",.	c #979798",
"'.	c #868686",
").	c #777777",
"!.	c #3E3E3E",
"~.	c #212121",
"      . + @ # $             ",
"  % & * = - ; > , '         ",
") ! ~ { ] ^ / ( _ : <       ",
"[ } | | 1 2 3 4 5 6 7       ",
"8 9 1 0 a b c d e f g       ",
"  h i 2 j k $ l m n o       ",
"  p q r s t u v w x y       ",
"  z A B C D E F G H g       ",
"  I J K L M N O P Q n       ",
"  R & z S c T 5 U V g       ",
"  i W X Y Z `  ...+.@.      ",
"  + #.+ $.%.&.*.: =.-.      ",
"  ;.$.L >.,.'.).f !.~.      ",
"                            "};
