/* XPM */
static char * zsafe_xpm[] = {
"32 32 271 2",
"  	c None",
". 	c #8E8EA9",
"+ 	c #8F8FA9",
"@ 	c #8C8CA7",
"# 	c #8B8BA6",
"$ 	c #AEAEC1",
"% 	c #CACAD6",
"& 	c #DEDEE5",
"* 	c #DBDBE2",
"= 	c #CDCDD7",
"- 	c #A9A9BC",
"; 	c #8D8DA8",
"> 	c #83839C",
", 	c #8686A2",
"' 	c #A4A4B9",
") 	c #EEEEF1",
"! 	c #FEFEFE",
"~ 	c #FFFFFF",
"{ 	c #FDFDFD",
"] 	c #E4E4E8",
"^ 	c #9F9FB4",
"/ 	c #82829D",
"( 	c #80809D",
"_ 	c #B0B0C2",
": 	c #FBFBFB",
"< 	c #F3F3F3",
"[ 	c #EDEDED",
"} 	c #EBEBEB",
"| 	c #ECECEC",
"1 	c #F6F6F6",
"2 	c #FAFAFA",
"3 	c #A9A9BB",
"4 	c #7B7B97",
"5 	c #7A7A98",
"6 	c #9B9BB1",
"7 	c #F2F2F2",
"8 	c #D3D3D9",
"9 	c #B6B6C4",
"0 	c #AEAEBD",
"a 	c #CACAD0",
"b 	c #D9D9D9",
"c 	c #E5E5E5",
"d 	c #FCFCFC",
"e 	c #9898AC",
"f 	c #6B6B85",
"g 	c #777795",
"h 	c #ECECEF",
"i 	c #F0F0F0",
"j 	c #E3E3E5",
"k 	c #9292A9",
"l 	c #757592",
"m 	c #666680",
"n 	c #676780",
"o 	c #72728F",
"p 	c #8888A1",
"q 	c #C0C0C5",
"r 	c #DADADA",
"s 	c #E5E5E6",
"t 	c #7B7B98",
"u 	c #6F6F8E",
"v 	c #A3A3B6",
"w 	c #F4F4F4",
"x 	c #E9E9E9",
"y 	c #8787A0",
"z 	c #60607B",
"A 	c #5E5E78",
"B 	c #767693",
"C 	c #C3C3C5",
"D 	c #E2E2E2",
"E 	c #9696AA",
"F 	c #6A6A89",
"G 	c #E8E8E8",
"H 	c #B7B7C3",
"I 	c #656583",
"J 	c #636380",
"K 	c #8C8CA0",
"L 	c #C4C4C4",
"M 	c #BFBFC9",
"N 	c #626280",
"O 	c #666686",
"P 	c #EFEFF1",
"Q 	c #F5F5F5",
"R 	c #E3E3E3",
"S 	c #85859D",
"T 	c #46465C",
"U 	c #6B6B8A",
"V 	c #BCBCBC",
"W 	c #EEEEEE",
"X 	c #DFDFE1",
"Y 	c #606082",
"Z 	c #F8F8F8",
"` 	c #DEDEDE",
" .	c #7F7F98",
"..	c #B7B7B7",
"+.	c #5B5B7D",
"@.	c #EAEAEA",
"#.	c #7A7A93",
"$.	c #B6B6B6",
"%.	c #D7D7D7",
"&.	c #E7E7E7",
"*.	c #555578",
"=.	c #D5D5D5",
"-.	c #75758F",
";.	c #D3D3D3",
">.	c #E1E1E1",
",.	c #545477",
"'.	c #E4E4E4",
").	c #DDDDDD",
"!.	c #D0D0D0",
"~.	c #73738D",
"{.	c #CFCFCF",
"].	c #DBDBDB",
"^.	c #D7922A",
"/.	c #977451",
"(.	c #DCB985",
"_.	c #D9B682",
":.	c #D3B07C",
"<.	c #A6835B",
"[.	c #A67632",
"}.	c #C08326",
"|.	c #CF8C29",
"1.	c #D18E29",
"2.	c #C8A571",
"3.	c #D3B07B",
"4.	c #D8B581",
"5.	c #B17823",
"6.	c #CB892A",
"7.	c #D08C2A",
"8.	c #DDAA48",
"9.	c #EAC766",
"0.	c #BD7F27",
"a.	c #C1802A",
"b.	c #E5C76C",
"c.	c #FFFD99",
"d.	c #FFFC75",
"e.	c #FFFC6F",
"f.	c #E5C760",
"g.	c #B27529",
"h.	c #ECD880",
"i.	c #FFF242",
"j.	c #FFF23C",
"k.	c #FFE635",
"l.	c #ECA41E",
"m.	c #A46928",
"n.	c #E8CF65",
"o.	c #FFEA37",
"p.	c #FFB81C",
"q.	c #E89A1A",
"r.	c #955E28",
"s.	c #E5C863",
"t.	c #FFE233",
"u.	c #FFDF31",
"v.	c #FFB51B",
"w.	c #FFA814",
"x.	c #E59418",
"y.	c #875327",
"z.	c #E1C161",
"A.	c #FFDA2E",
"B.	c #FFD42B",
"C.	c #FFB319",
"D.	c #FFA713",
"E.	c #FFA412",
"F.	c #E18E16",
"G.	c #784726",
"H.	c #DDBA5E",
"I.	c #FFD12A",
"J.	c #FFC523",
"K.	c #FFAB15",
"L.	c #FFA613",
"M.	c #FFA311",
"N.	c #FFA110",
"O.	c #DD8814",
"P.	c #744426",
"Q.	c #DCB65C",
"R.	c #FFC926",
"S.	c #FFC624",
"T.	c #FFB41A",
"U.	c #FFA512",
"V.	c #FFA211",
"W.	c #FF9F0F",
"X.	c #FF9D0E",
"Y.	c #DC8513",
"Z.	c #DCB15A",
"`.	c #FFC121",
" +	c #FFBF20",
".+	c #FFBE1F",
"++	c #FFBD1F",
"@+	c #FFB91D",
"#+	c #FFA914",
"$+	c #FF9E0E",
"%+	c #FF9C0D",
"&+	c #FF990C",
"*+	c #DC8211",
"=+	c #DCAD58",
"-+	c #FFB81D",
";+	c #FFBC1F",
">+	c #FFBC1E",
",+	c #FFBA1D",
"'+	c #FFB71C",
")+	c #FFB51A",
"!+	c #FFB219",
"~+	c #FFAF18",
"{+	c #FFAD16",
"]+	c #FFAA15",
"^+	c #FFA813",
"/+	c #FFA00F",
"(+	c #FF9A0C",
"_+	c #FF980B",
":+	c #FF950A",
"<+	c #DC7F10",
"[+	c #DCA955",
"}+	c #FFB118",
"|+	c #FFBB1E",
"1+	c #FFB61B",
"2+	c #FFB31A",
"3+	c #FFAE17",
"4+	c #FFAC16",
"5+	c #FFA411",
"6+	c #FF970A",
"7+	c #FF9409",
"8+	c #FF9108",
"9+	c #DC7C0E",
"0+	c #DCA553",
"a+	c #FFB018",
"b+	c #FF9B0D",
"c+	c #FF9308",
"d+	c #FF9007",
"e+	c #FF8D06",
"f+	c #DC790D",
"g+	c #DCAC57",
"h+	c #FFB119",
"i+	c #FF970B",
"j+	c #FF9208",
"k+	c #FF8F06",
"l+	c #FF8C05",
"m+	c #FF8A04",
"n+	c #DC760B",
"o+	c #C29759",
"p+	c #FFBE31",
"q+	c #FF960A",
"r+	c #FF9309",
"s+	c #FF8E06",
"t+	c #FF8B04",
"u+	c #FF8803",
"v+	c #FF8602",
"w+	c #C26912",
"x+	c #714225",
"y+	c #9F713F",
"z+	c #BA7E27",
"A+	c #BA7A1F",
"B+	c #BA781E",
"C+	c #BA771D",
"D+	c #BA761D",
"E+	c #BA741C",
"F+	c #BA731B",
"G+	c #BA721B",
"H+	c #BA711A",
"I+	c #BA6F19",
"J+	c #BA6E19",
"K+	c #BA6D18",
"L+	c #BA6B17",
"M+	c #BA6A16",
"N+	c #BA6916",
"O+	c #BA6715",
"P+	c #BA6614",
"Q+	c #BA6514",
"R+	c #9F581A",
"S+	c #6A3E23",
"T+	c #653B21",
"U+	c #6B3F23",
"V+	c #5B351E",
"                                                                ",
"                            . + . @                             ",
"                      # @ $ % & * = - ; >                       ",
"                    , ' ) ! ~ ~ ~ ~ { ] ^ /                     ",
"                  ( _ ! ~ : < [ } | 1 ~ 2 3 4                   ",
"                5 6 ! ! 7 } 8 9 0 a b c d d e f                 ",
"                g h ! i j k l m n o p q r ~ s t                 ",
"              u v ~ w x y z         A B C D ~ E z               ",
"              F = ! G H I             J K L ~ M N               ",
"              O P Q R S T               U V W X O               ",
"              Y Z i `  .                Y ..r | Y               ",
"              +.7 @.r #.                +.$.%.&.+.              ",
"              *.} R =.-.                *.$.;.>.*.              ",
"              ,.'.).!.~.                ,.$.{.].,.              ",
"            ^./.(._.:.<.[.}.|.1.1.1.1.1./.2.3.4./.5.            ",
"        6.7.8.9.9.9.9.9.9.9.9.9.9.9.9.9.9.9.9.9.9.8.7.0.        ",
"        a.b.c.d.e.e.e.e.e.e.e.e.e.e.e.e.e.e.e.e.e.e.f.a.        ",
"        g.h.i.j.j.j.j.j.j.j.j.j.j.j.j.j.j.j.j.j.j.k.l.g.        ",
"        m.n.o.o.o.o.o.o.o.o.o.o.o.o.o.o.o.o.o.o.k.p.q.m.        ",
"        r.s.t.t.t.t.t.t.t.t.t.t.t.t.t.t.t.t.t.u.v.w.x.r.        ",
"        y.z.A.A.A.A.A.A.A.A.A.A.A.A.A.A.A.A.B.C.D.E.F.y.        ",
"        G.H.I.I.I.I.I.I.I.I.I.I.I.I.I.I.I.J.K.L.M.N.O.G.        ",
"        P.Q.R.R.R.R.R.R.R.R.R.R.R.R.R.S.T.D.U.V.W.X.Y.P.        ",
"        P.Z.`.`.`.`.`.`. + +.+++++@+T.#+L.M.N.$+%+&+*+P.        ",
"        P.=+-+-+;+++>+,+'+)+!+~+{+]+^+U.V./+X.(+_+:+<+P.        ",
"        P.[+}+++.+|+@+1+2+}+3+4+#+L.5+N.W.%+&+6+7+8+9+P.        ",
"        P.0+|+++,+p.v.!+a+{+]+w.U.M./+X.b+_+:+c+d+e+f+P.        ",
"        P.g+>+@+1+T.h+3+4+#+D.E.N.W.%+&+i+7+j+k+l+m+n+P.        ",
"        P.o+p+v.!+a+{+K.w.U.M./+$+b+_+q+r+d+s+t+u+v+w+P.        ",
"        x+P.y+z+A+B+C+D+E+F+G+H+I+J+K+L+M+N+O+P+Q+R+P.S+        ",
"          T+U+S+S+S+S+S+S+S+S+S+S+S+S+S+S+S+S+S+S+S+V+          ",
"                                                                "};
