/* XPM */
static char* icon_xpm[] = {
"50 50 16 1",
"_ c #ffffff",
"` c #ffff94",
"a c #f7ffff",
"b c #f7f7de",
"c c #debd5a",
"d c #deb552",
"e c #adcee7",
"f c #8ca573",
"g c #6bb5ef",
"h c #634263",
"i c #523152",
"j c #42b5ef",
"k c #313963",
"l c #0073b5",
"m c #004a8c",
"n c #000000",
"__________________________________________________", 
"__________________________gegg____________________", 
"____________gjlllllggellllllllllljg_______________", 
"_____jlllllllllllgaeaaaaagggjjjljllll_____________", 
"____ljjljjgaejjjgaeaaaaaealjgjjgljjjlll___________", 
"___lljjjjgaejjjgaea_beeeehgljjjljjjjjgeel_________", 
"___lljjljaejjjgaeaabbb`bcdiigejjjjjjjeaaall_______", 
"__glejllagljjgaeaabbb`bcdddiilkjjjjjjaaaaella_____", 
"__glgjgagllllaea__bb`bcddddddlcijijjgaa_agjl______", 
"__lljgagllljagaa_bb`bcdddddddlfdidijeaaeeljl______", 
"__ljgaellllaeaa_eb`bcddddddddlfiddij_eaagjjjl_____", 
"__lgaejjljagaa_`b`bcdddddddddlfddddf_aaajjjjjl____", 
"__lggjjjgagaaaeb`bcddddddddddlfddddbeaaejjjjjl____", 
"__llljjgaeaaaeb`bcdddddddddddlfdddd_faajjjjjjl____", 
"__ljllgaaaaage`bcdddddddnnnndlfddd`__aajjjjjjl____", 
"__ljjlaaaaageebcnnnndddn____nlfdddb`bagjjjjjjl____", 
"__ljgaeaaaeagecn____ndn_____nlfddc_`aejjjjjjjl____", 
"__lgaeeaaeaeelkn____ndn______kknn`e_ejjjjjjjjl____", 
"__laeaaaeaeallln_____nn______kgbiafbgljjjjjjjl____", 
"__leeaagaeajjkin_____nn______kg_hagajmljjjjjjl____", 
"__eeaaeeeajjjiin_____n_n_____kmiee_eijmljjjjjl____", 
"__eaaeaeejjjji_nn___n_bn____ngli_h__iljmljjjjl____", 
"__gaeeealjjjjib_bnnn_b_bnnnn_klf___iimjjmljjjl____", 
"__jgeeajlljjjiiii``ibib_b_b_ielab_bimmmjjmljjl____", 
"__jegaljjljjjjji```i_bib_b_i`ela___immmmjjmljl____", 
"__leellljlljjjjji```i_b_b_i``eleeeiimmmmmjjmjj____", 
"__galllljjlljjjjk````i_b_ii`_elb_fijmmmmmmljeg____", 
"__llllllljlljjjjlk``i`iii``_bagb_ijjjmmmmmmlaj____", 
"__llllllljjljjjjlli`i`i``h_b__g_ejjjjjjmmmmggl____", 
"__llllllljjlljjjjli`i`i`h_b__bebgljjjjjjmmmamg____", 
"__ljlllllljjljjjjji``ii`bb__b_aammljjjjjjmlele____", 
"__lljlllllljlljjjji``ihbb__b__gfmmmljjjjjjelgg____", 
"__ljjlllllljjljjjji```bf__b__bjkmmmmljjjjgameg____", 
"__ljjjlllllljlljjji``_f__b__bbmkmmmmmljjjeeeaa____", 
"__lljjllllllljlljji`_b__b___b`mimmmmmmljjaeaag____", 
"__lljjjlllllljlljjgbeaaee__fiimmlmmmmmmmeeeaam____", 
"__lljjjjlllllljljgaea_b___b```mkjmmmmmmmagaaam____", 
"__lljjjjlllllljljbeaab__a`````mkijmmmmmmelaaemj___", 
"__lljjjjjlllllljbeaab__bhiii`imkijjlmmmelggejle___", 
"__gljjjjjlllllgaeaaebbb`ijjiiikiijjjlmmamaejgl____", 
"__eljjjjjjllllaaaa__bfiilliiiikmjjllmmggmeejlj____", 
"__aeejgjjjllleeaa__bfiiillkkmmlmmlllllajeeejme____", 
"__ajljjjllllegaaaaagliilllmlllljlmljjgejaelmljjjj_", 
"___ajmlllllaeaaaaaejjjjjlmlllllljlmllelmgljjljjjje", 
"_jlljlmmmmeeaaaaeellllllmmljjlllllllmglljjjjjljjge", 
"jjjjjjllllmllmmmmmmmmmmllllmmmmmmlllljjjjjjjjljge_", 
"__gljljjjjjjjjjjjjllllljjllllllljjljjjjjjjjjjljg__", 
"___jlljjjjjjjjjjjjjjjjjjjlljjjjjjjljjjjjjjjg______", 
"___________gjjjggjggjjjjjjlljjjjjjj_______________", 
"_________________________ggljjg___________________"};
