/* XPM */
static char *konsole[]={
"16 16 43 1",
". c None",
"n c #000000",
"H c #000307",
"C c #000c17",
"K c #000f1c",
"m c #001223",
"u c #001425",
"G c #001b34",
"J c #002342",
"B c #002547",
"l c #002c52",
"t c #002d55",
"F c #00325e",
"I c #003665",
"A c #003d74",
"k c #004582",
"s c #004887",
"c c #0072bc",
"z c #0a5291",
"E c #0f5796",
"j c #125a99",
"r c #145c9b",
"y c #1c64a3",
"i c #256dac",
"q c #2870af",
"x c #2c74b3",
"h c #3880bf",
"p c #3d85c4",
"b c #448ccb",
"f c #4991d0",
"g c #5199d8",
"# c #7da7d9",
"e c #bcceeb",
"d c #c3e2ff",
"L c #cfe8ff",
"v c #d1e9ff",
"M c #dbeeff",
"w c #e0f0ff",
"a c #e4edfd",
"N c #e6f2ff",
"D c #f0f7ff",
"O c #f2f8ff",
"o c #ffffff",
"................",
".##############.",
"#aaaaaaaaaaaaaab",
"#acccccccccccdeb",
"#acfgfhijklmndeb",
"#acgogpqrstunveb",
"#acfgfhijklmnweb",
"#achphxyzABCnDeb",
"#aciqiyEsFGHnoeb",
"#acjrjzsIJKnnoeb",
"#ackskAFJmnnnoeb",
"#acltlBGKnnnnoeb",
"#addLMNOooooooeb",
"#aeeeeeeeeeeeeeb",
".bbbbbbbbbbbbbb.",
"................"};
