/* XPM */
static char *oneoverx[] = {
/* width height num_colors chars_per_pixel */
"    13    11        2            1",
/* colors */
". c None",
"# c #000000",
/* pixels */
"......#......",
".....##......",
"......#......"
".....###.....",
".............",
"..#########..",
".............",
"....##.##....",
"......#......",
"......#......",
"....##.##....",
};
