/* XPM */
static char * pass_xpm[] = {
"16 14 3 1",
" 	c None",
".	c #000000",
"+	c #FFFF00",
"                ",
"                ",
"  .....    .    ",
"  .+++.   .+.   ",
"  .+++.  .+++.  ",
"  .+++. .+++++. ",
"  .+++..+++++++.",
"...+++....+++...",
".+++++++..+++.  ",
" .+++++. .+++.  ",
"  .+++.  .+++.  ",
"   .+.   .+++.  ",
"    .    .+++.  ",
"         .....  "};
