/* XPM */
static char * reset_xpm[] = {
"14 14 3 1",
" 	c None",
".	c #000000",
"+	c #FF0000",
"              ",
"  ..       ...",
" .++.    ..++.",
".++++. ..++++.",
" ..+++.+++++..",
"   .+++++++.  ",
"    .+++++.   ",
"   .+++++.    ",
"  .+++++++.   ",
" .+++++++++.  ",
".++++...++++. ",
".+++.  ..+++. ",
".+++.   .++.  ",
" ...     ..   "};
