/* XPM */
static char *tgz[]={
"16 16 136 2",
"Qt c None",
".c c #2467d8",
"af c #2960d3",
"#R c #544d12",
"#0 c #544e12",
"#S c #554f12",
"#H c #61591a",
".v c #670682",
"#Z c #6b5922",
"#v c #6b6225",
"## c #6d86b2",
".N c #6d88b8",
"#P c #6e5c26",
"#j c #6e6325",
"#K c #6f694b",
".n c #721994",
".d c #742697",
".a c #772b99",
".u c #78a1e8",
".b c #78aaff",
"#I c #79818f",
".E c #79abff",
".I c #7d7960",
".9 c #7e7230",
".Z c #7ea0db",
".D c #80a8ee",
"#G c #83782a",
".Y c #85b1ff",
"#Y c #867331",
".X c #867934",
"#Q c #867b2e",
"#x c #8aa3cd",
"#u c #907f32",
".M c #90b8ff",
"#i c #928034",
"#F c #928536",
".J c #948f70",
"#. c #95bbff",
"#t c #998839",
"#h c #9b883c",
".0 c #9ec2ff",
"#E c #9f8e3f",
"#k c #9fc2ff",
"#L c #a0903e",
"#W c #a0903f",
"#l c #a1aabb",
"#U c #a1b0cd",
".w c #a29240",
".K c #a49f7e",
"#s c #a89446",
".8 c #a89a46",
"#w c #a9c7ff",
".C c #aac9ff",
"#D c #ab9748",
"#9 c #abcaff",
"ae c #acc9ff",
"#T c #accaff",
"#3 c #adcbff",
"#g c #af9a4d",
".7 c #b19e49",
".T c #b2ad8e",
".j c #b2cdff",
"#r c #b39b4c",
"ad c #b4ceff",
"#8 c #b4d0ff",
".m c #b614bd",
"#2 c #b6d1ff",
".k c #b7d1ff",
"#1 c #b8cff3",
"ac c #b9d2ff",
"#7 c #bad3ff",
".t c #bbd4ff",
"#f c #bfab56",
"#5 c #c0d5f6",
".y c #c0d6ff",
"#6 c #c0d7ff",
"#y c #c1d7ff",
"ab c #c4d8ff",
".O c #c6dbff",
".L c #c9c293",
"aa c #caddff",
"a# c #cbddff",
"#V c #cddfff",
"#a c #cde0ff",
".5 c #cec8a3",
".i c #cfdfff",
".# c #d163d8",
".H c #d1d1c8",
".s c #d4e3ff",
"#A c #d5bcc3",
"#X c #d6c477",
"#O c #d6c77c",
".x c #d7e5ff",
".h c #d8e6ff",
"#N c #d9c880",
".l c #da7ddd",
"#B c #dabaad",
"#q c #dbbea0",
".W c #dcd090",
".r c #dce7ff",
"#C c #ddc985",
"#p c #dec5b9",
"#M c #ded08a",
"a. c #deeaff",
".6 c #dfd291",
".G c #e0dfd6",
"#4 c #e5eeff",
"#z c #e7d997",
".F c #e8e7df",
".g c #e9f0ff",
"#n c #eadba3",
".q c #ebf1ff",
"#m c #ebf2ff",
"#b c #eee1be",
"#e c #efdda0",
"#o c #efe1bc",
".f c #eff4ff",
".p c #f1f5ff",
".3 c #f2e7b6",
"#d c #f3edc5",
".U c #f5eec6",
".e c #f7f9ff",
".P c #f8f0bf",
".o c #f9fbff",
".2 c #fcf4db",
".B c #fcf6d7",
".R c #fcf8e7",
".A c #fcfbf0",
".S c #fdf5d5",
".Q c #fdfcf0",
"#c c #fdfcf7",
".1 c #fef8e5",
"#J c #feffff",
".V c #fffbd3",
".z c #fffcde",
".4 c #fffce8",
"QtQt.#.a.b.b.b.b.b.b.b.cQtQtQtQt",
"Qt.#.#.d.e.f.g.h.i.j.k.b.cQtQtQt",
".l.#.m.n.o.p.q.r.s.t.k.b.u.cQtQt",
".v.v.v.v.o.w.w.w.x.y.k.c.c.c.cQt",
"QtQt.w.w.w.z.A.B.w.w.k.C.D.E.cQt",
"Qt.wQt.F.G.H.I.J.K.L.w.M.N.O.cQt",
"Qt.w.P.Q.R.S.T.U.V.W.X.Y.Z.0.cQt",
"Qt.w.1.2.3.4.5.6.7.8.9#.###a.cQt",
"Qt.w#b#c#d#e#f#g#h#i#j#k#l#m.cQt",
"Qt.w#n#o#p#q#r#s#t#u#v#w#x#y.cQt",
"Qt.w#z#A#B#C#D#E#F#G#H.C#I#J.cQt",
"Qt#K#L#M#N#O.w#P#Q#R#S#T#U#V.cQt",
"QtQt#L#L#W#X#Y#Z#0#1#2#3.#.#.#.v",
"QtQtQt.b#4#L#S#5#6#7#8#9.m.m.vQt",
"QtQtQt.ba.a#aaab.yacadae.m.vafQt",
"QtQtQt.c.c.c.c.c.c.c.c.c.vaf.cQt"};
