/* XPM */
static const char * trash_xpm[] = {
"16 16 10 1",
" 	c None",
".	c #000000",
"+	c #DCDCDC",
"@	c #A0A0A4",
"#	c #585858",
"$	c #FFFFFF",
"%	c #C0C0C0",
"&	c #808080",
"*	c #303030",
"=	c #A0A0A0",
"     ..+.       ",
"  ...+@.#....   ",
" .$$$%%%&.%%@.  ",
" .+@%$$$%%###.  ",
"  .&++@@@@&&.   ",
"  .@@@&&##&*.   ",
"  .@$@+=&&#*.   ",
"  .@$@+=&&#*.   ",
"  .@$@+=&&#*.   ",
"  .@$@+=&&#*.   ",
"  .@$@+=&&#*.   ",
"  .@$@+=&&#*.   ",
"  .@$@+=&&#*.   ",
"  .+$@+=&&#*.   ",
"   ..++@@&..    ",
"     .....      "};
