/* XPM */
static const char * zoom_xpm[] = {
"20 20 7 1",
" 	c None",
".	c #FFA858",
"+	c #C05800",
"@	c #00FFFF",
"#	c #000000",
"$	c #FFDCA8",
"%	c #FFFFFF",
"                    ",
"    #####           ",
"   #@@@@@#          ",
"  #@@    @#         ",
" #@@@@@   @#        ",
" #@@@@@@@ @#        ",
" #@@@@@@@ @#        ",
" #@@@@@@@@@#        ",
" #@@@@@@@@@#        ",
"  #@@@@@@@#         ",
"   #@@@@@#$##       ",
"    ##### #$$#      ",
"          #$.+#     ",
"           #$.+#    ",
"            #$.+#   ",
"             #$.+#  ",
"              #++#  ",
"               ##   ",
"                    ",
"                    "};
