#define font_small_width 128
#define font_small_height 128
static char font_small_bits[] = {
 0x00,0x00,0x00,0x00,0x00,0x00,0x00,0x00,0x00,0x00,0x00,0x00,0x00,0x00,0x00,
 0x00,0x00,0x00,0x00,0x00,0x00,0x00,0x00,0x00,0x00,0x00,0x00,0x00,0x00,0x00,
 0x01,0x31,0x00,0x00,0x00,0x00,0x00,0x00,0x00,0x00,0x00,0x00,0x00,0x00,0x00,
 0x00,0x02,0x4a,0x00,0x00,0x00,0x00,0x00,0x00,0x00,0x00,0x00,0x00,0x00,0x00,
 0x00,0x00,0x02,0x4a,0x00,0x00,0x00,0x00,0x00,0x00,0x00,0x00,0x00,0x00,0x00,
 0x00,0x00,0x00,0x02,0x4a,0x00,0x00,0x00,0x00,0x00,0x00,0x00,0x00,0x00,0x00,
 0x00,0x00,0x00,0x00,0x02,0x4a,0x00,0x00,0x00,0x00,0x00,0x00,0x00,0x00,0x00,
 0x00,0x00,0x00,0x00,0x00,0x02,0x4a,0x00,0x00,0x00,0x00,0x00,0x00,0x00,0x00,
 0x00,0x00,0x00,0x00,0x00,0x00,0x01,0x31,0x00,0x00,0x00,0x00,0x00,0x00,0x00,
 0x00,0x00,0x00,0x00,0x00,0x00,0x00,0x00,0x3c,0x06,0x88,0x8e,0x9f,0x88,0x9f,
 0x9c,0x9f,0x8e,0x8c,0x39,0x63,0x00,0x00,0x00,0x42,0x09,0x4c,0x51,0x48,0x4c,
 0x41,0x42,0x50,0x51,0x52,0x85,0x94,0x00,0x00,0x00,0x99,0x09,0x48,0x51,0x44,
 0x4a,0x4f,0x42,0x48,0x51,0x52,0x85,0x94,0xf0,0x7c,0x1e,0x85,0x09,0x48,0x48,
 0x48,0x49,0x50,0x5e,0x48,0x4e,0x5e,0xbd,0x94,0x10,0x11,0x01,0x85,0x09,0x48,
 0x44,0x50,0x5f,0x50,0x52,0x44,0x51,0x50,0xa5,0x94,0xf0,0x10,0x0e,0x99,0x09,
 0x48,0x42,0x51,0x48,0x51,0x52,0x44,0x51,0x50,0xa5,0x94,0x10,0x10,0x10,0x42,
 0x06,0x9c,0x9f,0x8e,0x88,0x8e,0x8c,0x84,0x8e,0x8e,0x19,0x63,0x10,0x10,0x0f,
 0x3c,0x00,0x00,0x00,0x00,0x00,0x00,0x00,0x00,0x00,0x00,0x00,0x00,0x00,0x00,
 0x00,0x00,0x00,0x38,0x36,0x14,0x08,0x42,0x04,0x0c,0x18,0x0c,0x08,0x00,0x00,
 0x00,0x00,0x40,0x00,0x38,0x36,0x3e,0x1c,0x25,0x0a,0x0c,0x0c,0x18,0x1c,0x08,
 0x00,0x00,0x00,0x20,0x00,0x1c,0x24,0x14,0x0a,0x12,0x04,0x08,0x0c,0x18,0x7f,
 0x08,0x00,0x00,0x00,0x10,0x00,0x0c,0x12,0x14,0x1c,0x08,0x2a,0x04,0x0c,0x18,
 0x3e,0x3e,0x0c,0x1c,0x00,0x08,0x00,0x04,0x00,0x3e,0x28,0x24,0x11,0x00,0x0c,
 0x18,0x1c,0x08,0x0c,0x00,0x00,0x04,0x00,0x00,0x00,0x14,0x1e,0x52,0x11,0x00,
 0x0c,0x18,0x3e,0x08,0x08,0x00,0x0c,0x02,0x00,0x02,0x00,0x14,0x08,0x21,0x2e,
 0x00,0x18,0x0c,0x22,0x00,0x04,0x00,0x0c,0x01,0x00,0x00,0x00,0x00,0x00,0x00,
 0x00,0x00,0x00,0x00,0x00,0x00,0x00,0x00,0x00,0x00,0x1c,0x18,0x3e,0x7e,0x38,
 0x3f,0x3c,0x7f,0x1e,0x3e,0x00,0x00,0x30,0x00,0x06,0x1e,0x32,0x1c,0x63,0x30,
 0x3c,0x03,0x06,0x63,0x23,0x63,0x0c,0x0c,0x18,0x00,0x0c,0x33,0x63,0x18,0x70,
 0x18,0x36,0x3f,0x03,0x30,0x27,0x63,0x0c,0x0c,0x0c,0x3e,0x18,0x33,0x63,0x18,
 0x3c,0x3c,0x33,0x60,0x3f,0x18,0x1e,0x7e,0x00,0x00,0x06,0x00,0x30,0x18,0x63,
 0x18,0x1e,0x60,0x7f,0x60,0x63,0x0c,0x79,0x60,0x0c,0x0c,0x0c,0x3e,0x18,0x0c,
 0x26,0x18,0x07,0x63,0x30,0x63,0x63,0x0c,0x61,0x30,0x0c,0x08,0x18,0x00,0x0c,
 0x00,0x1c,0x7e,0x7f,0x3e,0x30,0x3e,0x3e,0x0c,0x3e,0x1e,0x00,0x04,0x30,0x00,
 0x06,0x0c,0x3c,0x00,0x00,0x00,0x00,0x00,0x00,0x00,0x00,0x00,0x00,0x00,0x00,
 0x00,0x00,0x00,0x42,0x38,0x7e,0x78,0x3e,0xfc,0xfe,0xf8,0xc6,0xfc,0xf8,0xc6,
 0x0c,0xc6,0xc6,0x7c,0xa9,0x6c,0xc6,0xcc,0x66,0x0c,0x06,0x0c,0xc6,0x30,0x60,
 0x66,0x0c,0xee,0xce,0xc6,0x95,0xc6,0xc6,0x06,0xc6,0x0c,0x06,0x06,0xc6,0x30,
 0x60,0x36,0x0c,0xfe,0xde,0xc6,0x95,0xc6,0x7e,0x06,0xc6,0x7c,0x7e,0xe6,0xfe,
 0x30,0x60,0x1e,0x0c,0xfe,0xfe,0xc6,0x69,0xfe,0xc6,0x06,0xc6,0x0c,0x06,0xc6,
 0xc6,0x30,0x66,0x3e,0x0c,0xd6,0xf6,0xc6,0x02,0xc6,0xc6,0xcc,0x66,0x0c,0x06,
 0xcc,0xc6,0x30,0x66,0x76,0x0c,0xc6,0xe6,0xc6,0x3c,0xc6,0x7e,0x78,0x3e,0xfc,
 0x06,0xf8,0xc6,0xfc,0x3c,0xe6,0xfc,0xc6,0xc6,0x7c,0x00,0x00,0x00,0x00,0x00,
 0x00,0x00,0x00,0x00,0x00,0x00,0x00,0x00,0x00,0x00,0x00,0x7e,0x7c,0x7e,0x3c,
 0xfc,0xc6,0xc6,0xc6,0xc6,0xcc,0xfe,0x3c,0x02,0x3c,0x10,0x00,0xc6,0xc6,0xc6,
 0x66,0x30,0xc6,0xc6,0xc6,0xee,0xcc,0xe0,0x0c,0x04,0x30,0x38,0x00,0xc6,0xc6,
 0xc6,0x06,0x30,0xc6,0xc6,0xd6,0x78,0xcc,0x70,0x0c,0x08,0x30,0x6c,0x00,0xc6,
 0xc6,0xe6,0x7c,0x30,0xc6,0xee,0xfe,0x38,0x78,0x38,0x0c,0x10,0x30,0x00,0x00,
 0x7e,0xd6,0x3e,0xc0,0x30,0xc6,0x7c,0xfe,0x7c,0x30,0x1c,0x0c,0x20,0x30,0x00,
 0x00,0x06,0x66,0x76,0xc6,0x30,0xc6,0x38,0xee,0xee,0x30,0x0e,0x0c,0x40,0x30,
 0x00,0x00,0x06,0xdc,0xe6,0x7c,0x30,0x7c,0x10,0xc6,0xc6,0x30,0xfe,0x3c,0x80,
 0x3c,0x00,0xfe,0x00,0x00,0x00,0x00,0x00,0x00,0x00,0x00,0x00,0x00,0x00,0x00,
 0x00,0x00,0x00,0x00,0x10,0x38,0x7e,0x78,0x3e,0xfc,0xfe,0xf8,0xc6,0xfc,0xf8,
 0xc6,0x0c,0xc6,0xc6,0x7c,0x18,0x6c,0xc6,0xcc,0x66,0x0c,0x06,0x0c,0xc6,0x30,
 0x60,0x66,0x0c,0xee,0xce,0xc6,0x18,0xc6,0xc6,0x06,0xc6,0x0c,0x06,0x06,0xc6,
 0x30,0x60,0x36,0x0c,0xfe,0xde,0xc6,0x00,0xc6,0x7e,0x06,0xc6,0x7c,0x7e,0xe6,
 0xfe,0x30,0x60,0x1e,0x0c,0xfe,0xfe,0xc6,0x00,0xfe,0xc6,0x06,0xc6,0x0c,0x06,
 0xc6,0xc6,0x30,0x66,0x3e,0x0c,0xd6,0xf6,0xc6,0x00,0xc6,0xc6,0xcc,0x66,0x0c,
 0x06,0xcc,0xc6,0x30,0x66,0x76,0x0c,0xc6,0xe6,0xc6,0x00,0xc6,0x7e,0x78,0x3e,
 0xfc,0x06,0xf8,0xc6,0xfc,0x3c,0xe6,0xfc,0xc6,0xc6,0x7c,0x00,0x00,0x00,0x00,
 0x00,0x00,0x00,0x00,0x00,0x00,0x00,0x00,0x00,0x00,0x00,0x00,0x7e,0x7c,0x7e,
 0x3c,0xfc,0xc6,0xc6,0xc6,0xc6,0xcc,0xfe,0x38,0x18,0x1c,0x4c,0x00,0xc6,0xc6,
 0xc6,0x66,0x30,0xc6,0xc6,0xc6,0xee,0xcc,0xe0,0x18,0x18,0x18,0x7e,0x00,0xc6,
 0xc6,0xc6,0x06,0x30,0xc6,0xc6,0xd6,0x78,0xcc,0x70,0x18,0x18,0x18,0x32,0x00,
 0xc6,0xc6,0xe6,0x7c,0x30,0xc6,0xee,0xfe,0x38,0x78,0x38,0x0c,0x18,0x30,0x00,
 0x00,0x7e,0xd6,0x3e,0xc0,0x30,0xc6,0x7c,0xfe,0x7c,0x30,0x1c,0x18,0x18,0x18,
 0x00,0x00,0x06,0x66,0x76,0xc6,0x30,0xc6,0x38,0xee,0xee,0x30,0x0e,0x18,0x18,
 0x18,0x00,0x00,0x06,0xdc,0xe6,0x7c,0x30,0x7c,0x10,0xc6,0xc6,0x30,0xfe,0x38,
 0x18,0x1c,0x00,0x00,0x00,0x00,0x00,0x00,0x00,0x00,0x00,0x00,0x00,0x00,0x00,
 0x00,0x00,0x00,0x00,0x00,0x00,0x00,0x00,0x00,0x00,0x00,0x00,0x00,0x00,0x00,
 0x00,0x00,0x00,0x00,0x00,0x00,0x00,0x00,0x00,0x00,0x00,0x00,0x00,0x00,0x00,
 0x00,0x00,0x00,0x00,0x00,0x00,0x00,0x00,0x00,0x00,0x00,0x00,0x00,0x00,0x00,
 0x00,0x00,0x00,0x00,0x00,0x00,0x00,0x00,0x00,0x00,0x00,0x00,0x00,0x00,0x00,
 0x00,0x00,0x00,0x00,0x00,0x00,0x00,0x00,0x00,0x00,0x00,0x00,0x00,0x00,0x00,
 0x00,0x00,0x00,0x00,0x00,0x00,0x00,0x00,0x00,0x00,0x00,0x00,0x00,0x00,0x00,
 0x00,0x00,0x00,0x00,0x00,0x00,0x00,0x00,0x00,0x00,0x00,0x00,0x00,0x00,0x00,
 0x00,0x00,0x00,0x00,0x00,0x00,0x00,0x00,0x00,0x00,0x00,0x00,0x00,0x00,0x00,
 0x00,0x00,0x00,0x00,0x00,0x00,0x00,0x00,0x00,0x00,0x00,0x00,0x00,0x00,0x00,
 0x00,0x00,0x00,0x00,0x00,0x00,0x00,0x00,0x00,0x00,0x00,0x00,0x00,0x00,0x00,
 0x00,0x00,0x00,0x00,0x00,0x00,0x00,0x00,0x00,0x00,0x00,0x00,0x00,0x00,0x00,
 0x00,0x00,0x00,0x00,0x00,0x00,0x00,0x00,0x00,0x00,0x00,0x00,0x00,0x00,0x00,
 0x00,0x00,0x00,0x00,0x00,0x00,0x00,0x00,0x00,0x00,0x00,0x00,0x00,0x00,0x00,
 0x00,0x00,0x00,0x00,0x00,0x00,0x00,0x00,0x00,0x00,0x00,0x00,0x00,0x00,0x00,
 0x00,0x00,0x00,0x00,0x00,0x00,0x00,0x00,0x00,0x00,0x00,0x00,0x00,0x00,0x00,
 0x00,0x00,0x00,0x00,0x00,0x00,0x00,0x00,0x00,0x00,0x00,0x00,0x00,0x00,0x00,
 0x00,0x00,0x00,0x00,0x00,0x00,0x00,0x00,0x00,0x00,0x00,0x00,0x00,0x00,0x3c,
 0x00,0x00,0x00,0x00,0x3c,0x00,0x00,0x0c,0x20,0x3c,0x00,0xcc,0x18,0x38,0x14,
 0x42,0x1c,0x00,0x00,0x00,0x42,0x3c,0x00,0x08,0x38,0x04,0x24,0xcc,0x18,0x08,
 0x00,0x99,0x20,0x00,0x00,0x00,0x99,0x00,0x00,0x00,0x54,0x1e,0x18,0x78,0x18,
 0x34,0x00,0x85,0x3c,0x48,0x00,0x00,0xa9,0x00,0x00,0x08,0x14,0x04,0x24,0xfc,
 0x00,0x44,0x00,0x85,0x24,0x24,0x7c,0x7c,0x99,0x00,0x00,0x0c,0x54,0x04,0x18,
 0x30,0x18,0x38,0x00,0x99,0x38,0x48,0x60,0x00,0xa9,0x00,0x00,0x0c,0x38,0x2e,
 0x24,0xfc,0x18,0x24,0x00,0x42,0x00,0x00,0x60,0x00,0x42,0x00,0x00,0x0c,0x08,
 0x3a,0x00,0x30,0x18,0x18,0x00,0x3c,0x7c,0x00,0x00,0x00,0x3c,0x00,0x00,0x00,
 0x00,0x00,0x00,0x00,0x00,0x00,0x00,0x00,0x00,0x00,0x00,0x00,0x00,0x00,0x18,
 0x10,0x18,0x38,0x10,0x00,0x7e,0x00,0x00,0x10,0x30,0x00,0x44,0x24,0x46,0x30,
 0x24,0x10,0x20,0x10,0x18,0x66,0x6e,0x00,0x00,0x18,0x48,0x00,0xa6,0x26,0xa4,
 0x00,0x18,0x7c,0x10,0x20,0x08,0x66,0x6e,0x10,0x00,0x10,0x30,0x24,0xe4,0x74,
 0xe8,0x30,0x00,0x10,0x38,0x38,0x00,0x66,0x68,0x38,0x00,0x10,0x00,0x48,0xd4,
 0x94,0xde,0x18,0x00,0x10,0x00,0x00,0x00,0x7e,0x68,0x10,0x00,0x00,0x78,0x24,
 0xf0,0x88,0xf0,0xcc,0x00,0x00,0x00,0x00,0x00,0x06,0x68,0x00,0x30,0x00,0x00,
 0x00,0x88,0x48,0x88,0xcc,0x00,0x7c,0x00,0x00,0x00,0x06,0x68,0x00,0x00,0x00,
 0x00,0x00,0x88,0xe4,0x88,0x78,0x1c,0x70,0x10,0x58,0x28,0x10,0x00,0x00,0x38,
 0x70,0x10,0x28,0x18,0x60,0x10,0x28,0x00,0x00,0x00,0x24,0x00,0x28,0x00,0x3c,
 0x00,0x00,0x00,0x00,0x00,0x00,0x00,0x00,0x38,0x38,0x38,0x38,0x38,0x38,0xfc,
 0x66,0xfc,0xfc,0xfc,0xfc,0x78,0x78,0x78,0x78,0x6c,0x6c,0x6c,0x6c,0x6c,0x6c,
 0x36,0x03,0x0c,0x0c,0x0c,0x0c,0x30,0x30,0x30,0x30,0xc6,0xc6,0xc6,0xc6,0xc6,
 0xc6,0x7e,0x03,0x7c,0x7c,0x7c,0x7c,0x30,0x30,0x30,0x30,0xfe,0xfe,0xfe,0xfe,
 0xfe,0xfe,0x36,0x66,0x0c,0x0c,0x0c,0x0c,0x30,0x30,0x30,0x30,0xc6,0xc6,0xc6,
 0xc6,0xc6,0xc6,0x36,0x3c,0x0c,0x0c,0x0c,0x0c,0x30,0x30,0x30,0x30,0xc6,0xc6,
 0xc6,0xc6,0xc6,0xc6,0xf6,0x10,0xfc,0xfc,0xfc,0xfc,0x78,0x78,0x78,0x78,0x00,
 0x58,0x1c,0x70,0x10,0x58,0x28,0x00,0x00,0x1c,0x70,0x10,0x28,0xe0,0x00,0x00,
 0x3c,0x24,0x00,0x00,0x00,0x24,0x00,0x00,0x7c,0x00,0x00,0x00,0x00,0x00,0x04,
 0x18,0x6c,0xce,0x7c,0x7c,0x7c,0x7c,0x7c,0x00,0xe6,0xc6,0xc6,0xc6,0xc6,0xcc,
 0x3c,0x2c,0xcc,0xde,0xc6,0xc6,0xc6,0xc6,0xc6,0x24,0xf6,0xc6,0xc6,0xc6,0xc6,
 0xcc,0x24,0x3c,0xde,0xfe,0xc6,0xc6,0xc6,0xc6,0xc6,0x18,0xde,0xc6,0xc6,0xc6,
 0xc6,0x78,0x24,0x6c,0xcc,0xf6,0xc6,0xc6,0xc6,0xc6,0xc6,0x24,0xce,0xc6,0xc6,
 0xc6,0xc6,0x30,0x3c,0x6c,0x6c,0xe6,0xc6,0xc6,0xc6,0xc6,0xc6,0x00,0xc6,0xc6,
 0xc6,0xc6,0xc6,0x30,0x04,0x3c,0x3c,0xc6,0x7c,0x7c,0x7c,0x7c,0x7c,0x00,0x7c,
 0x7c,0x7c,0x7c,0x7c,0x30,0x00,0x0c,0x1c,0x70,0x10,0x58,0x28,0x10,0x00,0x00,
 0x38,0x70,0x10,0x28,0x18,0x60,0x10,0x28,0x00,0x00,0x00,0x24,0x00,0x28,0x00,
 0x3c,0x00,0x00,0x00,0x00,0x00,0x00,0x00,0x00,0x38,0x38,0x38,0x38,0x38,0x38,
 0xfc,0x66,0xfc,0xfc,0xfc,0xfc,0x78,0x78,0x78,0x78,0x6c,0x6c,0x6c,0x6c,0x6c,
 0x6c,0x36,0x03,0x0c,0x0c,0x0c,0x0c,0x30,0x30,0x30,0x30,0xc6,0xc6,0xc6,0xc6,
 0xc6,0xc6,0x7e,0x03,0x7c,0x7c,0x7c,0x7c,0x30,0x30,0x30,0x30,0xfe,0xfe,0xfe,
 0xfe,0xfe,0xfe,0x36,0x66,0x0c,0x0c,0x0c,0x0c,0x30,0x30,0x30,0x30,0xc6,0xc6,
 0xc6,0xc6,0xc6,0xc6,0x36,0x3c,0x0c,0x0c,0x0c,0x0c,0x30,0x30,0x30,0x30,0xc6,
 0xc6,0xc6,0xc6,0xc6,0xc6,0xf6,0x10,0xfc,0xfc,0xfc,0xfc,0x78,0x78,0x78,0x78,
 0x00,0x58,0x1c,0x70,0x10,0x58,0x28,0x00,0x00,0x1c,0x70,0x10,0x28,0xe0,0x00,
 0x14,0x3c,0x24,0x00,0x00,0x00,0x24,0x00,0x00,0x7c,0x00,0x00,0x00,0x00,0x00,
 0x04,0x00,0x6c,0xce,0x7c,0x7c,0x7c,0x7c,0x7c,0x10,0xe6,0xc6,0xc6,0xc6,0xc6,
 0xcc,0x1c,0x66,0xcc,0xde,0xc6,0xc6,0xc6,0xc6,0xc6,0x00,0xf6,0xc6,0xc6,0xc6,
 0xc6,0xcc,0x24,0x66,0xde,0xfe,0xc6,0xc6,0xc6,0xc6,0xc6,0x7c,0xde,0xc6,0xc6,
 0xc6,0xc6,0x78,0x24,0x3c,0xcc,0xf6,0xc6,0xc6,0xc6,0xc6,0xc6,0x00,0xce,0xc6,
 0xc6,0xc6,0xc6,0x30,0x1c,0x18,0x6c,0xe6,0xc6,0xc6,0xc6,0xc6,0xc6,0x10,0xc6,
 0xc6,0xc6,0xc6,0xc6,0x30,0x04,0x18,0x3c,0xc6,0x7c,0x7c,0x7c,0x7c,0x7c,0x00,
 0x7c,0x7c,0x7c,0x7c,0x7c,0x30,0x04,0x18};
