/* XPM */
static char * billA_12_xpm[] = {
"58 41 8 1",
" 	c None",
".	c #5a395a",
"X	c #debd5a",
"o	c #000000",
"O	c #ffffff",
"+	c #dedebd",
"@	c #fffff7",
"#	c #ffff9e",
"                                                          ",
"                                                          ",
"                                                          ",
"                                .......                   ",
"                               .XXXXXX.                   ",
"                           ....XXXXXXXX...                ",
"                        . .XXXXXXXXXXXXXXX.               ",
"                       .X.XXXXXXXXXXXXXXXX.               ",
"                       .XX.XXXXXXXXXXXXXX..               ",
"                      .XXXXXXXXXXXXXXXXXXXX.              ",
"                     .XXXXXXXXXXXXXXXXXXXXX..             ",
"                     .XXXXXXXXXXXXXXXXXXXXXX.             ",
"                     .XXXXXXXXooooXXXXXXXXXX.             ",
"                     .XXXXXXXoOOOOoXXXooooXX.             ",
"                     .X.XXXXXoOOOOOoXoOOOOoX.             ",
"                     .X.XooooOOOOOOoXoOOOOo.              ",
"                      ..X.+@oOOOOOOooOOOOOo               ",
"                        ..@+oOOOOOOooOOOOOo               ",
"                         .+@oOOOOOo@oOOOOOo               ",
"                          .+@oOOOOo+@oOOOoo               ",
"                          ...@oooo+@+@ooo                 ",
"                            .+@+@+@+.+.                   ",
"                            .@.@+@+.+@.                   ",
"                            ....@+@+@..                   ",
"                           .###..@+@.##..                 ",
"                          .#####....#.##.                 ",
"                         .######.##.#.#.#.                ",
"                        .########.#.#.#.#.                ",
"                        .#####.##.#..##.##.               ",
"                       .#####.####...##.#..               ",
"                       ...###.####..###..+@.              ",
"                       .@+.#.######.###.+ +.              ",
"                      .@+@+.#######.###. +.               ",
"                       .@+............. ..                ",
"                        ..###########.                    ",
"                          ..#####..##. ..                 ",
"                         ....#....####....                ",
"                         ......  .##......                ",
"                         .......  ........                ",
"                          ......  .......                 ",
"                           ....    ...                    "};
