/* XPM */
static char * billD_0_xpm[] = {
"24 38 8 1",
" 	c None",
".	c #5d3c5d",
"X	c #dfbe5d",
"o	c #000000",
"O	c #ffffff",
"+	c #3f5fbf",
"@	c #dfdfbe",
"#	c #ffff9e",
"       ..   ...         ",
"       ..  .X.    ..    ",
" ...  .XX...X.  ...     ",
"  .X. .XXX.XX. ..X. . . ",
"  .XXX.XXX.XX..XXX....  ",
"....XXXXXXXXXXXXXX.XX.  ",
" .XXXXXXXXXXXXXXXXXX.   ",
" .XXXXXXXXXXXXXXXXX.   .",
"  .XXXXXXXXXXXXXXXX.... ",
"  .XXXXXXXXooooXXXXXXX. ",
"...ooooXXXoOOOOoXXXXX.  ",
".XoO+OOoXoO+OOOoXXXX..  ",
"..oO+OOoXoOO+OOOoooo.   ",
"..o++OOOooOOO+OOoO@.X.  ",
"  oOO+OOooOO+O+Oo@O.X.  ",
"  oOO+Oo@Oo+OOOoo..X... ",
"   oO+OoO@oOOOOo@.X.    ",
" .  oooO@O@oooo .X. ..  ",
". .... @... @ .@... .@. ",
".@.###. .... ....... . .",
". .####.@ @ ..####. @ @.",
".@.#####....#.####.@ @ .",
"...####.##.##.#####.@ @.",
"  ....#.##.#.######.... ",
"     .##.#.#.#####..    ",
"     .##.#..#####.      ",
"     .###...#####.      ",
"     .###..######.      ",
"     .####.######.      ",
"      .###.#####..      ",
" ..  .#.##.##....#.     ",
".... .##.....#####.  .. ",
".....##############. ...",
" ....#####.....#####....",
" .....##..     .###.... ",
"  ......        ....... ",
"  ....           .....  ",
"                 ...    "};
