/* XPM */
static char * billA_10_xpm[] = {
"58 41 8 1",
" 	c None",
".	c #5a395a",
"X	c #debd5a",
"o	c #dedebd",
"O	c #000000",
"+	c #ffffff",
"@	c #fffff7",
"#	c #ffff9e",
"                  .......                                 ",
"               . .XXXXXXX....                             ",
"              .X.XXXXXXXXXXXX.                            ",
"            ..XXXXXXXXXXXXXXXX.                           ",
"           ..XXXXXXXXXXXXXXXXX.                           ",
"           .XXXXXXXXXXXXXXXXXX.                           ",
"           .XXXXXXXXXXXXXXXXX...                          ",
"           .XXXXXXXXXXXXXXXXXXX..                         ",
"           .XXXXXXXXXXXXXXXXXXXX.                         ",
"            .XXXX..XXXXXXXXXXXXX.                         ",
"             .....o.XXXXXXXXXXXX.                         ",
"              OOOOOO.XXXXXXXXXX.                          ",
"              O+.o+o..XXXXXXXX.                           ",
"              O+.+o+o.XXXXXXXX.                           ",
"               O.o+o.XXXXXXXX.  @                         ",
"                 .o+o..XXXXXX.                            ",
"                 .+o+o...XXXX.                            ",
"                  ...+............                        ",
"                    ...###########.                       ",
"                 ...##############.                       ",
"              ...#################.                       ",
"         .....###################..                       ",
"         . o.##################..                         ",
"         .o .##################.     @                    ",
"          ....#################.                          ",
"              ......###########.                          ",
"                  .#############.                         ",
"                  .#############.                         ",
"                  .######.....##.                         ",
"                  .##....#####.#.                         ",
"                   ...#########.                          ",
"                    .##########.                          ",
"                    .#####.####.                          ",
"                   .#####..####.                          ",
"                   .#####..####.                          ",
"                  .#####.  .####.                         ",
"                  .#####.  .####.                         ",
"                 .......    .....                         ",
"                .........  ......                         ",
"                 .......    ....                          ",
"                                                          "};
