/* XPM */
static char * billR_1_xpm[] = {
"24 38 8 1",
" 	c None",
".	c #5d3c5d",
"X	c #dfbe5d",
"o	c #000000",
"O	c #ffffff",
"+	c #fffbf3",
"@	c #dfdfbe",
"#	c #ffff9e",
"          ........      ",
"       ...XXXXXXXX..    ",
"     ..XXXXXXXXXXXXX.   ",
"   ..XXXXXXXXXXXXXXXX.  ",
"  .XX.XXXXXXXXXXXXXXX.  ",
" .XXX.XXXXXXXXXXXXXX..  ",
" .XXXXXXXXXXXXXXXXXXXX. ",
".XXXXXXXXXXXXXXXXXXXXXX.",
".XXXXXXXXooooXXXXXXXXXX.",
".XXXXXXXoOOOOoXXXooooXX.",
".XXXXXXXoOOOOOoXoOOOOoX.",
".X.XooooOOOOOOoXoOOOOo. ",
" X.X.+@oOOOOOOooOOOOOo  ",
"  ...@+oOOOOOOooOOOOOo..",
".......oOOOOOo@oOOOOOo..",
".@+.+..@oOOOOo+@oOOOoo@.",
"..@+@...@oooo+@+@ooo+@+.",
" .+@+.##.@+@+@+.+.##....",
" .@+@.###.@+@+.+@.###.  ",
" .....####.@+@+@.###.   ",
"  ..######..@+@.####.   ",
"   ..#######...#.##.    ",
"    .######.##.#.#.     ",
"     .######.#.#.#.     ",
"     .######.#..##.     ",
"     .#######...##.     ",
"     .#######..###.     ",
"     .########.###.     ",
"     ..#######.###.     ",
"      ............      ",
"       .########.       ",
"       .########.       ",
"        .####.##.       ",
"        .###.##.        ",
"        .###.##.        ",
"       ...........      ",
"      .............     ",
"       ...........      "};
