/* XPM */
static char * billA_8_xpm[] = {
"58 41 8 1",
" 	c None",
".	c #5a395a",
"X	c #debd5a",
"o	c #000000",
"O	c #ffffff",
"+	c #fffff7",
"@	c #dedebd",
"#	c #ffff9e",
"                                                          ",
"                                                          ",
"                                       .......            ",
"                                       .XXXXXX..          ",
"                                    ...XXXXXXXX....       ",
"                                   .XXXXXXXXXXXXXXX. .    ",
"                                   .XXXXXXXXXXXXXXXX.X.   ",
"                                   ..XXXXXXXXXXXXXX.XX.   ",
"                                  .XXXXXXXXXXXXXXXXXXXX.  ",
"                                 ..XXXXXXXXXXXXXXXXXXXXX. ",
"                                 .XXXXXXXXXXXXXXXXXXXXXX. ",
"                                 .XXXXXXXXXXooooXXXXXXXX. ",
"                                 .XXooooXXXoOOOOoXXXXXXX. ",
"                                 .XoOOOOoXoOOOOOoXXXXX.X. ",
"                                  .oOOOOoXoOOOOOOooooX.X. ",
"                                   oOOOOOooOOOOOOo+@....  ",
"                                 ..oOOOOOooOOOOOOo@+..    ",
"                                 ..oOOOOOo+oOOOOOo....... ",
"                                 .+ooOOOo+@oOOOOo+..@.@+. ",
"                                 .@+@ooo+@+@oooo+...+@+.. ",
"                                 ....##.@.@+@+@+.##.@+@.  ",
"                                   .###.+@.@+@+.###.+@+.  ",
"                                    .###.+@+@+.####.....  ",
"                                    .####.+@+..######..   ",
"                                     .##.#...#######..    ",
"                                      .#.#.##.######.     ",
"                                      .#.#.#.######.      ",
"                                      .##..#.######.      ",
"                                      .##...#######.      ",
"                                      .###..#######.      ",
"                                      .###.########.      ",
"                                      .###.#######..      ",
"                                       ............       ",
"                                        .########.        ",
"                                        .########.        ",
"                                        .##.####.         ",
"                                         .##.###.         ",
"                                         .##.###.         ",
"                                       ...........        ",
"                                      .............       ",
"                                       ...........        "};
