/* XPM */
static char * billA_0_xpm[] = {
"58 41 8 1",
" 	c None",
".	c #5a395a",
"X	c #debd5a",
"o	c #000000",
"O	c #ffffff",
"+	c #fffff7",
"@	c #dedebd",
"#	c #ffff9e",
"                                                          ",
"                                                          ",
"                                        ........          ",
"                                      ..XXXXXXXX...       ",
"                                     .XXXXXXXXXXXXX..     ",
"                                    .XXXXXXXXXXXXXXXX..   ",
"                                    .XXXXXXXXXXXXXXX.XX.  ",
"                                    ..XXXXXXXXXXXXXX.XXX. ",
"                                   .XXXXXXXXXXXXXXXXXXXX. ",
"                                  .XXXXXXXXXXXXXXXXXXXXXX.",
"                                  .XXXXXXXXXXooooXXXXXXXX.",
"                                  .XXooooXXXoOOOOoXXXXXXX.",
"                                  .XoOOOOoXoOOOOOoXXXXXXX.",
"                                   .oOOOOoXoOOOOO ooooX.X.",
"                                    oOOOOOooOOOOOOo+@.X.. ",
"                                    oOOOOOooOOOOOOo@+...  ",
"                                    oOOOOOo+oOOOOOo+@.    ",
"                                    ooOOOo+@oOOOOo+@.     ",
"                                      ooo+@+@oooo+...     ",
"                                        .@.@+@+@+@.       ",
"                                        .+@.@+@+.+.       ",
"                                        ..+@+@+....       ",
"                                      ..##.+@+..###.      ",
"                                      .##.#....#####.     ",
"                                     .#.#.#.##.######.    ",
"                                     .#.#.#.#.########.   ",
"                                    .##.##..#.##.#####.   ",
"                                    ..#.##...####.#####.  ",
"                                   .+@..###..####.###...  ",
"                                   .@ @.###.######.#.@+.  ",
"                                    .@ .###.#######.@+@+. ",
"                                     .. .............@+.  ",
"                                         .########.  ..   ",
"                                         .########.       ",
"                                         .##.####.        ",
"                                          .##.###.        ",
"                                          .##.###.        ",
"                                        ...........       ",
"                                       .............      ",
"                                        ...........       ",
"                                                          "};
