/* XPM */
static char * billR_2_xpm[] = {
"24 38 8 1",
" 	c None",
".	c #5d3c5d",
"X	c #dfbe5d",
"o	c #000000",
"O	c #ffffff",
"+	c #fffbf3",
"@	c #dfdfbe",
"#	c #ffff9e",
"           .......      ",
"         ..XXXXXX.      ",
"      ....XXXXXXXX...   ",
"   . .XXXXXXXXXXXXXXX.  ",
"  .X.XXXXXXXXXXXXXXXX.  ",
"  .XX.XXXXXXXXXXXXXX..  ",
" .XXXXXXXXXXXXXXXXXXXX. ",
".XXXXXXXXXXXXXXXXXXXXX..",
".XXXXXXXXXXXXXXXXXXXXXX.",
".XXXXXXXXooooXXXXXXXXXX.",
".XXXXXXXoOOOOoXXXooooXX.",
".X.XXXXXoOOOOOoXoOOOOoX.",
".X.XooooOOOOOOoXoOOOOo. ",
" ....+@oOOOOOOooOOOOOo  ",
"   ..@+oOOOOOOooOOOOOo..",
".......oOOOOOo@oOOOOOo..",
".@+.+..@oOOOOo+@oOOOoo@.",
"..@+@...@oooo+@+@ooo+@+.",
" .+@+.##.@+@+@+.+.##....",
" .@+@.###.@+@+.+@.###.  ",
" .....####.@+@+@.###.   ",
"  ..######..@+@.####.   ",
"   ..#######...#.##.    ",
"    .######.##.#.#.     ",
"     .######.#.#.#.     ",
"     .######.#..##.     ",
"     .#######...##.     ",
"     .#######..###.     ",
"     .########.###.     ",
"     ..#######.###.     ",
"      ............      ",
"       .########.       ",
"      ...#####.. .      ",
"      ..#.#####....     ",
"      ...#.###.....     ",
"       ......#.....     ",
"       ...........      ",
"        .... ...        "};
