/* XPM */
static char * billL_1_xpm[] = {
"24 38 8 1",
" 	c None",
".	c #5d3c5d",
"X	c #dfbe5d",
"o	c #000000",
"O	c #ffffff",
"+	c #fffbf3",
"@	c #dfdfbe",
"#	c #ffff9e",
"      ........          ",
"    ..XXXXXXXX...       ",
"   .XXXXXXXXXXXXX..     ",
"  .XXXXXXXXXXXXXXXX..   ",
"  .XXXXXXXXXXXXXXX.XX.  ",
"  ..XXXXXXXXXXXXXX.XXX. ",
" .XXXXXXXXXXXXXXXXXXXX. ",
".XXXXXXXXXXXXXXXXXXXXXX.",
".XXXXXXXXXXooooXXXXXXXX.",
".XXooooXXXoOOOOoXXXXXXX.",
".XoOOOOoXoOOOOOoXXXXXXX.",
" .oOOOOoXoOOOOOOooooX.X.",
"  oOOOOOooOOOOOOo+@.X.X ",
"..oOOOOOooOOOOOOo@+...  ",
"..oOOOOOo+oOOOOOo.......",
".+ooOOOo+@oOOOOo+..@.@+.",
".@+@ooo+@+@oooo+...+@+..",
"....##.@.@+@+@+.##.@+@. ",
"  .###.+@.@+@+.###.+@+. ",
"   .###.+@+@+.####..... ",
"   .####.+@+..######..  ",
"    .##.#...#######..   ",
"     .#.#.##.######.    ",
"     .#.#.#.######.     ",
"     .##..#.######.     ",
"     .##...#######.     ",
"     .###..#######.     ",
"     .###.########.     ",
"     .###.#######..     ",
"      ............      ",
"       .########.       ",
"       .########.       ",
"       .##.####.        ",
"        .##.###.        ",
"        .##.###.        ",
"      ...........       ",
"     .............      ",
"      ...........       "};
