/* XPM */
static char * billA_5_xpm[] = {
"58 41 7 1",
" 	c None",
".	c #5a395a",
"X	c #debd5a",
"o	c #000000",
"O	c #dedebd",
"+	c #ffffff",
"@	c #ffff9e",
"                                                          ",
"                                                          ",
"                                                          ",
"                                 ...                      ",
"                                .XXX..                    ",
"                         ......ooooXXX.                   ",
"                      .....O+Oo++++oXXX.                  ",
"                     ..+.+.+Oo+++++oXXXX.                 ",
"                    ..+.++.O+o+++++oXXXXX.                ",
"                    .+.++.O+Oo+++++oXXXXX..               ",
"                    ..+..O+O+ooooooXXXXXXX.               ",
"                    ...+OoooooXXXXXXXXXXXX.               ",
"                    .O+Oo++++oXXXXXXXXXXXX.               ",
"                    .+Oo+++++oXXXXXXXXXXXX.               ",
"                     .+o+++++oXXXXXXXXXXXX.               ",
"                     .Oo+++++oXXXXXXXXXX.X.               ",
"                      .o+++++oXXXXXXXXXXX..               ",
"                      .+o+++oXXXXXXXXXXXX.                ",
"                      ..OoooXXXXXXXXXXXXX.                ",
"                     ..@.XXXXXXXXXXXXXXX.                 ",
"                    .@@@@.XXXXXXXX.XXX...                 ",
"                   .@@@@@..XXXXXXXX....                   ",
"                  .@@@@@@@...XX.....                      ",
"                 .@@@@@@@@@@@......                       ",
"                .@@@@@@@@@@@@@@@@@..                      ",
"               .@@@@@.@@@@@@@@@@@@@.                      ",
"              ...@@...@@@@@@@@@@@@@.                      ",
"            ..O ....@@@@@@@@@@@@@@@.                      ",
"           . O...   ...@@@@@@@@@@@..                      ",
"           ...       .@......@@@..                        ",
"                     .@@@@@@@....                         ",
"                    .@@@@@@@@@@@.                         ",
"                    .@@@@@@...@@.                         ",
"                    .@@@@@.@@@@@.                         ",
"                    .@@@@..@@@@.                          ",
"                   .@@@@.  .@@@..                         ",
"                   .@@@@.  .@@...                         ",
"                 .......    .....                         ",
"                .........  ......                         ",
"                 .......    ....                          ",
"                                                          "};
