/* XPM */
static char * hurd_xpm[] = {
"28 24 16 1",
" 	c #aaaaaa",
".	c #71b6d6",
"X	c #5da4f1",
"o	c #5e91d7",
"O	c #3171c5",
"+	c #3487ca",
"@	c #2750a0",
"#	c #29d176",
"$	c #77d8d9",
"%	c #21bf77",
"&	c #00ff00",
"*	c #10e13c",
"=	c #183571",
"-	c #16ef1a",
";	c #25639c",
":	c #1f418a",
/* pixels */
"                            ",
"                            ",
"                            ",
"            .XXXo           ",
"           XXXXXXOo         ",
"          XXXXXXX+O         ",
"         XXXXXXXX+O@        ",
"  #     .#XX$#XX%%+@o###    ",
"  &   &&.&X$$&**&&&&=&&&&#  ",
"  &   &&.&$$$&**&O&&=&  &&  ",
"  &   &&.&$$$&**&O*&=&  &&  ",
"  &---&&.&X$X&**&O&&=&   &  ",
"  &&&&&&.&XXX&**&&&-=&   &  ",
"  &   &&.&XXX&%*&&&==&   &  ",
"  &   &&X&*X%&+*&;&-;&  &&  ",
"  &   &&X&&%&&O*&@&&;&--&&  ",
"  &   --+%&&&+O*&:*&+&&&&   ",
"        O+O+OO@@:=:O+       ",
"        oOOOO@@:==@$o       ",
"         @@@@::==:XX        ",
"         @::::==:@XX        ",
"          ;=====:@o         ",
"            @==:O           ",
"                            "};
