/* XPM */
static char * linux_xpm[] = {
/* width height ncolors chars_per_pixel */
"28 24 16 1",
/* colors */
" 	c #0000F8",
".	c #0000DD",
"X	c #100E33",
"o	c #000016",
"O	c #000000",
"+	c #625041",
"@	c #00008C",
"#	c #42333B",
"$	c #DFD7B2",
"%	c #8F7644",
"&	c #F0BC0F",
"*	c #C8A337",
"=	c #E1BD43",
"-	c #F3F2F2",
";	c #F6F6F6",
":	c #F8F8F8",
/* pixels */
"           .XoOX.           ",
"           oOOO+o.          ",
"          @oOOOoOX          ",
"          @##o++oo          ",
"          @+$o$%#o          ",
"          .#%%%%XO          ",
"          .+&&&*OO.         ",
"          @+*&*=#+@         ",
"          @%*%$$%XO.        ",
"         .X----;:XOX        ",
"         X%;---;-+oO@       ",
"        @o$------$XOO.      ",
"        X+;-;;;---+XO@.     ",
"       .o$;;;;;;--$OOo      ",
"       X#;;;-;;;;-$OoO.     ",
"      .o+;:;-:;;;-$OOO@     ",
"      .%+;;:-;::;-$oOX..    ",
"      %&&+-;;::;-$*OO%+     ",
"    +*&&&%X$::::;=&%%&%     ",
"    *&&&&&#+:::::%&&&&=%    ",
"    *&&&&&&$;::;%#&&&&&&%   ",
"    *&&&&&&%%$+#O+&&&&*.    ",
"    @%%&&&*#oXXXX#&&*#      ",
"      ..#++@     X++@       "};
