/* XPM */
static char * os2_xpm[] = {
"28 24 7 1",
" 	c #000000",
".	c #3c9e3c",
"X	c #7dff3c",
"o	c #7dff5d",
"O	c #5ddf5d",
"+	c #5dff5d",
"@	c #7ddf5d",
"            .XX.            ",
"          XXX..XXX          ",
"        XX..    ..XX        ",
"      .X.          .X.      ",
"     .X              X.     ",
"     X                X     ",
"    X.            o   .X    ",
"    X             o    X    ",
"   X. .oo. .oo.  .o.o. .X   ",
"   X. o  o o  o  O.o o .X   ",
"  .X  o  o o     o   o  +.  ",
"  X.  o  o .o.  .o  .o  .X  ",
"  X.  o  o  .o. O. .o   .X  ",
"  .X  o  o    o o .o    X.  ",
"   X. o  o o  o.o @    .X   ",
"   X. .oo. .oo.O. @ooo .X   ",
"    X          o       X    ",
"    X.         o      .X    ",
"     X                X     ",
"     .X              X.     ",
"      .X.          .X.      ",
"        XX..    ..XX        ",
"          XXX..XXX          ",
"            .XX.            "};
