/* XPM */
static char * sgi_xpm[] = {
"28 24 5 1",
" 	c #a6cbf3",
".	c #7d9ebe",
"X	c #3c5d7d",
"o	c #a2a2a6",
"O	c #828282",
"                            ",
"           .X  XX           ",
"         .XXX  X.XX         ",
"       .XXXoO  oOX.XX       ",
"     .XXX  oO  oO  X.XX     ",
"    .XX    oO  oO    X.X    ",
"    XX.X   oO  oO   .XXX    ",
"      XX.X oO  oO .XXX      ",
"    .   XX.XO  o.XXX   .    ",
"   .X.X   XX...XXX   .XXX   ",
"   .XXX.X  oXXXXO  .XXX.X   ",
"   .X  XX.XOO  oo.XXX  .X   ",
"   .X   oXX.X  .XXXo   .X   ",
"   .X ooOOO.X  .XOOOoo .X   ",
"   .XoOO   .Xoo.X   OOo.X   ",
"   .XO   oo.XOO.Xoo   O.X   ",
"    .  ooOO.X  .XOOoo  .    ",
"     .oOO  .X  .X  OOo.     ",
"    X.X    .X  .X    .XX    ",
"     XX.X  .X  .X  .XXX     ",
"       XX.X.X  .X.XXX       ",
"         XX.X  .XXX         ",
"           XX  .X           ",
"                            "};
