/* XPM */
static char * sun_xpm[] = {
"28 24 3 1",
" 	c #dfdfbe",
".	c #a6cbf3",
"X	c #5d5dbe",
"             .              ",
"            XXX.            ",
"            X. X.           ",
"          X. X. X.          ",
"         . X. X. X.         ",
"         X. X. X. X         ",
"       .  X. X. X.  X       ",
"      .X   X. X    X.       ",
"     .X .X  X.X.  X. X.     ",
"    .X .X    XX  X. X. .    ",
"   .X .X .XX    X. X. XXX   ",
"   X .X .X X.  .X X. X. X   ",
"   XXX .X .X    XX. X. X.   ",
"    . .X .X  XX    X. X.    ",
"     .X .X  .X.X  X. X.     ",
"       .X    X .X   X.      ",
"       X  .X .X .X  .       ",
"         X .X .X .X         ",
"         .X .X .X .         ",
"          .X .X .X          ",
"           .X .X            ",
"            .XXX            ",
"              .             ",
"                            "};
