/* XPM */
static char * wingdows_xpm[] = {
"28 24 32 1",
" 	c #cccccc",
".	c #000000",
"X	c #555555",
"o	c #dddddd",
"O	c #aaaaaa",
"+	c #333333",
"@	c #111111",
"#	c #bbbbbb",
"$	c #888888",
"%	c #444444",
"&	c #666666",
"*	c #999999",
"=	c #222222",
"-	c #ff9999",
";	c #33cccc",
":	c #00ffff",
">	c #339999",
",	c #ff6666",
"<	c #336666",
"1	c #33ffff",
"2	c #777777",
"3	c #99ff99",
"4	c #66ff66",
"5	c #99cc99",
"6	c #33ff33",
"7	c #00ff00",
"8	c #9999cc",
"9	c #0000ff",
"0	c #006666",
"q	c #cccc99",
"w	c #cccc66",
"e	c #003333",
"           ..               ",
"          .Xo. OO           ",
"          .XXo.o+@#         ",
"         ..oXX.$  XX        ",
"        .oo.XX. %& *=*      ",
"  ---.. .XX.oX%;:>=$ X+#    ",
"  .--,,-o.Xo.XX<::1.+ #+2   ",
"3435#   .XoXXoX.::;<;=& 2=O ",
"6677777O.oXXXXX.::X1::>=* $O",
"  88  O  ..XXXX.:;<::::;=#  ",
" 89999998.XXXXX.:01::::<#   ",
"      ##  ...oX.*<::::;<    ",
" qw%qqq     :..:=<::::%#    ",
" q%=@@@@= X;:::;<;e;:;&     ",
"          =::::<1:1><+      ",
"      * #=;:::;<::::>2      ",
"      .& 2<1::<1::::=       ",
"       @.# <;;<::::>$       ",
"        O@O O@;::::=        ",
"          O=# >>::>*        ",
"            @X  <;=         ",
"             #=O 2X         ",
"               $%#          ",
"                #@O         "};
