/* XPM */
static char *tinykate_xpm[] = {
"14 14 3 1",
" 	c None",
".	c #000000",
"a	c #FFFFFF",
"              ",
" aaaaaaaaaaaa ",
" a..........a ",
" a..aaaaaa..a ",
" a.a.aaaa.a.a ",
" a.aa.aa.aa.a ",
" a.aaa..aaa.a ",
" a.aaa..aaa.a ",
" a.aa.aa.aa.a ",
" a.a.aaaa.a.a ",
" a..aaaaaa..a ",
" a..........a ",
" aaaaaaaaaaaa ",
"              "};
