/* XPM */
static char * wordgame_shapes_xpm[] = {
"96 16 9 1",
" 	c None",
".	c #005E5E",
"+	c #007F7F",
"@	c #00FFFF",
"#	c #0000FF",
"$	c #FFA100",
"%	c #FF0000",
"&	c #000000",
"*	c #FFFFFF",
"................................................................................................",
".+++++++++++++++.@@@@@@@@@@@@@@@.###############.$$$$$$$$$$$$$$$.%%%%%%%%%%%%%%%.$$$$$$$$$$$$$$$",
".+++++++++++++++.@@&&@@@@@@@@@@@.##**###########.$$&&$$$$$$$$$$$.%%**%%%%%%%%%%%.$$$$$$$$$$$$$$$",
".+++++++++++++++.@&@@&@@&@@@&@@@.#*##*##*###*###.$&$$&$$&$$$&$$$.%*%%*%%*%%%*%%%.$$**$$$$$$$**$$",
".+++++++++++++++.@@@@&@@@&@&@@@@.###*####*#*####.$$$$&$$$&$&$$$$.%%%*%%%%*%*%%%%.$$***$$$$$***$$",
".+++++++++++++++.@@@&@@@@@&@@@@@.####*####*#####.$$$&$$$$$&$$$$$.%%%%*%%%%*%%%%%.$$$***$$$***$$$",
".+++++++++++++++.@@&@@@@@&@&@@@@.#*##*###*#*####.$$&$$$$$&$&$$$$.%*%%*%%%*%*%%%%.$$$$***$***$$$$",
".+++++++++++++++.@&&&&@@&@@@&@@@.##**###*###*###.$&&&&$$&$$$&$$$.%%**%%%*%%%*%%%.$$$$$*****$$$$$",
".+++++++++++++++.@@@@@@@@@@@@@@@.###############.$$$$$$$$$$$$$$$.%%%%%%%%%%%%%%%.$$$$$$***$$$$$$",
".+++++++++++++++.@@&&@@&@@&@&&&@.##**##*##*#***#.$$$&&$$&$$$&$$$.%%%**%%*%%%*%%%.$$$$$*****$$$$$",
".+++++++++++++++.@&@@&@&&@&@&@@@.#*##*#**#*#*###.$$&$$&$&$$$&$$$.%%*%%*%*%%%*%%%.$$$$***$***$$$$",
".+++++++++++++++.@&@@&@&@&&@&&@@.#*##*#*#**#**##.$$&&&&$&$$$&$$$.%%****%*%%%*%%%.$$$***$$$***$$$",
".+++++++++++++++.@&@@&@&@@&@&@@@.#*##*#*##*#*###.$$&$$&$&$$$&$$$.%%*%%*%*%%%*%%%.$$***$$$$$***$$",
".+++++++++++++++.@&@@&@&@@&@&@@@.#*##*#*##*#*###.$$&$$&$&$$$&$$$.%%*%%*%*%%%*%%%.$$**$$$$$$$**$$",
".+++++++++++++++.@@&&@@&@@&@&&&@.##**##*##*#***#.$$&$$&$&&&$&&&$.%%*%%*%***%***%.$$$$$$$$$$$$$$$",
".+++++++++++++++.@@@@@@@@@@@@@@@.###############.$$$$$$$$$$$$$$$.%%%%%%%%%%%%%%%.$$$$$$$$$$$$$$$"};
