/* XPM */
static char * connect0_xpm[] = {
"14 14 11 1",
" 	c None",
".	c #FFFFFF",
"+	c #848284",
"@	c #000000",
"#	c #C6C3C6",
"$	c #877F81",
"%	c #191819",
"&	c #897D7F",
"*	c #0E0E0E",
"=	c #575657",
"-	c #131313",
"              ",
"              ",
"              ",
"      +@+     ",
"      #@@     ",
"      $%+     ",
"       +      ",
"       @      ",
"      &*=     ",
"      +-@     ",
"      +@@     ",
"     +#@@+    ",
"     +#@@@    ",
"     +#@@@    "};
