/* XPM */
static char * graphbackground_xpm[] = {
"49 29 8 1",
" 	c None",
".	c #243B3C",
"+	c #263F40",
"@	c #274142",
"#	c #3B575A",
"$	c #385254",
"%	c #375051",
"&	c #344B4C",
"..+...+...+...+...+...+...+...+...+...+...+...+..",
"..+...+...+...+...+...+...+...+...+...+...+...+..",
"@@#$$$#$$$#$$$#$$$#$$$#$$$#$$$#$$$#$$$#$$$#$$$#$@",
"..%&&&%&&&%&&&%&&&%&&&%&&&%&&&%&&&%&&&%&&&%&&&%&.",
"..%&&&%&&&%&&&%&&&%&&&%&&&%&&&%&&&%&&&%&&&%&&&%&.",
"..%&&&%&&&%&&&%&&&%&&&%&&&%&&&%&&&%&&&%&&&%&&&%&.",
"@@#$$$#$$$#$$$#$$$#$$$#$$$#$$$#$$$#$$$#$$$#$$$#$@",
"..%&&&%&&&%&&&%&&&%&&&%&&&%&&&%&&&%&&&%&&&%&&&%&.",
"..%&&&%&&&%&&&%&&&%&&&%&&&%&&&%&&&%&&&%&&&%&&&%&.",
"..%&&&%&&&%&&&%&&&%&&&%&&&%&&&%&&&%&&&%&&&%&&&%&.",
"@@#$$$#$$$#$$$#$$$#$$$#$$$#$$$#$$$#$$$#$$$#$$$#$@",
"..%&&&%&&&%&&&%&&&%&&&%&&&%&&&%&&&%&&&%&&&%&&&%&.",
"..%&&&%&&&%&&&%&&&%&&&%&&&%&&&%&&&%&&&%&&&%&&&%&.",
"..%&&&%&&&%&&&%&&&%&&&%&&&%&&&%&&&%&&&%&&&%&&&%&.",
"@@#$$$#$$$#$$$#$$$#$$$#$$$#$$$#$$$#$$$#$$$#$$$#$@",
"..%&&&%&&&%&&&%&&&%&&&%&&&%&&&%&&&%&&&%&&&%&&&%&.",
"..%&&&%&&&%&&&%&&&%&&&%&&&%&&&%&&&%&&&%&&&%&&&%&.",
"..%&&&%&&&%&&&%&&&%&&&%&&&%&&&%&&&%&&&%&&&%&&&%&.",
"@@#$$$#$$$#$$$#$$$#$$$#$$$#$$$#$$$#$$$#$$$#$$$#$@",
"..%&&&%&&&%&&&%&&&%&&&%&&&%&&&%&&&%&&&%&&&%&&&%&.",
"..%&&&%&&&%&&&%&&&%&&&%&&&%&&&%&&&%&&&%&&&%&&&%&.",
"..%&&&%&&&%&&&%&&&%&&&%&&&%&&&%&&&%&&&%&&&%&&&%&.",
"@@#$$$#$$$#$$$#$$$#$$$#$$$#$$$#$$$#$$$#$$$#$$$#$@",
"..%&&&%&&&%&&&%&&&%&&&%&&&%&&&%&&&%&&&%&&&%&&&%&.",
"..%&&&%&&&%&&&%&&&%&&&%&&&%&&&%&&&%&&&%&&&%&&&%&.",
"..%&&&%&&&%&&&%&&&%&&&%&&&%&&&%&&&%&&&%&&&%&&&%&.",
"@@#$$$#$$$#$$$#$$$#$$$#$$$#$$$#$$$#$$$#$$$#$$$#$@",
"..%&&&%&&&%&&&%&&&%&&&%&&&%&&&%&&&%&&&%&&&%&&&%&.",
"..+...+...+...+...+...+...+...+...+...+...+...+.."};
