/* XPM */
static const char *biglogo[]={
"32 32 6 1",
". c None",
"# c #000000",
"a c #303030",
"d c #d7d7d7",
"c c #eaeaea",
"b c #ffffff",
"................................",
"................................",
"................................",
"................................",
"....########################....",
"....#aaaaaaaaaaaaaaaaaaaaaa#....",
"....#abbbbbbbbbb##########a#....",
"....#abbbbbbbcbc##########a#....",
"....#abbbbbbbbbb##########a#....",
"....#abbbbbcbcbc##########a#....",
"....#abbbbbbbbbb##########a#....",
"....#abbbcbcbcbc##########a#....",
"....#abbbbbbbbbc##########a#....",
"....#abcbcbcbbcc##########a#....",
"....#abbbbbbbccc##########a#....",
"....#abcbcbccccc##########a#....",
"....#a##########cccccccccca#....",
"....#a##########cccccccccca#....",
"....#a##########ccccccccdca#....",
"....#a##########cccccccccca#....",
"....#a##########ccccccdcdca#....",
"....#a##########cccccccccca#....",
"....#a##########ccccdcdcdca#....",
"....#a##########cccccccccda#....",
"....#a##########ccdcdcdcdca#....",
"....#a##########cccccccdcda#....",
"....#aaaaaaaaaaaaaaaaaaaaaa#....",
"....########################....",
"................................",
"................................",
"................................",
"................................"};
