/* XPM */
static const char *contexthelp[]={
"14 14 3 1",
". c None",
"a c #000000",
"# c #ffffff",
"##............",
"#a#...........",
"#aa#.....aaaa.",
"#aaa#...aa..aa",
"#aaaa#......aa",
"#aaaaa#.....aa",
"#aaaaaa#...aa.",
"#aaaaaaa#.aa..",
"#aaaa###..aa..",
"#a##a#........",
"##..#a#...aa..",
"....#a#.......",
".....#........",
".............."};
