/* XPM */
static const char *exitx[]={
"14 14 4 1",
". c None",
"# c #000000",
"a c #303030",
"b c #757575",
"..............",
"......##......",
"......##......",
"...#..##..#...",
"..a##.##.##a..",
".b##..##..##b.",
".a#b..##..b#a.",
".##...##...##.",
".##...##...##.",
".a#b..##..b#a.",
".b##......##b.",
"..a##b..b##a..",
"...a######a...",
"....ba##ab...."};
