/* XPM */
static const char *green1_xpm[]={
"32 32 27 1",
"y c #6db06d",
"v c #70b370",
"s c #71b471",
"x c #73b673",
"w c #74b774",
"j c #76b976",
"l c #77ba77",
"c c #79ba79",
"o c #7abb7a",
"m c #7bbe7b",
"d c #7cbf7c",
"i c #7ebf7e",
"a c #7fc07f",
"e c #80c180",
"k c #81c281",
"b c #82c382",
"# c #84c584",
". c #85c685",
"f c #86c786",
"g c #88c788",
"n c #88c988",
"r c #89ca89",
"q c #8bca8b",
"u c #8dcc8d",
"p c #8ecd8e",
"t c #90cd90",
"h c #91ce91",
".#a.abcacdefghabijgbf.ajdkbb.fgl",
"abadadbamefffnadaijfffkcjoeka..l",
"keaiaoakm#ggagpabaoaakabkmdammba",
"mmmdmjijmebgifqadbfjdaik#mddbaak",
"aamaajaoliab.brradgmcbambabaakba",
"baadaaaksmae.bgttpgaoakijff.fdak",
"g.bcabaaakabk.gnpnnkomdaobb#f.bl",
"f.#adakabaik#b.ggggf.#ammgmk..fl",
"f#kkkijadbambae.abfgfamaebaake#l",
"ff#.baoaoaklekkbadffaboakijojobl",
"ggk#bbakomdadeaak.nnadeicaocmegl",
"gngkgggf.#aakabkiabunnabavldmaij",
"fgabaffbdwjdaik#aadggfkaklmxjxao",
"ffkakgfbaomcbaabaa.ffbaaemiocmak",
"gfkbf#bakkaoakkejabaawcmdmiididl",
"rgkk..gbebkomdadbadmlwbalmmdekay",
"nbadbb.#abf.#ammakbaojaijjijkbba",
"qfkjaak#kak.baijijaijcjaojaooaak",
"ng.jomaakabkfbaoaoaaowwlmcxbamij",
"qggawljdaik#.ffijaksbaoakajbaijo",
"ug.bcamcbambgijijfaxakoekkaakaol",
"ufff#baoaklegaoaorfmbajaaaaajakl",
"gng.gkkomdadbqnuprfbabaljloadiol",
".b#fngf.#amijanpqgg.iaijbajmab#l",
"iik#.b.fkkxaockqu.iakaaoakmebfgl",
"gggbaiakkawbajabgfjdaik#baabnqab",
"fijakakabkeakbaaekmcbambakafnpad",
"baoggdaikijbaakijwaoaklewbaeijao",
"ijfffcbamaoakaaaobkomdadjakbaohl",
"aobgfoaklecijjdaikf.#ammbajafrij",
"aobakomdadkaomcbambbababakijefao",
"llakf.#ammlllaoakleakakaklaoluul"};
