/* XPM */
static const char * green2_xpm[] = {
"32 32 72 1",
" 	c None",
".	c #349034",
"+	c #348D34",
"@	c #338433",
"#	c #306630",
"$	c #306B30",
"%	c #317931",
"&	c #328632",
"*	c #349334",
"=	c #359635",
"-	c #369C36",
";	c #36A436",
">	c #369F36",
",	c #35A735",
"'	c #36A136",
")	c #36A636",
"!	c #369A36",
"~	c #359935",
"{	c #359B35",
"]	c #328032",
"^	c #306E30",
"/	c #359135",
"(	c #338A33",
"_	c #328332",
":	c #338233",
"<	c #359435",
"[	c #327D32",
"}	c #2F632F",
"|	c #317731",
"1	c #327832",
"2	c #338C33",
"3	c #338733",
"4	c #2E612E",
"5	c #2C5C2C",
"6	c #348834",
"7	c #327B32",
"8	c #327332",
"9	c #35A035",
"0	c #338F33",
"a	c #316A31",
"b	c #2F672F",
"c	c #317431",
"d	c #348B34",
"e	c #317231",
"f	c #328B32",
"g	c #327532",
"h	c #307030",
"i	c #2E642E",
"j	c #348634",
"k	c #316F31",
"l	c #337C33",
"m	c #2C5F2C",
"n	c #2B5B2B",
"o	c #254D25",
"p	c #2F692F",
"q	c #359E35",
"r	c #358C35",
"s	c #36A936",
"t	c #38A338",
"u	c #295429",
"v	c #2D602D",
"w	c #2E5F2E",
"x	c #337F33",
"y	c #337933",
"z	c #306730",
"A	c #2F652F",
"B	c #285528",
"C	c #337233",
"D	c #326E32",
"E	c #2F6A2F",
"F	c #348334",
"G	c #358A35",
".+@#$%&*=--;>,'),'>''>!.~->{*]^/",
"(_:__(+.~!>'>';'>>!>>-=+{{!<+[}|",
"1$&++23]*-->'>'>>-----~.!-~.]456",
"11+==.78/{>>>>>>9--{!~==!=0@abc>",
"b1/==dee+=>-'-!!-9!!!=*../7bb]]'",
"b1.=*+11+=!!!!==!>>===+7&3[c1@]~",
"11+**+1&+.*~-~!=!!==++((+=.f6&@~",
"_(++33d&f.=<==*0./+2+0...=(]]]6*",
"(]11|(f@+++==+@133@32+**.*0]7&=*",
"71g7(.=<==.+=(h10g|]]@(f+0+33.==",
"6@3*<~--!.6@+]11gh|h4i%]3+&+++*+",
"@1@*~->!<+]j~=+@k@][e5}kc&@l[]3~",
"6^(=!{=~~{-!!~/]11]7cmnoi$|chk@!",
"/+/=-=+==>>>>>*1p^k|[]c7]2+*<==>",
"==~=->{~>>'>-=d1|@(&++*.=<->>'>{",
"!-->>!*{{---!<f&f+.+*{~==->''';=",
"!-9-'-*=-~-q~+@(+.*=-!!<r->)'))~",
"-==>'{<=<~-!*&k]+/*~-{;'-;>',;)*",
"--~<9{~~-<**fl|]3(*!!-->>''s)t;f",
"-q=~<->>=<//3iu[fd=~===>-'',,''3",
"><=<~>''>!!<@vv%3.2.+d**<~9>''-@",
"<6@==>''>--!+]7w3++]]%6@@(+=!{!+",
"f(++=>''-{=!<+]@:@@x$bbx:81_**f@",
"====!>'>-!==.*fy%h[|zv5AAia%@@|]",
"--{<{'''-==<.+f6]_]36i5$$$hechc*",
"{!-!<=~{*/+(+f+((ff(g}nzc8%]|c3+",
"-!!<+++(_7[(3+/*~.(3@lBB1]@_^[@3",
"==+d+$Ca}e_3f.~{~=.(6:z$7@3@]&(f",
".+&heD$:|]@@+=!~~=<+3:]7@&3+&2=+",
"+f&:_6|:7%%f+<=!==*+&:]:]j[+==-+",
"2__+2_[7@@@&+=<=<++37^b[@j/{->-+",
"1cc71|||cc1^g7l77c|cE5Ec77FGGrG["};
