/* XPM */
static const char *help_xpm[]={
"16 16 55 1",
". c None",
"e c #000000",
"W c #010101",
"j c #040404",
"w c #383838",
"# c #393939",
"a c #3f3f3f",
"k c #404040",
"o c #494949",
"x c #4a4a4a",
"C c #4d4d4d",
"p c #4e4e4e",
"0 c #4f4f4f",
"T c #6b6b6b",
"Y c #6d6d6d",
"E c #8c8c8c",
"N c #999999",
"Z c #a2a2a2",
"U c #a8a8a8",
"i c #b5b5b5",
"d c #bababa",
"R c #c0c0c0",
"V c #c4c4c4",
"X c #cacaca",
"S c #cbcbcb",
"O c #cecece",
"M c #d1d1d1",
"b c #d3d3d3",
"Q c #d5d5d5",
"c c #d9d9d9",
"D c #dadada",
"P c #dbdbdb",
"f c #dddddd",
"K c #dedede",
"H c #e3e3e3",
"l c #e5e5e5",
"J c #e6e6e6",
"L c #e7e7e7",
"g c #e8e8e8",
"q c #eaeaea",
"I c #ebebeb",
"h c #ececec",
"G c #ededed",
"y c #eeeeee",
"F c #f0f0f0",
"A c #f2f2f2",
"B c #f3f3f3",
"v c #f4f4f4",
"u c #f5f5f5",
"r c #f6f6f6",
"m c #f7f7f7",
"z c #f8f8f8",
"t c #fafafa",
"s c #fbfbfb",
"n c #fcfcfc",
"......###.......",
".....abcdee.....",
".....afghcije...",
".....klmnnmciop.",
".....oqrstuvpwpe",
".....xyzzzABpCDe",
"....#EBrrFyGeee.",
"....kHFBBIJKj...",
"....#JgyLHDMe...",
".###NMOPccQRe...",
"#nzSTTURVSRW....",
"#icnzXYTZUUe....",
".eeicnmSp0Ne....",
"...eeicpwpe.....",
".....eeppDe.....",
".......eee......"};
