/* XPM */
static const char *king_black[]={
"28 28 8 1",
". c None",
"# c #000000",
"f c #303030",
"d c #585858",
"b c #808080",
"a c #a0a0a0",
"c c #dcdcdc",
"e c #ffffff",
"..........########..........",
"........##aaabbbbb##........",
"......##caddddddddbb##......",
".....#ccc###########bb#.....",
"....#eed##############b#....",
"...#ee#################b#...",
"..#ee###################b#..",
"..#e##########e#########b#..",
".#ce##########e##########b#.",
".#c##########ded#########b#.",
"#aa####ca####aeb####ea####b#",
"#aa####bea###cea###aeb####b#",
"#ad####dce###ecc###ecd####b#",
"#ad#####cea##ecc##aea#####b#",
"#ad#####acea#ecc#aecb#####b#",
"#ad######cee#ecc#eec######b#",
"#ad######cceeecceeca######b#",
"#bd######acccccccccb######b#",
".#b#######ccccccccc######b#.",
".#b#######cccccccca######b#.",
"..#b######aaaaaaaab#####b#..",
"..#b#######fffffffff####b#..",
"...#b##################b#...",
"....#b################b#....",
".....#bb############bb#.....",
"......##bb########bb##......",
"........##bbbbbbbb##........",
"..........########.........."};
