/* XPM */
static const char *king_white[]={
"28 28 8 1",
". c None",
"# c #000000",
"d c #303030",
"e c #585858",
"f c #808080",
"c c #a0a0a0",
"b c #dcdcdc",
"a c #ffffff",
"..........########..........",
"........##aaaaaaaa##........",
"......##aaabbbbbbbcc##......",
".....#aaabbbbbbbbbbbcc#.....",
"....#aabbbbbbbbbbbbbbbc#....",
"...#aabbbbbbbbbbbbbbbbbc#...",
"..#aabbbbbbbbbbbbbbbbbbbc#..",
"..#abbbbbbbbbadbbbbbbbbbc#..",
".#abbbbbbbbbbadbbbbbbbbbbc#.",
".#abbbbbbbbbbadbbbbbbbbbbc#.",
"#aabbbb#abbbbadbbbbba#bbbbc#",
"#abbbbb#dabbac#cbbbae#bbbbc#",
"#abbbbbaddbbafdfbbaf#ebbbbc#",
"#abbbbbbedcbaedebba##cbbbbc#",
"#abbbbbbcddaadddbafdebbbbbc#",
"#abbbbbbbdddadddacddcbbbbbc#",
"#abbbbbbbeddfdddfddebbbbbbc#",
"#abbbbbbbcdddddddddcbbbbbbc#",
".#cbbbbbbbddddddddebbbbbbc#.",
".#cbbbbbbbedddddddcbbbbbbc#.",
"..#cbbbbbbcfffffffbbbbbbc#..",
"..#cbbbbbbbbbbbbbbbbbbbbc#..",
"...#cbbbbbbbbbbbbbbbbbbc#...",
"....#cbbbbbbbbbbbbbbbbc#....",
".....#ccbbbbbbbbbbbbcc#.....",
"......##ccbbbbbbbbcc##......",
"........##cccccccc##........",
"..........########.........."};
