/* XPM */
static const char *logo[]={
"14 14 6 1",
". c None",
"# c #000000",
"d c #dcdcdc",
"c c #e1e1e1",
"b c #efefef",
"a c #ffffff",
"..............",
".############.",
".#aaaab######.",
".#aaaaa######.",
".#aabab######.",
".#aaabb######.",
".#babbb######.",
".######bcbbc#.",
".######bbbbd#.",
".######bbcdd#.",
".######bcddd#.",
".######cdddd#.",
".############.",
".............."};
