/* XPM */
static const char *man_white_xpm[]={
"28 28 10 1",
". c None",
"# c #000000",
"g c #808080",
"d c #a0a0a0",
"f c #b3b3b3",
"a c #d7d7d7",
"e c #dcdcdc",
"h c #e1e1e1",
"c c #f6f6f6",
"b c #ffffff",
"..........########..........",
"........##aaaaaaaa##........",
"......##abbcbbbbbbdd##......",
".....#abbbeeeeeeebbedd#.....",
"....#abbbeafffffffebeed#....",
"...#abbeadfggdgggdfebbfd#...",
"..#abbeafggeeeeeeggfeeefd#..",
"..#abeafgabbbbbbbeegfebed#..",
".#abeafgebbeeeeebbbegfebfd#.",
".#abefgebbedddddeebbhgdbed#.",
"#abbafgebeddggggdhebegdebfd#",
"#abefgebbedgggffffebbagdbed#",
"#abefgebedggffafffeebegdbed#",
"#abefgebedggfaaaafeebegdbed#",
"#abefgebedgfaaeeafeebegdbed#",
"#acefgebedgfaeebbbeebegdbed#",
"#abeffebedgffeabbbebbegfchd#",
"#acbhfgebeddfaabbbebhfdhhfd#",
".#dbhfggebedddfeeebbhgfbhd#.",
".#debefgeebbeeeeebbhgfbbhd#.",
"..#deeefgeebbbbbbbhgfbbhd#..",
"..#debbefggehhhhhfgfhbhhd#..",
"...#deebeffggggggdfebhhd#...",
"....#deebeeehddddbbbchd#....",
".....#ddeeebbbbbbeehdd#.....",
"......##ddeeeeeeeedd##......",
"........##dddddddd##........",
"..........########.........."};
