/* XPM */
static const char *man_black_xpm[]={
"28 28 8 1",
". c None",
"# c #000000",
"c c #585858",
"a c #808080",
"f c #a0a0a0",
"e c #bdbdbd",
"b c #dcdcdc",
"d c #ffffff",
"..........########..........",
"........##aaaaaaaa##........",
"......##ba########aa##......",
".....#bbc###########aa#.....",
"....#ddc##############a#....",
"...#dd#######cccc######a#...",
"..#dd######aacccccc#####a#..",
"..#d#####ddeaac##ccc####a#..",
".#bd####dde#######ccc####a#.",
".#b####dde#########cc##cc##.",
"#aa####de#####ccc##ccc#ccc##",
"#a####ade#####ccc###cc#ccc##",
"#a####ae########cc#####ccc##",
"#a####ca#########ac####ccc##",
"#a###ccc#########ed####acc##",
"#a###cc####c#####dd###aacc##",
"#a###ccc###cc###dd####eeaa##",
"#a####cc####caedde###bbdbc##",
".#a###ccc#####dd#####bdde##.",
".#a####ccccc########bddd###.",
"..#a####cccc#######bdddb##..",
"..#a######cc#####bbdddb###..",
"...#a########aebbdddbb###...",
"....#a#####caaabddbbe###....",
".....#aa#cccccfbbde####.....",
"......##a#cccccb######......",
"........############........",
"..........########.........."};
