/* XPM */
static const char *marble2[]={
"32 32 560 2",
"dC c #6079b1",
"et c #6079b4",
"fU c #607ab1",
"fT c #607ab2",
"f5 c #607bb1",
"eu c #6179b4",
"f2 c #617ab0",
"dR c #617ab1",
"df c #617ab2",
"cY c #617ab3",
"dT c #617ab4",
"ef c #617bb3",
"cS c #617bb4",
"f6 c #617caf",
"cU c #617cb0",
"de c #627ab4",
"eb c #627ab5",
"gj c #627ab8",
"fo c #627bb1",
"dg c #627bb2",
"dl c #627bb3",
"dW c #627bb4",
"dQ c #627caf",
"cT c #627cb3",
"f4 c #627cb5",
"dD c #637ab5",
"fB c #637bb4",
"gi c #637bb5",
"en c #637cb1",
"ea c #637cb3",
"dX c #637cb4",
"cX c #637cb5",
"dS c #637cb6",
"dc c #637cb7",
"dE c #647bb4",
"cC c #647cb6",
"fR c #647db3",
"dB c #647db4",
"eS c #647db5",
"fC c #647db6",
"dU c #647db7",
"d9 c #647eb0",
"fc c #647eb4",
"ee c #647eb6",
"ec c #6480b3",
"dd c #657db9",
"f1 c #657eb4",
"eR c #657eb5",
"d8 c #657eb6",
"fQ c #657eb7",
"fS c #657eb8",
"eT c #657fb2",
"cz c #657fb5",
"cR c #657fb9",
"#Y c #667fb6",
"cD c #667fb7",
"ey c #6680b4",
"d7 c #6681b7",
"fA c #677fb9",
"e9 c #6780b4",
"eI c #6780b6",
"aI c #6780b7",
"dM c #6780b8",
"dV c #6781b9",
"ed c #6782b7",
"bK c #687eb7",
"ba c #6881b6",
".C c #6881b7",
"cB c #6881b8",
"em c #6881b9",
"fP c #6881bc",
"a4 c #6882b5",
"aQ c #6884b6",
"aP c #6884b8",
"gO c #6981b7",
"bt c #6981b9",
"fh c #6981bb",
"dN c #6982b6",
"cq c #6982b7",
".D c #6982b8",
"ch c #6982b9",
"fd c #6982ba",
"cF c #6982bb",
"dP c #6983b3",
"dA c #6983b4",
"cr c #6983b5",
"at c #6983b6",
"af c #6983b7",
"cy c #6983b8",
"fu c #6983b9",
"d1 c #6983bc",
"aO c #6984b9",
"bJ c #6a7fb9",
"cL c #6a82b8",
"gP c #6a82b9",
"cZ c #6a82bc",
"bb c #6a83b5",
"b# c #6a83b8",
".W c #6a83b9",
"cE c #6a83ba",
"ag c #6a83bb",
"aw c #6a83bc",
"db c #6a83bd",
".K c #6a84b6",
"bF c #6a84b8",
"dL c #6a84b9",
"dI c #6a84ba",
"eY c #6a84bb",
"gA c #6a85b4",
"dH c #6a85b5",
"da c #6a85b6",
"f# c #6a86bb",
"dh c #6b81b7",
"bs c #6b81bb",
"gh c #6b84b7",
"#B c #6b84b8",
"#Z c #6b84b9",
".# c #6b84ba",
"aj c #6b84bb",
"aF c #6b84bc",
"bo c #6b85b7",
"ax c #6b85b8",
"ao c #6b85b9",
"#j c #6b85ba",
"d2 c #6b87b8",
"bu c #6c83b6",
"dy c #6c83ba",
"eU c #6c85b8",
"a0 c #6c85ba",
".c c #6c85bb",
"f8 c #6c85bc",
"#V c #6c85bd",
"cP c #6c85be",
"ai c #6c86b7",
"cp c #6c86b8",
".5 c #6c86b9",
"ac c #6c86ba",
"ev c #6c86bc",
"d0 c #6c86c0",
"bP c #6c87bd",
"br c #6d84b9",
"gG c #6d85b8",
"fi c #6d85c0",
"bR c #6d86ba",
"ap c #6d86bb",
"#i c #6d86bc",
"co c #6d86bd",
"aE c #6d86be",
"cb c #6d87b7",
"gs c #6d87b8",
".E c #6d87ba",
"ew c #6d87bb",
"d6 c #6d88bf",
"gF c #6e86ba",
"gL c #6e87bb",
"bj c #6e87bc",
".a c #6e87bd",
"e4 c #6e87be",
"aK c #6e87bf",
"#F c #6e87c1",
".t c #6e88ba",
"dK c #6e88bb",
"dm c #6e88bc",
"e5 c #6e88be",
"do c #6e89b8",
"aN c #6e89be",
"dp c #6f86b8",
"#E c #6f87c0",
"a6 c #6f88bd",
".b c #6f88be",
"cx c #6f88bf",
"eo c #6f89b9",
".g c #6f89ba",
"a1 c #6f89bb",
"#G c #6f89bc",
"cg c #6f89bd",
"eN c #6f8ab9",
"bO c #6f8bc2",
"cn c #7087bd",
"gH c #7088b9",
"ci c #7089bd",
"#X c #7089be",
"#k c #7089bf",
"eL c #708aba",
"au c #708abb",
".H c #708abc",
".e c #708abd",
"as c #708abe",
"b5 c #708abf",
"fb c #708bba",
"b4 c #708bbb",
"b. c #718abd",
"bC c #718abe",
"#l c #718abf",
".y c #718ac0",
"aH c #718ac2",
"f7 c #718ac3",
"a7 c #718bbb",
"#C c #718bbc",
".f c #718bbd",
".h c #718bbe",
"#f c #718cbc",
"fE c #7289ba",
"fK c #728bc0",
".X c #728bc1",
"aG c #728bc3",
"cu c #728cbd",
"c. c #728cbe",
"#0 c #728cbf",
"dY c #728cc0",
"an c #728cc1",
"dO c #728db9",
"ct c #728dbc",
"aL c #728dbd",
"gI c #728eb9",
"#e c #728ec0",
"f. c #7290c4",
"gk c #7389bd",
"bI c #7389be",
"gz c #7389bf",
"gQ c #738abb",
"fF c #738bbe",
"cO c #738bc2",
"dz c #738cbf",
"ab c #738cc0",
"cw c #738cc2",
"eg c #738cc3",
".T c #738dbd",
".G c #738dbe",
"el c #738dbf",
"bn c #738dc0",
"aC c #738dc1",
"bD c #738ebc",
".L c #738ebd",
"aM c #738ec3",
"gJ c #738fbb",
"fl c #738fbd",
".S c #738fc1",
"gy c #748bbe",
"fM c #748cbf",
"bU c #748dc1",
".z c #748dc3",
"a9 c #748ebf",
"cv c #748ec0",
".6 c #748ec1",
"aD c #748ec3",
".M c #748fbd",
".8 c #748fbe",
"fp c #748fbf",
"d5 c #7490c3",
"d# c #758bc3",
"eZ c #758dbe",
"#p c #758ec4",
"aZ c #758fbf",
".k c #758fc0",
".F c #758fc1",
".4 c #758fc2",
"bV c #758fc4",
"#5 c #7590c0",
"aS c #768dbe",
"fL c #768ec5",
"Qt c #768fc5",
"ez c #7690c0",
"fj c #7690c1",
"cf c #7690c2",
"aY c #7690c3",
"fV c #7690c5",
"#D c #7691be",
"#q c #7691c0",
"bE c #7691c1",
"cm c #778ec2",
"bQ c #7790c1",
"gM c #7790c4",
".d c #7790c6",
"fJ c #7791c0",
"#6 c #7791c1",
"#1 c #7791c2",
".s c #7791c3",
".i c #7791c4",
"bZ c #7791c5",
"a# c #7792be",
"#S c #7792bf",
"bk c #7792c2",
"fk c #7793c2",
"aU c #7793c3",
"di c #788ec0",
"f0 c #7891c7",
"cA c #7892c3",
".J c #7892c4",
"#W c #7892c5",
"#U c #7892c6",
"#H c #7893bf",
"ak c #7893c0",
"cc c #7893c1",
"#o c #7893c2",
"ex c #7893c3",
"dZ c #7894c4",
"bL c #798fc2",
"dG c #7991c4",
"#8 c #7992c6",
".A c #7992c8",
"gB c #7993c0",
"#y c #7993c3",
"ae c #7993c4",
"#O c #7993c5",
"eh c #7993c6",
"#N c #7994c2",
"#m c #7994c3",
"#T c #7994c4",
"gt c #7994c5",
"eW c #7995c3",
"aT c #7995c7",
"b9 c #7a90c7",
".U c #7a92c1",
"dq c #7a93c1",
"eE c #7a93c6",
"cN c #7a93c7",
"a5 c #7a93c9",
"f3 c #7a93cb",
"fm c #7a94c0",
"dJ c #7a94c3",
"bl c #7a94c4",
"dt c #7a94c5",
".r c #7a94c6",
"#7 c #7a94c7",
"bW c #7a94c9",
"#t c #7a95c0",
"eA c #7a95c3",
"#n c #7a95c4",
"d3 c #7a95c5",
"cG c #7a95c7",
"bq c #7b92c2",
"fa c #7b93ca",
"bp c #7b94bf",
".B c #7b94ca",
".j c #7b95c6",
".I c #7b95c7",
".7 c #7b95c8",
"fG c #7b95ca",
"ei c #7b96c4",
"fz c #7b96c5",
".1 c #7b96c6",
"eX c #7b96c7",
".u c #7b97c9",
"dF c #7c93c9",
"dx c #7c95c0",
"cQ c #7c96c6",
".l c #7c96c7",
"#R c #7c96c8",
"eH c #7c96c9",
"bX c #7c97c4",
"#r c #7c97c6",
".2 c #7c97c7",
"dj c #7d94c0",
"#A c #7d94c1",
".R c #7d94c5",
"ds c #7d95c7",
".v c #7d97c7",
"c6 c #7d97c8",
".Y c #7d97c9",
"c1 c #7d98c4",
"b3 c #7d98c5",
"#J c #7d98c6",
".0 c #7d98c8",
"d4 c #7d99c7",
"e8 c #7e95c4",
"eD c #7e96c6",
"fs c #7e97c4",
"cM c #7e97cb",
"fv c #7e98c6",
"aB c #7e98c8",
".Z c #7e98c9",
"#Q c #7e98ca",
"aA c #7e98cb",
"a. c #7e99c5",
"az c #7e99c6",
".9 c #7e99c7",
"by c #7f96c1",
"gR c #7f96c5",
"c5 c #7f96c8",
"bx c #7f97c4",
"#g c #7f97c6",
".Q c #7f97c8",
"aa c #7f99c9",
"dn c #7f99ca",
"aJ c #7f99cb",
"a3 c #7f99cc",
"eO c #7f9ac5",
"fI c #7f9ac6",
"c# c #7f9ac8",
"b0 c #7f9ac9",
"gl c #8097c6",
"gE c #8098cc",
"a2 c #809acb",
".p c #809bc7",
"ad c #809bc9",
"gu c #809bca",
"e1 c #809bcb",
"fr c #8199c3",
"gx c #8199ca",
"bm c #819bcb",
"gK c #819bcc",
"cI c #819cc4",
".O c #819cc7",
"aq c #819cc8",
".3 c #819ccb",
"e0 c #819ccc",
"eB c #8298c0",
"eM c #8298c6",
"b8 c #8298cb",
"fD c #8299c8",
"cl c #8299ca",
"c0 c #829ccc",
"eG c #829cce",
"aX c #829dc9",
"a8 c #829dcb",
"gg c #829dcd",
"f9 c #8399c6",
"c8 c #839ac9",
"c2 c #839acc",
"cK c #839cd2",
"ft c #839dcc",
"#K c #839dcd",
"du c #839dce",
".o c #839ecc",
"#M c #839ecd",
"ca c #839ece",
"es c #849aca",
".w c #849ccb",
"bY c #849ece",
"#P c #849ecf",
"av c #849fcb",
"#I c #849fcd",
"eK c #849fce",
"cV c #84a0c9",
"ay c #84a0ca",
"fO c #859cc3",
".m c #859fd0",
".N c #85a0cc",
"b2 c #85a0cd",
"eV c #85a0ce",
"eQ c #85a1c9",
"ej c #85a1cc",
"#w c #869dc7",
"gr c #869dc9",
"fn c #869fca",
"dr c #869fcd",
"#s c #86a1cd",
"cj c #86a1ce",
".n c #86a1d0",
"bc c #879ece",
"e7 c #879fca",
"ck c #879fcd",
"gw c #879fce",
"gN c #87a0d3",
"gf c #87a1d1",
"c7 c #87a1d2",
"b1 c #87a2cc",
"#9 c #87a2ce",
"cs c #87a2d0",
"eP c #87a2d1",
"ge c #889eca",
".q c #88a3ce",
"#. c #88a3cf",
"eJ c #88a3d0",
"bS c #88a3d3",
"e2 c #88a4c8",
"al c #88a4cb",
"#u c #89a0ca",
"dv c #89a2d0",
"cH c #89a4cc",
"ar c #89a4d0",
"#L c #89a4d2",
"#b c #8aa1ce",
"aR c #8aa3d4",
"aV c #8aa4d1",
"ce c #8aa4d5",
"bT c #8aa5d2",
"#4 c #8aa6c8",
"ek c #8aa6d0",
"fY c #8ba0cc",
"#a c #8ba1cf",
".P c #8ba2d3",
".x c #8ba3cf",
"aW c #8ba4cf",
"b6 c #8ba6d1",
"bB c #8ba6d2",
"cd c #8ba6d3",
"am c #8ba7cb",
"gd c #8ca1cd",
"#h c #8ca3cf",
"gD c #8ca7ce",
"#2 c #8ca7d3",
"gv c #8ca7d6",
"gc c #8da4cd",
"cJ c #8da9d2",
"fZ c #8ea3d2",
"e# c #8ea8d3",
"## c #8ea9d4",
"bi c #8ea9d5",
"gb c #8fa5cd",
"fN c #8fa6d3",
"cW c #8fa9d6",
"bN c #90a6c9",
"#v c #90a7d1",
"#d c #90a7d4",
"be c #90a8d2",
"#z c #90a8d7",
"dw c #90a9d1",
"e3 c #90abd9",
"e. c #91add5",
"b7 c #92aad2",
"fH c #92acd7",
"ah c #92addc",
"fX c #93a9d1",
"bH c #93aad8",
"gS c #93abd4",
"fg c #93abd5",
"bf c #94abd2",
".V c #94acd8",
"gm c #94add4",
"c9 c #94aecf",
"gC c #94aed9",
"ep c #94afdd",
"c3 c #95add6",
"bd c #96adda",
"fe c #96aed2",
"e6 c #97aed7",
"#c c #97aedb",
"gq c #97afd9",
"d. c #97b0d5",
"fy c #97b2de",
"fw c #98b1d9",
"eF c #98b4d9",
"ga c #99b1d1",
"c4 c #99b1da",
"bA c #9aafd3",
"bz c #9ab0d7",
"#3 c #9ab6dc",
"g. c #9bb1db",
"#x c #9bb2dc",
"fq c #9cb3db",
"gT c #9cb4d8",
"gn c #9cb5d8",
"dk c #9cb5dd",
"bh c #9db2d4",
"bw c #9db3da",
"bv c #9db3de",
"gp c #9db5dd",
"bg c #9eb3d7",
"go c #9eb6dd",
"eq c #a0b6da",
"fx c #a0b8dc",
"ff c #a0b8de",
"er c #a1b6df",
"fW c #a1b8db",
"bG c #a1bae2",
"eC c #a2b9e4",
"bM c #a3b9e3",
"g# c #a4bcdf",
"Qt.#.a.b.a.#.cQt.d.e.f.g.e.h.h.i.j.k.l.m.n.o.p.q.r.s.t.r.u.v.w.x",
".y.z.A.B.y.#.C.#.D.E.F.G.H.s.f.I.J.K.K.t.L.M.N.O.P.Q.Q.R.S.T.U.V",
".W.b.X.X.a.W.W.#.c.h.Y.Z.0.1.2.3.4.5.6.7.8.9#.###a#b#c#d#e#f#g#h",
"#i.c#i#i#j.##k#l#k.E.F.l#m#n#m#o.z.c#pQt#q#r#s#t#u#v#w#x#e#y#z#A",
".b#B#C.G#D#E#F.E#G.4.4.e#H#I#J#K#L#M.o#N.F#O.Y.t#P#Q.l#R#S#T#U#V",
".r#W#G.f.v#X#Y#Z.e.6#0.h#1#2#3#4#5.T.T#6.h.e#7#8#9a.a##9aa.Kabac",
"adaeafag.rahaiaj.E.6#W#0.Jakalamanaoap#Z.C.D.D#ka#aqararasatau#6",
"av#6.cawaxayazaj.haA.r#WaB#OaCaDaEaFajaGaH#V#VaI.HaJ.s.faKapaL.o",
"aMaNaOaPaQ.taRaSaTaUaVaWaXaYasaZ.#a0a1a2a3.h.5a4a5#p.b.caKa6a7a8",
"a9b.b#ajbabbbcbdbebfbgbhbiabbjbkacaxblbmaY#G#0bn.b.##i.Wafaxbo#P",
"bpbqbrbsbtbubvbwbxbybzbAbBbCas#T.s.1#mbD.h.6a3.e.D.y.b.abE.HbFa6",
"bGbHbIbJbKbLbMbNbObPb.bQ#SbRas.k#CbS#LbT.r.s.ibU.ybVbW.dbXbYbZaH",
"b0bX.Nb1b2b3#nai#i#i#i.X.d.c#i#ib4b5#0b6b7#hb8b9c.a9#rc#ca.ZaB#6",
"aucbcccdcecfcg.b.a.a.a.a.y.X.b.Daichcicjckclcmcn.yaEco.Wcp.Ka1.Y",
".Ccqcrb4csctcucv.a#i#i.W.acw.c.Wa4aKcx#ncwcy.WczcAcgcBcCcDcDcEcB",
"cFag#XcGcHcIcJ#.cKQt.cb#cLcMcNcOaccPagcQcRcScTcUcVcW.Y.yawcXcXcY",
"cZ.#c0c1c2c3c4c5c6c7.gauc8c9d.d#dadbdc.bdddedfdgdhdidjdkaEdldldf",
"codmdndodpdqdrdsdtc7.jdudvdwdxdydzagcDdAdBdldCcYdDdEdFdGdldfdldl",
".taYaYaxdHdIb5a9.l#1.Ga9bXdJdKcEdLdMdNdOdPdQdRdSdTdUdVdWdXdldCdC",
"cQcAdY.zdZd0d1d2a7#1d3aad4d5d6d7dCd8d9e.e#a7eaebecedeeefeadRcEeg",
"aAeh.4.icAc..5.yeib2ejek.jelao.WemeneoepeqeresbrcoeteubFdHaueh.a",
"bn.E.6a3#1.Jeh#kevew.h.Y#Texc.apageyezeAeBeCeDeEcv#Za7eFeGb.ba#Y",
"#GdKeHaYcu#OaxeIch.aci.reJeKaB.f#VeyeLbDeMckeNbEeOePeLeQeh.ceReS",
"cveEeH.H#1.feT.DeU.g#oa8eVeWeX.JeYbF#1#oeZbQe0e1e2e3e4e5#ichemcD",
"e6e7e8.0.Je9.Daj.a.4.Jdtf.f#evfa#G.4dK.h#0.6dmew.abmfbfcdXfdcDdM",
"fefffga#cheSfhfi#i#0.sfjfkflfmfn#o#1aCev#Yfofofo#YaLfpdfdlememem",
"fqfrfsftaCa0fuaw#i.h.rdn.Yfvfwfxfyfz.DfAdXdfdXdXfB.K#WfCdleSdMag",
"fDfEfFfGfHfIfJ.kfK.f.fcffLfMfNfOeOezchfPfQfCcXdWeufRbVfScXfTfUea",
"fVewc..lfWfXfYfZb2eAfp.faua9.j#1.zf0.aeI.W.#f1f2dCdBf3d8f4fTf5f6",
"f7agf8a0f9g.g#gagbgcgdge.ldt.ldt.b.c#i.dgfbYfz#fdHdPgg#ygheRgigj",
".#bFax.Kgkglgmgngogpgqgrfjcudn.j.y.#.C.WcAcpgsgtgu#m#mgvgwgxgygz",
"gAgBgCgDgEgFgGgHgIgJadfz.kc6gK#1gLcy.DcEcEfdajgMgNb.gOgPgQgRgSgT"};
