/* XPM */
static const char *marble1_xpm[]={
"32 32 209 2",
"#Y c #cbcee3",
".s c #cccfe4",
".X c #cdcfe5",
"ba c #cdd0e2",
"ad c #cdd0e5",
"a7 c #ced0e3",
"al c #ced0e5",
"ae c #ced0e6",
"aW c #ced1e3",
".J c #ced1e6",
"#c c #cfd1e4",
"aA c #cfd1e7",
"bd c #cfd2e4",
"b. c #cfd2e5",
".W c #cfd2e7",
"#I c #cfd2e8",
"a5 c #d0d2e5",
"be c #d0d2e7",
".8 c #d0d2e8",
"aM c #d0d3e4",
".4 c #d0d3e5",
"#b c #d0d3e6",
".r c #d0d3e8",
"bl c #d0d3e9",
".f c #d1d3e6",
"bm c #d1d3e9",
".E c #d1d4e6",
".A c #d1d4e7",
"at c #d1d4e8",
".t c #d1d4e9",
"#E c #d1d4ea",
"#d c #d2d4e7",
".Y c #d2d4ea",
"#a c #d2d5e7",
".5 c #d2d5e8",
"bk c #d2d5e9",
"#B c #d2d5ea",
"#p c #d3d5e8",
"## c #d3d5eb",
".3 c #d3d6e8",
"aZ c #d3d6e9",
"aG c #d3d6ea",
"#X c #d3d6eb",
".7 c #d3d6ec",
"a# c #d3d8e4",
".2 c #d4d5e9",
"#y c #d4d6e9",
"#5 c #d4d6eb",
".L c #d4d6ec",
"#e c #d4d7e9",
".Q c #d4d7ea",
"#Q c #d4d7eb",
".O c #d4d7ec",
"#D c #d4d7ed",
".R c #d5d7ea",
"#O c #d5d7eb",
"aH c #d5d7ec",
"#l c #d5d7ed",
"aV c #d5d8e9",
".d c #d5d8ea",
".e c #d5d8eb",
".q c #d5d8ed",
".K c #d5d8ee",
"aT c #d5d9e8",
"aF c #d6d8ea",
".S c #d6d8eb",
"aQ c #d6d8ed",
".N c #d6d8ee",
".l c #d6d9eb",
".i c #d6d9ec",
"#N c #d6d9ed",
"#s c #d6d9ee",
".0 c #d6d9ef",
"aa c #d6dae7",
"az c #d7d9eb",
"#q c #d7d9ec",
"#F c #d7d9ef",
".a c #d7daec",
".c c #d7daed",
"#R c #d7daee",
".6 c #d7daef",
".w c #d7daf0",
"aw c #d7dbe8",
"#v c #d8daed",
"bn c #d8daee",
"a6 c #d8daef",
"#j c #d8daf0",
"ah c #d8dbeb",
".B c #d8dbed",
".b c #d8dbee",
"#k c #d8dbf0",
".y c #d8dbf1",
"aj c #d8dce9",
"ay c #d8dcea",
"#9 c #d8dcec",
"#S c #d9dbee",
"bo c #d9dbef",
"#n c #d9dbf1",
"#4 c #d9dceb",
"#g c #d9dcee",
".# c #d9dcef",
"an c #d9dcf0",
".v c #d9dcf1",
"#6 c #d9dcf2",
"#3 c #d9deeb",
".F c #dadcef",
"a1 c #dadcf0",
"as c #dadcf2",
"#x c #daddef",
".g c #daddf0",
"a2 c #daddf1",
"ac c #daddf2",
"#u c #daddf3",
"ap c #dadeeb",
"aE c #dadeec",
"aP c #dadfec",
"ag c #dbddef",
".o c #dbddf0",
"bj c #dbddf1",
"af c #dbddf3",
"#V c #dbdef0",
"#w c #dbdef1",
"a0 c #dbdef2",
"#. c #dbdef3",
".u c #dbdef4",
"aU c #dbdfee",
"au c #dcdef1",
"a9 c #dcdef2",
"#r c #dcdef3",
"#m c #dcdef4",
"#8 c #dcdff1",
".C c #dcdff2",
"#L c #dcdff3",
".V c #dcdff4",
".M c #dcdff5",
"#Z c #dddff2",
".9 c #dddff5",
"b# c #dddff6",
"#o c #dde0f2",
".h c #dde0f3",
"#P c #dde0f4",
"#t c #dde0f5",
"#H c #dde0f6",
"#T c #dee0f3",
"ao c #dee1f1",
"#f c #dee1f4",
"bc c #dee1f6",
".z c #dee1f7",
"ai c #dee2ef",
"#U c #dfe1f3",
"#W c #dfe1f5",
"a3 c #dfe1f7",
"av c #dfe2f3",
".P c #dfe2f5",
"#7 c #dfe2f7",
".x c #dfe2f8",
"aC c #dfe3f0",
"aL c #dfe3f1",
"bg c #e0e2f5",
"bh c #e0e2f8",
"#1 c #e0e3f4",
"#0 c #e0e3f5",
".j c #e0e3f6",
"#M c #e0e3f7",
"#J c #e0e3f8",
"bf c #e0e3f9",
"aK c #e0e5f2",
"a8 c #e1e3f9",
"aI c #e1e4f5",
".m c #e1e4f6",
".H c #e1e4f7",
"bb c #e1e4fa",
"aB c #e2e5f5",
"aS c #e2e5f6",
".D c #e2e5f7",
"#h c #e2e5f8",
".1 c #e2e5f9",
"#C c #e2e5fa",
"a4 c #e2e5fb",
"Qt c #e3e5f9",
".p c #e3e6f9",
"aY c #e3e6fa",
"bi c #e3e6fc",
"aX c #e4e6f9",
"#K c #e4e6fa",
"ab c #e4e7f9",
"#i c #e4e7fa",
".U c #e4e7fb",
"aO c #e4e8f5",
"aR c #e5e7fb",
"#z c #e5e8fa",
"aN c #e5e8fb",
"#A c #e5e8fc",
".Z c #e5e8fe",
"aD c #e5e9f6",
"ak c #e5e9f7",
".I c #e6e9fa",
"#G c #e6e9fc",
".G c #e6e9fd",
"aJ c #e6eaf8",
".k c #e7eafc",
".T c #e7eafd",
"am c #e7eafe",
"ar c #e7ebf8",
"aq c #e7ebf9",
"ax c #e7ecf9",
".n c #eaedfe",
"#2 c #edf2fc",
"a. c #f0f4fd",
"Qt.#.a.b.c.b.d.b.e.f.g.h.i.j.k.l.m.n.o.p.q.r.s.r.t.u.v.w.x.y.t.z",
".j.c.e.b.c.i.i.b.l.A.B.C.b.j.D.E.F.G.H.I.q.J.J.K.L.y.M.M.M.N.O.z",
".P.i.Q.B.i.R.c.B.l.S.g.C.b.g.H.C.h.T.U.V.W.t.W.r.X.Y.z.Z.z.L.0.u",
".1.c.2.3.4.5.b.a.l.a.a.o.g.#.d.l.b.p.H.O.X.6.7.8.t.K.9#.##.O.6.O",
".p.b#a#b#c#d.#.c.d#e.A.c#f.C#g.H#h#i.h#j.t.v#k.y.s#l#m#n.O.K.q.8",
"#o.l#p.3.d.a.a#q.c.b.R.R.C.d.Q.h#i.C#h#r#s.v.w.0.K#t.x#u.0.0.Y.t",
".p.h.S.3#v#w.a.i#x.g#y#d.S#w#z.p.j#g.I#A.K.r#B.W#u#C#D#D#E.v.t#F",
".j.h.3#c#e#y.b.B#a.E.a.a#wQt.j.c#w#g.j#G.K.s.t.J.M#H#I.r.W#l#B.u",
"#f#f#e#b.c.E.4.E.l.a#e#xQt#f#q#b.b.c.##A#J.w.9.z#K.w#u.w#u.0#u#H",
"#L#M#N#O#P#Q#N#R.5.5.Q#w.h.e.c.i.B#S#w#T#U.a#V#W.h.s#l#D.M#m.z.0",
"#n#u.O#X#k#Y#B#s.L#t#h#h.l.##Z.F.#.C#0#1#2#3#4.D.e#5.O#6.u.6#E.s",
"#u#k.K#D#l#X#s#B###7.p.H#S.h.P#w.#.F#8#9a.a#aaab.dac.x#H#u.Nadae",
".v.y#s#B.r#D.N.qaf#L.##g.e.c#w.g.b.bagahaiajak.m.H#7.u.0.q.y#B.L",
"#F#m.Nal.J.r#B.Vaman#y.b.b.d.S.i.i#g#8aoapaqar#V.h#..w.Y.r.q.q.t",
"#F.M#s.sad.tas.V.vat.d.gau.B.i.l.e.b.havawaxayaz.3.6.7ad#Yae#X.L",
".L.u.N#YaA.v#u.y.Oat.5.3.3.3.Q.i.F#T.HaBaCaDaEaF#eaG.8ad.s.s#B#k",
".W#u#l#YaH#C#s#s.yan#x.l.d#v.#.h.H#h.jaIaJaKaLaM#v.W.W#B.W.J.O.y",
".W#j.w.Y#s#H#X.O.w.6.l.Q.d.b.jaN#i.jagaIaOaPaLaM.S.r.t.L#B.Y.0as",
".Y.O.u.u.7.J.L#B#BaQ#S#f.p.p#GaR.j.h#faSayaTaUaV.4aQ.K##.O.O.was",
"aW.A.C.c.i.Q.i.Q.c#b.laX#f.b#V.Pau.e.DaY.aaZ.g#L#Q.v.uas#k.ca0a1",
"#T#V.h#a.d.C#p#a.g.B.P.j.#.c.h.h.b#g.pa2#B.qa3a4##.N#k#k#s.b.#.i",
".P.#.F.E.R#pa5.c#i.P.j#w.g.#.h.R.E#8#o.6.0#kas.u.w#j#k#ka6.b.l#y",
".j#V.ga7.4#wau#v.g.l#w.h.#.a#S.f.3#f.iat.7.O.ya8#Haf#n#nac#g.B.3",
".ga9#h#v.b.H.j.E.d.#.P#fb.a5#q.S.haN.c#s.w.r#Bb#.u.w.O#l.6.g#w.R",
".#.P.H#Z.b.Q.F#p.d.H#T.h#aba.d#w.P#f#S.J.t.O.K.ubbas.0.ubc.o.c.l",
"Qt.H.H#f.o#g.c.c.g#Z.S.e.dbd#a.#.h#v.c#X.0.q#X.6#H#k.v#u#s#S.g#V",
"Qt.C.o.g.b.C.e.F.C.B#cbd.l#a#a.c.#.Q.l#5.6.6.K#6.u.y.M.ybe.5.a#g",
".C.i#w#w.dau.e.c.b.Q#c#daZ.5.c.e.e#g.i#X#j.w.0af#Hbf#m.q#X#a#e.i",
"#w.#bg.j#v.F.i.d.d#y.f#O.5.3#P.3#ya0#q#s#u#k.O.qbhbi#.#Q#k.b.bbj",
"#f.C#w#w.F#e.B.b.lbk#Y.W##.6bbbl.O.w.L.A.l#q#y.B.H.h.#.B.##t.Mac",
".H.F.C#w.3.e.i.i.eaZad.W.0.y#t#m.z#k#l.c.d.E.b#i#8.a.d.##P.z.v.O",
"#V.i.h#f#e.i.e.e.e#Qbm.t.y#k.r.yaf#F#nbn.d.i.h#h#e#v.o#wbo.q#l#l"};
