/* XPM */
static const char *marble3[]={
"28 28 2 1",
"# c None",
". c #0000ff",
"............................",
"............................",
"..########################..",
"..########################..",
"..########################..",
"..########################..",
"..########################..",
"..########################..",
"..########################..",
"..########################..",
"..########################..",
"..########################..",
"..########################..",
"..########################..",
"..########################..",
"..########################..",
"..########################..",
"..########################..",
"..########################..",
"..########################..",
"..########################..",
"..########################..",
"..########################..",
"..########################..",
"..########################..",
"..########################..",
"............................",
"............................"};
