/* XPM */
static const char *undo_xpm[]={
"16 16 5 1",
". c None",
"# c #000000",
"c c #a0a0a0",
"b c #dcdcdc",
"a c #ffffff",
"................",
"................",
".......#........",
"......##........",
".....#a#........",
"....#aa########.",
"...#aabaaaaaab#.",
"..#aabbbbbbbbc#.",
"...#abbccccccc#.",
"....#ac########.",
".....#a#........",
"......##........",
".......#........",
"................",
"................",
"................"};
