/* XPM */
static const char *wood3_xpm[]={
"28 28 2 1",
"# c None",
". c #ff9900",
"............................",
"............................",
"..########################..",
"..########################..",
"..########################..",
"..########################..",
"..########################..",
"..########################..",
"..########################..",
"..########################..",
"..########################..",
"..########################..",
"..########################..",
"..########################..",
"..########################..",
"..########################..",
"..########################..",
"..########################..",
"..########################..",
"..########################..",
"..########################..",
"..########################..",
"..########################..",
"..########################..",
"..########################..",
"..########################..",
"............................",
"............................"};
