/* XPM */
static const char * wood2_xpm[] = {
"32 32 80 1",
" 	c None",
".	c #4B4B3F",
"+	c #49453D",
"@	c #434438",
"#	c #4C4E40",
"$	c #4F4C40",
"%	c #535043",
"&	c #555849",
"*	c #5C584B",
"=	c #645F4B",
"-	c #645B49",
";	c #645844",
">	c #5B5340",
",	c #585340",
"'	c #584C3D",
")	c #554C38",
"!	c #4F4C3B",
"~	c #534C41",
"{	c #584F40",
"]	c #565641",
"^	c #585345",
"/	c #534E40",
"(	c #414035",
"_	c #434137",
":	c #484337",
"<	c #4C4C3D",
"[	c #4C4B3A",
"}	c #4B493A",
"|	c #4B4537",
"1	c #43493B",
"2	c #41413A",
"3	c #4B4B41",
"4	c #535040",
"5	c #4C4537",
"6	c #4F493D",
"7	c #494031",
"8	c #4F4936",
"9	c #5C5641",
"0	c #6C5F48",
"a	c #71644C",
"b	c #614F3B",
"c	c #665841",
"d	c #665038",
"e	c #645843",
"f	c #5B4E3D",
"g	c #4B4030",
"h	c #554B37",
"i	c #504535",
"j	c #413B2F",
"k	c #3D382E",
"l	c #3B4137",
"m	c #3A4036",
"n	c #3A3D38",
"o	c #3D3B31",
"p	c #373B35",
"q	c #37372F",
"r	c #363F35",
"s	c #374036",
"t	c #4F4130",
"u	c #584936",
"v	c #5B5648",
"w	c #7B6448",
"x	c #413F33",
"y	c #41382D",
"z	c #372F25",
"A	c #3D362B",
"B	c #6F5840",
"C	c #745F41",
"D	c #896C4B",
"E	c #967B58",
"F	c #332F27",
"G	c #37332A",
"H	c #646450",
"I	c #7B6C50",
"J	c #5F5C49",
"K	c #5B5844",
"L	c #33332F",
"M	c #2F3335",
"N	c #2F352E",
"O	c #30312D",
"...+@@@+.#$$%%%&**=-;;;>,')!~~{{",
"####$$$$%%%%%%$%]^/////,//!%%^^^",
"(_::+++++<[}}|}||:_@@1}}}}.$$#..",
"~~$.+$$$~]%%//}||:_2@@@...3.}1@1",
"~~~~~||[[////4![[5@@@__((___::|@",
"66!//{{//7|5558)'>>9-===--;-000a",
">>{{{--------=---;bbcccbbbbbdbbb",
";;99>;;--;;;--;ee9fbbff9cccccccc",
"55ggg558h888hhi8888888i888hh8888",
"88hh)h){>999ee9,')))'''h855|[[6!",
"e9>f'hhhh))hh8[666>>>>>;;;;*^$||",
"(((((jjkk(((lmmll222222nnnnokkkk",
"$$<}_@__(ooopqpppprrrrrssss(_:|[",
"ggt8hiih)fff'{'''{/////]]]]~~~$$",
"uuuuubbcc00000ecc-eeeee9999vv^~~",
"cc0aaaawwwwwa0aaaaaa00-ce>f66666",
"77xjyzzzzzzzzzzzzzAyjxx5666^^^^^",
"g77yy7yyyggttgh'{>v*****vvv~~~~~",
"bbdBBBBCwwwwCCbuuutggyy8iit/~~~~",
"BBCwCCCCCDwDEDDwCd))h8[[:xjAkkkk",
"CwDDDDDDDDDDDCduuih855:|:@2||:::",
"uudddBCCwddduttttutggjjyAFzzzGGG",
">becCCCCCDDwwDwwCBcbbb''{vv**HHH",
"yyygtuudCwCCddBCwDDDIIIcf855:(jj",
"cccBBBBBBddddddddddbuuigggg6[[[[",
"uuuuudddBddddddbbbuuuu''{{{^%~!!",
">>>ecBBBBCBcbbeve>f'h856[::|:(jj",
"**v{'huuuttgggii55it55[!~^^HH==*",
"33%v*vv-=aa==-JJJK{/![+@@22xjjxx",
"jjjkkGGzzLMMNOqqqqpoomm2222}||||",
"ff''hhhhi$$~$$[!$/^v^^{{{{{^^^^^",
"BCCwwIIww==Jv^^]^%/$<<[<<<<[6666"};
