/* XPM */
static const char *wood3[]={
"28 28 2 1",
"# c None",
". c #ff8c00",
"............................",
"............................",
"..########################..",
"..########################..",
"..########################..",
"..########################..",
"..########################..",
"..########################..",
"..########################..",
"..########################..",
"..########################..",
"..########################..",
"..########################..",
"..########################..",
"..########################..",
"..########################..",
"..########################..",
"..########################..",
"..########################..",
"..########################..",
"..########################..",
"..########################..",
"..########################..",
"..########################..",
"..########################..",
"..########################..",
"............................",
"............................"};
