/* XPM */
static char * audio_16_xpm[] = {
"16 16 33 1",
" 	c None",
".	c #5E5246",
"+	c #000000",
"@	c #EFE9E3",
"#	c #9B9087",
"$	c #CFBDAE",
"%	c #7C7168",
"&	c #B9B9B9",
"*	c #747474",
"=	c #F9F7F4",
"-	c #6B625A",
";	c #DCDCDC",
">	c #E3E3E3",
",	c #FAF7F4",
"'	c #ECE1D8",
")	c #635A53",
"!	c #868686",
"~	c #FFFFFF",
"{	c #E5DBD2",
"]	c #FBF7F4",
"^	c #FDFBF9",
"/	c #F2E3D6",
"(	c #DDCABA",
"_	c #675E56",
":	c #9C8E83",
"<	c #B5A598",
"[	c #D1BFAF",
"}	c #756A61",
"|	c #C1B0A2",
"1	c #696059",
"2	c #DBDBDB",
"3	c #59524A",
"4	c #636363",
"                ",
"                ",
"        ..    + ",
"       .@#+  +  ",
"      .$%&*     ",
"     .$=-;>+    ",
"   ..$,')!~+    ",
"  +{]^/(-+~+ ++ ",
"  +_:<[(-+~+    ",
"   ++}<|-!~+    ",
"     +}<1;2+    ",
"      +}3&*  +  ",
"       +}4+   + ",
"        ++      ",
"                ",
"                "};
