/* XPM */
static char * conduit_16_xpm[] = {
"16 16 13 1",
" 	c None",
".	c #000000",
"+	c #EFEFEF",
"@	c #B6B6B6",
"#	c #282829",
"$	c #E7E7E8",
"%	c #161616",
"&	c #E0E0E0",
"*	c #202020",
"=	c #FFFFFF",
"-	c #2C2C2C",
";	c #303030",
">	c #B8B8B9",
"                ",
"                ",
"                ",
"                ",
"                ",
"                ",
"                ",
"                ",
"          ....  ",
"         .+@#$. ",
"        .@%..#&.",
"        .*.*..=.",
"        -..=.=$.",
"        ..===+;.",
"         .*=>*. ",
"          ....  "};
