/* XPM */
static char * link_16_xpm[] = {
"16 16 8 1",
" 	c None",
".	c #000000",
"+	c #FFFFFF",
"@	c #EFEFEF",
"#	c #5D7555",
"$	c #CCCCCC",
"%	c #181818",
"&	c #090909",
"                ",
"                ",
"                ",
"                ",
"                ",
"                ",
"                ",
".........       ",
".+++++++.       ",
".+@####$.       ",
".+@@###$.       ",
".+@####$.       ",
".+###@#$.       ",
".+@#@@@$.       ",
".+$$$$$$%       ",
"..&......       "};
