/* XPM */
static char * network_16_xpm[] = {
"16 16 60 1",
" 	c None",
".	c #000000",
"+	c #CCCCCC",
"@	c #232323",
"#	c #C4C4C4",
"$	c #FBFBF8",
"%	c #F2F1D0",
"&	c #EDECCC",
"*	c #B7B7A0",
"=	c #F4F3D2",
"-	c #EBEBD2",
";	c #C4C4B0",
">	c #DFDEBF",
",	c #ECECD2",
"'	c #3A3A38",
")	c #ECEBD6",
"!	c #666666",
"~	c #C3C27C",
"{	c #E5E492",
"]	c #CFCF93",
"^	c #B1B189",
"/	c #3F3F3D",
"(	c #F6F6DF",
"_	c #828151",
":	c #6B6B6B",
"<	c #DCDB92",
"[	c #C4C394",
"}	c #666661",
"|	c #838251",
"1	c #CAC980",
"2	c #D0CF84",
"3	c #8E8E8E",
"4	c #D2D193",
"5	c #A5A596",
"6	c #E5E5E5",
"7	c #E9E9CF",
"8	c #7F7F7F",
"9	c #4C4C4C",
"0	c #CDCD91",
"a	c #B2B2B2",
"b	c #999999",
"c	c #979681",
"d	c #A5A594",
"e	c #BFBEAD",
"f	c #656444",
"g	c #ABABAB",
"h	c #ECEBB3",
"i	c #D7D6C6",
"j	c #EAE9A9",
"k	c #A9A9A9",
"l	c #F1F0C5",
"m	c #A5A5A5",
"n	c #F3F2D0",
"o	c #B3B3A8",
"p	c #D2D1A8",
"q	c #D0D0AE",
"r	c #939393",
"s	c #9A9A89",
"t	c #B1B1B1",
"u	c #2B2B2B",
"            ....",
"           .+++.",
"           @+.. ",
"............#.  ",
".$%&*=-;>,'.#.  ",
".)!!!~{{]]^/#.  ",
".(!!!_{:{<[}+...",
".=||12{3]{45+.6.",
".7{{{{]]{890a.b.",
".cd{{{{{{edfg...",
"...hijiji...k.  ",
"  .lmngno. .k.  ",
"  .p3qrqs. .t.  ",
"  .....u.. .#.  ",
"           ..   ",
"                "};
