/* XPM */
static char * sync_16_xpm[] = {
"16 16 8 1",
" 	c None",
".	c #1E261B",
"+	c #83A67F",
"@	c #1C241A",
"#	c #222B1F",
"$	c #303C2C",
"%	c #000000",
"&	c #181F16",
"                ",
"                ",
"                ",
"        .       ",
"     +@#@$      ",
"    +$  .%%     ",
"    #   %+      ",
"    @           ",
"           @    ",
"      +%   .    ",
"     %%$  $+    ",
"      $&$$+     ",
"       $        ",
"                ",
"                ",
"                "};
