/* XPM */
static char * unknown_16_xpm[] = {
"16 16 94 2",
"  	c None",
". 	c #414141",
"+ 	c #111111",
"@ 	c #000000",
"# 	c #363635",
"$ 	c #444444",
"% 	c #A09F9E",
"& 	c #DEDEDC",
"* 	c #F7F6F5",
"= 	c #EAE9E8",
"- 	c #B8B7B6",
"; 	c #3A3939",
"> 	c #4F4F4E",
", 	c #A8A8A7",
"' 	c #DDDDDB",
") 	c #F6F5F4",
"! 	c #5E5E5D",
"~ 	c #504F4E",
"{ 	c #757574",
"] 	c #F2F0EE",
"^ 	c #D9D8D5",
"/ 	c #888785",
"( 	c #3D3D3C",
"_ 	c #0C0C0B",
": 	c #EAE9E7",
"< 	c #F5F4F1",
"[ 	c #F4F3F1",
"} 	c #F3F2F0",
"| 	c #A8A7A5",
"1 	c #575755",
"2 	c #EDEBE8",
"3 	c #E4E2DE",
"4 	c #D6D4D1",
"5 	c #090908",
"6 	c #0C0C0C",
"7 	c #E8E7E5",
"8 	c #F3F2EF",
"9 	c #F2F1EE",
"0 	c #6A6967",
"a 	c #EFEDEA",
"b 	c #EAE8E4",
"c 	c #DFDEDA",
"d 	c #B9B8B4",
"e 	c #080808",
"f 	c #555555",
"g 	c #515150",
"h 	c #A5A5A3",
"i 	c #E1E0DD",
"j 	c #EEEDEA",
"k 	c #EEEDE9",
"l 	c #3D3D3B",
"m 	c #E3E1DC",
"n 	c #D7D5D1",
"o 	c #777572",
"p 	c #444443",
"q 	c #868686",
"r 	c #252525",
"s 	c #383837",
"t 	c #878684",
"u 	c #CBC9C6",
"v 	c #DBD9D4",
"w 	c #D5D3CF",
"x 	c #353533",
"y 	c #737372",
"z 	c #888787",
"A 	c #D6D6D5",
"B 	c #A9A9A8",
"C 	c #858481",
"D 	c #2D2D2C",
"E 	c #0B0B0A",
"F 	c #888784",
"G 	c #D8D6D3",
"H 	c #979695",
"I 	c #D8D7D5",
"J 	c #585858",
"K 	c #EAEAE9",
"L 	c #A2A2A2",
"M 	c #090909",
"N 	c #898987",
"O 	c #C3C2C0",
"P 	c #7D7D7C",
"Q 	c #E5E5E4",
"R 	c #EEEDED",
"S 	c #B8B7B5",
"T 	c #A9A8A5",
"U 	c #ACABA9",
"V 	c #E0DFDC",
"W 	c #595957",
"X 	c #E7E6E4",
"Y 	c #C4C3C0",
"Z 	c #989694",
"` 	c #6A6968",
" .	c #8B8A87",
"..	c #10100F",
"                                ",
"      . + @ + #                 ",
"  $ @ % & * = - @ ;             ",
"> , ' ) ! ~ { ] ^ / (           ",
"_ : < [ } | 1 2 3 4 5           ",
"6 7 [ 8 9 0 a b c d e f         ",
"g h i j k l b m n o p q r $     ",
"  s @ t u c v w w x y z A B >   ",
"    C D 6 @ E F G @ H I < : _   ",
"        J K L M @ E N O } 7 6   ",
"        P Q R S T @ @ U V h g   ",
"          W 7 X w Y Z ` @ s     ",
"          @    ...@ 6 D C       ",
"          _ @ _                 ",
"        @ @                     ",
"                                "};
