/* XPM */
static char*sendmail[]={
"16 13 4 1",
"a c #c3c3c3",
"# c #000000",
". c None",
"b c #ffffff",
".....#####aaa...",
"....####aaaaa.a.",
"....#.###...aaa.",
"....#..###..aaa.",
".......###......",
"..............aa",
".bbbbbbbbbbbbbba",
".bbb#bb#bbb###ba",
".bb#b##bbbb#b#ba",
".bbbbbbbbbb###ba",
".bb#b###bbbbbbba",
".bbb#bbbbbbbbbba",
".bbbbbbbbbbbbbba"};
