/* XPM */
static char * image1_xpm[] = {
"32 17 6 1",
".	c #efe3d7",
"#	c #000000",
"b	c #0008ff",
"c	c #18aa10",
"d	c #20ae18",
"a	c #ffffff",
".............###############....",
".......#######aaaaaaaaaaaaa#....",
".......#aaaaa#aaa###############",
".......#aa####aaa#aaaaaaaaaaaaa#",
".......#aa#aa#aaa#aaaaabbaaaaaa#",
".......#aa#aa#aaa#aaaaabbbbaaaa#",
".......#aa#aa#aaa#aaaaababbbbaa#",
".......#aa#aa#aab#aaaaabaaabbaa#",
".......#aa#aa#aab#aaabbbaaaabaa#",
"###..###aa#aa#aaa#aabbbbaaaabaa#",
"#cd#.#dc#a#aa#aaa#aabbbbaabbbaa#",
"#dcd##cdc##aa#aaa#aaabbaabbbbaa#",
"#cdcd#dcdc#aa#aaa#aaaaaaabbbbaa#",
"#dcdc#cdcd#aa#####aaaaaaaabbaaa#",
"#cdc##dcd##aaaaaa#aaaaaaaaaaaaa#",
"#dc#.#cd#.#aaaaaa###############",
"###..##...###############......."};
