/* XPM */
static char * mic_open_xpm[] = {
"31 31 5 1",
" 	c None",
".	c #FFFFFF",
"+	c #727272",
"@	c #000000",
"#	c #474747",
"                               ",
"                               ",
"                               ",
"             ....              ",
"            .+@+@+             ",
"           .+@+@+@+            ",
"           .@+@+@+@            ",
"           .+@+@+@+            ",
"           .@+@+@+@            ",
"           .+@+@+@+            ",
"       .....@+@+@+@#++#        ",
"       .+##........##+#        ",
"       .+  +@@@@@@@  +#        ",
"       .+  +@@@@@@@  +#        ",
"       .+  +@@@@@@@  +#        ",
"       .+  +@@@@@@@  +#        ",
"       .+  +@@@@@@@  +#        ",
"       .+   +@@@@@   +#        ",
"        +#   +@@@   +#         ",
"        ++#        ++#         ",
"         ++##    +++#          ",
"          ++++++++##           ",
"            ++++##             ",
"             +++#              ",
"             +++#              ",
"          ..+++++++#           ",
"         .++++++++++#          ",
"                               ",
"                               ",
"                               ",
"                               "};
