/* XPM */
static char * powerchrd_xpm[] = {
"30 30 8 1",
" 	c None",
".	c #6B6B6B",
"+	c #000000",
"@	c #999999",
"#	c #C7C7C7",
"$	c #A8A8A8",
"%	c #FFFFFF",
"&	c #8A8A8A",
"   ..+..+..+..+..+..+@        ",
"   #$+@$+@$+@$+@$+@$+@        ",
"   #$+@$+@$+@$+@$+@$+@        ",
"   #$+@$+@$+@$+@$+@$+@        ",
"   #$+@$+@$+@$+@$+@$+@        ",
"   #$+@$+@$+@$+@$+@$+@        ",
"   #$+@$+@$+@$+@$+@$+@        ",
"   ..++.++.++.++.++.++        ",
"   #$+@$+@.........$+@        ",
"   #$+@$+.@%@@%@@%@.+@        ",
"   #$+@$+.%%%%%%%%%.+@        ",
"   #$+@$+.@%@@%@@%@.+@        ",
"   #$+@$+@.........$+@        ",
"   #$+@$+@$+@$+@$+@$+@  &++.  ",
"   ..++.++.++.++.++.++&++#%+  ",
"   #$+@$+@$+@$+@$+@$+++#%%%+  ",
"   #$+@$+@$+@$+@$+@$+#%%%+%+  ",
"   #$+@$+@$+$#+@$+@+#%%+++%+  ",
"   #$+@$+@$+$#+@$+@+%++. +%+  ",
"   #$+@$+@$+@$+@$+@+%+.  +%+  ",
"   ..++.++.++.++.+++%+&+++%+  ",
"   #$+@$+$$+@$+@$+@+%++#%%%+  ",
"   #$+@$+$$+@$+@&+++%+#%%%%+  ",
"   #$+@$+$$+@$+@+#%%%+%%%%%+  ",
"   #$+@$+$$+@$++#%%%%+%%%%%+  ",
"   ..++.++.++.++%%%%%++%%%+.  ",
"   #$+@$+@$+@$++%%%%%+.+++.   ",
"   #$+@$+@$+@$+.+%%%+.        ",
"   #$+@$+@$+@$+@.+++.@        ",
"   #$+@$+@$+@$+@$+@$+@        "};
