/* XPM */
static const char *cell_select_xpm[]={
"16 16 6 1",
"# c None",
"c c #0058c0",
". c #585858",
"b c #58a8ff",
"a c #a8dcff",
"d c #c0ffff",
".###############",
".#####...#######",
"#...#.aab.######",
"###..acaaa.#####",
"###.aaacabc.####",
"##.acaaaccab.###",
"#.caacabbaaa.###",
"#.ccaacbaaaaa.##",
"#.bacbcaaaadaa.#",
"##.bacbaaaddda.#",
"###.bacaaaadaa.#",
"####.bacaaaaac.#",
"#####.bacaaacb.#",
"######.bacccb.##",
"#######.babb.###",
"########....####"};
