/* XPM */
static const char *edit_accept_xpm[] = {
/* columns rows colors chars-per-pixel */
"16 16 8 1",
"  c #000000000000",
". c #000040400000",
"X c #404000000000",
"o c #000080800000",
"O c #0000c0c00000",
"+ c #c0c0ffffc0c0",
"@ c #ffffffffffff",
"# c None",
/* pixels */
"################",
"################",
"##############+#",
"#############+O#",
"############+Oo#",
"###########+Oo.#",
"##+o######+Oo. #",
"#+OOo####+Oo.X##",
" .oOOo##+Oo. ###",
"# .oOOo+Oo.X####",
"##X.oOOOo.X#####",
"### .oOo. ######",
"#### .o. #######",
"##### X ########",
"################",
"################",
};
