/* XPM */
static const char *excel16_xpm[]={
"16 16 168 2",
"aL c None",
"Qt c None",
"aK c #24440a",
"#y c #247d21",
"#B c #276d1e",
"aw c #284a0d",
"au c #2b4e10",
"#P c #2c6e1a",
"ag c #2d5114",
"ad c #2e541a",
"af c #304326",
"#2 c #317a1c",
"ae c #334f25",
"#5 c #335919",
"#F c #375d1f",
"#O c #3a872f",
"#t c #3d6324",
"ac c #3d7939",
"#Y c #3e7132",
"#p c #407f39",
"#Z c #42903e",
"#i c #436d28",
".9 c #446e2a",
"aJ c #466628",
"av c #476430",
"aI c #476829",
".W c #47732d",
"#K c #479643",
"#1 c #48872e",
"aH c #496b2d",
".6 c #4a8a49",
"aG c #4b6e31",
".z c #4b7832",
"#L c #4d9647",
"aF c #4e7336",
"aE c #52783b",
".m c #527a3e",
"#x c #529c4f",
"#N c #549c4b",
"aD c #567a3f",
"#V c #579342",
"#X c #588649",
"aC c #598041",
".T c #598955",
"#A c #59a354",
"#W c #5a8f48",
"aB c #5d8745",
"ax c #5d914d",
"#o c #5ea657",
"#C c #5f8755",
"aA c #5f8947",
".5 c #5f9f5a",
"#e c #60965b",
"#f c #609c5b",
"az c #618b4a",
".l c #629450",
"ay c #679350",
".k c #689854",
"#U c #69a15f",
"ah c #6c9c59",
"#d c #6cae66",
".R c #6da767",
".S c #6ea564",
"#n c #6eaf67",
".3 c #6fad69",
"#0 c #6fb067",
".j c #719f5f",
"ab c #729a6b",
"#6 c #72a161",
".2 c #74a270",
"#J c #75b56d",
".i c #76a366",
"#l c #77ae74",
"#M c #78b570",
"#I c #79b176",
".4 c #79b870",
"#S c #7ba66b",
".N c #7bb374",
".h c #7da970",
".1 c #7fbd76",
"#G c #81ab74",
"#c c #81bb78",
".M c #83bb7b",
"aa c #869782",
".g c #86b079",
"a# c #879783",
"a. c #889885",
"#u c #88b279",
"#9 c #899886",
".U c #89b188",
".L c #89c081",
".O c #8ab485",
".0 c #8ac381",
".f c #8eb580",
"#j c #8eb680",
".y c #91a483",
"#m c #91c28a",
"#. c #92b885",
"#8 c #93ae91",
".e c #93ba87",
"#3 c #93be91",
"at c #94a089",
"#4 c #96a18b",
"#z c #96c78d",
".# c #97bc8a",
"#D c #99b598",
"#Q c #9abb99",
"#R c #9ba890",
".d c #9bbf90",
"#E c #9ca991",
"#s c #9ca992",
"#b c #9dc895",
"#h c #9fac95",
".c c #9fc294",
"#a c #a0c99b",
".8 c #a2b198",
".V c #a3b199",
".b c #a4c699",
".K c #a5b29b",
".Z c #a6cf9f",
".Y c #a7cda1",
".a c #a9c99e",
".n c #acc4a3",
".x c #b2c3aa",
"ai c #b4c4ab",
".w c #b6c7ad",
"#7 c #b7c7ae",
".v c #b9cab1",
"#T c #bbcab3",
".u c #bbcbb3",
".Q c #bbd0ba",
"#H c #bccbb4",
".t c #beceb7",
".s c #c0d1ba",
"#k c #c1d1bb",
".r c #c2d1bc",
"## c #c2d2bc",
".X c #c4d5be",
".q c #c6d9c1",
".p c #c8d9c2",
".o c #c9dac3",
"#q c #cdddcd",
"as c #d3e3d3",
"ar c #d4e4d4",
"aq c #d7e6d7",
"ap c #d8e7d9",
"ao c #dae9db",
".7 c #dce8db",
"#r c #dce9dc",
"an c #ddebdd",
"#g c #dfecdf",
"am c #e1ede0",
"al c #e3ede3",
"#w c #e5efe5",
"ak c #e6efe6",
".J c #e7f0e7",
"aj c #e8f0e8",
".I c #eaf2ea",
".P c #ebf3eb",
".H c #ecf4ec",
".G c #f0f5f0",
".F c #f2f7f2",
"#v c #f3f7f3",
".E c #f4f8f4",
".D c #f7f9f6",
".C c #f9fbf8",
".B c #fafcfa",
".A c #fcfdfc",
"QtQtQtQtQtQtQtQtQtQtQtQtQtQtQtQt",
"Qt.#.a.b.c.d.e.f.g.h.i.j.k.l.mQt",
"Qt.a.n.o.p.q.r.s.t.u.v.w.x.y.zQt",
"Qt.b.o.A.B.C.D.E.F.G.H.I.J.K.zQt",
"Qt.c.p.L.M.N.O.P.Q.R.S.T.U.V.WQt",
"Qt.d.X.Y.Z.0.1.2.3.4.5.6.7.8.9Qt",
"Qt#.##.D#a#b#c#d#e#f.6.7#g#h#iQt",
"Qt#j#k.E.F#l#m#n#o#p#q#g#r#s#tQt",
"Qt#u.s#v#w#x#y#z#A#A#B#C#D#E#FQt",
"Qt#G#H.P#I#J#K#L#M#N#O#P#Q#R#FQt",
"Qt#S#T#U#V#W#X#Y#Z#0#1#2#3#4#5Qt",
"Qt#6#7#8#9a.a#aaabacadaeaf#4agQt",
"QtahaiajakalamanaoapaqarasatauQt",
"Qt.kavavavavavavavavavavavavawQt",
"QtaxayazaAaBaCaDaEaFaGaHaIaJaKQt",
"aLaLaLaLaLaLaLaLaLaLaLaLaLaLaLaL"};
