/* XPM */
static const char * func_paran_close_xpm[] = {
"16 16 2 1",
" 	c None",
".	c #000000",
"                ",
"       .        ",
"       ..       ",
"        .       ",
"        ..      ",
"        ..      ",
"        ..      ",
"        ..      ",
"        ..      ",
"        ..      ",
"        ..      ",
"        .       ",
"       ..       ",
"       .        ",
"                ",
"                "};
