/* XPM */
static const char *func_equal_xpm[]={
"16 16 4 1",
". c None",
"b c #0000ff",
"a c #0058c0",
"# c #585858",
"................",
"................",
"................",
"...##########...",
"..#aaabbbbaaa#..",
"..#bbbbbbbbbb#..",
"..############..",
"................",
"................",
"..############..",
"..#bbbbbbbbbb#..",
"..#aaabbbbaaa#..",
"...##########...",
"................",
"................",
"................"};
