/* XPM */
static const char *func_comma_xpm[]={
"16 16 5 1",
". c None",
"# c #000000",
"a c #0000ff",
"b c #0058c0",
"c c #0080ff",
"................",
"................",
"................",
"......###.......",
".....#aaa#......",
".....#bcca#.....",
".....#bbaa#.....",
"......##ba#.....",
"........#b#.....",
"........#b#.....",
".......#b#......",
"......#b#.......",
"......##........",
"................",
"................",
"................"};
