/* XPM */
static const char *func_func_xpm[]={
"16 16 4 1",
". c None",
"a c #0000ff",
"b c #0058c0",
"# c #585858",
"................",
".........#ab....",
".......#aa##....",
".......ab#......",
".......ab#......",
"......#a#.......",
"....#aaaa#......",
"....bbabbb......",
"....##ab#a#.ba..",
".....aa##baba#..",
".....ab#.#ba#...",
".....ab#.baba...",
"....#a#.ba##ba..",
"....ab#..#..#b..",
"...#a#..........",
"................"};
