/* XPM */
static const char *func_divide_xpm[]={
"16 16 4 1",
". c None",
"# c #000000",
"b c #0000ff",
"a c #0058c0",
"................",
"................",
"...........##...",
"..........#ab#..",
".........#aba#..",
"........#bba#...",
".......#bba#....",
"......#bba#.....",
".....#abb#......",
"....#abb#.......",
"...#abb#........",
"..#aba#.........",
"..#ba#..........",
"...##...........",
"................",
"................"};
