/* XPM */
static const char *func_minus_xpm[]={
"16 16 4 1",
". c None",
"a c #0000ff",
"b c #0058c0",
"# c #585858",
"................",
"................",
"................",
"................",
"................",
"................",
"...##########...",
"...#aaaaaabb#...",
"...#bbaaaaaa#...",
"...##########...",
"................",
"................",
"................",
"................",
"................",
"................"};
