/* XPM */
static const char *func_cross_xpm[]={
"16 16 4 1",
". c None",
"b c #0000ff",
"a c #0058c0",
"# c #585858",
"................",
"................",
"....#......##...",
"...#a#....#ab#..",
"..#bba#..#abb#..",
"...#bba##abb#...",
"....#bbaabb#....",
".....#bbbb#.....",
".....#bbbb#.....",
"....#bbaabb#....",
"...#bba##abb#...",
"..#bba#..#abb#..",
"..#ba#....#a#...",
"...##......#....",
"................",
"................"};
