/* XPM */
static const char *func_paran_close_xpm[]={
"16 16 5 1",
"c c None",
". c None",
"b c #0000ff",
"# c #0058c0",
"a c #585858",
"......#a........",
"......#baa......",
".......#bba.....",
"........#b#.....",
"........c##a....",
"........c#ba....",
"........c#ba....",
"........c#ba....",
"........c#ba....",
"........c#ba....",
"........#b#a....",
".......abb#.....",
".......#bba.....",
"......#baa......",
"......#a........",
"................"};
