/* XPM */
static const char *func_paran_open_xpm[]={
"16 16 5 1",
"c c None",
". c None",
"b c #0000ff",
"a c #0058c0",
"# c #585858",
"........#a......",
"......##ba......",
".....#bba.......",
".....aba........",
"....#aacc.......",
"....#bacc.......",
"....#bacc.......",
"....#bacc.......",
"....#bac........",
"....#bac........",
"....#aac........",
".....abbc.......",
".....#bba.......",
"......##bac.....",
"........#ac.....",
"..........c....."};
