/* XPM */
static const char * help_general_xpm[] = {
"16 16 6 1",
" 	c None s None",
".	c #000000",
"X	c #FF0000",
"o	c #FFFF00",
"O	c #808080",
"+	c #FFFFFF",
"                ",
"       ..       ",
"      .XX.      ",
"     .XXXX.     ",
"    .XXXoXX.    ",
"   .XXXoXoXX.   ",
"  .XXXXXoXoX.   ",
" .XXXXXXXoX.O   ",
" ..XXXXXXX.+.O  ",
" .+.XXXXX.+.O   ",
"  .+.XXX.+.O    ",
"   .+.X.+.O     ",
"    .+.+.O      ",
"     .+.O       ",
"      .O        ",
"                "};
