/* XPM */
static char * bullet_xpm[] = {
"6 6 2 1",
" 	c None",
".	c #9E799A699E79",
"  ..  ",
" .... ",
"......",
"......",
" .... ",
"  ..  "};
