/* XPM */
static char * can0003_xpm[] = {
"40 32 224 2",
"  	c None",
". 	c #7C976A",
"+ 	c #59704A",
"@ 	c #6D875D",
"# 	c #7E996C",
"$ 	c #425437",
"% 	c #506642",
"& 	c #5A724C",
"* 	c #688259",
"= 	c #718B61",
"- 	c #333F2B",
"; 	c #3D4E33",
"> 	c #4B603E",
", 	c #566E48",
"' 	c #647D54",
") 	c #718B60",
"! 	c #303C29",
"~ 	c #394930",
"{ 	c #45593A",
"] 	c #556B46",
"^ 	c #617A52",
"/ 	c #6B845B",
"( 	c #2B3626",
"_ 	c #34412C",
": 	c #425337",
"< 	c #506543",
"[ 	c #617952",
"} 	c #738D62",
"| 	c #2B3525",
"1 	c #2E3A28",
"2 	c #3A4931",
"3 	c #506443",
"4 	c #6A835B",
"5 	c #789267",
"6 	c #273022",
"7 	c #2C3625",
"8 	c #3C4B32",
"9 	c #546946",
"0 	c #688058",
"a 	c #789367",
"b 	c #222321",
"c 	c #262F21",
"d 	c #252E20",
"e 	c #2E3927",
"f 	c #3E4D33",
"g 	c #475B3A",
"h 	c #678058",
"i 	c #292A28",
"j 	c #232422",
"k 	c #252D20",
"l 	c #34402C",
"m 	c #3D4D33",
"n 	c #4D6040",
"o 	c #647955",
"p 	c #41473B",
"q 	c #2B2C29",
"r 	c #242523",
"s 	c #222322",
"t 	c #2C3228",
"u 	c #303929",
"v 	c #3F5035",
"w 	c #3B4831",
"x 	c #333B2E",
"y 	c #5D6F52",
"z 	c #232522",
"A 	c #32362F",
"B 	c #262E20",
"C 	c #2B3524",
"D 	c #3F4E35",
"E 	c #252724",
"F 	c #42493D",
"G 	c #2B2C2B",
"H 	c #343533",
"I 	c #2E302D",
"J 	c #2A2E27",
"K 	c #1B2117",
"L 	c #131711",
"M 	c #191A17",
"N 	c #2C2E2C",
"O 	c #383C36",
"P 	c #3A4036",
"Q 	c #3D4537",
"R 	c #30382C",
"S 	c #1D1F1A",
"T 	c #1E1F1D",
"U 	c #0E0F0C",
"V 	c #171915",
"W 	c #2A2F26",
"X 	c #3E4938",
"Y 	c #45543D",
"Z 	c #495A3F",
"` 	c #4A5C3E",
" .	c #405035",
"..	c #293223",
"+.	c #1E211C",
"@.	c #252624",
"#.	c #2A2B29",
"$.	c #252824",
"%.	c #050505",
"&.	c #151714",
"*.	c #31382C",
"=.	c #47573D",
"-.	c #4D6241",
";.	c #4F6441",
">.	c #4E6441",
",.	c #3C4C31",
"'.	c #262D20",
").	c #242623",
"!.	c #323431",
"~.	c #31342F",
"{.	c #070807",
"].	c #1E221C",
"^.	c #3E4C37",
"/.	c #4E6342",
"(.	c #4E6440",
"_.	c #445738",
":.	c #39492F",
"<.	c #3B4B31",
"[.	c #485C3B",
"}.	c #32402A",
"|.	c #1E231B",
"1.	c #262825",
"2.	c #2E302C",
"3.	c #516843",
"4.	c #1C2518",
"5.	c #080B05",
"6.	c #1C2118",
"7.	c #405036",
"8.	c #2D3A25",
"9.	c #181F14",
"0.	c #1D2518",
"a.	c #38482F",
"b.	c #405335",
"c.	c #262F22",
"d.	c #232622",
"e.	c #2D312B",
"f.	c #2F332B",
"g.	c #1D2618",
"h.	c #0C0F0A",
"i.	c #191C16",
"j.	c #3B4733",
"k.	c #4E6241",
"l.	c #475B3B",
"m.	c #273321",
"n.	c #0E120C",
"o.	c #161C13",
"p.	c #34422B",
"q.	c #485D3C",
"r.	c #2F3B28",
"s.	c #232921",
"t.	c #3B4536",
"u.	c #57674C",
"v.	c #617453",
"w.	c #506145",
"x.	c #1C201A",
"y.	c #0D110C",
"z.	c #0D0F0D",
"A.	c #2E3829",
"B.	c #4A5D3E",
"C.	c #4D6340",
"D.	c #3B4C31",
"E.	c #2A3623",
"F.	c #2F3C27",
"G.	c #415336",
"H.	c #323E2A",
"I.	c #23291F",
"J.	c #414F37",
"K.	c #607652",
"L.	c #667C57",
"M.	c #4A5A3F",
"N.	c #536A45",
"O.	c #1F201E",
"P.	c #080A07",
"Q.	c #050605",
"R.	c #20251E",
"S.	c #44543B",
"T.	c #495D3D",
"U.	c #4D6240",
"V.	c #4F6542",
"W.	c #475A3C",
"X.	c #2E3629",
"Y.	c #232621",
"Z.	c #2C302A",
"`.	c #2D3527",
" +	c #44533B",
".+	c #6B835C",
"++	c #586C4C",
"@+	c #2E3828",
"#+	c #212320",
"$+	c #090D07",
"%+	c #0F120E",
"&+	c #2D3626",
"*+	c #445638",
"=+	c #4F6442",
"-+	c #4D6141",
";+	c #4A5C3F",
">+	c #47553E",
",+	c #3F4938",
"'+	c #2F332C",
")+	c #2E312C",
"!+	c #303C28",
"~+	c #4E5E44",
"{+	c #212220",
"]+	c #191B18",
"^+	c #070806",
"/+	c #0E110C",
"(+	c #282F23",
"_+	c #404B38",
":+	c #44513C",
"<+	c #404A39",
"[+	c #3D4438",
"}+	c #3A3F37",
"|+	c #373936",
"1+	c #222421",
"2+	c #292D26",
"3+	c #20211F",
"4+	c #191A18",
"5+	c #050703",
"6+	c #0C0D0B",
"7+	c #1D201B",
"8+	c #2F342C",
"9+	c #2F332D",
"0+	c #2C2E2A",
"a+	c #262725",
"                                                                                ",
"                                                                                ",
"                                                                                ",
"                                                                                ",
"                                                                                ",
"                                                                                ",
"                                                                                ",
"                                                                                ",
"                .                                                               ",
"              + @ #                                                             ",
"            $ % & * =                                                           ",
"            - ; > , ' )                                                         ",
"              ! ~ { ] ^ /                                                       ",
"                ( _ : < [ }                                                     ",
"                  | 1 2 3 4 5                                                   ",
"                    6 7 8 9 0 a           b                                     ",
"                    c d e f g h .     i j b b                                   ",
"                        k l m n o p q r s b b                                   ",
"                          t u v w x y z     r j                                 ",
"                          A B C D E F G H I s j b                               ",
"                          J K L M N O P Q R S T b b b b                         ",
"                            U V W X Y Z `  ...+.@.#.  b                         ",
"                        $.%.&.*.=.-.;.>.>.> ,.'.).!.~.j b                       ",
"                          {.].^./.(._.:.<.g [.}.|.1.2.b                         ",
"                      3.4.5.6.7.% g 8.9.0.a.> b.c.d.e.f.                        ",
"                    3.6 g.h.i.j.k.l.m.n.o.p.> q.r.s.t.u.v.w.                    ",
"                  3.6 6 x.y.z.A.B.C.D.E.F.G.(.> H.I.A.J.K.L.M.N.                ",
"                3.6 6 6 O.P.Q.R.S.% C.q.T.U.V.W.X.Y.Z.`. +.+++@+3.              ",
"              3.6 6 6   #+  $+%+&+*+(.=+-+;+>+,+'+  )+  !+~+    6 3.            ",
"          3.3.6 6 6     b {+]+^+/+(+_+:+<+[+}+|+!.j b   1+2+    6 3.3.3.        ",
"          6 6 6 6         b 3+4+5+6+7+8+9+0+a+9+    b b b       6 6 6 6         ",
"                                                                                "};
