/* XPM */
static char * can0007_xpm[] = {
"40 32 231 2",
"  	c None",
". 	c #506543",
"+ 	c #607751",
"@ 	c #3F4F34",
"# 	c #4B5F3F",
"$ 	c #5A714C",
"% 	c #678158",
"& 	c #394830",
"* 	c #435638",
"= 	c #516744",
"- 	c #5F7751",
"; 	c #6A845A",
"> 	c #3A4A31",
", 	c #485B3C",
"' 	c #576E4A",
") 	c #657E55",
"! 	c #323F2B",
"~ 	c #4F6442",
"{ 	c #5F7650",
"] 	c #2D3927",
"^ 	c #36442E",
"/ 	c #45573B",
"( 	c #566C49",
"_ 	c #657D56",
": 	c #303C29",
"< 	c #3C4C34",
"[ 	c #4E6243",
"} 	c #617853",
"| 	c #2B3626",
"1 	c #36432E",
"2 	c #495B3E",
"3 	c #5E7450",
"4 	c #6E875E",
"5 	c #283223",
"6 	c #313D2A",
"7 	c #435338",
"8 	c #586D4A",
"9 	c #6A835B",
"0 	c #2E3827",
"a 	c #3C4A32",
"b 	c #4F6343",
"c 	c #667E57",
"d 	c #758F64",
"e 	c #2D3527",
"f 	c #35412E",
"g 	c #45573A",
"h 	c #5F7651",
"i 	c #748D63",
"j 	c #2D3328",
"k 	c #313A2B",
"l 	c #3C4B33",
"m 	c #526545",
"n 	c #5B6B4E",
"o 	c #444B3D",
"p 	c #31342E",
"q 	c #282E24",
"r 	c #2A3225",
"s 	c #323E2B",
"t 	c #3A4731",
"u 	c #3D4835",
"v 	c #3E4638",
"w 	c #31352E",
"x 	c #242623",
"y 	c #232422",
"z 	c #222321",
"A 	c #1D211B",
"B 	c #20261D",
"C 	c #283124",
"D 	c #333B2D",
"E 	c #384033",
"F 	c #3A4136",
"G 	c #30342D",
"H 	c #262725",
"I 	c #242523",
"J 	c #121410",
"K 	c #1A1D17",
"L 	c #1E221B",
"M 	c #232720",
"N 	c #2A2D28",
"O 	c #323731",
"P 	c #363B34",
"Q 	c #31352F",
"R 	c #2B2D2A",
"S 	c #262825",
"T 	c #0D0F0B",
"U 	c #171B15",
"V 	c #252B21",
"W 	c #2F3729",
"X 	c #354030",
"Y 	c #3A4535",
"Z 	c #3E4838",
"` 	c #3D4637",
" .	c #383F33",
"..	c #30352D",
"+.	c #272A26",
"@.	c #151813",
"#.	c #1E241A",
"$.	c #343F2D",
"%.	c #435239",
"&.	c #485C3D",
"*.	c #4A5D3F",
"=.	c #46563C",
"-.	c #3F4C36",
";.	c #323B2C",
">.	c #262B23",
",.	c #222421",
"'.	c #0A1008",
").	c #11150F",
"!.	c #262D20",
"~.	c #3F4E35",
"{.	c #4B5E3E",
"].	c #4A5E3C",
"^.	c #46593A",
"/.	c #46583A",
"(.	c #48593C",
"_.	c #435439",
":.	c #35412D",
"<.	c #262D22",
"[.	c #283321",
"}.	c #181C15",
"|.	c #2B3425",
"1.	c #485C3B",
"2.	c #3C4D31",
"3.	c #303E27",
"4.	c #324029",
"5.	c #3D4F33",
"6.	c #435538",
"7.	c #39472F",
"8.	c #283024",
"9.	c #242823",
"0.	c #272826",
"a.	c #252724",
"b.	c #3F5134",
"c.	c #171C14",
"d.	c #191E17",
"e.	c #2D3727",
"f.	c #303F29",
"g.	c #1F291A",
"h.	c #222C1C",
"i.	c #34432B",
"j.	c #415436",
"k.	c #3B4B31",
"l.	c #2A3325",
"m.	c #252923",
"n.	c #2A2C29",
"o.	c #282926",
"p.	c #292929",
"q.	c #262E22",
"r.	c #262F22",
"s.	c #4F6541",
"t.	c #21291C",
"u.	c #171D15",
"v.	c #181D16",
"w.	c #2D3827",
"x.	c #45593A",
"y.	c #36452D",
"z.	c #263120",
"A.	c #273120",
"B.	c #37462E",
"C.	c #3D4D33",
"D.	c #2C3527",
"E.	c #252A24",
"F.	c #2A2D29",
"G.	c #292B27",
"H.	c #273022",
"I.	c #516843",
"J.	c #262F21",
"K.	c #222B1E",
"L.	c #191F15",
"M.	c #161A14",
"N.	c #283222",
"O.	c #405135",
"P.	c #495D3D",
"Q.	c #394A2F",
"R.	c #415336",
"S.	c #455939",
"T.	c #3C4D33",
"U.	c #2D3828",
"V.	c #292E26",
"W.	c #2D322B",
"X.	c #2E322B",
"Y.	c #2D2F2C",
"Z.	c #292D25",
"`.	c #242C1F",
" +	c #141713",
".+	c #20261B",
"++	c #37432D",
"@+	c #4A5E3F",
"#+	c #485B3D",
"$+	c #475A3B",
"%+	c #485C3C",
"&+	c #2E3828",
"*+	c #2F362A",
"=+	c #384133",
"-+	c #3F4738",
";+	c #353A31",
">+	c #171815",
",+	c #181B16",
"'+	c #2A3125",
")+	c #3C4835",
"!+	c #44533B",
"~+	c #46553D",
"{+	c #47573D",
"]+	c #404E37",
"^+	c #2D3427",
"/+	c #333C2D",
"(+	c #414D39",
"_+	c #47533E",
":+	c #394033",
"<+	c #191A17",
"[+	c #20231E",
"}+	c #2C3129",
"|+	c #363D31",
"1+	c #394234",
"2+	c #3C4436",
"3+	c #3E4738",
"4+	c #394233",
"5+	c #262B22",
"6+	c #1E231B",
"7+	c #4B5B40",
"8+	c #5F7351",
"9+	c #46523E",
"0+	c #31372D",
"a+	c #252723",
"b+	c #2F332D",
"c+	c #353A33",
"d+	c #373B34",
"e+	c #373C35",
"f+	c #4E6043",
"g+	c #627854",
"h+	c #718960",
"                                                                                ",
"                                                                                ",
"                                                                                ",
"                                                                                ",
"                                                                                ",
"                                                                                ",
"                        . +                                                     ",
"                      @ # $ %                                                   ",
"                      & * = - ;                                                 ",
"                        > , ' )                                                 ",
"                        ! @ ~ {                                                 ",
"                        ] ^ / ( _                                               ",
"                          : < [ }                                               ",
"                          | 1 2 3 4                                             ",
"                          5 6 7 8 9                                             ",
"                            0 a b c d                                           ",
"                            e f g h i                                           ",
"                            j k l m n o p                                       ",
"                            q r s t u v w x y z                                 ",
"                            A B C D E F G H I z                                 ",
"                          J K L M N O P Q R S y                                 ",
"                        T U V W X Y Z `  ...+.I y                               ",
"                        @.#.$.%.&.*.2 =.-.;.>.,.z                               ",
"                      '.).!.~.{.].^./.(._.:.<.,.y I                             ",
"                      [.}.|.7 1.2.3.4.5.6.7.8.9.0.a.y                           ",
"                    b.c.d.e.7 * f.g.h.i.j.k.l.m.n.o.y p.q.r.                    ",
"                  s.t.u.v.w.6.x.y.z.A.B.* C.D.E.F.G.I z z H.H.I.                ",
"                I.J.K.L.M.N.O.P.* k.Q.R.S.T.U.V.W.X.Y.Z.z z H.H.I.              ",
"              I.H.J.`.   +.+++/.@+#+$+%+g & &+*+=+-+;+  H.z     H.I.            ",
"          I.I.H.H.J.    >+,+'+)+!+~+{+=.]+$.^+/+(+_+:+  y z     H.I.I.I.        ",
"          H.H.H.H.        <+[+}+|+1+2+3+4+5+6+! 7+8+9+0+a+      H.H.H.H.        ",
"                                b+c+d+e+        f+g+h+                          "};
