/* XPM */
static char * can0000_xpm[] = {
"40 32 135 2",
"  	c None",
". 	c #7E996C",
"+ 	c #516843",
"@ 	c #273022",
"# 	c #303C28",
"$ 	c #506642",
"% 	c #627B52",
"& 	c #718A60",
"* 	c #303D29",
"= 	c #2A3425",
"- 	c #576F49",
"; 	c #222321",
"> 	c #2C3626",
", 	c #475B3A",
"' 	c #4F6542",
") 	c #445638",
"! 	c #4D643F",
"~ 	c #353833",
"{ 	c #252E20",
"] 	c #262F21",
"^ 	c #526645",
"/ 	c #697E59",
"( 	c #242C1F",
"_ 	c #333E2C",
": 	c #3B4831",
"< 	c #313A2C",
"[ 	c #7A9469",
"} 	c #343534",
"| 	c #353535",
"1 	c #283022",
"2 	c #293223",
"3 	c #1E1E1D",
"4 	c #2C2C2C",
"5 	c #323232",
"6 	c #363735",
"7 	c #2A2E28",
"8 	c #0C0C0C",
"9 	c #1A1A1A",
"0 	c #252D1F",
"a 	c #171D14",
"b 	c #0C0D0A",
"c 	c #292A29",
"d 	c #373A36",
"e 	c #40493A",
"f 	c #4A5C40",
"g 	c #506742",
"h 	c #3D4D32",
"i 	c #171B14",
"j 	c #232322",
"k 	c #3A3B3A",
"l 	c #090A08",
"m 	c #181A17",
"n 	c #3C4437",
"o 	c #4A5B3F",
"p 	c #4D633F",
"q 	c #3D4E32",
"r 	c #11160E",
"s 	c #191919",
"t 	c #000000",
"u 	c #121212",
"v 	c #3E4738",
"w 	c #4F6442",
"x 	c #4B603E",
"y 	c #4C613F",
"z 	c #405235",
"A 	c #060606",
"B 	c #202020",
"C 	c #495A40",
"D 	c #3B4B30",
"E 	c #182015",
"F 	c #0A0C08",
"G 	c #3C4D31",
"H 	c #283422",
"I 	c #141514",
"J 	c #3F463A",
"K 	c #263021",
"L 	c #050803",
"M 	c #090909",
"N 	c #4C5F40",
"O 	c #242F1E",
"P 	c #020202",
"Q 	c #242E1E",
"R 	c #4D6340",
"S 	c #435637",
"T 	c #161914",
"U 	c #3E4E33",
"V 	c #273021",
"W 	c #080808",
"X 	c #384132",
"Y 	c #3E5034",
"Z 	c #0C0F0A",
"` 	c #131910",
" .	c #3A4A30",
"..	c #455839",
"+.	c #171817",
"@.	c #2F2F2F",
"#.	c #272F23",
"$.	c #455939",
"%.	c #12200D",
"&.	c #010201",
"*.	c #1A1C19",
"=.	c #46563D",
"-.	c #4C623F",
";.	c #506743",
">.	c #3D4B34",
",.	c #262625",
"'.	c #080B06",
").	c #040404",
"!.	c #2F352C",
"~.	c #4E6342",
"{.	c #4B5D40",
"].	c #383A36",
"^.	c #333432",
"/.	c #2B3026",
"(.	c #1F261C",
"_.	c #050703",
":.	c #0E0F0D",
"<.	c #2D3727",
"[.	c #435537",
"}.	c #506542",
"|.	c #4C5F41",
"1.	c #434E3C",
"2.	c #393B37",
"3.	c #353635",
"4.	c #2F322D",
"5.	c #091006",
"6.	c #010100",
"7.	c #040503",
"8.	c #181B17",
"9.	c #373B35",
"0.	c #2A2A29",
"a.	c #313130",
"b.	c #323431",
"c.	c #0B0B0B",
"d.	c #060906",
"                                                                                ",
"                                                                                ",
"                                                                                ",
"                                                                                ",
"                                                                                ",
"                                                                                ",
"                                                                                ",
"                                                                                ",
"                                                                                ",
"                                                                                ",
"            .                                                                   ",
"          + + . .                                                               ",
"        @ + + + + . .                                                           ",
"          @ # $ + + % &                                                         ",
"            @ * = + + - . .               ;                                     ",
"                @ > @ , ' . . .         ; ;                                     ",
"                  @ @ @ ) ) ! . .   ~ ; ; ; ;                                   ",
"                    { { ] ) ) ^ / ~ ; ;     ; ; ;                               ",
"                        ( ( _ ) : < [ ; } |     ; ; ; ;                         ",
"                          ~ 1 2 ) 3 4 5 6 7 8 9 ; ;   ; ;                       ",
"                          ~ 0 a b c d e f g h i j k ~   ;                       ",
"                              l m n o ' + + p q r s ~   ;                       ",
"                            t u v w + + x y + + z A ~ ; ;                       ",
"                            t B C + + D E F G + + H I J . . .                   ",
"                      + K   L M N + + O t P Q R + S T @ @ U . .                 ",
"                    + @ V ; L W X ' + Y Z `  .g + ..+.@.#.@ $..                 ",
"                  + @ @ ; ; %.&.*.=.+ g R -.;.+ + >.,.; ; @ @ +                 ",
"                + @ @ @ ;   '.A ).!.~.+ + + $ {.e ].^./.; ; @ @ +               ",
"              + @ @ @   ;     (._.:.<.[.}.|.1.2.3.} 4.  @ ;     @ +             ",
"          + + @ @ @     ; ; ; ; 5.6.7.8.9.9.0.a.b.; ;   ; ;     @ + + +         ",
"          @ @ @ @         ; ; ;   L t t t c.d.      ; ; ;       @ @ @ @         ",
"                                                                                "};
