/* XPM */
static char * can0005_xpm[] = {
"40 32 236 2",
"  	c None",
". 	c #627A53",
"+ 	c #728C61",
"@ 	c #4A5D3D",
"# 	c #59704B",
"$ 	c #688259",
"% 	c #415236",
"& 	c #4D6240",
"* 	c #5B734D",
"= 	c #678158",
"- 	c #36452D",
"; 	c #405336",
"> 	c #4E6341",
", 	c #5C744D",
"' 	c #698259",
") 	c #35432D",
"! 	c #506543",
"~ 	c #5E764F",
"{ 	c #2D3826",
"] 	c #35422C",
"^ 	c #425338",
"/ 	c #526745",
"( 	c #627953",
"_ 	c #2C3726",
": 	c #34412D",
"< 	c #44563A",
"[ 	c #5A704D",
"} 	c #6D865D",
"| 	c #273022",
"1 	c #2B3525",
"2 	c #38462F",
"3 	c #4F6243",
"4 	c #657D56",
"5 	c #738E63",
"6 	c #262F21",
"7 	c #2F3A28",
"8 	c #415136",
"9 	c #556947",
"0 	c #6C865D",
"a 	c #799467",
"b 	c #283123",
"c 	c #36422E",
"d 	c #415336",
"e 	c #5C744F",
"f 	c #789166",
"g 	c #272F22",
"h 	c #31392A",
"i 	c #394630",
"j 	c #4A5D3E",
"k 	c #647955",
"l 	c #474E3F",
"m 	c #2F312D",
"n 	c #272825",
"o 	c #232422",
"p 	c #222321",
"q 	c #2E3429",
"r 	c #2F3928",
"s 	c #3B4B32",
"t 	c #3B4731",
"u 	c #3D4737",
"v 	c #46503E",
"w 	c #242523",
"x 	c #242524",
"y 	c #282D24",
"z 	c #242C1F",
"A 	c #2E3927",
"B 	c #384331",
"C 	c #343930",
"D 	c #3F483B",
"E 	c #282927",
"F 	c #2C2D2C",
"G 	c #272826",
"H 	c #181B16",
"I 	c #171A14",
"J 	c #1A1D18",
"K 	c #252724",
"L 	c #323631",
"M 	c #393E36",
"N 	c #343731",
"O 	c #323630",
"P 	c #282A27",
"Q 	c #131512",
"R 	c #1F221B",
"S 	c #2A3026",
"T 	c #374032",
"U 	c #3F4B39",
"V 	c #424D3B",
"W 	c #404B39",
"X 	c #374131",
"Y 	c #282E25",
"Z 	c #20221E",
"` 	c #212220",
" .	c #141613",
"..	c #1D221A",
"+.	c #343E2E",
"@.	c #45543B",
"#.	c #4A5E3F",
"$.	c #4B5F40",
"%.	c #4B5E3F",
"&.	c #495B3E",
"*.	c #404F36",
"=.	c #2E3827",
"-.	c #21261F",
";.	c #222421",
">.	c #252624",
",.	c #0F120D",
"'.	c #252D21",
").	c #415038",
"!.	c #4D6140",
"~.	c #4C613E",
"{.	c #46593A",
"].	c #445638",
"^.	c #475A3B",
"/.	c #455839",
"(.	c #37452D",
"_.	c #272D23",
":.	c #252824",
"<.	c #2A2C29",
"[.	c #2A3722",
"}.	c #131810",
"|.	c #293123",
"1.	c #46573A",
"2.	c #4D623F",
"3.	c #3F5133",
"4.	c #2E3C26",
"5.	c #2B3723",
"6.	c #37472E",
"7.	c #445738",
"8.	c #3E4F33",
"9.	c #242822",
"0.	c #2B2E2A",
"a.	c #2B2D29",
"b.	c #435737",
"c.	c #161C13",
"d.	c #131711",
"e.	c #282F23",
"f.	c #435339",
"g.	c #485C3C",
"h.	c #35452D",
"i.	c #1D2719",
"j.	c #192015",
"k.	c #2B3724",
"l.	c #415436",
"m.	c #435738",
"n.	c #313D2A",
"o.	c #242922",
"p.	c #282C27",
"q.	c #2B2E29",
"r.	c #262724",
"s.	c #2A2B2A",
"t.	c #262E23",
"u.	c #4F6641",
"v.	c #222A1E",
"w.	c #171D14",
"x.	c #111410",
"y.	c #232B20",
"z.	c #3F4F35",
"A.	c #495D3D",
"B.	c #3C4E32",
"C.	c #283422",
"D.	c #232C1D",
"E.	c #313F29",
"F.	c #435638",
"G.	c #465A3A",
"H.	c #36442E",
"I.	c #272F24",
"J.	c #2D322A",
"K.	c #373D32",
"L.	c #3A4134",
"M.	c #282A25",
"N.	c #516843",
"O.	c #242D20",
"P.	c #1C2218",
"Q.	c #121411",
"R.	c #1E241B",
"S.	c #3B4932",
"T.	c #4B603E",
"U.	c #495D3C",
"V.	c #3F5135",
"W.	c #3B4C31",
"X.	c #495E3C",
"Y.	c #2A3225",
"Z.	c #323A2D",
"`.	c #46523E",
" +	c #4E5C45",
".+	c #46513C",
"++	c #2A2D27",
"@+	c #232421",
"#+	c #131511",
"$+	c #151912",
"%+	c #2C3624",
"&+	c #435537",
"*+	c #4C613F",
"=+	c #4B603F",
"-+	c #4A5E3E",
";+	c #333E2C",
">+	c #293024",
",+	c #313A2B",
"'+	c #49583F",
")+	c #586A4C",
"!+	c #68805A",
"~+	c #3C4A34",
"{+	c #161715",
"]+	c #10110E",
"^+	c #191D16",
"/+	c #313A2A",
"(+	c #435139",
"_+	c #46563D",
":+	c #46553D",
"<+	c #46543D",
"[+	c #44503C",
"}+	c #3C4535",
"|+	c #30372C",
"1+	c #2F342C",
"2+	c #384231",
"3+	c #506044",
"4+	c #6F875E",
"5+	c #404A39",
"6+	c #292D27",
"7+	c #171816",
"8+	c #10110F",
"9+	c #1C1F19",
"0+	c #2D3429",
"a+	c #343B30",
"b+	c #363D32",
"c+	c #3B4237",
"d+	c #3A3F37",
"e+	c #2C2F2A",
"f+	c #1B1E1A",
"g+	c #414E39",
"h+	c #4C5A42",
"i+	c #3B4435",
"j+	c #2B2E28",
"k+	c #323530",
"l+	c #343732",
"m+	c #343532",
"                                                                                ",
"                                                                                ",
"                                                                                ",
"                                                                                ",
"                                                                                ",
"                                                                                ",
"                                                                                ",
"                  . +                                                           ",
"                @ # $                                                           ",
"                % & * =                                                         ",
"                - ; > , '                                                       ",
"                  ) % ! ~ '                                                     ",
"                  { ] ^ / (                                                     ",
"                    _ : < [ }                                                   ",
"                    | 1 2 3 4 5                                                 ",
"                      6 7 8 9 0 a                                               ",
"                        b c d e f                                               ",
"                        g h i j k l m n o p p                                   ",
"                          q r s t u v w x o p                                   ",
"                          y z A B C D E F G o                                   ",
"                          H I J K L M N O P o o                                 ",
"                          Q R S T U V W X Y Z ` p                               ",
"                         ...+.@.#.$.%.&.*.=.-.;.>.w p                           ",
"                        ,.'.).!.~.{.].^./.(._.:.<.E o                           ",
"                      [.}.|.1.2.3.4.5.6.7.8.1 9.0.a.w                           ",
"                    b.c.d.e.f.g.h.i.j.k.l.m.n.o.p.q.r.s.t.|                     ",
"                  u.v.w.x.y.z.A.B.C.D.E.F.G.H.I.J.K.L.M.o | | N.                ",
"                N.6 O.P.Q.R.S.T.U.V.W.l.X.^.H.Y.Z.`. +.+++@+| | N.              ",
"              N.| | 6   #+$+%+&+*+=+j -+%.^ ;+>+,+'+)+!+~+:.    | N.            ",
"          N.N.| | |     {+]+^+/+(+_+:+<+[+}+|+  1+2+3+4+5+6+    | N.N.N.        ",
"          | | | |         7+8+9+0+a+b+c+d+e+f+      g+h+i+      | | | |         ",
"                                  j+k+l+m+                                      "};
