/* XPM */
static char * can0006_xpm[] = {
"40 32 230 2",
"  	c None",
". 	c #556B48",
"+ 	c #677F57",
"@ 	c #435437",
"# 	c #516644",
"$ 	c #607852",
"% 	c #6D885D",
"& 	c #3D4D33",
"* 	c #485C3C",
"= 	c #576E49",
"- 	c #647D55",
"; 	c #34432C",
"> 	c #3E5034",
", 	c #4C6140",
"' 	c #5B734D",
") 	c #688158",
"! 	c #35422D",
"~ 	c #425337",
"{ 	c #526845",
"] 	c #617952",
"^ 	c #2E3A27",
"/ 	c #38462F",
"( 	c #475A3C",
"_ 	c #586E4A",
": 	c #667E56",
"< 	c #2A3525",
"[ 	c #303C29",
"} 	c #3C4C34",
"| 	c #4E6243",
"1 	c #617853",
"2 	c #2A3425",
"3 	c #34412C",
"4 	c #47583C",
"5 	c #5D734F",
"6 	c #6E875E",
"7 	c #273022",
"8 	c #2E3927",
"9 	c #3F4E35",
"0 	c #556A48",
"a 	c #69825A",
"b 	c #293324",
"c 	c #38452F",
"d 	c #495B3D",
"e 	c #627A54",
"f 	c #748E63",
"g 	c #323C2B",
"h 	c #556C49",
"i 	c #738C62",
"j 	c #2B3126",
"k 	c #30372A",
"l 	c #36422E",
"m 	c #485A3C",
"n 	c #647955",
"o 	c #4C5543",
"p 	c #343731",
"q 	c #222321",
"r 	c #2B3028",
"s 	c #2E3827",
"t 	c #394831",
"u 	c #3C4832",
"v 	c #3F4939",
"w 	c #3C4337",
"x 	c #252624",
"y 	c #232422",
"z 	c #20251D",
"A 	c #232B1F",
"B 	c #2F3929",
"C 	c #374031",
"D 	c #394035",
"E 	c #3A4136",
"F 	c #262725",
"G 	c #131511",
"H 	c #191B16",
"I 	c #1C2019",
"J 	c #222520",
"K 	c #2C2F2B",
"L 	c #363B34",
"M 	c #363B33",
"N 	c #2E312D",
"O 	c #2B2D2A",
"P 	c #0C0E0B",
"Q 	c #171A15",
"R 	c #242920",
"S 	c #2D3528",
"T 	c #353E30",
"U 	c #3B4636",
"V 	c #3D4537",
"W 	c #373E32",
"X 	c #2D322B",
"Y 	c #252724",
"Z 	c #141612",
"` 	c #1F261C",
" .	c #36412F",
"..	c #44543A",
"+.	c #495D3E",
"@.	c #4A5D3F",
"#.	c #495A3E",
"$.	c #46563C",
"%.	c #3E4A35",
"&.	c #2E3729",
"*.	c #232620",
"=.	c #212220",
"-.	c #090E07",
";.	c #10140E",
">.	c #283022",
",.	c #435339",
"'.	c #4D6140",
").	c #4B603D",
"!.	c #475A3B",
"~.	c #46583A",
"{.	c #435438",
"].	c #323E2A",
"^.	c #232920",
"/.	c #222421",
"(.	c #242523",
"_.	c #25301E",
":.	c #171C15",
"<.	c #2D3627",
"[.	c #46573A",
"}.	c #4A5E3C",
"|.	c #3C4D31",
"1.	c #303E27",
"2.	c #324029",
"3.	c #445638",
"4.	c #38462E",
"5.	c #272E23",
"6.	c #252824",
"7.	c #292B28",
"8.	c #3C4E32",
"9.	c #151B13",
"0.	c #191E17",
"a.	c #2E3828",
"b.	c #445539",
"c.	c #435638",
"d.	c #2E3D28",
"e.	c #1E2719",
"f.	c #222C1C",
"g.	c #35442C",
"h.	c #425537",
"i.	c #3B4B31",
"j.	c #2A3325",
"k.	c #252923",
"l.	c #292A27",
"m.	c #292928",
"n.	c #262E22",
"o.	c #4E6440",
"p.	c #20271C",
"q.	c #171C14",
"r.	c #191D17",
"s.	c #2E3928",
"t.	c #435538",
"u.	c #445839",
"v.	c #34432B",
"w.	c #252F1F",
"x.	c #273120",
"y.	c #37462E",
"z.	c #3D4E33",
"A.	c #252A24",
"B.	c #292D28",
"C.	c #292B27",
"D.	c #516843",
"E.	c #262F21",
"F.	c #222A1D",
"G.	c #181E15",
"H.	c #171A14",
"I.	c #2A3424",
"J.	c #425336",
"K.	c #4A5E3D",
"L.	c #3A4A30",
"M.	c #39492F",
"N.	c #415436",
"O.	c #465A3A",
"P.	c #3D4E34",
"Q.	c #2E3929",
"R.	c #2A3027",
"S.	c #30352C",
"T.	c #32372E",
"U.	c #30322E",
"V.	c #2B2F26",
"W.	c #242D1F",
"X.	c #20271B",
"Y.	c #38452E",
"Z.	c #485B3C",
"`.	c #4B603F",
" +	c #485B3D",
".+	c #495D3D",
"++	c #46593B",
"@+	c #3A4931",
"#+	c #2F372A",
"$+	c #3C4636",
"%+	c #48533F",
"&+	c #3C4336",
"*+	c #151613",
"=+	c #141713",
"-+	c #293024",
";+	c #3E4B35",
">+	c #46563D",
",+	c #47563D",
"'+	c #47573D",
")+	c #414F38",
"!+	c #35402E",
"~+	c #2B3225",
"{+	c #30382A",
"]+	c #414E39",
"^+	c #4F5E45",
"/+	c #45503D",
"(+	c #252723",
"_+	c #151614",
":+	c #1D201B",
"<+	c #2C3129",
"[+	c #353D31",
"}+	c #394234",
"|+	c #3B4436",
"1+	c #3F4739",
"2+	c #3A4234",
"3+	c #262B23",
"4+	c #1A1E18",
"5+	c #2C3725",
"6+	c #45543B",
"7+	c #5E7350",
"8+	c #536348",
"9+	c #3A4235",
"0+	c #272925",
"a+	c #2D302A",
"b+	c #343932",
"c+	c #373B34",
"d+	c #373B35",
"e+	c #363933",
"f+	c #5D724F",
"g+	c #6E865E",
"                                                                                ",
"                                                                                ",
"                                                                                ",
"                                                                                ",
"                                                                                ",
"                                                                                ",
"                      . +                                                       ",
"                    @ # $ %                                                     ",
"                    & * = -                                                     ",
"                    ; > , ' )                                                   ",
"                      ! ~ { ]                                                   ",
"                      ^ / ( _ :                                                 ",
"                      < [ } | 1                                                 ",
"                        2 3 4 5 6                                               ",
"                        7 8 9 0 a                                               ",
"                          b c d e f                                             ",
"                          7 g & h i                                             ",
"                          j k l m n o p     q                                   ",
"                          r j s t u v w x y q q                                 ",
"                            z A B C D E F F y q                                 ",
"                          G H I J K L M N O x y                                 ",
"                        P Q R S T U v V W X Y y y                               ",
"                        Z `  ...+.@.#.$.%.&.*.=.q                               ",
"                      -.;.>.,.'.).!.~.m {.].^./.(.(.                            ",
"                      _.:.<.[.}.|.1.2.> 3.4.5.6.7.F y                           ",
"                    8.9.0.a.b.c.d.e.f.g.h.i.j.k.O l.y m.n.7                     ",
"                  o.p.q.r.s.t.u.v.w.x.y.c.z.<.A.B.C.  q q 7 7 D.                ",
"                D.E.F.G.H.I.J.K.c.L.M.N.O.P.Q.R.S.T.U.V.q q 7 7 D.              ",
"              D.7 E.W.  G X.Y.Z.`. +!..+++@+a.#+$+%+&+  7 q     7 D.            ",
"          D.D.7 7 7     *+=+-+;+>+,+'+'+)+!+~+{+]+^+/+  (+q     7 D.D.D.        ",
"          7 7 7 7         _+:+<+[+}+|+1+2+3+4+5+6+7+8+9+0+      7 7 7 7         ",
"                                a+b+c+d+e+        f+g+                          "};
