/* XPM */
static char * can0001_xpm[] = {
"40 32 193 2",
"  	c None",
". 	c #7E996C",
"+ 	c #526944",
"@ 	c #647C54",
"# 	c #3A4A31",
"$ 	c #516843",
"% 	c #546B46",
"& 	c #5C744D",
"* 	c #698259",
"= 	c #303B28",
"- 	c #435537",
"; 	c #516743",
"> 	c #59714A",
", 	c #688157",
"' 	c #6F885E",
") 	c #323F2A",
"! 	c #36442E",
"~ 	c #475A3B",
"{ 	c #556D47",
"] 	c #607951",
"^ 	c #718A60",
"/ 	c #293223",
"( 	c #34412C",
"_ 	c #3B4A32",
": 	c #4A5E3D",
"< 	c #637B54",
"[ 	c #799468",
"} 	c #283122",
"| 	c #34422C",
"1 	c #657D56",
"2 	c #748E63",
"3 	c #7D986B",
"4 	c #222321",
"5 	c #262F21",
"6 	c #36442D",
"7 	c #435437",
"8 	c #4A5F3D",
"9 	c #728C61",
"0 	c #353833",
"a 	c #262725",
"b 	c #232C1F",
"c 	c #252E20",
"d 	c #3A4930",
"e 	c #415236",
"f 	c #4F6343",
"g 	c #677C57",
"h 	c #3A3F37",
"i 	c #272825",
"j 	c #232421",
"k 	c #242C1F",
"l 	c #292F25",
"m 	c #313C2A",
"n 	c #425336",
"o 	c #3B4831",
"p 	c #323A2D",
"q 	c #6A805C",
"r 	c #232422",
"s 	c #272826",
"t 	c #232522",
"u 	c #343731",
"v 	c #273022",
"w 	c #2A3424",
"x 	c #212220",
"y 	c #3A3E37",
"z 	c #2E2E2E",
"A 	c #353634",
"B 	c #2C2F2B",
"C 	c #1A1A1A",
"D 	c #31352E",
"E 	c #20281B",
"F 	c #141811",
"G 	c #131411",
"H 	c #2B2C2A",
"I 	c #363A35",
"J 	c #3E4539",
"K 	c #434F3C",
"L 	c #3B4933",
"M 	c #21281D",
"N 	c #1A1C19",
"O 	c #0B0D09",
"P 	c #0F110E",
"Q 	c #22251F",
"R 	c #3E4738",
"S 	c #48583E",
"T 	c #4C5F40",
"U 	c #4F6542",
"V 	c #4E6440",
"W 	c #3D4E32",
"X 	c #232A1E",
"Y 	c #343533",
"Z 	c #090909",
"` 	c #232721",
" .	c #44513B",
"..	c #4E6341",
"+.	c #506642",
"@.	c #4D6340",
"#.	c #4F6541",
"$.	c #4C613E",
"%.	c #39492F",
"&.	c #1B2017",
"*.	c #20211F",
"=.	c #343732",
"-.	c #010201",
";.	c #0E0E0E",
">.	c #32392E",
",.	c #4C6041",
"'.	c #495E3C",
").	c #36452C",
"!.	c #283321",
"~.	c #35442C",
"{.	c #4C623F",
"].	c #2E3B27",
"^.	c #1A1D19",
"/.	c #2D2F2B",
"(.	c #263021",
"_.	c #080E05",
":.	c #070806",
"<.	c #2C3626",
"[.	c #4F6442",
"}.	c #3C4D31",
"|.	c #181F14",
"1.	c #070906",
"2.	c #1B2216",
"3.	c #415335",
"4.	c #506742",
"5.	c #405235",
"6.	c #272B25",
"7.	c #5F7154",
"8.	c #799368",
"9.	c #273021",
"0.	c #131711",
"a.	c #252A21",
"b.	c #47583C",
"c.	c #506743",
"d.	c #425537",
"e.	c #1A2216",
"f.	c #0A0D09",
"g.	c #212A1C",
"h.	c #415436",
"i.	c #20261C",
"j.	c #273122",
"k.	c #687F58",
"l.	c #192016",
"m.	c #050904",
"n.	c #121411",
"o.	c #3A4633",
"p.	c #3F5134",
"q.	c #35452C",
"r.	c #3F5135",
"s.	c #475B3B",
"t.	c #272E23",
"u.	c #212120",
"v.	c #242622",
"w.	c #252A22",
"x.	c #435438",
"y.	c #70895F",
"z.	c #657D55",
"A.	c #070706",
"B.	c #040504",
"C.	c #272C25",
"D.	c #495B3E",
"E.	c #4F6642",
"F.	c #404D37",
"G.	c #2C2F29",
"H.	c #2E2F2D",
"I.	c #2A2F26",
"J.	c #282D24",
"K.	c #48593D",
"L.	c #323E2C",
"M.	c #182015",
"N.	c #070A05",
"O.	c #0E0F0D",
"P.	c #2E3828",
"Q.	c #445638",
"R.	c #4E6342",
"S.	c #4A5B3F",
"T.	c #44503D",
"U.	c #3D4539",
"V.	c #383A36",
"W.	c #2F322D",
"X.	c #1C1E1A",
"Y.	c #020201",
"Z.	c #090B08",
"`.	c #21271E",
" +	c #3F493A",
".+	c #373C33",
"++	c #363734",
"@+	c #323331",
"#+	c #030401",
"$+	c #050605",
"%+	c #121312",
"&+	c #282B27",
"*+	c #1B1C1B",
"                                                                                ",
"                                                                                ",
"                                                                                ",
"                                                                                ",
"                                                                                ",
"                                                                                ",
"                                                                                ",
"                                                                                ",
"                                                                                ",
"              .                                                                 ",
"            + @ .                                                               ",
"          # $ % & *                                                             ",
"            = - ; > , '                                                         ",
"              ) ! ~ { ] ^                                                       ",
"                / ( _ : < [                                                     ",
"                  / } | ~ 1 2 3           4                                     ",
"                    5 5 6 7 8 9 .   0 a 4 4 4                                   ",
"                      b c d e f g h i j     4                                   ",
"                        k l m n o p q r     s t 4                               ",
"                          u v w e x y z A B C   4 4 4 4                         ",
"                          D E F G H I J K L M N r s   4 4                       ",
"                            O P Q R S T U V W X 4 Y 0   4                       ",
"                            Z `  ...+.U @.#.$.%.&.*.=.  4                       ",
"                          -.;.>.,.$ '.).!.~.$.{.].^./.4 4                       ",
"                      $ (._.:.<.[.$ }.|.1.2.3.4.5.M 6.7.8..                     ",
"                    $ v 9.0.1.a.b.c.d.e.f.g.h.4.'./ i.j._ k..                   ",
"                  $ v v 4 l.m.n.o...V p.q.r.{.$ s.t.u.v.w.x.y.z.                ",
"                $ v v v 4   A.B.C.D.c.4.E.+.[.T F.G.H.I.4 J.K.L.$               ",
"              $ v v v   4   M.N.O.P.Q.#.R.S.T.U.V.  W.  v 4     v $             ",
"          $ $ v v v     4 4 4 X.Y.Z.`.R  +.+++A @+r 4   4 4     v $ $ $         ",
"          v v v v         4 4 x   #+$+%+&+*+v.      4 4 4       v v v v         ",
"                                                                                "};
