/* XPM */
static char * can0014_xpm[] = {
"40 32 204 2",
"  	c None",
". 	c #7C976A",
"+ 	c #7E996C",
"@ 	c #58704A",
"# 	c #516843",
"$ 	c #617A52",
"% 	c #546B46",
"& 	c #506742",
"* 	c #4C613F",
"= 	c #34412C",
"- 	c #6C865C",
"; 	c #627A52",
"> 	c #546C46",
", 	c #3C4C32",
"' 	c #2B3525",
") 	c #6E875D",
"! 	c #5D754E",
"~ 	c #546B45",
"{ 	c #415337",
"] 	c #303D29",
"^ 	c #2C3826",
"/ 	c #779166",
"( 	c #5E754F",
"_ 	c #45583A",
": 	c #36432D",
"< 	c #2F3A28",
"[ 	c #283123",
"} 	c #222321",
"| 	c #728B61",
"1 	c #607751",
"2 	c #455739",
"3 	c #313D29",
"4 	c #273122",
"5 	c #272826",
"6 	c #353833",
"7 	c #6F895F",
"8 	c #495E3C",
"9 	c #425336",
"0 	c #33402B",
"a 	c #262F21",
"b 	c #222322",
"c 	c #232422",
"d 	c #282926",
"e 	c #3C4138",
"f 	c #667B57",
"g 	c #4F6242",
"h 	c #405135",
"i 	c #38462E",
"j 	c #252E20",
"k 	c #232B1E",
"l 	c #252625",
"m 	c #667B59",
"n 	c #323A2D",
"o 	c #3B4831",
"p 	c #415236",
"q 	c #313B2A",
"r 	c #2A3026",
"s 	c #242C1F",
"t 	c #1F1F1F",
"u 	c #2D302C",
"v 	c #353634",
"w 	c #2D2E2D",
"x 	c #3D4239",
"y 	c #415136",
"z 	c #2B3424",
"A 	c #272F21",
"B 	c #333731",
"C 	c #1B1C1A",
"D 	c #1C2018",
"E 	c #36412F",
"F 	c #414C3A",
"G 	c #3D4438",
"H 	c #363A35",
"I 	c #2B2C2B",
"J 	c #151613",
"K 	c #131811",
"L 	c #1F261A",
"M 	c #30342D",
"N 	c #343732",
"O 	c #383A38",
"P 	c #272726",
"Q 	c #1F241B",
"R 	c #39482F",
"S 	c #4D623F",
"T 	c #4F6442",
"U 	c #4B5E40",
"V 	c #47573E",
"W 	c #3E4838",
"X 	c #242821",
"Y 	c #11120F",
"Z 	c #0B0C09",
"` 	c #242523",
" .	c #161A14",
"..	c #324029",
"+.	c #4A5F3D",
"@.	c #4F6541",
"#.	c #4E6441",
"$.	c #506642",
"%.	c #4E6341",
"&.	c #45533C",
"*.	c #272B24",
"=.	c #0B0B0B",
"-.	c #000000",
";.	c #2C2E2B",
">.	c #1E1F1D",
",.	c #252F1F",
"'.	c #4E6440",
").	c #3D4E32",
"!.	c #2C3925",
"~.	c #36452D",
"{.	c #485C3B",
"].	c #4D6142",
"^.	c #364031",
"/.	c #111110",
"(.	c #010201",
"_.	c #6D835E",
":.	c #54634B",
"<.	c #2C302A",
"[.	c #1C211A",
"}.	c #394A30",
"|.	c #46593A",
"1.	c #222C1C",
"2.	c #080A07",
"3.	c #161C12",
"4.	c #38482E",
"5.	c #4F6542",
"6.	c #35412D",
"7.	c #080907",
"8.	c #070C04",
"9.	c #263021",
"0.	c #748D63",
"a.	c #516445",
"b.	c #384430",
"c.	c #242B20",
"d.	c #222A1E",
"e.	c #475B3A",
"f.	c #455839",
"g.	c #242D1E",
"h.	c #0A0C08",
"i.	c #12180F",
"j.	c #3D4F33",
"k.	c #516743",
"l.	c #4A5D3F",
"m.	c #2C3227",
"n.	c #070806",
"o.	c #11150E",
"p.	c #273021",
"q.	c #273022",
"r.	c #5D764E",
"s.	c #799468",
"t.	c #576C4A",
"u.	c #2B3326",
"v.	c #252922",
"w.	c #252723",
"x.	c #1F231D",
"y.	c #475A3A",
"z.	c #3F5135",
"A.	c #303E28",
"B.	c #37472E",
"C.	c #4C623F",
"D.	c #415039",
"E.	c #161815",
"F.	c #030503",
"G.	c #172014",
"H.	c #2E3828",
"I.	c #627853",
"J.	c #323D2C",
"K.	c #222421",
"L.	c #2A2F25",
"M.	c #313230",
"N.	c #272825",
"O.	c #3E4C35",
"P.	c #4E6342",
"Q.	c #506743",
"R.	c #4F6642",
"S.	c #30372D",
"T.	c #040404",
"U.	c #212220",
"V.	c #222521",
"W.	c #2F322D",
"X.	c #383A36",
"Y.	c #3E4539",
"Z.	c #45533D",
"`.	c #4A5C3F",
" +	c #485B3B",
".+	c #131612",
"++	c #060804",
"@+	c #333433",
"#+	c #343634",
"$+	c #373835",
"%+	c #393F35",
"&+	c #404A3A",
"*+	c #414B3A",
"=+	c #2A3125",
"-+	c #10130D",
";+	c #030302",
">+	c #20221F",
",+	c #252623",
"'+	c #222221",
")+	c #2A2C28",
"!+	c #1A1C19",
"~+	c #090A09",
"{+	c #030403",
"]+	c #1F201E",
"                                                                                ",
"                                                                                ",
"                                                                                ",
"                                                                                ",
"                                                                                ",
"                                                                                ",
"                                                                                ",
"                                                                                ",
"                                                                                ",
"                                                                .               ",
"                                                            + + @ #             ",
"                                                          + $ % & * =           ",
"                                                        - ; > & , '             ",
"                                                      ) ! ~ { ] ^               ",
"                                                  + / ( _ : < [                 ",
"                                    }           . | 1 2 3 4 [                   ",
"                                  } } } 5 6   + 7 8 9 0 a a                     ",
"                                  } } b c d e f g h i j k                       ",
"                              } c l     c m n o p q r s                         ",
"                        } } } }   t u v w x } y z A B                           ",
"                      } }   } } C D E F G H I J K L M                           ",
"                      }   N O P Q R S T U V W X Y Z                             ",
"                      }   6 `  ...+.@.#.@.$.%.&.*.=.-.                          ",
"                      } } ;.>.,.+.'.).!.~.{.# ].^./.(.                          ",
"                    + _.:.<.[.}.# |.1.2.3.4.# 5.6.7.8.9.#                       ",
"                  + 0.a.b.c.d.e.& f.g.h.i.j.k.l.m.n.o.p.q.#                     ",
"                r.s.t.u.v.w.x.y.# '.z.A.B.C.$.D.E.F.G.} q.q.#                   ",
"              # H.I.J.K.L.M.N.O.P.5.Q.@.R.# P.S.T.n.  U.q.q.q.#                 ",
"            # q.    V.q.  W.  X.Y.Z.`.P.$. +6..+++3.  }   q.q.q.#               ",
"        # # # q.    } }   } } @+#+$+%+&+*+=+-+;+E.>+} }     q.q.q.# #           ",
"        q.q.q.q.      } } }       ,+'+)+!+~+{+  ]+} }         q.q.q.q.          ",
"                                                                                "};
