/* XPM */
static char * can0016_xpm[] = {
"40 32 135 2",
"  	c None",
". 	c #7E996C",
"+ 	c #516843",
"@ 	c #273022",
"# 	c #718A60",
"$ 	c #627B52",
"% 	c #506642",
"& 	c #303C28",
"* 	c #222321",
"= 	c #576F49",
"- 	c #2A3425",
"; 	c #303D29",
"> 	c #4F6542",
", 	c #475B3A",
"' 	c #2C3626",
") 	c #353833",
"! 	c #4D643F",
"~ 	c #445638",
"{ 	c #697E59",
"] 	c #526645",
"^ 	c #262F21",
"/ 	c #252E20",
"( 	c #353535",
"_ 	c #343534",
": 	c #7A9469",
"< 	c #313A2C",
"[ 	c #3B4831",
"} 	c #333E2C",
"| 	c #242C1F",
"1 	c #1A1A1A",
"2 	c #0C0C0C",
"3 	c #2A2E28",
"4 	c #363735",
"5 	c #323232",
"6 	c #2C2C2C",
"7 	c #1E1E1D",
"8 	c #293223",
"9 	c #283022",
"0 	c #3A3B3A",
"a 	c #232322",
"b 	c #171B14",
"c 	c #3D4D32",
"d 	c #506742",
"e 	c #4A5C40",
"f 	c #40493A",
"g 	c #373A36",
"h 	c #292A29",
"i 	c #0C0D0A",
"j 	c #171D14",
"k 	c #252D1F",
"l 	c #191919",
"m 	c #11160E",
"n 	c #3D4E32",
"o 	c #4D633F",
"p 	c #4A5B3F",
"q 	c #3C4437",
"r 	c #181A17",
"s 	c #090A08",
"t 	c #060606",
"u 	c #405235",
"v 	c #4C613F",
"w 	c #4B603E",
"x 	c #4F6442",
"y 	c #3E4738",
"z 	c #121212",
"A 	c #000000",
"B 	c #3F463A",
"C 	c #141514",
"D 	c #283422",
"E 	c #3C4D31",
"F 	c #0A0C08",
"G 	c #182015",
"H 	c #3B4B30",
"I 	c #495A40",
"J 	c #202020",
"K 	c #3E4E33",
"L 	c #161914",
"M 	c #435637",
"N 	c #4D6340",
"O 	c #242E1E",
"P 	c #020202",
"Q 	c #242F1E",
"R 	c #4C5F40",
"S 	c #090909",
"T 	c #050803",
"U 	c #263021",
"V 	c #455939",
"W 	c #272F23",
"X 	c #2F2F2F",
"Y 	c #171817",
"Z 	c #455839",
"` 	c #3A4A30",
" .	c #131910",
"..	c #0C0F0A",
"+.	c #3E5034",
"@.	c #384132",
"#.	c #080808",
"$.	c #273021",
"%.	c #262625",
"&.	c #3D4B34",
"*.	c #506743",
"=.	c #4C623F",
"-.	c #46563D",
";.	c #1A1C19",
">.	c #010201",
",.	c #12200D",
"'.	c #2B3026",
").	c #333432",
"!.	c #383A36",
"~.	c #4B5D40",
"{.	c #4E6342",
"].	c #2F352C",
"^.	c #040404",
"/.	c #080B06",
"(.	c #2F322D",
"_.	c #353635",
":.	c #393B37",
"<.	c #434E3C",
"[.	c #4C5F41",
"}.	c #506542",
"|.	c #435537",
"1.	c #2D3727",
"2.	c #0E0F0D",
"3.	c #050703",
"4.	c #1F261C",
"5.	c #323431",
"6.	c #313130",
"7.	c #2A2A29",
"8.	c #373B35",
"9.	c #181B17",
"0.	c #040503",
"a.	c #010100",
"b.	c #091006",
"c.	c #060906",
"d.	c #0B0B0B",
"                                                                                ",
"                                                                                ",
"                                                                                ",
"                                                                                ",
"                                                                                ",
"                                                                                ",
"                                                                                ",
"                                                                                ",
"                                                                                ",
"                                                                                ",
"                                                                  .             ",
"                                                              . . + +           ",
"                                                          . . + + + + @         ",
"                                                        # $ + + % & @           ",
"                                    *               . . = + + - ; @             ",
"                                    * *         . . . > , @ ' @                 ",
"                                  * * * * )   . . ! ~ ~ @ @ @                   ",
"                              * * *     * * ) { ] ~ ~ ^ / /                     ",
"                        * * * *     ( _ * : < [ ~ } | |                         ",
"                      * *   * * 1 2 3 4 5 6 7 ~ 8 9 )                           ",
"                      *   ) 0 a b c d e f g h i j k )                           ",
"                      *   ) l m n o + + > p q r s                               ",
"                      * * ) t u + + v w + + x y z A                             ",
"                  . . . B C D + + E F G H + + I J A                             ",
"                . . K @ @ L M + N O P A Q + + R S T   U +                       ",
"                . V @ W X Y Z + d `  ...+.+ > @.#.T * $.@ +                     ",
"                + @ @ * * %.&.+ + *.=.N d + -.;.>.,.* * @ @ +                   ",
"              + @ @ * * '.).!.f ~.% + + + {.].^.t /.  * @ @ @ +                 ",
"            + @     * @   (._ _.:.<.[.}.|.1.2.3.4.    *   @ @ @ +               ",
"        + + + @     * *   * * 5.6.7.8.8.9.0.a.b.* * * *     @ @ @ + +           ",
"        @ @ @ @       * * *       c.d.A A A T   * * *         @ @ @ @           ",
"                                                                                "};
