/* XPM */
static char * can0013_xpm[] = {
"40 32 224 2",
"  	c None",
". 	c #7C976A",
"+ 	c #7E996C",
"@ 	c #6D875D",
"# 	c #59704A",
"$ 	c #718B61",
"% 	c #688259",
"& 	c #5A724C",
"* 	c #506642",
"= 	c #425437",
"- 	c #718B60",
"; 	c #647D54",
"> 	c #566E48",
", 	c #4B603E",
"' 	c #3D4E33",
") 	c #333F2B",
"! 	c #6B845B",
"~ 	c #617A52",
"{ 	c #556B46",
"] 	c #45593A",
"^ 	c #394930",
"/ 	c #303C29",
"( 	c #738D62",
"_ 	c #617952",
": 	c #506543",
"< 	c #425337",
"[ 	c #34412C",
"} 	c #2B3626",
"| 	c #789267",
"1 	c #6A835B",
"2 	c #506443",
"3 	c #3A4931",
"4 	c #2E3A28",
"5 	c #2B3525",
"6 	c #222321",
"7 	c #789367",
"8 	c #688058",
"9 	c #546946",
"0 	c #3C4B32",
"a 	c #2C3625",
"b 	c #273022",
"c 	c #232422",
"d 	c #292A28",
"e 	c #678058",
"f 	c #475B3A",
"g 	c #3E4D33",
"h 	c #2E3927",
"i 	c #252E20",
"j 	c #262F21",
"k 	c #222322",
"l 	c #242523",
"m 	c #2B2C29",
"n 	c #41473B",
"o 	c #647955",
"p 	c #4D6040",
"q 	c #3D4D33",
"r 	c #34402C",
"s 	c #252D20",
"t 	c #232522",
"u 	c #5D6F52",
"v 	c #333B2E",
"w 	c #3B4831",
"x 	c #3F5035",
"y 	c #303929",
"z 	c #2C3228",
"A 	c #2E302D",
"B 	c #343533",
"C 	c #2B2C2B",
"D 	c #42493D",
"E 	c #252724",
"F 	c #3F4E35",
"G 	c #2B3524",
"H 	c #262E20",
"I 	c #32362F",
"J 	c #1E1F1D",
"K 	c #1D1F1A",
"L 	c #30382C",
"M 	c #3D4537",
"N 	c #3A4036",
"O 	c #383C36",
"P 	c #2C2E2C",
"Q 	c #191A17",
"R 	c #131711",
"S 	c #1B2117",
"T 	c #2A2E27",
"U 	c #2A2B29",
"V 	c #252624",
"W 	c #1E211C",
"X 	c #293223",
"Y 	c #405035",
"Z 	c #4A5C3E",
"` 	c #495A3F",
" .	c #45543D",
"..	c #3E4938",
"+.	c #2A2F26",
"@.	c #171915",
"#.	c #0E0F0C",
"$.	c #31342F",
"%.	c #323431",
"&.	c #242623",
"*.	c #262D20",
"=.	c #3C4C31",
"-.	c #4E6441",
";.	c #4F6441",
">.	c #4D6241",
",.	c #47573D",
"'.	c #31382C",
").	c #151714",
"!.	c #050505",
"~.	c #252824",
"{.	c #2E302C",
"].	c #262825",
"^.	c #1E231B",
"/.	c #32402A",
"(.	c #485C3B",
"_.	c #3B4B31",
":.	c #39492F",
"<.	c #445738",
"[.	c #4E6440",
"}.	c #4E6342",
"|.	c #3E4C37",
"1.	c #1E221C",
"2.	c #070807",
"3.	c #2F332B",
"4.	c #2D312B",
"5.	c #232622",
"6.	c #262F22",
"7.	c #405335",
"8.	c #38482F",
"9.	c #1D2518",
"0.	c #181F14",
"a.	c #2D3A25",
"b.	c #405036",
"c.	c #1C2118",
"d.	c #080B05",
"e.	c #1C2518",
"f.	c #516843",
"g.	c #506145",
"h.	c #617453",
"i.	c #57674C",
"j.	c #3B4536",
"k.	c #232921",
"l.	c #2F3B28",
"m.	c #485D3C",
"n.	c #34422B",
"o.	c #161C13",
"p.	c #0E120C",
"q.	c #273321",
"r.	c #475B3B",
"s.	c #4E6241",
"t.	c #3B4733",
"u.	c #191C16",
"v.	c #0C0F0A",
"w.	c #1D2618",
"x.	c #536A45",
"y.	c #4A5A3F",
"z.	c #667C57",
"A.	c #607652",
"B.	c #414F37",
"C.	c #2E3829",
"D.	c #23291F",
"E.	c #323E2A",
"F.	c #415336",
"G.	c #2F3C27",
"H.	c #2A3623",
"I.	c #3B4C31",
"J.	c #4D6340",
"K.	c #4A5D3E",
"L.	c #0D0F0D",
"M.	c #0D110C",
"N.	c #1C201A",
"O.	c #2E3828",
"P.	c #586C4C",
"Q.	c #6B835C",
"R.	c #44533B",
"S.	c #2D3527",
"T.	c #2C302A",
"U.	c #232621",
"V.	c #2E3629",
"W.	c #475A3C",
"X.	c #4F6542",
"Y.	c #4D6240",
"Z.	c #495D3D",
"`.	c #44543B",
" +	c #20251E",
".+	c #050605",
"++	c #080A07",
"@+	c #1F201E",
"#+	c #4E5E44",
"$+	c #303C28",
"%+	c #2E312C",
"&+	c #2F332C",
"*+	c #3F4938",
"=+	c #47553E",
"-+	c #4A5C3F",
";+	c #4D6141",
">+	c #4F6442",
",+	c #445638",
"'+	c #2D3626",
")+	c #0F120E",
"!+	c #090D07",
"~+	c #212320",
"{+	c #292D26",
"]+	c #222421",
"^+	c #373936",
"/+	c #3A3F37",
"(+	c #3D4438",
"_+	c #404A39",
":+	c #44513C",
"<+	c #404B38",
"[+	c #282F23",
"}+	c #0E110C",
"|+	c #070806",
"1+	c #191B18",
"2+	c #212220",
"3+	c #2F332D",
"4+	c #262725",
"5+	c #2C2E2A",
"6+	c #2F342C",
"7+	c #1D201B",
"8+	c #0C0D0B",
"9+	c #050703",
"0+	c #191A18",
"a+	c #20211F",
"                                                                                ",
"                                                                                ",
"                                                                                ",
"                                                                                ",
"                                                                                ",
"                                                                                ",
"                                                                                ",
"                                                                                ",
"                                                              .                 ",
"                                                            + @ #               ",
"                                                          $ % & * =             ",
"                                                        - ; > , ' )             ",
"                                                      ! ~ { ] ^ /               ",
"                                                    ( _ : < [ }                 ",
"                                                  | 1 2 3 4 5                   ",
"                                    6           7 8 9 0 a b                     ",
"                                  6 6 c d     . e f g h i j                     ",
"                                  6 6 k l m n o p q r s                         ",
"                                c l     t u v w x y z                           ",
"                              6 c k A B C D E F G H I                           ",
"                        6 6 6 6 J K L M N O P Q R S T                           ",
"                        6   U V W X Y Z `  ...+.@.#.                            ",
"                      6 c $.%.&.*.=., -.-.;.>.,.'.).!.~.                        ",
"                        6 {.].^./.(.f _.:.<.[.}.|.1.2.                          ",
"                        3.4.5.6.7., 8.9.0.a.f * b.c.d.e.f.                      ",
"                    g.h.i.j.k.l.m., n.o.p.q.r.s.t.u.v.w.b f.                    ",
"                x.y.z.A.B.C.D.E., [.F.G.H.I.J.K.C.L.M.N.b b f.                  ",
"              f.O.P.Q.R.S.T.U.V.W.X.Y.Z.m.J.* `. +.+++@+b b b f.                ",
"            f.b     #+$+  %+  &+*+=+-+;+>+[.,+'+)+!+  ~+  b b b f.              ",
"        f.f.f.b     {+]+  6 c %.^+/+(+_+:+<+[+}+|+1+2+6     b b b f.f.          ",
"        b b b b       6 6 6     3+4+5+3+6+7+8+9+0+a+6         b b b b           ",
"                                                                                "};
