/* XPM */
static char * man0005_xpm[] = {
"32 43 21 1",
" 	c None",
".	c #FFFFFF",
"+	c #C4C4C4",
"@	c #000000",
"#	c #494949",
"$	c #686868",
"%	c #847131",
"&	c #C1A947",
"*	c #666146",
"=	c #3E7031",
"-	c #54491F",
";	c #3B7530",
">	c #27491F",
",	c #060705",
"'	c #487F42",
")	c #334C1D",
"!	c #45631E",
"~	c #54723C",
"{	c #5FA058",
"]	c #565656",
"^	c #0C0C0C",
"          .............         ",
"        ...++.++........        ",
"       ..++...+.....+.....      ",
"      ..++....+.....++.....     ",
"     ...+.....+......+......    ",
"    ...++.....+......++......   ",
"   ....+......+.......+.......  ",
"  .....+......+.......+........ ",
" ......+......+................ ",
".......+.......+++++@...+++++..@",
"....++...++++.++++++@@.+++++++.@",
"...+++@.+++++@+++++++@++++++++++",
"..++++@++++++@++++++++@+++++@@++",
"@+++++##@@@@@#@@@@@#@ #@@@#  @@#",
"##@@@@##     #     #     ##   ##",
"$#     #     #     #     #   ## ",
"$ #    ##    #     #    #    #  ",
"  ##    #    #     #   ##   ##  ",
"   ##    #   ##   ##   #   ##   ",
"    #    ##   #   #   ##   #    ",
"    ##    #   #   #   #   #     ",
"     ##   ##  #   #  ##  ##     ",
"      ##   #  #   #  #   #      ",
"       #    # ## ## ##  #       ",
"       ##   ## # ## #  ##       ",
"        #    ### # ## ##        ",
"         %&  #****##  %&        ",
"         %&   *****   %&        ",
"          %=  *-%-*   %         ",
"          === &%&%&  ;>         ",
"          >==  %%%  ;;>         ",
"           >==  %  ;;>          ",
"            >=,='',;>           ",
"             >,='',>            ",
"              ,==',             ",
"              ,@@@@             ",
"              )!~~{             ",
"             )!~)){             ",
"             )~{ )!{            ",
"            )~~   ~{            ",
"            )]@   @]            ",
"          ^]]]@   @]]@          ",
"          ^^^@@   @@@@          "};
