/* XPM */
static char * manicon_xpm[] = {
"11 18 2 1",
" 	c None",
".	c #000000000000",
"   .....   ",
"  .......  ",
" ......... ",
"...........",
". ... ... .",
".  .   .  .",
" .       . ",
"  . ... .  ",
"  .......  ",
"    ...    ",
"     .     ",
"    ...    ",
"   . . .   ",
"  .  .  .  ",
"     .     ",
"    . .    ",
"   .   .   ",
"  .     .  "};
