/* XPM */
static char * edit_redo_xpm[] = {
"18 17 70 1",
" 	c None",
".	c #1E472E",
"+	c #234E33",
"@	c #1B4029",
"#	c #1B422A",
"$	c #AFBEBA",
"%	c #DBEADF",
"&	c #C1CECC",
"*	c #214A30",
"=	c #224B31",
"-	c #163321",
";	c #BFD0C8",
">	c #90BD9F",
",	c #227D37",
"'	c #C0D1C9",
")	c #245135",
"!	c #153220",
"~	c #BDCEC7",
"{	c #2F9645",
"]	c #3BB057",
"^	c #43BA5C",
"/	c #224B30",
"(	c #173A23",
"_	c #143120",
":	c #38774E",
"<	c #1E4335",
"[	c #0B281E",
"}	c #143D29",
"|	c #3FAF57",
"1	c #42B75B",
"2	c #7BA08A",
"3	c #0F2417",
"4	c #081914",
"5	c #050E0D",
"6	c #123926",
"7	c #36A34D",
"8	c #9DC6AA",
"9	c #88AB9C",
"0	c #C2DBCA",
"a	c #040B06",
"b	c #0A1F18",
"c	c #0D3525",
"d	c #2A8F3D",
"e	c #CFE0D4",
"f	c #0A1910",
"g	c #0D2419",
"h	c #030C0B",
"i	c #041714",
"j	c #259039",
"k	c #3E9951",
"l	c #B2D1BC",
"m	c #03090A",
"n	c #071112",
"o	c #55AE72",
"p	c #5AB975",
"q	c #5AA77B",
"r	c #468166",
"s	c #000001",
"t	c #10211F",
"u	c #03080A",
"v	c #010003",
"w	c #020005",
"x	c #000000",
"y	c #14311F",
"z	c #050B0C",
"A	c #162D26",
"B	c #050D0E",
"C	c #142724",
"D	c #090F10",
"E	c #050A0C",
"                  ",
"                  ",
"     ..+          ",
"   @#$%&*=        ",
"  -;>,,,%'*    )  ",
" !~,,{]^,,%/  )(  ",
" _,:<[[}|1,%*)2(  ",
"3,)4    567,890(  ",
"a,b       c7,de(  ",
"fgh       i,jkl(  ",
" mn      4,opqr(  ",
" stu    vvvwvvxy  ",
"  zA5             ",
"   BCD            ",
"     sEs          ",
"                  ",
"                  "};
