/* XPM */
static char * edit_undo_xpm[] = {
"18 17 70 1",
" 	c None",
".	c #234E33",
"+	c #1E472E",
"@	c #224B31",
"#	c #214A30",
"$	c #C1CECC",
"%	c #DBEADF",
"&	c #AFBEBA",
"*	c #1B422A",
"=	c #1B4029",
"-	c #245135",
";	c #C0D1C9",
">	c #227D37",
",	c #90BD9F",
"'	c #BFD0C8",
")	c #163321",
"!	c #173A23",
"~	c #224B30",
"{	c #43BA5C",
"]	c #3BB057",
"^	c #2F9645",
"/	c #BDCEC7",
"(	c #153220",
"_	c #7BA08A",
":	c #42B75B",
"<	c #3FAF57",
"[	c #143D29",
"}	c #0B281E",
"|	c #1E4335",
"1	c #38774E",
"2	c #143120",
"3	c #C2DBCA",
"4	c #88AB9C",
"5	c #9DC6AA",
"6	c #36A34D",
"7	c #123926",
"8	c #050E0D",
"9	c #081914",
"0	c #0F2417",
"a	c #CFE0D4",
"b	c #2A8F3D",
"c	c #0D3525",
"d	c #0A1F18",
"e	c #040B06",
"f	c #B2D1BC",
"g	c #3E9951",
"h	c #259039",
"i	c #041714",
"j	c #030C0B",
"k	c #0D2419",
"l	c #0A1910",
"m	c #468166",
"n	c #5AA77B",
"o	c #5AB975",
"p	c #55AE72",
"q	c #071112",
"r	c #03090A",
"s	c #14311F",
"t	c #000000",
"u	c #010003",
"v	c #020005",
"w	c #03080A",
"x	c #10211F",
"y	c #000001",
"z	c #162D26",
"A	c #050B0C",
"B	c #090F10",
"C	c #142724",
"D	c #050D0E",
"E	c #050A0C",
"                  ",
"                  ",
"        .++       ",
"      @#$%&*=     ",
"-    #;%>>>,')    ",
"!-  ~%>>{]^>>/(   ",
"!_-#%>:<[}}|1>2   ",
"!345>678    9->0  ",
"!ab>6c       d>e  ",
"!fgh>i       jkl  ",
"!mnop>9      qr   ",
"stuuvuuu    wxy   ",
"           8zA    ",
"          BCD     ",
"        yEy       ",
"                  ",
"                  "};
