/* XPM */
static char *a[] = {
/* width height num_colors chars_per_pixel */
"     9     8        2            1",
/* colors */
". c None",
"# c #000000",
/* pixels */
"......#.#",
"......#.#",
"......###",
"#...#...#",
".#.#..###",
"..#......",
".#.#.....",
"#...#...."
};
