/* XPM */
static char * capslock_xpm[] = {
"4 4 3 1",
" 	c None",
".	c #545454",
"+	c #000000",
".++.",
"+   ",
"+   ",
".++."};
