/* XPM */
static char * numlock_xpm[] = {
"4 4 3 1",
" 	c None",
".	c #000000",
"+	c #545454",
".+ .",
"..+.",
".+..",
". +."};
