/* XPM */
static char * sound_off_xpm[] = {
"16 16 3 1",
" 	c None",
".	c #000000000000",
"X	c #FFFF00000000",
"                ",
"                ",
"                ",
"     .          ",
"    ..          ",
"   ...   X   X  ",
"......  XXX XXX ",
"......   XXXXX  ",
"......    XXX   ",
"......   XXXXX  ",
"......  XXX XXX ",
"   ...   X   X  ",
"    ..          ",
"     .          ",
"                ",
"                "};
