/* XPM */
static char * sound_on_xpm[] = {
"16 16 3 1",
" 	c None",
".	c #FFFF00000000",
"X	c #000000000000",
"            .   ",
"            ..  ",
"          .  .  ",
"     X  .  . .  ",
"    XX  .. .  . ",
"   XXX   . .. . ",
"XXXXXX . .  . ..",
"XXXXXX . .. . ..",
"XXXXXX . .. . ..",
"XXXXXX . .. . ..",
"XXXXXX . .  . ..",
"   XXX   . .. . ",
"    XX  .  .  . ",
"     X     . .. ",
"          .  .  ",
"            ..  "};
