/* XPM */
static char * start_button_xpm[] = {
"50 16 7 1",
" 	c None",
".	c #707070",
"+	c #FFFFFF",
"@	c #000000",
"#	c #008200",
"$	c #C0C0C0",
"%	c #B7B500",
".++++++++++++++++++++++++++++++++++++++++++++++++@",
"+##############$$$$$$$$$$$$$$$$$$$$$$$$$$$$$$$$$$@",
"+####@@@@@@####$$$$$$$$$$$$$$$$$$$$$$$$$$$$$$$$$$@",
"+###@@@@@@@@###$$$@@@@$$$$@$$$$$$$$$$$$$$$$$$@$$$@",
"+##@@#####@@@##$$@@$$@@$$@@$$$$$$$$$$$$$$$$$@@$$$@",
"+#@@#######@@@#$$@@$$$$$@@@@@$$@@@@$$$@@$@@@@@@@$@",
"+#@#########@@#$$@@@$$$$$@@$$$@@$$@@$$@@$@@$@@$$$@",
"+#@###@%@###@@#$$$@@@@$$$@@$$$$$$$@@$$@@@$$$@@$$$@",
"+#@###%%%###@@#$$$$$@@@$$@@$$$$@@@@@$$@@$$$$@@$$$@",
"+#@###@%@###@@#$$$$$$@@$$@@$$$@@$$@@$$@@$$$$@@$$$@",
"+#@#########@@#$$@@$$@@$$@@$$$@@$$@@$$@@$$$$@@$$$@",
"+#@@########@@#$$$@@@@$$$$@@@$$@@@$@@$@@$$$$$@@@$@",
"+##@@######@@@#$$$$$$$$$$$$$$$$$$$$$$$$$$$$$$$$$$@",
"+###@@####@@@##$$$$$$$$$$$$$$$$$$$$$$$$$$$$$$$$$$@",
"+####@@@@@@@###$$$$$$$$$$$$$$$$$$$$$$$$$$$$$$$$$$@",
"@@@@@@@@@@@@@@@@@@@@@@@@@@@@@@@@@@@@@@@@@@@@@@@@@@"};
