/* XPM */
static char * start_xpm[] = {
"50 16 10 1",
" 	c None",
".	c #707070",
"+	c #FFFFFF",
"@	c #000000",
"#	c #99CC00",
"$	c #C0C0C0",
"%	c #666600",
"&	c #333300",
"*	c #336600",
"=	c #003300",
".++++++++++++++++++++++++++++++++++++++++++++++++@",
"+##############$$$$$$$$$$$$$$$$$$$$$$$$$$$$$$$$$$@",
"+#####%&&*#####$$$$$$$$$$$$$$$$$$$$$$$$$$$$$$$$$$@",
"+###*@@@@@@%###$$$@@@@$$$$@$$$$$$$$$$$$$$$$$$@$$$@",
"+##*@@%##%@@%##$$@@$$@@$$@@$$$$$$$$$$$$$$$$$@@$$$@",
"+##@@######@@##$$@@$$$$$@@@@@$$@@@@$$$@@$@@@@@@@$@",
"+#%@%###&@#%@*#$$@@@$$$$$@@$$$@@$$@@$$@@$@@$@@$$$@",
"+#&@###&@&##@&#$$$@@@@$$$@@$$$$$$$@@$$@@@$$$@@$$$@",
"+#&@##&@@&##@&#$$$$$@@@$$@@$$$$@@@@@$$@@$$$$@@$$$@",
"+#*@%#@&&@&*@%#$$$$$$@@$$@@$$$@@$$@@$$@@$$$$@@$$$@",
"+##@@####&@@@##$$@@$$@@$$@@$$$@@$$@@$$@@$$$$@@$$$@",
"+##%@@%##*@@@##$$$@@@@$$$$@@@$$@@@$@@$@@$$$$$@@@$@",
"+###%@@@@@@=@%#$$$$$$$$$$$$$$$$$$$$$$$$$$$$$$$$$$@",
"+#####*&&%##%##$$$$$$$$$$$$$$$$$$$$$$$$$$$$$$$$$$@",
"+##############$$$$$$$$$$$$$$$$$$$$$$$$$$$$$$$$$$@",
"@@@@@@@@@@@@@@@@@@@@@@@@@@@@@@@@@@@@@@@@@@@@@@@@@@"};
