/* XPM */
static char *bg_xpm[] = {
/* width height ncolors chars_per_pixel */
"32 32 85 1",
/* colors */
"  c #618B80",
". c #52776E",
"X c #5F897E",
"o c #5E877D",
"O c #5D877C",
"+ c #5C857B",
"@ c #5A8379",
"# c #557A70",
"$ c #54786F",
"% c #53786E",
"& c #52766D",
"* c #5F887D",
"= c #50746B",
"- c #5D867B",
"; c #5C847A",
": c #5B8479",
"> c #5A8278",
", c #588076",
"< c #628E83",
"1 c #52756C",
"2 c #50736A",
"3 c #4F7169",
"4 c #4E7168",
"5 c #5C8379",
"6 c #4D6F67",
"7 c #5B8378",
"8 c #5A8177",
"9 c #587F75",
"0 c #577D74",
"q c #567D73",
"w c #557B72",
"e c #628D82",
"r c #618B81",
"t c #608B80",
"y c #5F897F",
"u c #5E897E",
"i c #4E7067",
"p c #587E74",
"a c #577C73",
"s c #567C72",
"d c #557A71",
"f c #547A70",
"g c #53786F",
"h c #608A7F",
"j c #51766D",
"k c #5F887E",
"l c #5E887D",
"z c #5D867C",
"x c #5B847A",
"c c #54796F",
"v c #53776E",
"b c #52776D",
"n c #51756C",
"m c #5E877C",
"M c #4F736A",
"N c #5D857B",
"B c #5C857A",
"V c #5B8379",
"C c #5A8378",
"Z c #598177",
"A c #638F84",
"S c #53766D",
"D c #52766C",
"F c #51746B",
"G c #4F7269",
"H c #4E7068",
"J c #5C8479",
"K c #5B8278",
"L c #598076",
"P c #587E75",
"I c #577E74",
"U c #567C73",
"Y c #557C72",
"T c #638E83",
"R c #547A71",
"E c #618C81",
"W c #608A80",
"Q c #5F8A7F",
"! c #5E887E",
"~ c #4F7168",
"^ c #577D73",
"/ c #567B72",
"( c #557B71",
") c #547970",
"_ c #53796F",
/* pixels */
"^8;okzLfn1(>mk+Lf1F.^+yQB0&~63j#",
"L8Vxx>Uv2ndZB;L(12G&^;ll>d2H~Dw9",
"V>88Z9d&21d9>L/v2G=$^VzzZ)22v^>x",
"zVLLLId&F&(9LI(g&&v(I>B;L(v)p;!*",
"oVLLLI(g.)U9L9I^ssU098VV8IU9;hEt",
"N>999IU((q9>V;;xV>88L88>8L9KmtEy",
"Z0//U0III9>+lQQQ!oB;>8888LL8;oOx",
"(g.v)sI998:oteEtyo+;>8LLL9I9LL9a",
"1F2FvwI9L8;lttho;>LL88LL99IU/d$v",
"F2=&)q9LL8;oWhO>0d)sPLL999IUdgbn",
"$g$fs98VVV-XWl>/nMFc0L9IIIIIUsd)",
"99II9>;zzOXttmp&4HFdLK8I009LLLLL",
"N:8LLVoWhhtEX>$GiMcLNmV9(wI8;-OO",
"kBL9L;yEtWyl7(2HGg,O t+PfdIKOtEt",
"z8as9+QEhoV9)2HGvI;he ;U%g^VXeEQ",
">q_)I;Qro@svGHGSsZ-htu8d&vsVQeWO",
"YvF.U:XyB0&3HGvs98;zz5IgF1/Vly-L",
"&F2&s7ol>(242gIZ>>>K>L(&21/>N+L(",
"F22vs8NNZdnn),;-;>LLLI)&2&/LKL/v",
"11&)q8;;8q)(LOhhzVLL90#&n%sLL0fv",
"((wUIL>V89IL+tetz>L99Iwcg(099I^/",
">8ZLLL888LL>zWt!;LI0II^UUIL>7VV7",
"lzBV>8LLL99LK;:8Iw)#(0I998xzkXXX",
"Wlz;>8LL99IIIIUdg&&&cs9LVzXEeeEt",
"+V8888LL99IUd)v&=22Fgs9VOt<A<Eyo",
"9s(s9LL999I0(f%&111%dI>ztAAeQoB>",
"v=F$q99III99IIUs(((s0L;QTAEXB>PR",
"3H2)9>8I009L>7VV>ZL9LKoEAelxL^)n",
"63vp;zV9wsI>+lXXo;89L;Q<eQ;L^)FH",
"~&0+ht-9ddI7lEErl:9IL+t< zZ^)n46",
"&sVyeENI$gU7XEEQJ9(dP+tEkxI)FH6G",
"d9+hEyC/&b/>XrXN9#b$I+htzL)n46GS"
};
