/* XPM */
static char * faded_bg_xpm[] = {
"32 32 40 1",
" 	c None",
".	c #B5C5C1",
"+	c #B6C7C3",
"@	c #B7C9C4",
"#	c #B8CAC5",
"$	c #B8CAC6",
"%	c #B7C9C5",
"&	c #B6C7C2",
"*	c #B3C4C0",
"=	c #B2C2BE",
"-	c #B3C2BE",
";	c #B6C8C3",
">	c #B2C1BE",
",	c #B3C3BE",
"'	c #B8CBC7",
")	c #B1C0BC",
"!	c #B1BFBC",
"~	c #B6C8C4",
"{	c #B6C9C4",
"]	c #B4C5C1",
"^	c #B1C1BD",
"/	c #B1C1BC",
"(	c #B3C4C1",
"_	c #B5C7C2",
":	c #B4C4C1",
"<	c #B1C1BE",
"[	c #B3C3BF",
"}	c #B5C6C1",
"|	c #B9CBC7",
"1	c #B9CCC7",
"2	c #B7CAC5",
"3	c #B9CCC8",
"4	c #B5C6C2",
"5	c #B8CBC6",
"6	c #B3C4BF",
"7	c #B3C5C1",
"8	c #B7C8C4",
"9	c #B9CDC8",
"0	c #BACDC9",
"a	c #BACDC8",
".+@#$%&*=-*;#$@&*->,.@''@.-)!)=*",
"&+~{{;],^=*+@@&*-^/-.@##;*^))-(_",
"~;+++_*-^-*_;&:,^/<[.~%%+*^^,.;{",
"%~&&&}*->-*_&}*[--,*};@@&*,*}@$#",
"#~&&&}*[,*]_&_}.]]]._+~~+}]_@|11",
"@;___}]**]_;~@@{~;++&++;+&_;#11'",
"+.::].}}}_;@#'''$#@@;++++&&+@#2{",
"*[,,*]}__+{#1311'#@@;+&&&_}_&&_.",
"->^>,(}_&+@#11|#@;&&++&&__}]:*[,",
">^<-*]_&&+@#||2;.**]4&&___}]*[,=",
"[[[*]_+~~~@5|#;:=^>6.&_}}}}}]]**",
"__}}_;@%%2511#}-))>*&;+}.._&&&&&",
"@{+&&~#|||115;[/)^6&@#~_*(}+@@22",
"$@&_&@'11|'#;*^)/[_211@4**};2111",
"%+.]_@'1|#~_*^)/,}@|31@],[.~531'",
";]6*}@'1#~],/)/-]+@|15+*-,]~'3|2",
"7,>,]{5'@.-))/,]_+@%%8}[>-:~#'@&",
"->^-];##;*^)^[}+;;;;;&*-^-:;@@&*",
">^^,]+@@+*==*_@@@;&&&}*-^-:&;&:,",
"---*]+@@+]**&2||%~&&_.*-=,]&&.*,",
"**(]}&;~+_}&@131%;&__}(6[*.__}.:",
";++&&&+++&&;%|1$@&}.}}.]]}&;;~~;",
"#%@~;+&&&__&;@{+}(***.}__+{%$555",
"|#%@;+&&__}}}}]*[---6]_&~%513311",
"@~++++&&__}]**,-<^^>[]_~219091'#",
"_]*]_&&___}.**,----,*};%1003'#@;",
",<>[]__}}}__}}]]***].&@'a015@;4*",
"))^*_;+}.._&;;~~;+&_&;#103#{&.*=",
"!),}@%~_(]};@#55#@+_&@'93'@&.*>)",
")-.@|1@_**};#111#{_}&@191%+.*=)!",
"-]~'31@}[[];511'@_**4@11${}*>)!/",
"*_@|1';:-,:;515@_*,[}@|1%&*=)!/-"};
