/* XPM */
static char * mouse_xpm[] = {
"16 16 4 1",
" 	c None",
".	c #BBBBBBBBBBBB",
"X	c #000000000000",
"o	c #FFFF0000FFFF",
"      ..        ",
"     ....       ",
"    .X..X.      ",
"  oo.X..X.oo    ",
"  o........o    ",
"   ........     ",
"   ........     ",
"   ........     ",
"   ........     ",
"    ......      ",
"     ....       ",
"      .         ",
"      .  ..     ",
"       ..  .    ",
"           .    ",
"                "};
