/* XPM */
static char * s5_xpm[] = {
"16 16 9 1",
" 	c None",
"*	c #5E6B3D",
"&	c #6A793C",
"%	c #76873B",
"$	c #82953A",
"#	c #8EA238",
"@	c #9AB037",
"+	c #A6BE36",
".	c #B1CC35",
"                ",
"                ",
"                ",
"                ",
"...             ",
"++++++          ",
"@@@@@@#$        ",
"########$       ",
"$$$$$$$$$$      ",
"%%%%$$$%$$      ",
"&&&%$$%%&%&     ",
"*%*#$%#%&&&     ",
"  %#####%&&     ",
"   ##+@%$%&*    ",
"    @+@#$%&*    ",
"    .+@#$%&*    "};
