/* XPM */
static char * s3[] = {
"16 16 10 1",
" 	c None",
".	c #FF7F00",
"+	c #B1CC35",
"#	c #A6BE36",
"$	c #9AB037",
"&	c #8EA238",
"=	c #82953A",
";	c #76873B",
",	c #6A793C",
")	c #5E6B3D",
"                ",
"                ",
"                ",
"                ",
"             +++",
"          +++###",
"        ++##$$$$",
"       +##$$&&&&",
"      +#$&======",
"      +#$&=;;;;;",
"     +#$&=;,,,,,",
"     +#$&=;,))))",
"     +#$&=;,))  ",
"    +#$&=;,))   ",
"    +#$&=;,)    ",
"    +#$&=;,)    "};
