/* XPM */
static char * t2_xpm[] = {
"16 16 9 1",
" 	c None",
".	c #8E8EA2A23838",
"X	c #828295953A3A",
"o	c #9A9AB0B03737",
"O	c #767687873B3B",
"+	c #A6A6BEBE3636",
"@	c #6A6A79793C3C",
"#	c #B1B1CCCC3535",
"$	c #5E5E6B6B3D3D",
"                ",
"       .X       ",
"       .X       ",
"      o.XO      ",
"      o.XO      ",
"      o.XO      ",
"     +o.XO@     ",
"     +o.XO@     ",
"     +o.XO@     ",
"     +o.XO@     ",
"    #+o.XO@$    ",
"    #+o.XO@$    ",
"    #+o.XO@$    ",
"    #+o.XO@$    ",
"    #+o.XO@$    ",
"    #+o.XO@$    "};
