/* XPM */
static char * h1_xpm[] = {
"16 16 10 1",
" 	c None",
"@	c #000000000000",
".	c #9A9AB0B03737",
"X	c #8E8EA2A23838",
"o	c #828295953A3A",
"O	c #767687873B3B",
"+	c #A6A6BEBE3636",
"#	c #6A6A79793C3C",
"$	c #B1B1CCCC3535",
"%	c #5E5E6B6B3D3D",
"                ",
"                ",
"      .XoO      ",
"     +.XoO#     ",
"    +.XXooO#    ",
"    +.XXooO#    ",
"    .X@Xo@oO    ",
"   +.@XXoo@O#   ",
"   +.XXXoooO#   ",
"   +.XXXoooO#   ",
"   +.XXXoooO#   ",
"   +.XXXoooO#   ",
"   +.+.XoO#O#   ",
"   +$+.XoO#%#   ",
"    $+.XoO#%    ",
"    $+.XoO#%    "};
