/* XPM */
static char * t3_xpm[] = {
"16 16 9 1",
" 	c None",
".	c #B1B1CCCC3535",
"X	c #A6A6BEBE3636",
"o	c #9A9AB0B03737",
"O	c #8E8EA2A23838",
"+	c #828295953A3A",
"@	c #767687873B3B",
"#	c #6A6A79793C3C",
"$	c #5E5E6B6B3D3D",
"                ",
"                ",
"                ",
"                ",
"......          ",
"XXXXXXXXXX      ",
"ooooooooooooo   ",
"OOOOOOOOOOOOOOO ",
"+++++++++++++++ ",
"@@@@@@@@@@@@@   ",
"##########      ",
"$$$$$$          ",
"                ",
"                ",
"                ",
"                "};
