/* XPM */
static char * light_off_xpm[] = {
"16 16 4 1",
" 	c None",
".	c #000000000000",
"X	c #6B6B6C6C6C6C",
"o	c #FFFF6C6C0000",
"                ",
"                ",
"       ...      ",
"      .   .     ",
"     .    X.    ",
"    .      X.   ",
"    .    XXX.   ",
"    .   X XX.   ",
"     .   XX.    ",
"     .  XXX.    ",
"      .  X.     ",
"      .  X..    ",
"      .ooo..    ",
"      .ooo..    ",
"       .o..     ",
"        ..      "};
