/* XPM */
static char * light_on_xpm[] = {
"16 16 5 1",
" 	c None",
".	c #FFFFFFFF0000",
"X	c #000000000000",
"o	c #FFFFFFFFFFFF",
"O	c #FFFF6C6C0000",
"     .      .   ",
"   .  .    .    ",
"    .  XXX    . ",
"      XoooX  .  ",
"     Xoooo.X    ",
" .. Xoooooo.X   ",
"    Xoooo...X ..",
"    Xooo.o..X   ",
" ..  Xooo..X    ",
"     Xoo...X    ",
"    . Xoo.X  .  ",
"   .  Xoo.XX  . ",
"      XOOOXX    ",
"      XOOOXX    ",
"       XOXX     ",
"        XX      "};
